<svg width="240" height="240" viewBox="0 0 240 240" fill="none" xmlns="http://www.w3.org/2000/svg">
<g clip-path="url(#clip0_409_8524)">
<rect width="240" height="240" fill="#00A4EF"/>
<path d="M207.38 106.91C201.04 106.91 195.19 109 190.48 112.53L146.43 59.82C149.5 55.03 151.28 49.34 151.28 43.22C151.28 26.18 137.47 12.37 120.43 12.37C103.39 12.37 89.5799 26.18 89.5799 43.22C89.5799 50.64 92.1999 57.45 96.5699 62.77L45.3899 109.96C41.5499 108.01 37.2199 106.9 32.6199 106.9C17.0299 106.9 4.3999 119.53 4.3999 135.12C4.3999 150.71 17.0299 163.34 32.6199 163.34C40.6899 163.34 47.9599 159.95 53.0999 154.52L97.8299 182.47C94.2999 187.18 92.1999 193.04 92.1999 199.38C92.1999 214.97 104.83 227.6 120.42 227.6C136.01 227.6 148.64 214.97 148.64 199.38C148.64 192.49 146.17 186.18 142.07 181.28L185.41 152.83C190.58 159.24 198.5 163.34 207.37 163.34C222.96 163.34 235.59 150.71 235.59 135.12C235.59 119.53 222.96 106.9 207.37 106.9L207.38 106.91ZM55.7199 118.92L107.46 71.21C109.42 72.12 111.49 72.83 113.65 73.32V172.01C112.09 172.4 110.58 172.91 109.13 173.54L59.7999 142.72C60.4699 140.31 60.8399 137.76 60.8399 135.14C60.8399 129.1 58.9399 123.51 55.7099 118.93L55.7199 118.92ZM130.16 172.89C129.21 172.54 128.23 172.25 127.23 172V73.32C130.66 72.55 133.87 71.21 136.76 69.41L181.78 123.29C180.11 126.89 179.17 130.91 179.17 135.14C179.17 136.94 179.35 138.69 179.67 140.4L130.16 172.9V172.89Z" fill="white"/>
</g>
<defs>
<clipPath id="clip0_409_8524">
<rect width="240" height="240" fill="white"/>
</clipPath>
</defs>
</svg>
