<svg fill="#066AA1" version="1.1" xmlns="http://www.w3.org/2000/svg" xmlns:xlink="http://www.w3.org/1999/xlink" x="0px" y="0px" viewBox="0 0 68 68">
<g>
	<path  d="M21.7,51.6c0-4.9,0-9.7,0-14.6c3.7-2.3,7.4-4.8,10.5-7.8c0.2-0.2,0.1-0.9,0-1.1c-1.3-3-2.4-6.3-2.4-9.7
		c0-1.8,0-5.3,4.5-5.3V9.7c-2.7,0-8.1,1.1-8.1,8.8c0,3.2,0.9,6.3,2.1,9.6c-1.4,1.3-3,2.4-4.5,3.4c-0.3-0.2-0.6-0.4-0.9-0.6
		c0.9-2.7,1.7-5.4,1.7-8c0-1.3,0-8-7.3-8c-7.3,0-7.3,6.3-7.3,8c0,2.2,0.5,4.9,1.7,8c-1,1-4.7,2.9-5,3.2c-0.3,0.2-0.7,1.2-0.4,2.2
		c3.9,13.9,15.1,22,27.8,22v-3.5C30,54.8,26,54.1,21.7,51.6z M19.3,31.9c0.2,0.3,0.2,0.6,2,2c-0.5,0.3-1.1,0.7-1.6,1
		c-0.5,0.3-0.8,0.8-0.8,1.3c0,4.4,0,8.7,0,13.1c-4.3-3.6-6.8-7.9-8.7-13.1c0.9-0.5,2.6-1.6,3.6-2.4c1.4-1,1.9-1.7,2-2
		c0.1-0.2,0.2-0.5,0-0.9c-1.1-2.5-2-5.5-2-8.2c0-1.6,0-4.5,3.8-4.5c3.8,0,3.8,3,3.8,4.5c-0.1,2.9-1,5.6-2,8.2
		C19.1,31.4,19.2,31.7,19.3,31.9z"/>
	<path  d="M33.6,54.8v3.5c12.7,0,23.9-8.1,27.8-22c0.3-1-0.1-2-0.4-2.2c-0.3-0.3-4-2.2-5-3.2c1.2-3.1,1.7-5.8,1.7-8
		c0-1.7,0-8-7.3-8c-7.3,0-7.3,6.7-7.3,8c0,2.6,0.9,5.3,1.7,8c-0.2,0.2-0.5,0.5-0.9,0.6c-1.5-1.1-3.1-2.2-4.5-3.4
		c1.3-3.2,2.1-6.4,2.1-9.6c0-7.7-5.3-8.8-8.1-8.8v3.4c4.5,0,4.5,3.5,4.5,5.3c0,3.5-1,6.7-2.4,9.7c-0.1,0.2-0.2,0.9,0,1.1
		c3.1,3,6.8,5.5,10.5,7.8c0,4.9,0,9.7,0,14.6C42,54.1,38,54.8,33.6,54.8z M48.7,31c-1-2.5-2-5.3-2-8.2c0-1.5,0-4.5,3.8-4.5
		c3.8,0,3.8,2.8,3.8,4.5c0,2.7-0.9,5.6-2,8.2c-0.2,0.3-0.1,0.7,0,0.9c0.2,0.3,0.6,1,2,2c1,0.8,2.7,1.8,3.6,2.4
		c-1.9,5.2-4.4,9.5-8.7,13.1c0-4.4,0-8.7,0-13.1c0-0.5-0.2-1-0.8-1.3c-0.5-0.3-1.1-0.7-1.6-1c1.7-1.4,1.8-1.7,2-2
		C48.8,31.7,48.9,31.4,48.7,31z"/>
</g>
</svg>
