<?xml version="1.0" encoding="UTF-8" standalone="no"?>
<svg xmlns:rdf="http://www.w3.org/1999/02/22-rdf-syntax-ns#" xmlns:cc="http://creativecommons.org/ns#"
     xmlns:dc="http://purl.org/dc/elements/1.1/" id="svg3336" xmlns="http://www.w3.org/2000/svg" height="142"
     viewBox="0 0 500 142" width="500" version="1.1">
    <metadata id="metadata3404">
        <rdf:RDF>
            <cc:Work rdf:about="">
                <dc:format>image/svg+xml</dc:format>
                <dc:type rdf:resource="http://purl.org/dc/dcmitype/StillImage"/>
                <dc:title/>
            </cc:Work>
        </rdf:RDF>
    </metadata>
    <g id="g3340" fill-rule="evenodd" transform="matrix(3.113 0 0 3.113 -704.41 -1469.7)">
        <g id="g3342" fill="#00699f">
            <path id="path3344"
                  d="m352.54 492.11c0.001-2.4957 4.1511-2.4979 4.1574 0v13.724c0.0413 2.816-4.1744 2.742-4.1574 0v-13.724zm8.3153 13.272v-12.846c0-0.8724-0.1639-1.6974-0.4906-2.476-0.3271-0.7786-0.7708-1.4563-1.3312-2.0322-0.5608-0.5759-1.2227-1.0278-1.9857-1.3545-0.7627-0.3274-1.5804-0.4906-2.4527-0.4906-0.8716 0-1.6815 0.1632-2.4287 0.4906-0.7476 0.3267-1.4014 0.7786-1.9621 1.3545-0.5604 0.5759-0.9971 1.2536-1.3083 2.0322-0.3109 0.7786-0.4674 1.6036-0.4674 2.476v12.846c0 0.8719 0.1565 1.6896 0.4674 2.4527 0.3112 0.763 0.7479 1.4246 1.3083 1.985 0.5607 0.5607 1.2145 1.0048 1.9621 1.3315 0.7472 0.3271 1.5571 0.4903 2.4287 0.4903 0.8723 0 1.69-0.1632 2.4527-0.4903 0.763-0.3267 1.4249-0.7708 1.9857-1.3315 0.5604-0.5604 1.0041-1.222 1.3312-1.985 0.3267-0.7631 0.4906-1.5808 0.4906-2.4527z"/>
            <path id="path3346"
                  d="m346.52 484.17c0-3.6073-2.1795-6.3574-6.2598-6.3063-3.6003 0.0451-5.7887 2.8788-5.7887 6.3063v21.209c0 4.0778 2.4866 6.2824 5.7887 6.2595 3.8959-0.0272 6.2598-1.8204 6.2598-6.2595v-6.4696h-4.1578v6.9376c-0.004 2.4777-3.7765 2.4136-3.7797 0v-22.08c0.0324-2.3494 3.7465-2.3917 3.7797 0v6.7994h4.1578v-6.3966z"/>
            <path id="path3348"
                  d="m324.14 491.92c-0.0465-2.4397 4.124-2.5694 4.1571 0v5.9405h-4.1571v-5.9405zm2.0551-5.7386c-0.8716 0-1.6815 0.1632-2.4287 0.4906-0.7475 0.3267-1.4013 0.7786-1.9621 1.3545-0.5604 0.5759-0.997 1.2536-1.3083 2.0322-0.3112 0.7786-0.4673 1.6036-0.4673 2.476v12.846c0 0.8719 0.1561 1.6896 0.4673 2.4527 0.3113 0.763 0.7479 1.4246 1.3083 1.985 0.5608 0.5607 1.2146 1.0048 1.9621 1.3315 0.7472 0.3271 1.5571 0.4903 2.4287 0.4903 0.8724 0 1.69-0.1632 2.4527-0.4903 0.7631-0.3267 1.425-0.7708 1.9857-1.3315 0.5604-0.5604 1.0045-1.222 1.3312-1.985 0.3268-0.7627 0.4906-1.5808 0.4906-2.4527v-1.3545h-4.1582v1.5864c0.012 2.8372-4.1536 2.7445-4.1571 0v-4.118h8.3153v-8.9603c0-0.903-0.1642-1.7443-0.4906-2.5225-0.3267-0.7786-0.7708-1.4482-1.3312-2.009-0.5607-0.5604-1.2226-1.0045-1.9857-1.3312-0.7627-0.3274-1.5803-0.4906-2.4527-0.4906z"/>
            <path id="path3350"
                  d="m317.86 511.4v-24.899h-4.111v20.742c-0.2326 0.008-0.4529 0.008-0.6605 0.0123-0.4419 0.009-1.1401 0.03-1.4919 0.003-1.6769-0.1297-2.0001-1.3774-2.0051-3.2971v-17.46h-4.2043v18.686c0 0.841 0.1713 1.6354 0.5138 2.3826 0.3426 0.7475 0.7941 1.4091 1.3545 1.9857 0.5608 0.5762 1.2226 1.0274 1.9857 1.3544 0.7631 0.3275 1.5649 0.4907 2.4058 0.4907h6.213z"/>
            <path id="path3352"
                  d="m362.85 486.51v24.899h4.111v-20.784c3.5044-0.159 4.0179 0.4127 4.0398 3.1442v17.64h4.2043v-18.686c0-3.5185-2.6067-6.2133-6.2598-6.2133h-6.0953z"/>
            <path id="path3354"
                  d="m295.32 492.77v18.639h4.1575v-17.402c-0.0124-2.8549 1.0552-3.4357 4.1575-3.3398v-4.1579h-2.0555c-0.8406 0-1.6424 0.1639-2.4055 0.4906-0.763 0.3271-1.4253 0.7708-1.9857 1.3319-0.5607 0.5604-1.0119 1.222-1.3544 1.985-0.3426 0.7631-0.5139 1.5804-0.5139 2.4527z"/>
            <path id="path3356" d="m292.28 511.4v-29.29h4.8698v-4.1575h-13.944v4.1575h4.9166v29.28l4.1575 0.0102z"/>
            <path id="path3358"
                  d="m382.1 511.4v-20.945h2.7562v-4.1575h-2.7562v-1.8152c0.0652-1.7985 0.7504-2.2207 2.3882-2.3427h1.7693v-4.1575h-2.102c-0.8712 0-1.6819 0.1636-2.4291 0.4906-0.7472 0.3271-1.4013 0.7708-1.9617 1.3312-0.5607 0.5608-0.9985 1.2237-1.3083 1.9854-0.3101 0.7616-0.4673 1.5677-0.4673 2.4062v2.102h-2.0143v4.1571l2.0143 0.0004v20.945h4.1109z"/>
        </g>
        <g id="g3360">
            <g fill="#00699f">
                <path id="path3362"
                      d="m277.8 494.88c-0.4582-0.4576-3.1986-1.7097-4.6385-2.994 0.8842-2.4184 1.6144-4.8989 1.6144-7.3373 0-5.6761-3.2361-7.3102-6.6932-7.3102-3.4701 0-6.6935 1.6471-6.6935 7.3102 0.0124 2.5818 0.8121 5.1861 1.5582 7.3373-0.1969 0.2161-0.4654 0.4241-0.7461 0.5765-1.4167-0.9669-2.8334-2.0151-4.0936-3.1586 0.9234-2.6737 1.9464-5.7485 1.9464-8.7815 0-7.1004-4.9575-8.0923-7.4364-8.0923-2.4786 0-7.4361 0.9919-7.4361 8.0923 0 2.9273 0.7815 5.8544 1.9464 8.7815-1.3227 1.1333-2.7072 2.1744-4.1309 3.1586-0.2844-0.16-0.5276-0.3464-0.7461-0.5765 0.7832-2.4165 1.5952-4.9729 1.5582-7.3373 0.037-1.1984 0.037-7.3102-6.6562-7.3102s-6.6932 5.7501-6.7305 7.3102c0.003 2.0475 0.5446 4.5096 1.6144 7.3373-0.9858 0.9752-4.3532 2.679-4.6385 2.994-0.248 0.2162-0.6748 1.0474-0.3571 2.0067 3.5973 12.838 13.886 20.198 25.576 20.194 6.2027 0 12.141-2.1172 16.804-6.1062 4.09-3.499 7.1916-8.4881 8.7355-14.088 0.2332-0.6054 0.1094-1.5212-0.3571-2.0067zm-1.0801 0c-1.4925-0.8501-3.6408-2.1198-4.2827-2.8325 0.934-2.5172 1.729-4.9813 1.729-7.4988 0-5.1158-2.8968-6.7143-6.0835-6.7143-3.1861 0-6.0835 1.5209-6.0835 6.7143 0 2.4997 0.9263 5.7582 1.6506 7.4988-0.443 0.4369-0.9336 0.8259-1.4485 1.1433-1.7236-1.1857-3.3329-2.3492-4.7917-3.7213 1.099-2.8806 2.034-5.9066 2.034-8.9471 0-6.5079-4.293-7.4907-6.8259-7.4907-2.5272 0-6.8259 0.9828-6.8259 7.4907 0 2.9824 0.7565 6.0751 2.0162 8.9471-1.5129 1.3659-3.1565 2.585-4.8109 3.7213-0.5022-0.2772-0.9811-0.7154-1.4485-1.1433 0.9731-2.3589 1.6879-5.7498 1.6879-7.4988 0-4.8643-2.6161-6.7143-6.0835-6.7143-3.4676 0-6.0835 1.7684-6.1208 6.7143-0.06 1.9807 0.6578 4.5958 1.729 7.4988-1.4621 1.334-3.4109 2.2925-4.2827 2.8325-0.3193 0.1654-0.6219 0.3723-0.7589 0.5836-0.2842 0.3933-0.2269 0.9687-0.0899 1.4231 3.6148 11.983 12.931 19.558 24.988 19.558 5.9771 0 11.501-1.9067 15.889-5.4705 4.1592-3.3782 7.2903-8.2558 9.0624-14.088 0.3164-1.3864-0.1634-1.5739-0.8488-2.0067z"/>
                <path id="path3364"
                      d="m264.62 494.7c1.5791-1.2811 1.6836-1.5402 1.8488-1.8414 0.0827-0.1386 0.1662-0.4557 0-0.8236-0.9763-2.3103-1.8417-4.831-1.8602-7.4884 0-1.3682 0-4.1045 3.4676-4.1045 3.4673 0 3.4673 2.628 3.4673 4.1045 0 2.4962-0.8838 5.2091-1.86 7.4884-0.1418 0.3136-0.0851 0.682 0 0.8236 0.1664 0.2428 0.5843 0.9041 1.8773 1.8783 0.9048 0.682 2.508 1.6537 3.2861 2.1477-1.6706 4.7623-3.9784 8.7064-7.9818 11.983v-11.983c0-0.5474-0.2364-0.963-0.7032-1.2467-0.514-0.3125-1.0279-0.6252-1.5419-0.9379z"/>
                <path id="path3366"
                      d="m240.6 494.7c-1.5791-1.2811-1.6836-1.5402-1.8488-1.8414-0.0827-0.1386-0.1662-0.4557 0-0.8236 0.9763-2.3103 1.8417-4.831 1.8601-7.4884 0-1.3682 0-4.1045-3.4675-4.1045-3.4673 0-3.4673 2.628-3.4673 4.1045 0 2.4962 0.8838 5.2091 1.86 7.4884 0.1418 0.3136 0.0851 0.682 0 0.8236-0.1664 0.2428-0.5843 0.9041-1.8773 1.8783-0.9048 0.682-2.508 1.6537-3.2861 2.1477 1.6706 4.7623 3.9784 8.7064 7.9818 11.983v-11.983c0-0.5474 0.2364-0.963 0.7032-1.2467 0.514-0.3125 1.0279-0.6252 1.5419-0.9379z"/>
            </g>
            <path id="path3368" fill="#008bd0"
                  d="m264.26 510.97v-13.386c-3.2961-2.1748-6.8422-4.1411-9.601-7.135-0.1992-0.2563-0.093-0.7352 0-0.9842 0.9942-2.8323 2.1847-5.7674 2.1733-8.947 0-1.6346 0-4.9042-4.2163-4.9041-4.2216 0.009-4.2165 3.2695-4.2165 4.9041-0.004 3.1775 0.9843 6.2196 2.1733 8.947 0.0987 0.2029 0.2198 0.7631 0 0.9842-2.8991 2.7485-6.2756 5.0426-9.601 7.135v13.386c3.9801 2.2745 7.664 2.9049 11.644 2.857 3.7822-0.0456 7.8615-0.6562 11.644-2.857z"/>
        </g>
    </g>
</svg>
