<?xml version="1.0" encoding="utf-8"?>
<!-- Generator: Adobe Illustrator 23.0.2, SVG Export Plug-In . SVG Version: 6.00 Build 0)  -->
<svg version="1.1" id="Слой_1" xmlns="http://www.w3.org/2000/svg" xmlns:xlink="http://www.w3.org/1999/xlink" x="0px" y="0px"
	 viewBox="0 0 128 36" enable-background="new 0 0 128 36" xml:space="preserve">
<g>
	<g id="Слой_10">
		<g>
			<path fill-rule="evenodd" clip-rule="evenodd" fill="#FFFFFF" d="M42.1,18.1c-0.2-0.2-2.9-1.6-3.7-2.4c0.9-2.3,1.3-4.3,1.3-5.9
				c0-1.3,0-5.8-5.4-5.8C29,4,29,8.9,29,9.8c0,1.9,0.6,3.9,1.3,5.9c-0.2,0.2-0.4,0.3-0.6,0.5c-1.1-0.8-2.2-1.6-3.3-2.5
				c0.9-2.4,1.5-4.7,1.5-7c0-5.2-3.3-6.3-5.4-6.4c-0.1,0-0.2,0-0.3,0c-0.1,0-0.2,0-0.3,0c-2.1,0.2-5.4,1.2-5.4,6.4
				c0,2.4,0.6,4.6,1.5,7c-1,0.9-2.2,1.7-3.3,2.5c-0.2-0.1-0.5-0.3-0.6-0.5c0.6-2,1.3-4,1.3-5.9c0-1,0-5.8-5.3-5.8
				C4.8,4,4.8,8.6,4.8,9.8c0,1.6,0.4,3.6,1.3,5.9c-0.8,0.8-3.4,2.1-3.7,2.4c-0.2,0.2-0.5,0.9-0.3,1.6c2.8,10,10.8,15.9,19.9,16.1
				c0.1,0,0.2,0,0.3,0c0.1,0,0.2,0,0.3,0c9.1-0.2,17-6.1,19.8-16.1C42.6,18.9,42.3,18.2,42.1,18.1z M11.5,16.5
				c0.1,0.2,0.2,0.5,1.4,1.5c-0.4,0.2-0.8,0.5-1.2,0.8s-0.6,0.6-0.6,1v9.6c-3.2-2.6-5-5.8-6.4-9.6c0.6-0.4,1.9-1.1,2.6-1.7
				c1-0.8,1.4-1.3,1.5-1.5c0.1-0.1,0.1-0.4,0-0.6c-0.8-1.8-1.5-4-1.5-6c0-1.2,0-3.3,2.8-3.3C13,6.6,13,8.8,13,9.8
				c-0.1,2.1-0.8,4.1-1.5,6C11.3,16.1,11.4,16.3,11.5,16.5z M31.3,30.9c-3.1,1.7-6,2.3-9,2.3h-0.1c-3.1,0-5.9-0.6-9-2.3V20.2
				c2.7-1.7,5.4-3.5,7.7-5.7c0.2-0.2,0.1-0.6,0-0.8c-1-2.2-1.7-4.6-1.7-7.1c0-1.3,0-3.8,3.1-3.9c3.1,0.1,3.1,2.6,3.1,3.9
				c0,2.5-0.8,4.9-1.7,7.1c-0.1,0.2-0.2,0.6,0,0.8c2.3,2.2,5,4,7.7,5.7L31.3,30.9L31.3,30.9z M33.3,29.3v-9.6c0-0.4-0.2-0.8-0.6-1
				c-0.4-0.2-0.8-0.5-1.2-0.8c1.3-1,1.3-1.3,1.4-1.5c0.1-0.1,0.2-0.3,0-0.6c-0.8-1.8-1.4-3.8-1.5-6c0-1.1,0-3.3,2.8-3.3
				S37,8.6,37,9.8c0,2-0.7,4.1-1.5,6c-0.1,0.2-0.1,0.5,0,0.6c0.1,0.2,0.5,0.8,1.5,1.5c0.8,0.6,2,1.3,2.6,1.7
				C38.3,23.5,36.5,26.6,33.3,29.3z"/>
		</g>
	</g>
	<g id="Слой_9">
		<path fill="#FFFFFF" d="M106,15.4c-0.3-0.6-0.6-1.1-1.1-1.5c-0.5-0.5-0.9-0.8-1.5-1.1c-0.6-0.2-1.2-0.3-1.9-0.3
			c-0.7,0-1.3,0.1-1.9,0.3c-0.6,0.3-1.1,0.6-1.5,1.1c-0.5,0.5-0.8,1-1.1,1.5c-0.2,0.6-0.3,1.3-0.3,2v9.9c0,0.7,0.1,1.3,0.3,1.9
			c0.3,0.6,0.6,1.1,1.1,1.5c0.4,0.5,0.9,0.8,1.5,1c0.6,0.3,1.2,0.4,1.9,0.4c0.7,0,1.3-0.1,1.9-0.4c0.6-0.2,1.1-0.6,1.5-1
			c0.5-0.5,0.8-0.9,1.1-1.5c0.2-0.6,0.4-1.2,0.4-1.9v-9.9C106.4,16.7,106.2,16.1,106,15.4z M103.1,27.6c0,1.1-0.8,1.7-1.6,1.6
			c-0.8,0-1.6-0.6-1.6-1.6V17.1c0-0.9,0.8-1.4,1.6-1.4c0.8,0,1.6,0.5,1.6,1.4V27.6z"/>
	</g>
	<g id="Слой_8">
		<path fill="#FFFFFF" d="M95.2,10.9c0-2.8-1.7-4.9-4.8-4.9c-2.8,0.1-4.5,2.2-4.5,4.9v16.4c0,3.2,2,4.8,4.5,4.8c3,0,4.8-1.4,4.8-4.8
			v-5H92c0,2.3,0,3.1,0,5.4c0,1.9-2.9,1.8-2.9,0c0-6.2,0-11,0-17.1c0.1-1.8,2.9-1.8,2.9,0v5.2h3.2V10.9z"/>
	</g>
	<g id="Слой_7">
		<path fill="#FFFFFF" d="M84.4,24.3v-6.9c0-0.7-0.1-1.3-0.4-2c-0.2-0.6-0.6-1.1-1-1.5c-0.5-0.5-0.9-0.8-1.5-1.1
			c-0.6-0.2-1.2-0.3-1.9-0.3s-1.3,0.1-1.9,0.3c-0.6,0.3-1.1,0.6-1.5,1.1c-0.5,0.5-0.8,1-1,1.5c-0.2,0.6-0.4,1.3-0.4,2v9.9
			c0,0.7,0.2,1.3,0.4,1.9c0.2,0.6,0.6,1.1,1,1.5c0.5,0.5,0.9,0.8,1.5,1c0.6,0.3,1.2,0.4,1.9,0.4c0.7,0,1.3-0.1,1.9-0.4
			c0.6-0.2,1.1-0.6,1.5-1c0.5-0.5,0.8-0.9,1-1.5c0.3-0.6,0.4-1.2,0.4-1.9v-1.1h-3.2c0,1.1,0,0.2,0,1.2c0,1.1-0.8,1.7-1.6,1.6
			c-0.8,0-1.5-0.6-1.5-1.6v-3.2C78,24.3,84.4,24.3,84.4,24.3z M79.5,15.4c0.8,0,1.6,0.5,1.6,1.4v4.6h-3.2v-4.6
			C77.9,16,78.7,15.4,79.5,15.4z"/>
	</g>
	<g id="Слой_6">
		<path fill="#FFFFFF" d="M73.1,32V12.7h-3.2v16c-0.2,0-0.3,0-0.5,0c-0.3,0-0.9,0.1-1.2,0c-1.3-0.1-1.5-1.1-1.6-2.5V12.7h-3.2v14.5
			c0,0.6,0.1,1.2,0.4,1.8c0.3,0.6,0.6,1.1,1.1,1.5c0.5,0.5,0.9,0.8,1.6,1.1c0.6,0.3,1.2,0.4,1.8,0.4H73.1L73.1,32z"/>
	</g>
	<g id="Слой_5">
		<path fill="#FFFFFF" d="M107.9,12.7V32h3.2V15.9c2.7-0.1,3.1,0.3,3.1,2.5V32h3.3V17.5c0-2.7-2-4.8-4.8-4.8H107.9z"/>
	</g>
	<g id="Слой_4">
		<path fill="#FFFFFF" d="M55.7,17.6V32h3.2V18.5c0-2.2,0.8-2.7,3.2-2.6v-3.2h-1.6c-0.6,0-1.3,0.1-1.8,0.4c-0.6,0.2-1.1,0.6-1.5,1
			c-0.4,0.5-0.8,0.9-1.1,1.5C55.9,16.3,55.7,16.9,55.7,17.6z"/>
	</g>
	<g id="Слой_3">
		<polygon fill="#FFFFFF" points="53.3,32 53.3,9.3 57.1,9.3 57.1,6.1 46.3,6.1 46.3,9.3 50.1,9.3 50.1,32 		"/>
	</g>
	<g>
		<path fill="#FFFFFF" d="M122.8,32V15.8h2.1v-3.2h-2.1v-1.4c0-1.4,0.6-1.7,1.8-1.8h1.3V6.2h-1.6c-0.7,0-1.3,0.1-1.9,0.4
			c-0.6,0.2-1.1,0.6-1.5,1c-0.5,0.5-0.8,0.9-1,1.6c-0.2,0.6-0.4,1.2-0.4,1.8v1.6H118v3.2h1.6V32H122.8L122.8,32z"/>
	</g>
</g>
</svg>
