<svg width="56" height="56" viewBox="0 0 56 56" fill="none" xmlns="http://www.w3.org/2000/svg">
<g clip-path="url(#clip0_32_2021)">
<path d="M50.924 25.8733L44.9709 19.9947C44.5718 19.6131 44.038 19.3998 43.4825 19.3998C42.9269 19.3998 42.3931 19.6131 41.994 19.9947L36.041 25.8733C35.6545 26.2674 35.4385 26.7944 35.4385 27.3429C35.4385 27.8915 35.6545 28.4185 36.041 28.8126L41.994 34.6912C42.393 35.073 42.9268 35.2865 43.4825 35.2865C44.0381 35.2865 44.5719 35.073 44.9709 34.6912L50.924 28.8126C51.12 28.6199 51.2756 28.3909 51.3818 28.1387C51.488 27.8865 51.5426 27.6161 51.5426 27.3429C51.5426 27.0698 51.488 26.7994 51.3818 26.5472C51.2756 26.295 51.12 26.066 50.924 25.8733ZM41.2619 28.0899C41.1148 28.235 40.9273 28.3337 40.7233 28.3736C40.5193 28.4136 40.3078 28.3929 40.1157 28.3142C39.9236 28.2356 39.7594 28.1025 39.6439 27.9317C39.5284 27.7609 39.4667 27.5602 39.4667 27.3548C39.4667 27.1494 39.5284 26.9487 39.6439 26.7779C39.7594 26.6071 39.9236 26.474 40.1157 26.3953C40.3078 26.3167 40.5193 26.296 40.7233 26.3359C40.9273 26.3759 41.1148 26.4746 41.2619 26.6197C41.3628 26.7145 41.4431 26.8286 41.4979 26.9549C41.5528 27.0813 41.5811 27.2173 41.5811 27.3548C41.5811 27.4923 41.5528 27.6283 41.4979 27.7547C41.4431 27.881 41.3628 27.9951 41.2619 28.0899ZM44.239 28.0899C44.0917 28.2353 43.9041 28.3343 43.6998 28.3745C43.4955 28.4146 43.2838 28.394 43.0914 28.3153C42.8989 28.2367 42.7345 28.1034 42.6188 27.9324C42.503 27.7615 42.4413 27.5604 42.4413 27.3548C42.4413 27.1492 42.503 26.9481 42.6188 26.7772C42.7345 26.6062 42.8989 26.4729 43.0914 26.3942C43.2838 26.3156 43.4955 26.295 43.6998 26.3351C43.9041 26.3753 44.0917 26.4743 44.239 26.6197C44.4323 26.8168 44.5404 27.0804 44.5404 27.3548C44.5404 27.6292 44.4323 27.8928 44.239 28.0899ZM47.216 28.0899C47.0688 28.235 46.8813 28.3337 46.6773 28.3736C46.4733 28.4136 46.2618 28.3929 46.0697 28.3142C45.8776 28.2356 45.7134 28.1025 45.5979 27.9317C45.4824 27.7609 45.4207 27.5602 45.4207 27.3548C45.4207 27.1494 45.4824 26.9487 45.5979 26.7779C45.7134 26.6071 45.8776 26.474 46.0697 26.3953C46.2618 26.3167 46.4733 26.296 46.6773 26.3359C46.8813 26.3759 47.0688 26.4746 47.216 26.6197C47.4093 26.8168 47.5174 27.0804 47.5174 27.3548C47.5174 27.6292 47.4093 27.8928 47.216 28.0899Z" fill="white" fill-opacity="0.38"/>
<path d="M38.4499 4.45786H30.0369C29.4805 4.45968 28.9474 4.67871 28.554 5.06716C28.1606 5.4556 27.9387 5.98193 27.9369 6.53127V14.8358C27.9387 15.3851 28.1606 15.9115 28.554 16.2999C28.9474 16.6884 29.4805 16.9074 30.0369 16.9092H38.4469C39.0033 16.9074 39.5363 16.6884 39.9298 16.2999C40.3232 15.9115 40.5451 15.3851 40.5469 14.8358V6.53127C40.5451 5.98193 40.3232 5.4556 39.9298 5.06716C39.5363 4.67871 39.0033 4.45968 38.4469 4.45786H38.4499ZM32.1419 13.8129C31.8609 13.8101 31.5921 13.6986 31.3934 13.5024C31.1947 13.3062 31.0818 13.0408 31.0789 12.7634C31.0789 12.485 31.1909 12.2181 31.3902 12.0212C31.5896 11.8244 31.86 11.7138 32.1419 11.7138C32.4238 11.7138 32.6942 11.8244 32.8935 12.0212C33.0929 12.2181 33.2049 12.485 33.2049 12.7634C33.202 13.0408 33.0891 13.3062 32.8904 13.5024C32.6916 13.6986 32.4229 13.8101 32.1419 13.8129ZM32.1419 9.66015C31.8609 9.65733 31.5921 9.54584 31.3934 9.34962C31.1947 9.15341 31.0818 8.88809 31.0789 8.61061C31.0789 8.33225 31.1909 8.0653 31.3902 7.86847C31.5896 7.67164 31.86 7.56107 32.1419 7.56107C32.4238 7.56107 32.6942 7.67164 32.8935 7.86847C33.0929 8.0653 33.2049 8.33225 33.2049 8.61061C33.202 8.88809 33.0891 9.15341 32.8904 9.34962C32.6916 9.54584 32.4229 9.65733 32.1419 9.66015ZM36.3469 13.8129C36.0658 13.8101 35.7971 13.6986 35.5984 13.5024C35.3997 13.3062 35.2868 13.0408 35.2839 12.7634C35.2839 12.485 35.3959 12.2181 35.5952 12.0212C35.7946 11.8244 36.065 11.7138 36.3469 11.7138C36.6288 11.7138 36.8992 11.8244 37.0985 12.0212C37.2979 12.2181 37.4099 12.485 37.4099 12.7634C37.407 13.0408 37.2941 13.3062 37.0954 13.5024C36.8966 13.6986 36.6279 13.8101 36.3469 13.8129ZM36.3469 9.66015C36.0658 9.65733 35.7971 9.54584 35.5984 9.34962C35.3997 9.15341 35.2868 8.88809 35.2839 8.61061C35.2839 8.33225 35.3959 8.0653 35.5952 7.86847C35.7946 7.67164 36.065 7.56107 36.3469 7.56107C36.6288 7.56107 36.8992 7.67164 37.0985 7.86847C37.2979 8.0653 37.4099 8.33225 37.4099 8.61061C37.407 8.88809 37.2941 9.15341 37.0954 9.34962C36.8966 9.54584 36.6279 9.65733 36.3469 9.66015Z" fill="white" fill-opacity="0.38"/>
<path d="M18.086 16.1223C19.6469 16.1221 21.1728 16.579 22.4708 17.4351C23.7688 18.2911 24.7805 19.508 25.3779 20.9318C25.9754 22.3556 26.1318 23.9224 25.8274 25.434C25.523 26.9456 24.7715 28.3341 23.6678 29.4239C22.5641 30.5138 21.1579 31.256 19.627 31.5567C18.0961 31.8575 16.5092 31.7032 15.0671 31.1135C13.6249 30.5237 12.3923 29.525 11.5251 28.2436C10.6578 26.9622 10.195 25.4556 10.195 23.9144C10.1927 22.8906 10.3953 21.8764 10.791 20.9301C11.1868 19.9838 11.7679 19.124 12.5011 18.4C13.2343 17.676 14.1051 17.1021 15.0635 16.7112C16.0219 16.3204 17.049 16.1202 18.086 16.1223Z" fill="white" fill-opacity="0.38"/>
<path d="M31.8589 44.1164V46.0763C28.021 49.3277 23.131 51.1152 18.0739 51.1152C13.0169 51.1152 8.12684 49.3277 4.28894 46.0763V44.1164C4.41376 41.5304 5.56922 39.0982 7.50327 37.3501C9.43732 35.602 11.993 34.6799 14.6129 34.785H21.5349C24.1548 34.6799 26.7106 35.602 28.6446 37.3501C30.5787 39.0982 31.7341 41.5304 31.8589 44.1164Z" fill="white" fill-opacity="0.38"/>
<path d="M50.924 25.8733L44.9709 19.9947C44.5718 19.6131 44.038 19.3998 43.4825 19.3998C42.9269 19.3998 42.3931 19.6131 41.994 19.9947L36.041 25.8733C35.6545 26.2674 35.4385 26.7944 35.4385 27.3429C35.4385 27.8915 35.6545 28.4185 36.041 28.8126L41.994 34.6912C42.393 35.073 42.9268 35.2865 43.4825 35.2865C44.0381 35.2865 44.5719 35.073 44.9709 34.6912L50.924 28.8126C51.12 28.6199 51.2756 28.3909 51.3818 28.1387C51.488 27.8865 51.5426 27.6161 51.5426 27.3429C51.5426 27.0698 51.488 26.7994 51.3818 26.5472C51.2756 26.295 51.12 26.066 50.924 25.8733ZM41.2619 28.0899C41.1148 28.235 40.9273 28.3337 40.7233 28.3736C40.5193 28.4136 40.3078 28.3929 40.1157 28.3142C39.9236 28.2356 39.7594 28.1025 39.6439 27.9317C39.5284 27.7609 39.4667 27.5602 39.4667 27.3548C39.4667 27.1494 39.5284 26.9487 39.6439 26.7779C39.7594 26.6071 39.9236 26.474 40.1157 26.3953C40.3078 26.3167 40.5193 26.296 40.7233 26.3359C40.9273 26.3759 41.1148 26.4746 41.2619 26.6197C41.3628 26.7145 41.4431 26.8286 41.4979 26.9549C41.5528 27.0813 41.5811 27.2173 41.5811 27.3548C41.5811 27.4923 41.5528 27.6283 41.4979 27.7547C41.4431 27.881 41.3628 27.9951 41.2619 28.0899ZM44.239 28.0899C44.0917 28.2353 43.9041 28.3343 43.6998 28.3745C43.4955 28.4146 43.2838 28.394 43.0914 28.3153C42.8989 28.2367 42.7345 28.1034 42.6188 27.9324C42.503 27.7615 42.4413 27.5604 42.4413 27.3548C42.4413 27.1492 42.503 26.9481 42.6188 26.7772C42.7345 26.6062 42.8989 26.4729 43.0914 26.3942C43.2838 26.3156 43.4955 26.295 43.6998 26.3351C43.9041 26.3753 44.0917 26.4743 44.239 26.6197C44.4323 26.8168 44.5404 27.0804 44.5404 27.3548C44.5404 27.6292 44.4323 27.8928 44.239 28.0899ZM47.216 28.0899C47.0688 28.235 46.8813 28.3337 46.6773 28.3736C46.4733 28.4136 46.2618 28.3929 46.0697 28.3142C45.8776 28.2356 45.7134 28.1025 45.5979 27.9317C45.4824 27.7609 45.4207 27.5602 45.4207 27.3548C45.4207 27.1494 45.4824 26.9487 45.5979 26.7779C45.7134 26.6071 45.8776 26.474 46.0697 26.3953C46.2618 26.3167 46.4733 26.296 46.6773 26.3359C46.8813 26.3759 47.0688 26.4746 47.216 26.6197C47.4093 26.8168 47.5174 27.0804 47.5174 27.3548C47.5174 27.6292 47.4093 27.8928 47.216 28.0899Z" fill="white" fill-opacity="0.38"/>
<path d="M38.4499 4.45786H30.0369C29.4805 4.45968 28.9474 4.67871 28.554 5.06716C28.1606 5.4556 27.9387 5.98193 27.9369 6.53127V14.8358C27.9387 15.3851 28.1606 15.9115 28.554 16.2999C28.9474 16.6884 29.4805 16.9074 30.0369 16.9092H38.4469C39.0033 16.9074 39.5363 16.6884 39.9298 16.2999C40.3232 15.9115 40.5451 15.3851 40.5469 14.8358V6.53127C40.5451 5.98193 40.3232 5.4556 39.9298 5.06716C39.5363 4.67871 39.0033 4.45968 38.4469 4.45786H38.4499ZM32.1419 13.8129C31.8609 13.8101 31.5921 13.6986 31.3934 13.5024C31.1947 13.3062 31.0818 13.0408 31.0789 12.7634C31.0789 12.485 31.1909 12.2181 31.3902 12.0212C31.5896 11.8244 31.86 11.7138 32.1419 11.7138C32.4238 11.7138 32.6942 11.8244 32.8935 12.0212C33.0929 12.2181 33.2049 12.485 33.2049 12.7634C33.202 13.0408 33.0891 13.3062 32.8904 13.5024C32.6916 13.6986 32.4229 13.8101 32.1419 13.8129ZM32.1419 9.66015C31.8609 9.65733 31.5921 9.54584 31.3934 9.34962C31.1947 9.15341 31.0818 8.88809 31.0789 8.61061C31.0789 8.33225 31.1909 8.0653 31.3902 7.86847C31.5896 7.67164 31.86 7.56107 32.1419 7.56107C32.4238 7.56107 32.6942 7.67164 32.8935 7.86847C33.0929 8.0653 33.2049 8.33225 33.2049 8.61061C33.202 8.88809 33.0891 9.15341 32.8904 9.34962C32.6916 9.54584 32.4229 9.65733 32.1419 9.66015ZM36.3469 13.8129C36.0658 13.8101 35.7971 13.6986 35.5984 13.5024C35.3997 13.3062 35.2868 13.0408 35.2839 12.7634C35.2839 12.485 35.3959 12.2181 35.5952 12.0212C35.7946 11.8244 36.065 11.7138 36.3469 11.7138C36.6288 11.7138 36.8992 11.8244 37.0985 12.0212C37.2979 12.2181 37.4099 12.485 37.4099 12.7634C37.407 13.0408 37.2941 13.3062 37.0954 13.5024C36.8966 13.6986 36.6279 13.8101 36.3469 13.8129ZM36.3469 9.66015C36.0658 9.65733 35.7971 9.54584 35.5984 9.34962C35.3997 9.15341 35.2868 8.88809 35.2839 8.61061C35.2839 8.33225 35.3959 8.0653 35.5952 7.86847C35.7946 7.67164 36.065 7.56107 36.3469 7.56107C36.6288 7.56107 36.8992 7.67164 37.0985 7.86847C37.2979 8.0653 37.4099 8.33225 37.4099 8.61061C37.407 8.88809 37.2941 9.15341 37.0954 9.34962C36.8966 9.54584 36.6279 9.65733 36.3469 9.66015Z" fill="white" fill-opacity="0.38"/>
<path d="M18.086 16.1223C19.6469 16.1221 21.1728 16.579 22.4708 17.4351C23.7688 18.2911 24.7805 19.508 25.3779 20.9318C25.9754 22.3556 26.1318 23.9224 25.8274 25.434C25.523 26.9456 24.7715 28.3341 23.6678 29.4239C22.5641 30.5138 21.1579 31.256 19.627 31.5567C18.0961 31.8575 16.5092 31.7032 15.0671 31.1135C13.6249 30.5237 12.3923 29.525 11.5251 28.2436C10.6578 26.9622 10.195 25.4556 10.195 23.9144C10.1927 22.8906 10.3953 21.8764 10.791 20.9301C11.1868 19.9838 11.7679 19.124 12.5011 18.4C13.2343 17.676 14.1051 17.1021 15.0635 16.7112C16.0219 16.3204 17.049 16.1202 18.086 16.1223Z" fill="white" fill-opacity="0.38"/>
<path d="M31.8589 44.1164V46.0763C28.021 49.3277 23.131 51.1152 18.0739 51.1152C13.0169 51.1152 8.12684 49.3277 4.28894 46.0763V44.1164C4.41376 41.5304 5.56922 39.0982 7.50327 37.3501C9.43732 35.602 11.993 34.6799 14.6129 34.785H21.5349C24.1548 34.6799 26.7106 35.602 28.6446 37.3501C30.5787 39.0982 31.7341 41.5304 31.8589 44.1164Z" fill="white" fill-opacity="0.38"/>
</g>
<defs>
<clipPath id="clip0_32_2021">
<rect width="56" height="56" fill="white"/>
</clipPath>
</defs>
</svg>
