<?xml version="1.0" encoding="utf-8"?>
<!-- Generator: Adobe Illustrator 19.0.1, SVG Export Plug-In . SVG Version: 6.00 Build 0)  -->
<svg version="1.1"
	 id="svg6002" inkscape:version="0.44" sodipodi:docbase="/home/users/mimooh" sodipodi:version="0.32" xmlns:svg="http://www.w3.org/2000/svg" xmlns:sodipodi="http://sodipodi.sourceforge.net/DTD/sodipodi-0.dtd" xmlns:rdf="http://www.w3.org/1999/02/22-rdf-syntax-ns#" xmlns:inkscape="http://www.inkscape.org/namespaces/inkscape" xmlns:cc="http://web.resource.org/cc/" xmlns:dc="http://purl.org/dc/elements/1.1/" sodipodi:docname="pdf.svg"
	 xmlns="http://www.w3.org/2000/svg" xmlns:xlink="http://www.w3.org/1999/xlink" x="0px" y="0px" viewBox="122 -139.7 544 579.7"
	 style="enable-background:new 122 -139.7 544 579.7;" xml:space="preserve">
<style type="text/css">
	.st0{fill:#D8D8D8;stroke:#A4A4A4;stroke-width:24.4521;}
	.st1{fill:none;stroke:#000000;stroke-width:43.814;stroke-opacity:0.1811;}
	.st2{fill:none;stroke:#F10000;stroke-width:14.814;}
	.st3{fill:#CA0000;}
	.st4{fill:#FFFFFF;}
	.st5{font-family:'Arial-BoldMT';}
	.st6{font-size:139.2463px;}
</style>
<sodipodi:namedview  id="base" bordercolor="#666666" pagecolor="#ffffff" inkscape:cx="375" inkscape:zoom="0.35" inkscape:cy="634.28571" borderopacity="1.0" inkscape:window-y="0" inkscape:document-units="px" inkscape:pageopacity="0.0" inkscape:pageshadow="2" inkscape:current-layer="layer1" inkscape:window-width="16" inkscape:window-height="16" inkscape:window-x="0">
	</sodipodi:namedview>
<path id="rect5414" inkscape:r_cy="true" inkscape:r_cx="true" inkscape:export-ydpi="7.6053801" inkscape:export-xdpi="7.6053801" sodipodi:nodetypes="cccccc" inkscape:export-filename="/home/users/mimooh/rect2632.png" class="st0" d="
	M238.3-130.4l238.8,0.8c59.7,33.1,177.5,119.4,178,169.4l1.6,390.9H238.3V-130.4z"/>
<path id="path3537" inkscape:r_cy="true" inkscape:r_cx="true" inkscape:export-ydpi="7.6053801" inkscape:export-xdpi="7.6053801" sodipodi:nodetypes="ccscsc" inkscape:export-filename="/home/users/mimooh/rect2632.png" class="st1" d="
	M298.3,372.1c15.4,57.4,161.3-78.6,227.9-294.1c20.8-72.6-32.6-56.6-36.6-3.2C476.9,245.3,564.8,388.6,599,357.7
	c45.6-32.3-57.5-80.2-129.6-70.9C434.5,291.2,282.5,312.4,298.3,372.1z"/>
<path id="path4539" inkscape:r_cy="true" inkscape:r_cx="true" inkscape:export-ydpi="7.6053801" inkscape:export-xdpi="7.6053801" sodipodi:nodetypes="ccscsc" inkscape:export-filename="/home/users/mimooh/rect2632.png" class="st2" d="
	M286.3,362.6C301.8,420,447.6,284,514.2,68.5C535.1-4,481.6,12,477.6,65.3C464.9,235.8,552.9,379.2,587,348.3
	c45.6-32.3-57.5-80.2-129.6-70.9C422.5,281.8,270.6,302.9,286.3,362.6z"/>
<path id="rect2622" sodipodi:nodetypes="ccccc" class="st3" d="M134.4-84.1H452c6.9,37.6,6.2,118.2,0,154.7H134.4
	C125.9,32,126.7-50.6,134.4-84.1z"/>
<text transform="matrix(0.8154 0 0 1 171.7024 46.2)" class="st4 st5 st6">PDF</text>
<path id="path7176" inkscape:r_cy="true" inkscape:r_cx="true" inkscape:export-ydpi="7.6053801" inkscape:export-xdpi="7.6053801" sodipodi:nodetypes="cccc" inkscape:export-filename="/home/users/mimooh/rect2632.png" class="st4" d="
	M491.5-96.6c0,0,20.8,33.5,41.6,97.9c98.1-27.1,115.5,6.2,115.5,6.2C626.4-56.1,510.5-91.9,491.5-96.6z"/>
</svg>
