<svg xmlns="http://www.w3.org/2000/svg" xmlns:xlink="http://www.w3.org/1999/xlink" viewBox="0 0 54 40.5"><defs><style>.cls-1{fill:url(#Безымянный_градиент_6);}.cls-2{fill:url(#Безымянный_градиент_6-2);}.cls-3{fill:url(#Безымянный_градиент_6-3);}.cls-4{fill:url(#Безымянный_градиент_6-4);}.cls-5{fill:url(#Безымянный_градиент_6-5);}.cls-6{fill:#fff;}.cls-7{fill:url(#Безымянный_градиент_6-6);}</style><linearGradient id="Безымянный_градиент_6" x1="9.91" y1="-6587.16" x2="10.27" y2="-6579.23" gradientTransform="matrix(1, 0, 0, -1, 0, -6564.61)" gradientUnits="userSpaceOnUse"><stop offset="0" stop-color="#2eafc7"/><stop offset="0.26" stop-color="#33a9c6"/><stop offset="0.61" stop-color="#4098c3"/><stop offset="1" stop-color="#557dbe"/></linearGradient><linearGradient id="Безымянный_градиент_6-2" x1="9.88" y1="-6607.34" x2="10.24" y2="-6599.49" xlink:href="#Безымянный_градиент_6"/><linearGradient id="Безымянный_градиент_6-3" x1="43.66" y1="-6587.16" x2="44.02" y2="-6579.23" xlink:href="#Безымянный_градиент_6"/><linearGradient id="Безымянный_градиент_6-4" x1="43.63" y1="-6607.34" x2="43.99" y2="-6599.49" xlink:href="#Безымянный_градиент_6"/><linearGradient id="Безымянный_градиент_6-5" x1="-24.03" y1="-6598.17" x2="72.53" y2="-6549.57" xlink:href="#Безымянный_градиент_6"/><linearGradient id="Безымянный_градиент_6-6" x1="-15.9" y1="-6614.33" x2="80.66" y2="-6565.73" xlink:href="#Безымянный_градиент_6"/></defs><g id="Слой_2" data-name="Слой 2"><g id="Слой_1-2" data-name="Слой 1"><path class="cls-1" d="M6.75,20.25h6.73v-4.5H6.75Z"/><path class="cls-2" d="M12.35,40.5H7.87a1.15,1.15,0,0,1-.8-.33,1.12,1.12,0,0,1-.32-.79V36h6.73v3.38a1.13,1.13,0,0,1-1.13,1.12Z"/><path class="cls-3" d="M40.5,20.25h6.73v-4.5H40.5Z"/><path class="cls-4" d="M46.1,40.5H41.62a1.13,1.13,0,0,1-1.13-1.12V36h6.74v3.38A1.13,1.13,0,0,1,46.1,40.5Z"/><path class="cls-5" d="M52.65,0H1.35A1.34,1.34,0,0,0,0,1.35V14.4a1.34,1.34,0,0,0,1.35,1.35h51.3A1.34,1.34,0,0,0,54,14.4v-13A1.34,1.34,0,0,0,52.65,0Z"/><path class="cls-6" d="M8.28,10.56A2.69,2.69,0,1,0,5.6,7.87,2.68,2.68,0,0,0,8.28,10.56Z"/><path class="cls-6" d="M46.69,6.13H20.79a1.71,1.71,0,0,0-1.71,1.71h0a1.72,1.72,0,0,0,1.71,1.71h25.9A1.71,1.71,0,0,0,48.4,7.84h0A1.7,1.7,0,0,0,46.69,6.13Z"/><path class="cls-7" d="M52.65,20.25H1.35A1.34,1.34,0,0,0,0,21.6v13A1.34,1.34,0,0,0,1.35,36h51.3A1.34,1.34,0,0,0,54,34.65v-13A1.34,1.34,0,0,0,52.65,20.25Z"/><path class="cls-6" d="M8.28,30.81A2.69,2.69,0,1,0,5.6,28.12,2.68,2.68,0,0,0,8.28,30.81Z"/><path class="cls-6" d="M46.69,26.38H20.79a1.71,1.71,0,0,0-1.71,1.71h0a1.72,1.72,0,0,0,1.71,1.71h25.9a1.71,1.71,0,0,0,1.71-1.71h0A1.7,1.7,0,0,0,46.69,26.38Z"/></g></g></svg>