<?xml version="1.0" encoding="UTF-8"?>
<svg id="_Слой_2" data-name="Слой 2" xmlns="http://www.w3.org/2000/svg" viewBox="0 0 240 240">
  <g id="_Слой_1-2" data-name="Слой 1">
    <g>
      <path d="M160.26,20H82.85c-7.09,0-12.85,5.75-12.85,12.85v104.98c3.87-4.32,9.5-7.04,15.75-7.04,5.16,0,10.14,1.9,14.03,5.35l35.89,31.91c4.38,3.89,6.89,9.48,6.89,15.34s-2.51,11.46-6.89,15.35l-1.42,1.26h62.89c7.1,0,12.86-5.76,12.86-12.86V80l-49.74-60Zm39.74,70h-46c-2.21,0-4-1.79-4-4V30h5.56l4.44,5.36,37.02,44.64,2.98,3.6v6.4Zm-119.43,109.79v-.3h-1.28c.42,.13,.84,.23,1.28,.3Z" style="fill: #000000; opacity:0.54;"/>
      <path d="M80.57,214.84v-15.35H24.47c-2.46,0-4.47-2.01-4.47-4.47v-23.25c0-2.46,2.01-4.47,4.47-4.47h56.1v-15.35c0-4.45,5.25-6.81,8.58-3.85l35.89,31.9c2.03,1.8,2.03,4.97,0,6.78l-35.89,31.9c-3.32,2.95-8.58,.59-8.58-3.85Z" style="fill: #000000; opacity:0.54;"/>
      <path d="M79.29,199.49c.42,.13,.84,.23,1.28,.3v-.3h-1.28Z" style="fill: #000000; opacity:0.54;"/>
      <rect width="240" height="240" style="fill: none;"/>
    </g>
  </g>
</svg>