<svg xmlns="http://www.w3.org/2000/svg" viewBox="0 0 240 240"><g id="Слой_2" data-name="Слой 2"><g id="Слой_1-2" data-name="Слой 1"><g style="opacity:0.54"><path d="M68.08,214.44a16,16,0,0,1-9.44-3.1,15.73,15.73,0,0,1-6.31-15.43l8.48-48.61L24.89,112.85A15.86,15.86,0,0,1,33.72,85.7l49.81-7.12L105.76,34.2A16,16,0,0,1,120,25.56h.14a15.89,15.89,0,0,1,14.15,8.78l22.16,44.24,49.79,7.12a15.93,15.93,0,0,1,12.95,10.89,15.75,15.75,0,0,1-4,16.21l-36,34.5,8.47,48.57a15.74,15.74,0,0,1-6.22,15.44,16,16,0,0,1-16.85,1.34l-44.6-23-44.55,23A15.89,15.89,0,0,1,68.08,214.44Zm-1.81-19.58h0ZM120,169.09a15.94,15.94,0,0,1,7.44,1.84l39.13,20.21-7.43-42.59a15.54,15.54,0,0,1,4.67-14.17l31.35-30.07-43.51-6.22a16,16,0,0,1-11.95-8.41l-.09-.18L120,50.41,100.33,89.68a16.11,16.11,0,0,1-12,8.41l-43.5,6.22,31.34,30.06a15.56,15.56,0,0,1,4.67,14.18l-7.42,42.59,39.19-20.25A15.73,15.73,0,0,1,120,169.09Zm-1.81,19.57,0,0Zm3.73,0,0,0Zm32.5-110.35h0Zm-38-35v0Z"/><rect width="240" height="240" style="fill:none"/></g></g></g></svg>