<svg xmlns="http://www.w3.org/2000/svg" xmlns:xlink="http://www.w3.org/1999/xlink" viewBox="0 0 255 255"><defs><style>.cls-1{fill:none;}.cls-2{fill:url(#linear-gradient);}.cls-3{fill:url(#Безымянный_градиент_126);}.cls-4{fill:url(#Безымянный_градиент_126-2);}.cls-5{fill:url(#Безымянный_градиент_126-3);}.cls-6{fill:url(#Безымянный_градиент_192);}.cls-7{fill:url(#linear-gradient-2);}.cls-8{fill:url(#linear-gradient-3);}.cls-9{fill:url(#linear-gradient-4);}.cls-10,.cls-13,.cls-48,.cls-80,.cls-88{isolation:isolate;}.cls-10{opacity:0.4;fill:url(#linear-gradient-5);}.cls-11{fill:url(#linear-gradient-6);}.cls-12{fill:url(#linear-gradient-7);}.cls-13{fill:#fff;opacity:0.6;}.cls-14{fill:#fafaf8;}.cls-15{fill:url(#linear-gradient-8);}.cls-16{fill:url(#Безымянный_градиент_165);}.cls-17{fill:url(#Безымянный_градиент_165-2);}.cls-18{fill:url(#Безымянный_градиент_165-3);}.cls-19{fill:url(#Безымянный_градиент_165-4);}.cls-20{fill:url(#Безымянный_градиент_165-5);}.cls-21{fill:url(#linear-gradient-9);}.cls-22{fill:url(#Безымянный_градиент_126-4);}.cls-23,.cls-24{opacity:0.8;}.cls-23{fill:url(#linear-gradient-10);}.cls-25{fill:url(#linear-gradient-11);}.cls-26{fill:url(#linear-gradient-12);}.cls-27{opacity:0.63;}.cls-28,.cls-30,.cls-32,.cls-34,.cls-36,.cls-38{opacity:0.44;}.cls-28{fill:url(#Безымянный_градиент_126-5);}.cls-29{fill:url(#Безымянный_градиент_126-6);}.cls-30{fill:url(#Безымянный_градиент_126-7);}.cls-31{fill:url(#Безымянный_градиент_126-8);}.cls-32{fill:url(#Безымянный_градиент_126-9);}.cls-33{fill:url(#Безымянный_градиент_126-10);}.cls-34{fill:url(#Безымянный_градиент_126-11);}.cls-35{fill:url(#Безымянный_градиент_126-12);}.cls-36{fill:url(#Безымянный_градиент_126-13);}.cls-37{fill:url(#Безымянный_градиент_126-14);}.cls-38{fill:url(#Безымянный_градиент_126-15);}.cls-39{fill:url(#Безымянный_градиент_126-16);}.cls-40{fill:url(#Безымянный_градиент_5);}.cls-41{fill:url(#Безымянный_градиент_140);}.cls-42{fill:url(#Безымянный_градиент_187);}.cls-43{fill:url(#linear-gradient-13);}.cls-44{fill:url(#Безымянный_градиент_5-2);}.cls-45{fill:url(#linear-gradient-14);}.cls-46{fill:url(#Безымянный_градиент_140-2);}.cls-47{fill:url(#linear-gradient-15);}.cls-49{fill:url(#Безымянный_градиент_187-2);}.cls-50{fill:url(#linear-gradient-16);}.cls-51{fill:url(#Безымянный_градиент_126-17);}.cls-52{fill:url(#linear-gradient-17);}.cls-53{opacity:0.3;}.cls-54{fill:url(#linear-gradient-18);}.cls-55{fill:url(#linear-gradient-19);}.cls-56{fill:url(#linear-gradient-20);}.cls-57,.cls-59,.cls-60,.cls-61,.cls-62,.cls-63,.cls-64,.cls-65,.cls-66,.cls-67,.cls-68,.cls-69{opacity:0.46;}.cls-57{fill:url(#Безымянный_градиент_126-18);}.cls-58{fill:url(#linear-gradient-21);}.cls-59{fill:url(#Безымянный_градиент_126-19);}.cls-60{fill:url(#Безымянный_градиент_126-20);}.cls-61{fill:url(#Безымянный_градиент_126-21);}.cls-62{fill:url(#Безымянный_градиент_126-22);}.cls-63{fill:url(#Безымянный_градиент_126-23);}.cls-64{fill:url(#Безымянный_градиент_126-24);}.cls-65{fill:url(#Безымянный_градиент_126-25);}.cls-66{fill:url(#Безымянный_градиент_126-26);}.cls-67{fill:url(#Безымянный_градиент_126-27);}.cls-68{fill:url(#Безымянный_градиент_126-28);}.cls-69{fill:url(#Безымянный_градиент_126-29);}.cls-70{fill:url(#linear-gradient-22);}.cls-71{fill:url(#linear-gradient-23);}.cls-72{fill:url(#linear-gradient-24);}.cls-73{fill:url(#linear-gradient-25);}.cls-74{fill:url(#linear-gradient-26);}.cls-75{fill:url(#linear-gradient-27);}.cls-76{fill:url(#linear-gradient-28);}.cls-77{fill:url(#Безымянный_градиент_126-30);}.cls-78{fill:url(#linear-gradient-29);}.cls-79{fill:url(#linear-gradient-30);}.cls-80{fill:url(#Безымянный_градиент_187-3);}.cls-81{fill:url(#linear-gradient-31);}.cls-82{fill:url(#Безымянный_градиент_140-3);}.cls-83{fill:url(#Безымянный_градиент_140-4);}.cls-84{fill:#fac0c3;}.cls-85{fill:url(#linear-gradient-32);}.cls-86{fill:url(#linear-gradient-33);}.cls-87{fill:#99cafd;}.cls-88{fill:url(#Безымянный_градиент_187-4);}.cls-89{fill:#fedba4;}.cls-90{fill:url(#linear-gradient-34);}.cls-91{fill:url(#Безымянный_градиент_126-31);}.cls-92{fill:url(#linear-gradient-35);}.cls-93{fill:url(#linear-gradient-36);}.cls-94{fill:url(#linear-gradient-37);}.cls-95{fill:url(#linear-gradient-38);}.cls-96{fill:#9ad7e5;}.cls-97{fill:url(#linear-gradient-39);}.cls-98{fill:url(#linear-gradient-40);}.cls-99{fill:url(#linear-gradient-41);}.cls-100{fill:url(#linear-gradient-42);}.cls-101{fill:url(#linear-gradient-43);}.cls-102{fill:url(#Безымянный_градиент_126-32);}.cls-103{fill:url(#Безымянный_градиент_126-33);}.cls-104{fill:url(#Безымянный_градиент_126-34);}.cls-105{fill:url(#Безымянный_градиент_126-35);}.cls-106{fill:url(#Безымянный_градиент_126-36);}.cls-107{fill:url(#Безымянный_градиент_126-37);}.cls-108{fill:url(#linear-gradient-44);}.cls-109{fill:url(#linear-gradient-45);}.cls-110{fill:#63d0e6;}.cls-111{fill:url(#linear-gradient-46);}.cls-112{fill:url(#linear-gradient-47);}.cls-113{fill:url(#linear-gradient-48);}.cls-114{clip-path:url(#clip-path);}.cls-115{fill:#2f3f5c;}.cls-116{fill:#ffa398;}.cls-117{fill:#e8928b;}.cls-118{fill:url(#Безымянный_градиент_95);}.cls-119,.cls-125,.cls-126,.cls-127,.cls-135{fill:#27374f;}.cls-119{opacity:0.2;}.cls-120{clip-path:url(#clip-path-2);}.cls-121{clip-path:url(#clip-path-3);}.cls-122{fill:url(#Безымянный_градиент_144);}.cls-123{fill:#cc394c;}.cls-124{fill:url(#Безымянный_градиент_144-2);}.cls-125{opacity:0.1;}.cls-126{opacity:0.12;}.cls-128{fill:url(#Безымянный_градиент_144-3);}.cls-129{clip-path:url(#clip-path-4);}.cls-130{fill:url(#Безымянный_градиент_144-4);}.cls-131{fill:url(#Безымянный_градиент_8);}.cls-132{fill:url(#Безымянный_градиент_11);}.cls-133{clip-path:url(#clip-path-5);}.cls-134{fill:url(#Безымянный_градиент_7);}.cls-135{opacity:0.15;}.cls-136{fill:url(#Безымянный_градиент_165-6);}.cls-137{fill:url(#Безымянный_градиент_165-7);}.cls-138{fill:url(#Безымянный_градиент_165-8);}</style><linearGradient id="linear-gradient" x1="50.62" y1="74.68" x2="211.45" y2="185.17" gradientUnits="userSpaceOnUse"><stop offset="0" stop-color="#e8fbff"/><stop offset="0.36" stop-color="#e4faff"/><stop offset="0.72" stop-color="#d8f8ff"/><stop offset="1" stop-color="#c9f5ff"/></linearGradient><linearGradient id="Безымянный_градиент_126" x1="105.34" y1="160.5" x2="111.19" y2="160.5" gradientUnits="userSpaceOnUse"><stop offset="0" stop-color="#83d6eb"/><stop offset="1" stop-color="#5dc1d9"/></linearGradient><linearGradient id="Безымянный_градиент_126-2" x1="143.21" y1="160.5" x2="149.06" y2="160.5" xlink:href="#Безымянный_градиент_126"/><linearGradient id="Безымянный_градиент_126-3" x1="98.09" y1="193.26" x2="156.31" y2="193.26" gradientTransform="translate(-66.06 320.46) rotate(-90)" xlink:href="#Безымянный_градиент_126"/><linearGradient id="Безымянный_градиент_192" x1="91.63" y1="141.73" x2="166.08" y2="163.14" gradientUnits="userSpaceOnUse"><stop offset="0" stop-color="#17849e"/><stop offset="1" stop-color="#157087"/></linearGradient><linearGradient id="linear-gradient-2" x1="8717.77" y1="-363.93" x2="8737.53" y2="-363.93" gradientTransform="translate(8854.43 -293) rotate(180)" xlink:href="#Безымянный_градиент_192"/><linearGradient id="linear-gradient-3" x1="8721.61" y1="-358.53" x2="8735.02" y2="-358.53" gradientTransform="translate(8854.43 -293) rotate(180)" xlink:href="#Безымянный_градиент_192"/><linearGradient id="linear-gradient-4" x1="8722.35" y1="-358.59" x2="8734.28" y2="-358.59" gradientTransform="translate(8854.43 -293) rotate(180)" xlink:href="#Безымянный_градиент_192"/><linearGradient id="linear-gradient-5" x1="8722.94" y1="-358.52" x2="8733.7" y2="-358.52" gradientTransform="translate(8854.43 -293) rotate(180)" gradientUnits="userSpaceOnUse"><stop offset="0" stop-color="#aae4f0"/><stop offset="1" stop-color="#e3faff"/></linearGradient><linearGradient id="linear-gradient-6" x1="8724.25" y1="-358.55" x2="8732.33" y2="-358.55" xlink:href="#linear-gradient-5"/><linearGradient id="linear-gradient-7" x1="8726.06" y1="-358.57" x2="8730.56" y2="-358.57" gradientTransform="translate(8854.43 -293) rotate(180)" xlink:href="#Безымянный_градиент_192"/><linearGradient id="linear-gradient-8" x1="30.26" y1="80.78" x2="232.62" y2="138.99" gradientUnits="userSpaceOnUse"><stop offset="0" stop-color="#198fab"/><stop offset="1" stop-color="#177d96"/></linearGradient><linearGradient id="Безымянный_градиент_165" x1="130.74" y1="-401.57" x2="236.71" y2="-401.57" gradientTransform="translate(366.45 -293) rotate(180)" gradientUnits="userSpaceOnUse"><stop offset="0" stop-color="#6ed2e6"/><stop offset="1" stop-color="#bdeaf2"/></linearGradient><linearGradient id="Безымянный_градиент_165-2" x1="18.83" y1="-401.57" x2="124.8" y2="-401.57" gradientTransform="matrix(1, 0, 0, -1, 0, -293)" xlink:href="#Безымянный_градиент_165"/><linearGradient id="Безымянный_градиент_165-3" x1="30.17" y1="137.49" x2="32.46" y2="137.49" gradientTransform="matrix(1, 0, 0, 1, 0, 0)" xlink:href="#Безымянный_градиент_165"/><linearGradient id="Безымянный_градиент_165-4" x1="25.88" y1="137.49" x2="28.17" y2="137.49" gradientTransform="matrix(1, 0, 0, 1, 0, 0)" xlink:href="#Безымянный_градиент_165"/><linearGradient id="Безымянный_градиент_165-5" x1="21.59" y1="137.49" x2="23.88" y2="137.49" gradientTransform="matrix(1, 0, 0, 1, 0, 0)" xlink:href="#Безымянный_градиент_165"/><linearGradient id="linear-gradient-9" x1="-5127.42" y1="132.1" x2="-5070.79" y2="104.9" gradientTransform="matrix(1, 0, 0, -1, 5264.78, 236.9)" gradientUnits="userSpaceOnUse"><stop offset="0" stop-color="#e3fbff"/><stop offset="1" stop-color="#f7feff"/></linearGradient><linearGradient id="Безымянный_градиент_126-4" x1="140.79" y1="119.65" x2="190.2" y2="95.91" xlink:href="#Безымянный_градиент_126"/><linearGradient id="linear-gradient-10" x1="92.2" y1="107.15" x2="95.4" y2="107.15" gradientTransform="matrix(-1, 0, 0, 1, 231, 0)" gradientUnits="userSpaceOnUse"><stop offset="0" stop-color="#edfcff"/><stop offset="1" stop-color="#c0f4ff"/></linearGradient><linearGradient id="linear-gradient-11" x1="180.58" y1="107.31" x2="141.05" y2="107.31" gradientUnits="userSpaceOnUse"><stop offset="0" stop-color="#d1ecff"/><stop offset="1" stop-color="#edf7ff"/></linearGradient><linearGradient id="linear-gradient-12" x1="181.08" y1="107.31" x2="140.55" y2="107.31" gradientTransform="matrix(1, 0, 0, 1, 0, 0)" xlink:href="#linear-gradient-10"/><linearGradient id="Безымянный_градиент_126-5" x1="139.21" y1="112.52" x2="195.39" y2="112.52" xlink:href="#Безымянный_градиент_126"/><linearGradient id="Безымянный_градиент_126-6" x1="134.66" y1="112.52" x2="135.74" y2="112.52" xlink:href="#Безымянный_градиент_126"/><linearGradient id="Безымянный_градиент_126-7" x1="139.21" y1="114.96" x2="195.39" y2="114.96" xlink:href="#Безымянный_градиент_126"/><linearGradient id="Безымянный_градиент_126-8" x1="134.66" y1="114.96" x2="135.74" y2="114.96" xlink:href="#Безымянный_градиент_126"/><linearGradient id="Безымянный_градиент_126-9" x1="139.21" y1="117.39" x2="195.39" y2="117.39" xlink:href="#Безымянный_градиент_126"/><linearGradient id="Безымянный_градиент_126-10" x1="134.66" y1="117.39" x2="135.74" y2="117.39" xlink:href="#Безымянный_градиент_126"/><linearGradient id="Безымянный_градиент_126-11" x1="139.21" y1="119.83" x2="195.39" y2="119.83" xlink:href="#Безымянный_градиент_126"/><linearGradient id="Безымянный_градиент_126-12" x1="134.66" y1="119.83" x2="135.74" y2="119.83" xlink:href="#Безымянный_градиент_126"/><linearGradient id="Безымянный_градиент_126-13" x1="139.21" y1="122.27" x2="195.39" y2="122.27" xlink:href="#Безымянный_градиент_126"/><linearGradient id="Безымянный_градиент_126-14" x1="134.66" y1="122.27" x2="135.74" y2="122.27" xlink:href="#Безымянный_градиент_126"/><linearGradient id="Безымянный_градиент_126-15" x1="139.21" y1="124.7" x2="195.39" y2="124.7" xlink:href="#Безымянный_градиент_126"/><linearGradient id="Безымянный_градиент_126-16" x1="134.66" y1="124.7" x2="135.74" y2="124.7" xlink:href="#Безымянный_градиент_126"/><linearGradient id="Безымянный_градиент_5" x1="149.54" y1="122.44" x2="147.67" y2="111.42" gradientUnits="userSpaceOnUse"><stop offset="0" stop-color="#5acee6"/><stop offset="1" stop-color="#b3e8f2"/></linearGradient><linearGradient id="Безымянный_градиент_140" x1="155.27" y1="122.99" x2="153.76" y2="114.08" gradientUnits="userSpaceOnUse"><stop offset="0" stop-color="#fab2b6"/><stop offset="1" stop-color="#fae3e5"/></linearGradient><linearGradient id="Безымянный_градиент_187" x1="161" y1="123.6" x2="159.88" y2="117.01" gradientUnits="userSpaceOnUse"><stop offset="0" stop-color="#fed18c"/><stop offset="1" stop-color="#fee9c9"/></linearGradient><linearGradient id="linear-gradient-13" x1="143.41" y1="123.43" x2="142.18" y2="116.19" gradientUnits="userSpaceOnUse"><stop offset="0" stop-color="#beddfd"/><stop offset="1" stop-color="#8bc3fd"/></linearGradient><linearGradient id="Безымянный_градиент_5-2" x1="173.08" y1="122.41" x2="171.19" y2="111.31" xlink:href="#Безымянный_градиент_5"/><linearGradient id="linear-gradient-14" x1="178.76" y1="123.17" x2="177.36" y2="114.96" xlink:href="#linear-gradient-13"/><linearGradient id="Безымянный_градиент_140-2" x1="190.48" y1="122.93" x2="188.93" y2="113.82" xlink:href="#Безымянный_градиент_140"/><linearGradient id="linear-gradient-15" x1="167.01" y1="123.17" x2="165.62" y2="114.96" xlink:href="#linear-gradient-13"/><linearGradient id="Безымянный_градиент_187-2" x1="184.52" y1="123.64" x2="183.43" y2="117.24" xlink:href="#Безымянный_градиент_187"/><linearGradient id="linear-gradient-16" x1="-5248.3" y1="129.4" x2="-5249.75" y2="92.49" gradientTransform="matrix(1, 0, 0, -1, 5465.73, 218.88)" gradientUnits="userSpaceOnUse"><stop offset="0" stop-color="#f2fdff"/><stop offset="0.42" stop-color="#fafeff"/></linearGradient><linearGradient id="Безымянный_градиент_126-17" x1="203.83" y1="94.04" x2="229.13" y2="81.89" xlink:href="#Безымянный_градиент_126"/><linearGradient id="linear-gradient-17" x1="26.8" y1="87.59" x2="29.08" y2="87.59" xlink:href="#linear-gradient-10"/><linearGradient id="linear-gradient-18" x1="209.84" y1="122.3" x2="206.6" y2="103.26" gradientUnits="userSpaceOnUse"><stop offset="0" stop-color="#97def0"/><stop offset="1" stop-color="#5dc1d9"/></linearGradient><linearGradient id="linear-gradient-19" x1="225.34" y1="87.7" x2="206.47" y2="87.7" xlink:href="#linear-gradient-11"/><linearGradient id="linear-gradient-20" x1="225.69" y1="87.7" x2="206.12" y2="87.7" gradientTransform="matrix(1, 0, 0, 1, 0, 0)" xlink:href="#linear-gradient-10"/><linearGradient id="Безымянный_градиент_126-18" x1="204.23" y1="92.53" x2="231.54" y2="92.53" xlink:href="#Безымянный_градиент_126"/><linearGradient id="linear-gradient-21" x1="229.74" y1="120.18" x2="225.14" y2="93.11" xlink:href="#linear-gradient-18"/><linearGradient id="Безымянный_градиент_126-19" x1="204.23" y1="95.38" x2="231.54" y2="95.38" xlink:href="#Безымянный_градиент_126"/><linearGradient id="Безымянный_градиент_126-20" x1="204.23" y1="98.23" x2="231.54" y2="98.23" xlink:href="#Безымянный_градиент_126"/><linearGradient id="Безымянный_градиент_126-21" x1="204.23" y1="101.08" x2="231.54" y2="101.08" xlink:href="#Безымянный_градиент_126"/><linearGradient id="Безымянный_градиент_126-22" x1="204.23" y1="103.94" x2="231.54" y2="103.94" xlink:href="#Безымянный_градиент_126"/><linearGradient id="Безымянный_градиент_126-23" x1="204.23" y1="106.79" x2="231.54" y2="106.79" xlink:href="#Безымянный_градиент_126"/><linearGradient id="Безымянный_градиент_126-24" x1="204.23" y1="109.64" x2="231.54" y2="109.64" xlink:href="#Безымянный_градиент_126"/><linearGradient id="Безымянный_градиент_126-25" x1="204.23" y1="112.49" x2="231.54" y2="112.49" xlink:href="#Безымянный_градиент_126"/><linearGradient id="Безымянный_градиент_126-26" x1="204.23" y1="115.34" x2="231.54" y2="115.34" xlink:href="#Безымянный_градиент_126"/><linearGradient id="Безымянный_градиент_126-27" x1="204.23" y1="118.19" x2="231.54" y2="118.19" xlink:href="#Безымянный_градиент_126"/><linearGradient id="Безымянный_градиент_126-28" x1="204.23" y1="121.05" x2="231.54" y2="121.05" xlink:href="#Безымянный_градиент_126"/><linearGradient id="Безымянный_градиент_126-29" x1="204.23" y1="123.9" x2="231.54" y2="123.9" xlink:href="#Безымянный_градиент_126"/><linearGradient id="linear-gradient-22" x1="216.58" y1="121.17" x2="212.62" y2="97.86" xlink:href="#linear-gradient-18"/><linearGradient id="linear-gradient-23" x1="222.9" y1="121.69" x2="219.27" y2="100.36" xlink:href="#linear-gradient-18"/><linearGradient id="linear-gradient-24" x1="202.17" y1="109.51" x2="230.46" y2="109.51" xlink:href="#linear-gradient-13"/><linearGradient id="linear-gradient-25" x1="201.48" y1="92.44" x2="203.35" y2="92.44" xlink:href="#linear-gradient-13"/><linearGradient id="linear-gradient-26" x1="-1891.89" y1="-2068.88" x2="-1890.02" y2="-2068.88" gradientTransform="translate(-1838.17 2017.83) rotate(90)" xlink:href="#linear-gradient-13"/><linearGradient id="linear-gradient-27" x1="204.5" y1="115.08" x2="231.09" y2="115.08" xlink:href="#linear-gradient-13"/><linearGradient id="linear-gradient-28" x1="-4747.85" y1="101.18" x2="-4719.1" y2="87.37" gradientTransform="matrix(1, 0, 0, -1, 4916.1, 188.5)" xlink:href="#linear-gradient-16"/><linearGradient id="Безымянный_градиент_126-30" x1="170.34" y1="93.68" x2="194.7" y2="81.98" xlink:href="#Безымянный_градиент_126"/><linearGradient id="linear-gradient-29" x1="183.99" y1="87.58" x2="172.89" y2="87.58" xlink:href="#linear-gradient-11"/><linearGradient id="linear-gradient-30" x1="184.37" y1="87.58" x2="172.51" y2="87.58" gradientTransform="matrix(1, 0, 0, 1, 0, 0)" xlink:href="#linear-gradient-10"/><linearGradient id="Безымянный_градиент_187-3" x1="170.18" y1="98.12" x2="176.38" y2="98.12" xlink:href="#Безымянный_градиент_187"/><linearGradient id="linear-gradient-31" x1="175.65" y1="96.99" x2="180.52" y2="96.99" xlink:href="#linear-gradient-13"/><linearGradient id="Безымянный_градиент_140-3" x1="170.59" y1="93.37" x2="178.67" y2="93.37" xlink:href="#Безымянный_градиент_140"/><linearGradient id="Безымянный_градиент_140-4" x1="182.94" y1="92.69" x2="185.08" y2="92.69" xlink:href="#Безымянный_градиент_140"/><linearGradient id="linear-gradient-32" x1="182.94" y1="96.03" x2="185.08" y2="96.03" xlink:href="#linear-gradient-13"/><linearGradient id="linear-gradient-33" x1="187.13" y1="96.03" x2="196.02" y2="96.03" gradientUnits="userSpaceOnUse"><stop offset="0" stop-color="#83d6eb"/><stop offset="1" stop-color="#95c8fd"/></linearGradient><linearGradient id="Безымянный_градиент_187-4" x1="182.94" y1="99.36" x2="185.08" y2="99.36" xlink:href="#Безымянный_градиент_187"/><linearGradient id="linear-gradient-34" x1="260.57" y1="94.27" x2="292.51" y2="94.27" gradientTransform="translate(-127.46)" xlink:href="#linear-gradient-16"/><linearGradient id="Безымянный_градиент_126-31" x1="136.72" y1="93.7" x2="161.14" y2="81.97" xlink:href="#Безымянный_градиент_126"/><linearGradient id="linear-gradient-35" x1="93.93" y1="87.48" x2="96.13" y2="87.48" xlink:href="#linear-gradient-10"/><linearGradient id="linear-gradient-36" x1="150.4" y1="87.58" x2="139.27" y2="87.58" xlink:href="#linear-gradient-11"/><linearGradient id="linear-gradient-37" x1="150.76" y1="87.58" x2="138.91" y2="87.58" gradientTransform="matrix(1, 0, 0, 1, 0, 0)" xlink:href="#linear-gradient-10"/><linearGradient id="linear-gradient-38" x1="136.27" y1="91.16" x2="163.39" y2="91.16" gradientUnits="userSpaceOnUse"><stop offset="0" stop-color="#8cd7e6"/><stop offset="1" stop-color="#a2e7f5"/></linearGradient><linearGradient id="linear-gradient-39" x1="136.27" y1="92.83" x2="163.39" y2="92.83" xlink:href="#linear-gradient-38"/><linearGradient id="linear-gradient-40" x1="136.27" y1="94.5" x2="163.39" y2="94.5" xlink:href="#linear-gradient-38"/><linearGradient id="linear-gradient-41" x1="136.27" y1="96.18" x2="163.39" y2="96.18" xlink:href="#linear-gradient-38"/><linearGradient id="linear-gradient-42" x1="136.27" y1="97.85" x2="163.39" y2="97.85" xlink:href="#linear-gradient-38"/><linearGradient id="linear-gradient-43" x1="136.27" y1="99.52" x2="163.39" y2="99.52" xlink:href="#linear-gradient-38"/><linearGradient id="Безымянный_градиент_126-32" x1="134.23" y1="91.16" x2="134.97" y2="91.16" xlink:href="#Безымянный_градиент_126"/><linearGradient id="Безымянный_градиент_126-33" x1="134.23" y1="92.83" x2="134.97" y2="92.83" xlink:href="#Безымянный_градиент_126"/><linearGradient id="Безымянный_градиент_126-34" x1="134.23" y1="94.5" x2="134.97" y2="94.5" xlink:href="#Безымянный_градиент_126"/><linearGradient id="Безымянный_градиент_126-35" x1="134.23" y1="96.18" x2="134.97" y2="96.18" xlink:href="#Безымянный_градиент_126"/><linearGradient id="Безымянный_градиент_126-36" x1="134.23" y1="97.85" x2="134.97" y2="97.85" xlink:href="#Безымянный_градиент_126"/><linearGradient id="Безымянный_градиент_126-37" x1="134.23" y1="99.52" x2="134.97" y2="99.52" xlink:href="#Безымянный_градиент_126"/><linearGradient id="linear-gradient-44" x1="134.04" y1="97.43" x2="165.06" y2="97.43" xlink:href="#linear-gradient-13"/><linearGradient id="linear-gradient-45" x1="-1011.89" y1="95.37" x2="-966.96" y2="95.37" gradientTransform="matrix(1, 0, 0, -1, 1037.39, 190.75)" xlink:href="#linear-gradient-16"/><linearGradient id="linear-gradient-46" x1="-823.47" y1="95.37" x2="-778.9" y2="95.37" gradientTransform="translate(895.62)" xlink:href="#linear-gradient-16"/><linearGradient id="linear-gradient-47" x1="-823.47" y1="121.47" x2="-778.9" y2="121.47" gradientTransform="translate(895.62)" xlink:href="#linear-gradient-9"/><linearGradient id="linear-gradient-48" x1="-1011.89" y1="121.47" x2="-966.96" y2="121.47" gradientTransform="matrix(-1, 0, 0, 1, -941.46, 0)" xlink:href="#linear-gradient-16"/><clipPath id="clip-path"><rect class="cls-1" x="71.88" y="108.19" width="45.09" height="25.61"/></clipPath><linearGradient id="Безымянный_градиент_95" x1="-886.57" y1="135.52" x2="-861.61" y2="135.52" gradientTransform="matrix(-1, 0, 0, 1, -777.89, 0)" gradientUnits="userSpaceOnUse"><stop offset="0" stop-color="#34adcc"/><stop offset="1" stop-color="#188aa5"/></linearGradient><clipPath id="clip-path-2"><rect class="cls-1" x="73.55" y="84.91" width="41.37" height="22.73" transform="translate(188.46 192.54) rotate(180)"/></clipPath><clipPath id="clip-path-3"><rect class="cls-1" x="72.52" y="84.91" width="42.09" height="23.96"/></clipPath><linearGradient id="Безымянный_градиент_144" x1="51.51" y1="103.69" x2="56.2" y2="103.69" gradientTransform="translate(35.36)" gradientUnits="userSpaceOnUse"><stop offset="0" stop-color="#de3e53"/><stop offset="1" stop-color="#db5163"/></linearGradient><linearGradient id="Безымянный_градиент_144-2" x1="88.01" y1="106.98" x2="103.48" y2="106.98" gradientTransform="matrix(1, 0, 0, 1, 0, 0)" xlink:href="#Безымянный_градиент_144"/><linearGradient id="Безымянный_градиент_144-3" x1="-1048" y1="88.48" x2="-1044.42" y2="88.48" gradientTransform="matrix(-1, 0, 0, 1, -948.74, 0)" xlink:href="#Безымянный_градиент_144"/><clipPath id="clip-path-4"><rect class="cls-1" x="25.24" y="109.59" width="44.03" height="24.19" transform="translate(94.5 243.36) rotate(180)"/></clipPath><linearGradient id="Безымянный_градиент_144-4" x1="-1040.27" y1="129.51" x2="-1035.28" y2="129.51" gradientTransform="matrix(-1, 0, 0, 1, -984.11, 0)" xlink:href="#Безымянный_градиент_144"/><linearGradient id="Безымянный_градиент_8" x1="51.17" y1="129.51" x2="56.16" y2="129.51" gradientUnits="userSpaceOnUse"><stop offset="0" stop-color="#e07b0a"/><stop offset="1" stop-color="#e36d10"/></linearGradient><linearGradient id="Безымянный_градиент_11" x1="38.48" y1="132.24" x2="54.95" y2="132.24" gradientUnits="userSpaceOnUse"><stop offset="0" stop-color="#f7a221"/><stop offset="1" stop-color="#f98a34"/></linearGradient><clipPath id="clip-path-5"><rect class="cls-1" x="26.32" y="83.51" width="42.97" height="24.24"/></clipPath><linearGradient id="Безымянный_градиент_7" x1="35.05" y1="108.43" x2="58.72" y2="108.43" gradientUnits="userSpaceOnUse"><stop offset="0" stop-color="#106db4"/><stop offset="1" stop-color="#0f5f9c"/></linearGradient><linearGradient id="Безымянный_градиент_165-6" x1="227.64" y1="137.49" x2="229.93" y2="137.49" gradientTransform="matrix(1, 0, 0, 1, 0, 0)" xlink:href="#Безымянный_градиент_165"/><linearGradient id="Безымянный_градиент_165-7" x1="223.35" y1="137.49" x2="225.64" y2="137.49" gradientTransform="matrix(1, 0, 0, 1, 0, 0)" xlink:href="#Безымянный_градиент_165"/><linearGradient id="Безымянный_градиент_165-8" x1="219.07" y1="137.49" x2="221.35" y2="137.49" gradientTransform="matrix(1, 0, 0, 1, 0, 0)" xlink:href="#Безымянный_градиент_165"/></defs><g id="Layer_2" data-name="Layer 2"><g id="Layer_1-2" data-name="Layer 1"><circle class="cls-2" cx="127.5" cy="127.5" r="103.84"/><rect class="cls-3" x="105.34" y="130.01" width="5.85" height="61" rx="1.16"/><rect class="cls-4" x="143.21" y="130.01" width="5.85" height="61" rx="1.16"/><rect class="cls-5" x="124.28" y="164.15" width="5.85" height="58.22" rx="1.14" transform="translate(320.46 66.06) rotate(90)"/><rect class="cls-6" x="83.67" y="148.5" width="87.46" height="7.04" rx="1.29"/><path class="cls-7" d="M132.82,74.44V63.89a.07.07,0,0,1,0-.06.09.09,0,0,1,.06,0,2.17,2.17,0,0,1,2,1.4,2.21,2.21,0,0,1,.14.8v9.18H136a.72.72,0,0,1,.71.71v2.18h-19.8V75.9a.92.92,0,0,1,0-.28.81.81,0,0,1,.17-.24.7.7,0,0,1,.23-.15.58.58,0,0,1,.29,0h.83a.78.78,0,0,1,.78-.79Z"/><path class="cls-8" d="M132.78,64.85a6.67,6.67,0,0,1-1.88,5.37,6.49,6.49,0,0,1-2.44,1.59,6.58,6.58,0,0,1-2.88.41,6.7,6.7,0,0,1-5.69-9.17,6.68,6.68,0,0,1,4-3.87,6.71,6.71,0,0,1,8.84,5.67Z"/><path class="cls-9" d="M132.09,65a6.1,6.1,0,0,1-.31,2.61A6,6,0,1,1,122,61.37,6,6,0,0,1,132.09,65Z"/><path class="cls-10" d="M131.47,65a5.44,5.44,0,0,1-.3,2.33,5.31,5.31,0,0,1-3.23,3.23,5.36,5.36,0,0,1-7.12-4.5,5.57,5.57,0,0,1,.29-2.33,5.41,5.41,0,0,1,3.24-3.24,5.28,5.28,0,0,1,2.33-.29,5.34,5.34,0,0,1,3.24,1.56A5.41,5.41,0,0,1,131.47,65Z"/><path class="cls-11" d="M130.15,65.05a4,4,0,0,1-4.53,4.52,4,4,0,0,1-2.35-1.15,4.08,4.08,0,0,1-1-4.19,4.19,4.19,0,0,1,1-1.55,3.89,3.89,0,0,1,1.56-1,4,4,0,0,1,1.82-.19A4.13,4.13,0,0,1,129,62.69,4.09,4.09,0,0,1,130.15,65.05Z"/><path class="cls-12" d="M128.33,65.13a2.27,2.27,0,0,1-2.65,2.65,2.18,2.18,0,0,1-1.16-.61,2.25,2.25,0,0,1-.63-1.16,2.36,2.36,0,0,1,0-1.09,2.28,2.28,0,0,1,1.5-1.5,2.24,2.24,0,0,1,2.26.56A2.22,2.22,0,0,1,128.33,65.13Z"/><path class="cls-13" d="M125.57,63.5a1.76,1.76,0,0,1-1.22,2.12,1.83,1.83,0,0,1-.9,0,1.8,1.8,0,0,1-.84-.47,1.75,1.75,0,0,1-.47-.85,1.87,1.87,0,0,1,0-.88,1.79,1.79,0,0,1,.45-.76,1.83,1.83,0,0,1,.76-.45,1.87,1.87,0,0,1,.88,0,1.77,1.77,0,0,1,.85.46A1.7,1.7,0,0,1,125.57,63.5Z"/><path class="cls-14" d="M129.15,80.05H237a.84.84,0,0,1,.35.07,1,1,0,0,1,.3.19,1.21,1.21,0,0,1,.2.3,1,1,0,0,1,.06.35v55.29a.91.91,0,0,1-.26.65,1,1,0,0,1-.65.27H129.15a1.09,1.09,0,0,1-.35-.07,1,1,0,0,1-.29-.2,1,1,0,0,1-.19-.3.84.84,0,0,1-.07-.35V81C128.15,80.45,128.65,80.05,129.15,80.05Z"/><path class="cls-15" d="M237.92,77.93H17.08a1.94,1.94,0,0,0-1.94,1.94v57.76a1.94,1.94,0,0,0,1.94,1.94H237.92a1.94,1.94,0,0,0,1.94-1.94V79.87A1.94,1.94,0,0,0,237.92,77.93Z"/><path class="cls-16" d="M130.91,135.62H234.54a1.16,1.16,0,0,0,1.17-1.17V82.58a1.17,1.17,0,0,0-1.17-1H130.91a1.16,1.16,0,0,0-1.17,1.17v51.89a1,1,0,0,0,.11.42,1.06,1.06,0,0,0,.26.34,1.15,1.15,0,0,0,.8.27Z"/><path class="cls-17" d="M123.63,135.62H20a1.16,1.16,0,0,1-1.17-1.17V82.58a1.14,1.14,0,0,1,.38-.75,1.12,1.12,0,0,1,.79-.3H123.63a1.16,1.16,0,0,1,1.17,1.17v51.89a.91.91,0,0,1-.11.42,1.06,1.06,0,0,1-.26.34,1.15,1.15,0,0,1-.8.27Z"/><circle class="cls-18" cx="31.31" cy="137.49" r="1.14"/><circle class="cls-19" cx="27.03" cy="137.49" r="1.14"/><circle class="cls-20" cx="22.74" cy="137.49" r="1.14"/><rect class="cls-21" x="133.04" y="104.47" width="65.49" height="27.95" rx="2.61" transform="translate(331.56 236.9) rotate(180)"/><path class="cls-22" d="M135.52,104.47H196a2.48,2.48,0,0,1,2.48,2.48v2.93a0,0,0,0,1,0,0H133a0,0,0,0,1,0,0v-2.93A2.48,2.48,0,0,1,135.52,104.47Z"/><circle class="cls-23" cx="137.2" cy="107.15" r="1.6"/><g class="cls-24"><line class="cls-25" x1="180.58" y1="107.31" x2="141.05" y2="107.31"/><path class="cls-26" d="M180.58,107.8H141.05a.5.5,0,1,1,0-1h39.53a.5.5,0,1,1,0,1Z"/></g><g class="cls-27"><path class="cls-28" d="M195.1,112.82H139.51a.31.31,0,0,1-.3-.3.3.3,0,0,1,.3-.29H195.1a.29.29,0,0,1,.29.29A.3.3,0,0,1,195.1,112.82Z"/><circle class="cls-29" cx="135.2" cy="112.52" r="0.54"/></g><g class="cls-27"><path class="cls-30" d="M195.1,115.25H139.51a.29.29,0,1,1,0-.58H195.1a.29.29,0,0,1,0,.58Z"/><circle class="cls-31" cx="135.2" cy="114.96" r="0.54"/></g><g class="cls-27"><path class="cls-32" d="M195.1,117.69H139.51a.3.3,0,1,1,0-.59H195.1a.3.3,0,0,1,0,.59Z"/><circle class="cls-33" cx="135.2" cy="117.39" r="0.54"/></g><g class="cls-27"><path class="cls-34" d="M195.1,120.12H139.51a.29.29,0,1,1,0-.58H195.1a.29.29,0,0,1,0,.58Z"/><circle class="cls-35" cx="135.2" cy="119.83" r="0.54"/></g><g class="cls-27"><path class="cls-36" d="M195.1,122.56H139.51a.3.3,0,1,1,0-.59H195.1a.3.3,0,0,1,0,.59Z"/><circle class="cls-37" cx="135.2" cy="122.27" r="0.54"/></g><g class="cls-27"><path class="cls-38" d="M195.1,125H139.51a.31.31,0,0,1-.3-.3.3.3,0,0,1,.3-.29H195.1a.29.29,0,0,1,.29.29A.3.3,0,0,1,195.1,125Z"/><circle class="cls-39" cx="135.2" cy="124.7" r="0.54"/></g><path class="cls-40" d="M147.32,110.8h3a.56.56,0,0,1,.56.56V125a0,0,0,0,1,0,0h-4.12a0,0,0,0,1,0,0v-13.6A.56.56,0,0,1,147.32,110.8Z"/><path class="cls-41" d="M153.35,113.61H156a.71.71,0,0,1,.71.71V125a0,0,0,0,1,0,0h-4.12a0,0,0,0,1,0,0V114.32A.71.71,0,0,1,153.35,113.61Z"/><path class="cls-42" d="M159.19,116.72H162a.67.67,0,0,1,.67.67V125a0,0,0,0,1,0,0h-4.12a0,0,0,0,1,0,0V117.4A.67.67,0,0,1,159.19,116.72Z"/><path class="cls-43" d="M141.6,115.85h2.7a.71.71,0,0,1,.71.71V125a0,0,0,0,1,0,0h-4.12a0,0,0,0,1,0,0v-8.41A.71.71,0,0,1,141.6,115.85Z"/><path class="cls-44" d="M171,110.66h2.77a.67.67,0,0,1,.67.67V125a0,0,0,0,1,0,0h-4.12a0,0,0,0,1,0,0V111.34A.67.67,0,0,1,171,110.66Z"/><path class="cls-45" d="M176.84,114.54h2.77a.67.67,0,0,1,.67.67V125a0,0,0,0,1,0,0h-4.12a0,0,0,0,1,0,0v-9.75A.67.67,0,0,1,176.84,114.54Z"/><path class="cls-46" d="M188.54,113.33h2.7a.71.71,0,0,1,.71.71V125a0,0,0,0,1,0,0h-4.12a0,0,0,0,1,0,0V114A.71.71,0,0,1,188.54,113.33Z"/><path class="cls-47" d="M165.1,114.54h2.77a.67.67,0,0,1,.67.67V125a0,0,0,0,1,0,0h-4.12a0,0,0,0,1,0,0v-9.75A.67.67,0,0,1,165.1,114.54Z"/><g class="cls-48"><path class="cls-49" d="M182.73,117h2.77a.67.67,0,0,1,.67.67V125a0,0,0,0,1,0,0h-4.12a0,0,0,0,1,0,0v-7.33A.67.67,0,0,1,182.73,117Z"/></g><rect class="cls-50" x="200.1" y="86.46" width="33.09" height="45.97" rx="2.38" transform="translate(433.29 218.88) rotate(180)"/><path class="cls-51" d="M201.59,85.68h30.12a1.49,1.49,0,0,1,1.49,1.49v2.36a0,0,0,0,1,0,0H200.1a0,0,0,0,1,0,0V87.17A1.49,1.49,0,0,1,201.59,85.68Z"/><circle class="cls-52" cx="203.06" cy="87.59" r="1.14"/><g class="cls-53"><rect class="cls-54" x="206.45" y="102.02" width="4.12" height="24.99" rx="0.48"/></g><line class="cls-55" x1="225.34" y1="87.7" x2="206.47" y2="87.7"/><path class="cls-56" d="M225.34,88.05H206.47a.35.35,0,0,1-.35-.35.35.35,0,0,1,.35-.35h18.87a.35.35,0,0,1,.35.35A.35.35,0,0,1,225.34,88.05Z"/><path class="cls-57" d="M231.32,92.75H204.45a.22.22,0,1,1,0-.44h26.87a.22.22,0,1,1,0,.44Z"/><g class="cls-53"><rect class="cls-58" x="225.8" y="91.22" width="4.12" height="35.79" rx="0.58"/></g><path class="cls-59" d="M231.32,95.6H204.45a.22.22,0,0,1,0-.44h26.87a.22.22,0,0,1,0,.44Z"/><path class="cls-60" d="M231.32,98.45H204.45a.22.22,0,1,1,0-.44h26.87a.22.22,0,0,1,0,.44Z"/><path class="cls-61" d="M231.32,101.3H204.45a.22.22,0,0,1,0-.44h26.87a.22.22,0,0,1,0,.44Z"/><path class="cls-62" d="M231.32,104.15H204.45a.22.22,0,1,1,0-.43h26.87a.22.22,0,1,1,0,.43Z"/><path class="cls-63" d="M231.32,107H204.45a.22.22,0,0,1,0-.44h26.87a.22.22,0,0,1,0,.44Z"/><path class="cls-64" d="M231.32,109.86H204.45a.22.22,0,0,1,0-.44h26.87a.22.22,0,1,1,0,.44Z"/><path class="cls-65" d="M231.32,112.71H204.45a.22.22,0,1,1,0-.44h26.87a.22.22,0,0,1,0,.44Z"/><path class="cls-66" d="M231.32,115.56H204.45a.22.22,0,1,1,0-.44h26.87a.22.22,0,1,1,0,.44Z"/><path class="cls-67" d="M231.32,118.41H204.45a.22.22,0,1,1,0-.43h26.87a.22.22,0,1,1,0,.43Z"/><path class="cls-68" d="M231.32,121.26H204.45a.22.22,0,1,1,0-.43h26.87a.22.22,0,1,1,0,.43Z"/><path class="cls-69" d="M231.32,124.12H204.45a.22.22,0,1,1,0-.44h26.87a.22.22,0,1,1,0,.44Z"/><g class="cls-53"><rect class="cls-70" x="212.9" y="96.27" width="4.12" height="30.74" rx="0.54"/></g><g class="cls-53"><rect class="cls-71" x="219.35" y="98.94" width="4.12" height="28.08" rx="0.51"/></g><polygon class="cls-72" points="230.46 127.16 202.17 127.16 202.17 91.86 202.67 91.86 202.67 126.66 230.46 126.66 230.46 127.16"/><path class="cls-73" d="M202.26,91.65l-.76,1.42a.18.18,0,0,0,.16.26h1.52a.18.18,0,0,0,.15-.26l-.76-1.42A.18.18,0,0,0,202.26,91.65Z"/><path class="cls-74" d="M231.5,126.73l-1.42-.76a.17.17,0,0,0-.25.15v1.52a.17.17,0,0,0,.25.16l1.42-.76A.18.18,0,0,0,231.5,126.73Z"/><path class="cls-75" d="M205,123a3.15,3.15,0,0,1-.52,0l.18-1a1.19,1.19,0,0,0,.95-.16c.78-.57,1-2.45,1.19-4.12.28-2.4.57-4.88,2.51-5,1.78-.09,2.14,1.87,2.48,3.6s.67,3.07,1.64,3.13h0c.92,0,1.51-2.94,2-5.3.68-3.41,1.39-6.94,3.53-7s2.79,2.56,3.33,4.9c.49,2.09.9,3.55,1.74,3.42a2.67,2.67,0,0,1,3,1.27c.39.55.6.8,1.22.76s.82-1.86,1-3.19c.23-2,.44-3.8,1.82-3.8v1c-.49,0-.7,1.83-.83,2.92-.22,2-.46,4-1.9,4.07a2.17,2.17,0,0,1-2.1-1.17,1.7,1.7,0,0,0-2-.87c-1.84.31-2.36-2-2.88-4.18-.57-2.46-1.1-4.2-2.31-4.13-1.37.06-2.05,3.49-2.6,6.24-.67,3.32-1.27,6.19-3,6.09s-2.22-2.13-2.57-3.93-.6-2.85-1.45-2.79c-1.1.05-1.34,2.11-1.57,4.1s-.46,4-1.59,4.81A2,2,0,0,1,205,123Z"/><rect class="cls-76" x="166.75" y="85.64" width="31.86" height="17.23" rx="1.43" transform="translate(365.36 188.5) rotate(180)"/><path class="cls-77" d="M168.18,85.64h29a1.43,1.43,0,0,1,1.43,1.43v2.27a0,0,0,0,1,0,0H166.75a0,0,0,0,1,0,0V87.07A1.43,1.43,0,0,1,168.18,85.64Z"/><line class="cls-78" x1="183.99" y1="87.58" x2="172.89" y2="87.58"/><path class="cls-79" d="M184,88h-11.1a.38.38,0,1,1,0-.75H184a.38.38,0,1,1,0,.75Z"/><path class="cls-80" d="M176.38,101.2a4.89,4.89,0,0,1-6.2-4.69,4.73,4.73,0,0,1,.29-1.65l4.58,1.65Z"/><path class="cls-81" d="M180.52,96.34A4.88,4.88,0,0,1,177,101l-1.36-4.68,3.5-3.38A4.83,4.83,0,0,1,180.52,96.34Z"/><path class="cls-82" d="M178.67,92.43l-3.5,3.38-4.58-1.65a4.86,4.86,0,0,1,8.08-1.73Z"/><circle class="cls-83" cx="184.01" cy="92.69" r="1.07"/><path class="cls-84" d="M196,93.16h-8.89a.47.47,0,1,1,0-.93H196a.47.47,0,1,1,0,.93Z"/><circle class="cls-85" cx="184.01" cy="96.03" r="1.07"/><line class="cls-86" x1="187.13" y1="96.03" x2="196.02" y2="96.03"/><path class="cls-87" d="M196,96.5h-8.89a.47.47,0,1,1,0-.94H196a.47.47,0,0,1,0,.94Z"/><circle class="cls-88" cx="184.01" cy="99.36" r="1.07"/><path class="cls-89" d="M196,99.83h-8.89a.47.47,0,0,1,0-.94H196a.47.47,0,0,1,0,.94Z"/><rect class="cls-90" x="133.12" y="85.64" width="31.94" height="17.27" rx="1.43"/><path class="cls-91" d="M134.55,85.64h29.08a1.43,1.43,0,0,1,1.43,1.43v2.28a0,0,0,0,1,0,0H133.12a0,0,0,0,1,0,0V87.07A1.43,1.43,0,0,1,134.55,85.64Z"/><circle class="cls-92" cx="135.97" cy="87.48" r="1.1"/><line class="cls-93" x1="150.4" y1="87.58" x2="139.27" y2="87.58"/><path class="cls-94" d="M150.4,87.94H139.27a.36.36,0,0,1,0-.72H150.4a.36.36,0,0,1,0,.72Z"/><line class="cls-95" x1="136.27" y1="91.16" x2="163.39" y2="91.16"/><path class="cls-96" d="M163.39,91.25H136.27a.09.09,0,0,1,0-.18h27.12a.09.09,0,1,1,0,.18Z"/><line class="cls-97" x1="136.27" y1="92.83" x2="163.39" y2="92.83"/><path class="cls-96" d="M163.39,92.92H136.27a.09.09,0,0,1,0-.18h27.12a.09.09,0,1,1,0,.18Z"/><line class="cls-98" x1="136.27" y1="94.5" x2="163.39" y2="94.5"/><path class="cls-96" d="M163.39,94.6H136.27a.09.09,0,0,1-.09-.1.09.09,0,0,1,.09-.09h27.12a.09.09,0,0,1,.09.09A.09.09,0,0,1,163.39,94.6Z"/><line class="cls-99" x1="136.27" y1="96.18" x2="163.39" y2="96.18"/><path class="cls-96" d="M163.39,96.27H136.27a.09.09,0,0,1-.09-.1.09.09,0,0,1,.09-.09h27.12a.09.09,0,0,1,.09.09A.09.09,0,0,1,163.39,96.27Z"/><line class="cls-100" x1="136.27" y1="97.85" x2="163.39" y2="97.85"/><path class="cls-96" d="M163.39,97.94H136.27a.09.09,0,0,1-.09-.09.09.09,0,0,1,.09-.1h27.12a.09.09,0,0,1,.09.1A.09.09,0,0,1,163.39,97.94Z"/><line class="cls-101" x1="136.27" y1="99.52" x2="163.39" y2="99.52"/><path class="cls-96" d="M163.39,99.61H136.27a.09.09,0,0,1-.09-.09.1.1,0,0,1,.09-.1h27.12a.1.1,0,0,1,.09.1A.09.09,0,0,1,163.39,99.61Z"/><circle class="cls-102" cx="134.6" cy="91.16" r="0.37"/><circle class="cls-103" cx="134.6" cy="92.83" r="0.37"/><circle class="cls-104" cx="134.6" cy="94.5" r="0.37"/><circle class="cls-105" cx="134.6" cy="96.18" r="0.37"/><circle class="cls-106" cx="134.6" cy="97.85" r="0.37"/><circle class="cls-107" cx="134.6" cy="99.52" r="0.37"/><path class="cls-108" d="M165.05,93.32c-4.06-3.35-8.18-.26-14.24,6.18S138.2,93.58,134,102.83a4.15,4.15,0,0,0,.79.08H163.7a1.36,1.36,0,0,0,1.36-1.36V93.32Z"/><rect class="cls-109" x="25.51" y="83.04" width="44.92" height="24.66" rx="0.59" transform="translate(95.93 190.75) rotate(180)"/><rect class="cls-110" x="27.3" y="84.45" width="11.35" height="1.1" rx="0.4"/><rect class="cls-111" x="72.15" y="83.04" width="44.58" height="24.66" rx="0.59"/><rect class="cls-110" x="73.51" y="84.45" width="11.35" height="1.1" rx="0.4"/><rect class="cls-112" x="72.15" y="109.14" width="44.58" height="24.66" rx="0.59"/><rect class="cls-110" x="73.51" y="110.88" width="11.35" height="1.1" rx="0.4"/><path class="cls-113" d="M25.51,110v23a.79.79,0,0,0,.77.81H69.65a.79.79,0,0,0,.78-.81V110a.79.79,0,0,0-.78-.81H26.28A.79.79,0,0,0,25.51,110Z"/><rect class="cls-110" x="27.3" y="110.42" width="11.35" height="1.1" rx="0.4"/><g class="cls-114"><path class="cls-115" d="M90,113.54a1.72,1.72,0,0,0-1.1,1.85,1.58,1.58,0,0,0,.67,1,1,1,0,0,0-.24.43.92.92,0,0,0,.23.91l.13.07s0,0,0,0a1,1,0,0,0,.22.91,1.13,1.13,0,0,0,1.46-.6.92.92,0,0,0-.42-.92l.07-.11a.94.94,0,0,0,0-.47h.07a1.74,1.74,0,0,0,1.29-1.21C92.46,114.65,91.55,113.6,90,113.54Z"/><path class="cls-115" d="M91.77,113.42a1.36,1.36,0,0,0,1.31,0,1.11,1.11,0,0,0,.31,1.06,1.49,1.49,0,0,0,.65.34,3.11,3.11,0,0,0,.75,2.67,4.15,4.15,0,0,0,2.07,1.26,1.83,1.83,0,0,0-.25,2.5,1.55,1.55,0,0,0,1.21.51c.64-.08,1.1-.92.79-2.08a.93.93,0,0,0,.72-.57,1.57,1.57,0,0,0-.09-1,2.59,2.59,0,0,0,.54-4.21"/><path class="cls-116" d="M97.23,118.41c.14,2.11.29,4.22.43,6.33l-3.87.61-1-5.52Z"/><path class="cls-117" d="M93.48,123.46a3.16,3.16,0,0,1,1.37-3.06,3.06,3.06,0,0,1,2.49-.3c0,.65.09,1.3.14,2a3.82,3.82,0,0,1-1.4,1.59,3.68,3.68,0,0,1-2.47.53A5.14,5.14,0,0,1,93.48,123.46Z"/><path class="cls-116" d="M98.72,117.35c-.23-.31-.54-.17-.81.08a4.88,4.88,0,0,0,0-3.24,4.36,4.36,0,0,0-2.32-2.12,4.64,4.64,0,0,0-3.64.18,2.27,2.27,0,0,0-1.29,1.61c-.54,2.56-1.73,9.25.54,9.43,1.66.12,3.47.5,4.71-.44.58-.44.84-1.28,1.25-2.78h0C98.75,120.44,99.25,118.06,98.72,117.35Z"/><path class="cls-116" d="M110.58,144.37a.84.84,0,0,1,.71-.43c.28,0,.42.21.85.6a9.28,9.28,0,0,0,1,.75q1.56.17,1.56.33c0,.18-1.24.3-1.24.3,3.32,4.22-.18.81-.18.81,3.56,4.38-.41.51-.41.51,3,4.5-.29.68-.29.68.51.89.73,1.37.65,1.43s-.57-.42-1.43-1.45a10.78,10.78,0,0,1-1.14-2.41A1.37,1.37,0,0,1,110.58,144.37Z"/><path class="cls-116" d="M104.24,127.74c.76,1.61,4.44,9.32,5.12,10.74l3,6.48a.92.92,0,0,1-1.58.94c-1.55-2.21-3.93-5.59-5.49-7.75l-5.56-7.7a2.67,2.67,0,0,1,.58-3.7,2.62,2.62,0,0,1,3.91,1Z"/><path class="cls-116" d="M102.4,144.14a10.6,10.6,0,0,1,0,1.38l-10.84.74c-.54-2.81-.62-5.69-.93-8.5-.26-2.14-1-4.25-.88-6.42a12.38,12.38,0,0,1,.34-2.42A5.1,5.1,0,0,1,92.21,126c.2-.15,0-.55.24-.63.73-.27,1.35-.42,2.06-.76a4.44,4.44,0,0,1,3.29-.21,10.24,10.24,0,0,0,1.17.33c.74.16,1.15.72,1.81,1.21a5.06,5.06,0,0,1,1.47,1.66,9,9,0,0,1,.76,3.47c.07,2.36-.73,4.64-.89,7A32.92,32.92,0,0,0,102.4,144.14Z"/><path class="cls-117" d="M108.66,137l-3.22,1.34-.13-.19-.6-.82,3-2.36C108,135.72,108.38,136.41,108.66,137Z"/><polygon class="cls-117" points="88.2 138.74 86.84 140.62 83.78 138.38 84.63 136.6 88.2 138.74"/><path class="cls-118" d="M83.72,137.26l4.3,2.91,2.21-3.63.26,9.79,1.09-.07,10.85-.74,1.27-.09-.87-4.46,0-5.4,1.68,2.45,1.37-.83,2.76-1.66s-4.65-8.45-5.23-9.23c-.37-.5-2.1-1-3.31-1.32-.7-.18-1.22-.28-1.22-.28l-.08.08a4.82,4.82,0,0,1-6,.79c-.22-.13-.34-.22-.34-.22a6.35,6.35,0,0,0-1.09.44,7.49,7.49,0,0,0-3,2.62l-.91,1.74Z"/><polygon class="cls-119" points="90.22 136.54 88.02 140.17 83.72 137.26 87.44 130.15 90.22 136.54"/><path class="cls-119" d="M105.92,137.19l-1.37.83-1.68-2.45-1.17-2S104.85,135.14,105.92,137.19Z"/><path class="cls-115" d="M99,116.69a2.86,2.86,0,0,0,.41-3.6,2.35,2.35,0,0,0-2.47-.78,2.66,2.66,0,0,0-1.63-1.4,2.61,2.61,0,0,0-2.19.47,3.59,3.59,0,0,0-1-.56,2.58,2.58,0,0,0-2.35.78c-.78.89-1.08,2.41.12,3.08a2.2,2.2,0,0,0,2.9-1,.9.9,0,0,0,.62.75.86.86,0,0,0,.92-.29,1,1,0,0,0,.36.84.75.75,0,0,0,.5.13,2.79,2.79,0,0,0,.86,2.14c.65.58,1.1,1.11,1.77.57"/><path class="cls-119" d="M91.36,125.79a5.89,5.89,0,0,0,5,1.49,6.77,6.77,0,0,0,3.81-2.3c-.7-.18-1.22-.28-1.22-.28l-.08.08a4.82,4.82,0,0,1-6,.79c-.22-.13-.34-.22-.34-.22A6.35,6.35,0,0,0,91.36,125.79Z"/></g><g class="cls-120"><g class="cls-121"><path class="cls-115" d="M93,97.24c-3.53-2.57-2.09-.53-.2-1.76.46-.29-2.94,0-3.64-1.46a6.61,6.61,0,0,1-.61-4.56c.33-2.42,2.14-2.32,3.44-1.92a7.28,7.28,0,0,1,1.34.58l-.15,4"/><path class="cls-115" d="M95.75,96.6c-2-.87-2.91-4.33-2.91-4.33l1.23-1.36-3-2.7a2.09,2.09,0,0,1,.31-.36h0a2.4,2.4,0,0,1,.5-.37,2.43,2.43,0,0,1,.85-.29,3.23,3.23,0,0,1,1.26,0c1.42.3,1.94,1.72,3.19,1.63a1.82,1.82,0,0,1,2,1.43C100.58,95.87,95.75,96.6,95.75,96.6Z"/><path class="cls-116" d="M94,100.13a3.48,3.48,0,0,1-1.72-.84l.11,0c1.33-.28.74-2.82.74-2.82l3.56-2.14s-1,4.27-.54,4.81c.11.15.36.2.69.24A3.71,3.71,0,0,1,94,100.13Z"/><path class="cls-117" d="M96.7,94.31,96.37,96a3.46,3.46,0,0,1-.69,1,3.69,3.69,0,0,1-2.41.95c0-.17,0-.34,0-.51a12.57,12.57,0,0,0-.15-1.47Z"/><path class="cls-116" d="M92.86,103.6l-2.25,2.85-1.31,1.66-.65.82-.2.26c-.57.73-.62,3.06-1.16,2.3l-2.3,2c-.54-.75-1.22-4-.52-3.39l2.37-4.49.14-.29.53-1.07,1.51-3a2.28,2.28,0,1,1,3.84,2.42Z"/><path class="cls-116" d="M97.81,94c-.57,1-1.13.32-1.13.32C96,96,94.35,97.8,92,97.27c-2.11-.48-2.59-3.11-2.18-5.43a6.6,6.6,0,0,1,1.3-3.1,2.81,2.81,0,0,1,1.75-.88,5.15,5.15,0,0,1,2.07.18c2.44.55,2,4.13,2,4.13C98.24,91.64,98.29,93.2,97.81,94Z"/><path class="cls-116" d="M109.83,115.74s2.92.21.53.54c0,0,3.24,2.75.32,1,0,0,2.73,2.94-.41.34,0,0,2.12,2.84-.49.25,0,0,1.47,2.78-.67-.09-2.27-3-1.56-2.91-1.56-2.91Z"/><path class="cls-116" d="M109.61,116.77a.78.78,0,0,1-1.1.07,65.59,65.59,0,0,1-7.91-8.15c-.31-.36-.6-.73-.89-1.1-.92-1.17-1.8-2.38-2.64-3.61l0,0a2.74,2.74,0,0,1-.19-.34,2.28,2.28,0,0,1,4.16-1.86c.6,1.33,1.24,2.65,1.93,3.94.2.37.4.74.61,1.11.41.74.84,1.47,1.29,2.2a65.24,65.24,0,0,0,4.78,6.77A.78.78,0,0,1,109.61,116.77Z"/><path class="cls-116" d="M102.2,113.31l-.06,0c-7.38,2.33-11.94.24-13.51-.73a2.85,2.85,0,0,1,.4-.95c.06-.1.14-.21.21-.31l.23-.31.32-.43.14-.18a3.49,3.49,0,0,0,.62-1.21,2.47,2.47,0,0,0,.08-.6c0-.2,0-.4,0-.6a7.27,7.27,0,0,0-.2-1.21,11.65,11.65,0,0,0-.39-1.23c-.15-.41-.3-.83-.43-1.24a7.57,7.57,0,0,1-.31-1.27c0-.06,0-.12,0-.18a5.1,5.1,0,0,1,0-1,2,2,0,0,1,.39-1.19,3,3,0,0,1,.56-.56,4,4,0,0,1,.37-.25h0l.11-.06.13-.07,0,0,.05,0a.93.93,0,0,1,.2-.08,9.74,9.74,0,0,1,7,.22l.1,0h0l.32.15a7,7,0,0,1,.88.49h0l.23.16.19.16c.13.11.23.21.33.31a3.51,3.51,0,0,1,.43.59,2,2,0,0,1,.26,1.11,6.58,6.58,0,0,1-.4,2.13c-.13.36-.26.71-.38,1.07a6.86,6.86,0,0,0-.31,1.07c0,.09,0,.17-.05.25s0,.2,0,.3a4.87,4.87,0,0,0,0,.54,3.48,3.48,0,0,0,0,.55,1.77,1.77,0,0,0,.13.54,3.33,3.33,0,0,0,.76,1.09l.54.53.26.27.24.26.06.07,0,.06h0c.09.21.18.4.26.57l.18.39v.06A3.47,3.47,0,0,1,102.2,113.31Z"/><path class="cls-117" d="M89.8,91.84a6.6,6.6,0,0,1,1.3-3.1,2.81,2.81,0,0,1,1.75-.88c.26.08.45.33.5.83C93.52,90.44,91,91.47,89.8,91.84Z"/><path class="cls-115" d="M91.54,88.52V89s.66-.31,1.32.5l.15.19h0a1.59,1.59,0,0,1,.13.22s0,0,0,0a5.83,5.83,0,0,1,.37.88c0,.14.09.28.13.44.61,2.27,1.94,2.35,3,1.59h0a4.41,4.41,0,0,0,.51-.46l.25-.3,0-.06c1-1.44,1.08-5.09-2-5.65S91.15,87.46,91.54,88.52Z"/><path class="cls-115" d="M92.73,88a4.79,4.79,0,0,1-4,3.53c-1,.17,1.53-3.83,1.53-3.83l2.43,0"/><polygon class="cls-117" points="90.61 106.45 89.3 108.11 88.43 107.04 88.25 106.83 86.98 105.29 87.51 104.22 90.61 106.45"/><path class="cls-122" d="M90.71,99.57s-1.64.62-1.93,1.45-1.91,3.78-1.91,3.78l3.22,3,1.47-4Z"/><path class="cls-117" d="M103.56,106.8l-3,1.89c-.31-.36-.6-.73-.89-1.1l3.24-1.9C103.15,106.06,103.35,106.43,103.56,106.8Z"/><path class="cls-123" d="M90.71,99.57s-1.64.62-1.93,1.45-1.91,3.78-1.91,3.78l3.22,3,1.47-4Z"/><path class="cls-124" d="M102.21,112.59l.28.63-.29.09-.06,0c-7.38,2.33-11.94.24-13.51-.73l-.07,0a4.9,4.9,0,0,1-.55-.38s.24-.45.54-1.09c.63-1.35,1.54-3.55,1.11-4.26a5.65,5.65,0,0,1-.43-3.84l0-.11a13.93,13.93,0,0,1,1.28-3l.09-.15a.92.92,0,0,0,.07-.13l.09.05.11,0c3.75,1.85,6.32.7,7.22.14l0,0h0a.83.83,0,0,1,.36-.14,4.07,4.07,0,0,1,2.34,1.64c.65,1.21,2.61,4.48,2.61,4.48l-2.25,1.7-1.07.8.12.25,1.42,3h0c.11.24.2.45.29.63l.14.32A.83.83,0,0,1,102.21,112.59Z"/><path class="cls-125" d="M100.16,108.27l.12.25A.83.83,0,0,1,100.16,108.27Z"/><path class="cls-119" d="M101.23,107.47l-1.07.8c-.49-1.4-1.11-4.18-1.11-4.18Z"/><path class="cls-126" d="M102.49,113.22l-.29.09-.06,0c-7.38,2.33-11.94.24-13.51-.73l-.07,0a4.9,4.9,0,0,1-.55-.38s.24-.45.54-1.09a6.54,6.54,0,0,1,1.24-.49l.11,0,12.1,1.57h0l.18.39v.06Z"/><path class="cls-115" d="M95.27,87.91A2.9,2.9,0,1,0,98.16,85,2.89,2.89,0,0,0,95.27,87.91Z"/><path class="cls-127" d="M92.86,89.51h0l.15.19h0a1.59,1.59,0,0,1,.13.22s0,0,0,0a5.83,5.83,0,0,1,.37.88c0,.14.09.28.13.44.61,2.27,1.94,2.35,3,1.59h0a4.41,4.41,0,0,0,.51-.46c-1.29.39-1.79,0-2.39-1.3A2.92,2.92,0,0,0,92.86,89.51Z"/><path class="cls-128" d="M99.26,90.53s-.19-3.53-3.59-4.09A8.28,8.28,0,0,1,99.26,90.53Z"/></g></g><g class="cls-129"><path class="cls-115" d="M45.91,125.12a9,9,0,0,0,4.35,2.47c.14,0-.26-.81-.11-.79,1.06.11,1.49,1.1,3.35-.14a4.35,4.35,0,0,0,1.68-5.74c-.66-1.62,0-3.31-.39-6-.38-2.47-2.51-2.36-4-2a9.16,9.16,0,0,0-1.58.59l.18,4.13Z"/><path class="cls-115" d="M42.16,125.91l.21.11c2.39,1.41,1.93-2.46,2.78-1.25s.4,5.28,3.44,3.52.42-6.84.42-6.84l-1.86-2.75,4.5-5.47a3.49,3.49,0,0,0-.46-.73h0a4.16,4.16,0,0,0-.76-.75,3.23,3.23,0,0,0-1.28-.6,3.85,3.85,0,0,0-1.91.1,9.77,9.77,0,0,0-4.75,3c-.83,1-1.18,2.72-2.23,5.7C39.45,122.21,40.63,125.07,42.16,125.91Z"/><path class="cls-127" d="M45.35,118a2,2,0,0,0-1.13,2.38c.56,1.64-4.44,2.06-2,4.32s7.27.14,7.27.14l-.84-5.4Z"/><path class="cls-127" d="M53.26,129l-.43.07c-1.06.12,1.15-1,0-1.78-4.14-2.62-5.27-4.92-3-6.17a15.1,15.1,0,0,0,2.28-1.46c.18.35.14,1-.29,2.29-.6,1.85-.53,2,1.91,5C54.69,128.26,53.34,128.71,53.26,129Z"/><path class="cls-116" d="M48.56,125.72a3.62,3.62,0,0,0,1.83-.89l-.12,0c-1.41-.29-.78-3-.78-3l-3.79-2.28s1,4.55.58,5.12c-.12.16-.39.21-.74.25A3.92,3.92,0,0,0,48.56,125.72Z"/><path class="cls-117" d="M45.7,119.53l.36,1.75a3.6,3.6,0,0,0,.73,1,4,4,0,0,0,2.56,1c0-.18,0-.36,0-.55a10.35,10.35,0,0,1,.17-1.56Z"/><path class="cls-116" d="M49.79,129.42l2.39,3,1.39,1.77.69.87.22.28c.61.78.66,3.25,1.23,2.45l2.45,2.09c.58-.8,1.31-4.25.56-3.6l-2.53-4.79-.15-.31-.56-1.13-1.61-3.24a2.43,2.43,0,1,0-4.08,2.58Z"/><path class="cls-116" d="M44.52,119.24c.6,1.06,1.2.34,1.2.34.71,1.78,2.48,3.67,5,3.1,2.24-.51,2.75-3.31,2.32-5.78a7.11,7.11,0,0,0-1.39-3.3,3,3,0,0,0-1.86-.94,5.46,5.46,0,0,0-2.2.19c-2.6.59-2.16,4.41-2.16,4.41C44.06,116.68,44,118.35,44.52,119.24Z"/><path class="cls-116" d="M31.73,142.33s-3.11.24-.56.58c0,0-3.46,2.93-.35,1,0,0-2.9,3.12.44.36,0,0-2.26,3,.52.26,0,0-1.56,3,.72-.1,2.41-3.24,1.66-3.09,1.66-3.09Z"/><path class="cls-116" d="M32,143.43a.83.83,0,0,0,1.17.08,69.85,69.85,0,0,0,8.42-8.68c.33-.38.64-.78,1-1.17q1.45-1.87,2.81-3.84l0,0a3.07,3.07,0,0,0,.2-.36,2.43,2.43,0,0,0-4.43-2c-.63,1.41-1.32,2.81-2.05,4.19-.21.4-.43.79-.65,1.18-.44.79-.9,1.57-1.37,2.34a69.6,69.6,0,0,1-5.09,7.21A.82.82,0,0,0,32,143.43Z"/><path class="cls-116" d="M39.84,139.75l.08,0c7.85,2.47,12.7.24,14.37-.78a3.19,3.19,0,0,0-.43-1,3.15,3.15,0,0,0-.22-.33l-.24-.32-.35-.46-.14-.19a3.6,3.6,0,0,1-.66-1.29,2.34,2.34,0,0,1-.08-.64c0-.21,0-.43,0-.64a8.25,8.25,0,0,1,.21-1.29c.11-.43.26-.87.42-1.31s.32-.88.46-1.32a7.34,7.34,0,0,0,.32-1.35l0-.19a5.79,5.79,0,0,0,0-1.1,2.1,2.1,0,0,0-.42-1.27,3,3,0,0,0-.59-.59,3.77,3.77,0,0,0-.39-.26l0,0-.11-.06-.14-.07,0,0-.06,0-.2-.08a10.35,10.35,0,0,0-7.48.24l-.11,0h0l-.34.16c-.31.16-.63.33-.93.52l0,0-.25.17-.2.17a2.81,2.81,0,0,0-.35.33,3.41,3.41,0,0,0-.46.62,2.11,2.11,0,0,0-.28,1.18,7,7,0,0,0,.43,2.28c.13.37.28.75.41,1.13a9.4,9.4,0,0,1,.33,1.15c0,.08,0,.17,0,.26s0,.21,0,.31a3.82,3.82,0,0,1,0,.58,5.46,5.46,0,0,1,0,.58,2.11,2.11,0,0,1-.14.59,3.68,3.68,0,0,1-.81,1.15l-.57.57-.28.28a3.33,3.33,0,0,0-.25.28l-.07.07,0,.07h0c-.1.23-.2.43-.28.61s-.14.29-.19.41V139A3.3,3.3,0,0,0,39.84,139.75Z"/><path class="cls-117" d="M53.05,116.9a7.11,7.11,0,0,0-1.39-3.3,3,3,0,0,0-1.86-.94c-.28.09-.48.36-.53.89C49.08,115.41,51.79,116.51,53.05,116.9Z"/><path class="cls-115" d="M43.89,117.58l.06.06c1.41,1.32,4,1.94,5-.78a4.64,4.64,0,0,1,.67-1.25l0,0,.18-.2h0a2,2,0,0,1,2-.65v-.47c.52-1-1.16-2.53-5.28-2S42.53,116.22,43.89,117.58Z"/><path class="cls-115" d="M50,114.08a5.07,5.07,0,0,0,4.2,3.76c1.06.18-1.62-4.08-1.62-4.08l-2.58,0"/><polygon class="cls-117" points="52.18 132.45 53.57 134.22 54.51 133.08 54.7 132.85 56.04 131.21 55.48 130.08 52.18 132.45"/><path class="cls-130" d="M52.08,125.13s1.74.65,2.05,1.54,2,4,2,4l-3.42,3.19-1.57-4.21Z"/><path class="cls-117" d="M38.4,132.82l3.15,2c.33-.38.64-.78,1-1.17l-3.45-2C38.84,132,38.62,132.43,38.4,132.82Z"/><path class="cls-131" d="M52.08,125.13s1.74.65,2.05,1.54,2,4,2,4l-3.42,3.19-1.57-4.21Z"/><path class="cls-132" d="M55,138.54a4,4,0,0,1-.59.41l-.07.05c-1.67,1-6.52,3.25-14.37.78l-.08,0-.3-.09.3-.68.07-.14c0-.1.1-.21.16-.34s.19-.41.3-.67h0c.36-.78.86-1.82,1.51-3.17l.13-.26-1.14-.86-2.4-1.8s2.09-3.48,2.79-4.77,3.56-1.78,5.11-3.35a2.93,2.93,0,0,0,1.44.31,3.29,3.29,0,0,0,1.57-.35,22.23,22.23,0,0,0,2.69,1.56l.18.3a14.71,14.71,0,0,1,1.36,3.21.53.53,0,0,1,0,.12,6,6,0,0,1-.46,4.1c-.46.75.51,3.09,1.19,4.53C54.7,138.07,55,138.54,55,138.54Z"/><path class="cls-125" d="M42,134.39l-.13.26A1.26,1.26,0,0,0,42,134.39Z"/><path class="cls-119" d="M40.88,133.53l1.14.86c.52-1.49,1.18-4.45,1.18-4.45Z"/><path class="cls-127" d="M44.25,117.9h0c1.41,1.32,3.69,1.68,4.72-1a4.64,4.64,0,0,1,.67-1.25C48.9,116.44,46.56,119.44,44.25,117.9Z"/><path class="cls-126" d="M39.54,139.66l.3.09.08,0c7.85,2.47,12.7.24,14.37-.78l.07,0c.39-.25.59-.41.59-.41s-.25-.48-.57-1.16a6.81,6.81,0,0,0-1.33-.52l-.11,0L40.07,138.5h0c-.07.15-.14.29-.19.41V139Z"/></g><g class="cls-133"><path class="cls-115" d="M53.73,88.47a5.08,5.08,0,0,1-2.63,1,6,6,0,0,1-1.77-.08,2.57,2.57,0,0,1-.14,1q-.06.23-.12.51A10,10,0,0,0,49,96c0,.91-1-.61-1.7-.75-1.18-.22-2.7-4.94-2.26-6.25a2.49,2.49,0,0,1,2.08-1.77,2.46,2.46,0,0,1,1.35-1.74,5.25,5.25,0,0,1,2.1-.67l.42,0h.53l.27,0h.14l.23,0,.15,0,.2,0,.16,0,.16.06a3.62,3.62,0,0,1,.63.27l.09,0a2,2,0,0,0,1.7.11,1.11,1.11,0,0,1-.18,1.31A1.09,1.09,0,0,0,56,86,2.67,2.67,0,0,1,53.73,88.47Z"/><path class="cls-116" d="M47.66,91.61c-.33,1.94-.66,3.89-1,5.83,1.19.31,2.23,1.07,3.42,1.39.49-1.68,1.13-3.8,1.62-5.48Z"/><path class="cls-117" d="M50.69,96.66a2.79,2.79,0,0,0-3.29-3.49L47.09,95A3.5,3.5,0,0,0,50.5,97.3,3.59,3.59,0,0,0,50.69,96.66Z"/><path class="cls-116" d="M46.37,90.49c.24-.27.52-.11.75.14a4.46,4.46,0,0,1,.27-3,4.11,4.11,0,0,1,2.37-1.75,4.44,4.44,0,0,1,3.39.52A2.12,2.12,0,0,1,54.2,88c.27,2.43.75,8.75-1.39,8.69-1.56,0-3.3.14-4.37-.85-.5-.47-.66-1.27-.91-2.7h0C46.05,93.35,45.81,91.09,46.37,90.49Z"/><path class="cls-116" d="M46.29,97.23a12,12,0,0,0-3.08,1.42,4.93,4.93,0,0,0-1.52,1.56,7.89,7.89,0,0,0-.78,3.26c-.08,2.2.76,4.37.93,6.56a23.25,23.25,0,0,1-.22,4.93,9.73,9.73,0,0,0,.4,4.9,2.67,2.67,0,0,0,1,1.55,7.07,7.07,0,0,0,2,.81,16.75,16.75,0,0,0,2.13.37l.93.11a3,3,0,0,0,1.88-.42,5.66,5.66,0,0,0,1.85-1.75,5.55,5.55,0,0,0,.57-1.59c.85-3,.92-6.12,1.29-9.18.15-1,.38-2,.6-3a10.38,10.38,0,0,0,0-5.25,4.23,4.23,0,0,0-1.64-2.34,12.24,12.24,0,0,0-2.89-1.71,5.12,5.12,0,0,0-3.46-.22Z"/><path class="cls-116" d="M33.72,111.07,40,116.38a.83.83,0,0,0,1.16-1.17l-4.35-5.07,1.06-1,.62-.59L44,103.35a2.35,2.35,0,1,0-3.46-3.16l-4.79,6.16-1.07,1.38-1,1.32-.14.18A1.34,1.34,0,0,0,33.72,111.07Z"/><polygon class="cls-117" points="34.69 107.73 37.83 109.14 38.45 108.56 35.76 106.35 34.69 107.73"/><path class="cls-116" d="M53.58,100.7l5.05,11.4a.82.82,0,0,1-1.4.83l-7.65-9.83a2.35,2.35,0,1,1,4-2.4Z"/><polygon class="cls-117" points="54.62 110.31 55.87 112.1 58.27 109.97 57.56 108.57 54.62 110.31"/><path class="cls-134" d="M58.72,108.89,55,112.05,53.68,110v.17l0,9.24-13.35-1,.57-10L41,107.2l-2.24,2.09-.49-.4-3.17-2.56s5.51-6.38,6.1-7a13.39,13.39,0,0,1,3.66-1.55l.33-.11.13,0,.24-.07.09,0a7.18,7.18,0,0,0,.86.63A5.19,5.19,0,0,0,48,98.8a3.43,3.43,0,0,0,2.9-.48h0l.23-.18,0,0,.19.11h0l.18.11.08,0a17.18,17.18,0,0,1,2.58,2l1.6,3Z"/><path class="cls-116" d="M40.44,114.66c.71-.56,4.28,0,.67.19,0,0,4.76,1.08-.17.61,0,0,4.75,1.75-.22.6,0,0,3.32,1.47-.16.56C40.56,116.62,38.61,116.13,40.44,114.66Z"/><path class="cls-115" d="M47.35,87.58s0-1.66.27-1.93c0,0-1,1.25-.76,2.14S47.35,87.58,47.35,87.58Z"/><path class="cls-115" d="M47.35,87.28s-1.42-.16-1.67.23a4.22,4.22,0,0,1,1.31.21C47.41,87.92,47.35,87.28,47.35,87.28Z"/><path class="cls-115" d="M49.49,89.35a7.14,7.14,0,0,0,2.46.4s-.71.5-2.79-.08.34-.41.34-.41Z"/><path class="cls-115" d="M48.4,91.7c-1.87-1-1.45-1.43-1.47-.78,0,.91.34,2.41-.25,2.8-1,.66-2.07-3.37-1.63-4.68a2.49,2.49,0,0,1,2.08-1.77,2.46,2.46,0,0,1,1.35-1.74,5.25,5.25,0,0,1,2.1-.67l.42,0h.53l.27,0h.14l.23,0,.15,0,.2,0,.16,0,.16.06a3.62,3.62,0,0,1,.63.27l.09,0a2,2,0,0,0,1.7.11,1.11,1.11,0,0,1-.18,1.31A1.09,1.09,0,0,0,56,86a2.67,2.67,0,0,1-2.28,2.47,5.08,5.08,0,0,1-2.63,1,6,6,0,0,1-1.77-.08"/><path class="cls-116" d="M47.12,90.63c-.23-.25-.51-.41-.75-.14-.56.6-.32,2.86,1.16,2.66h0c.25,1.43.41,2.23.91,2.7C48.44,95.85,47.53,91,47.12,90.63Z"/><path class="cls-115" d="M49.64,88.78s-1.47,3.19-1.22,4a9.58,9.58,0,0,1-1.65-2.5c-.14-.76,2.48-2.31,2.48-2.31Z"/><polygon class="cls-135" points="53.68 109.96 55 112.05 58.72 108.89 55.85 103.45 53.68 109.96"/><path class="cls-115" d="M47.31,90.39a7.72,7.72,0,0,0,0,1.4s-1-1.19-.73-1.65S47.31,90.39,47.31,90.39Z"/><polygon class="cls-119" points="38.71 109.28 40.95 107.2 40.88 108.42 42.37 104.16 38.22 108.89 38.71 109.28"/><path class="cls-135" d="M51.67,98.44l-1.07,2.74-2.17-1.84-2.72,1.44-.9-3,.33-.11.13,0,.24-.07a8.15,8.15,0,0,0,1,.6,6.12,6.12,0,0,0,1.39.56,4.1,4.1,0,0,0,3.07-.35h0l.27-.16.19.11h0l.18.11Z"/><path class="cls-135" d="M51.41,98.28l-.89,2.45-2-1.83-1.19.67-1.4.79-.77-2.74.13,0,.24-.07.09,0a7.18,7.18,0,0,0,.86.63,6.12,6.12,0,0,0,1.39.56,4.1,4.1,0,0,0,3.07-.35h0l.23-.18,0,0,.19.11Z"/><path class="cls-135" d="M48.83,100.94a.58.58,0,0,1-.65.5.59.59,0,0,1,.16-1.16A.58.58,0,0,1,48.83,100.94Z"/><path class="cls-135" d="M48.54,102.75a.57.57,0,0,1-.64.48.56.56,0,0,1-.48-.63.56.56,0,0,1,.63-.49A.57.57,0,0,1,48.54,102.75Z"/></g><circle class="cls-136" cx="228.79" cy="137.49" r="1.14"/><circle class="cls-137" cx="224.5" cy="137.49" r="1.14"/><circle class="cls-138" cx="220.21" cy="137.49" r="1.14"/><rect class="cls-1" width="255" height="255"/></g></g></svg>