<svg xmlns="http://www.w3.org/2000/svg" xmlns:xlink="http://www.w3.org/1999/xlink" viewBox="0 0 255 255"><defs><style>.cls-1{fill:url(#linear-gradient);}.cls-2{fill:url(#Безымянный_градиент_192);}.cls-3{fill:url(#Безымянный_градиент_229);}.cls-4{fill:url(#Безымянный_градиент_5);}.cls-5{fill:url(#linear-gradient-2);}.cls-6{fill:url(#linear-gradient-3);}.cls-7{fill:url(#Безымянный_градиент_95);}.cls-8{fill:url(#Безымянный_градиент_26);}.cls-9{fill:#fff;}.cls-10{fill:url(#Безымянный_градиент_192-2);}.cls-11{fill:url(#Безымянный_градиент_192-3);}.cls-12{fill:url(#Безымянный_градиент_192-4);}.cls-13{fill:url(#Безымянный_градиент_192-5);}.cls-14{fill:url(#Безымянный_градиент_192-6);}.cls-15{fill:url(#Безымянный_градиент_126);}.cls-16{fill:url(#Безымянный_градиент_126-2);}.cls-17{fill:url(#Безымянный_градиент_126-3);}.cls-18{fill:#27494f;opacity:0.05;}.cls-19{fill:url(#Безымянный_градиент_126-4);}.cls-20{fill:url(#Безымянный_градиент_126-5);}.cls-21{fill:none;}</style><linearGradient id="linear-gradient" x1="50.62" y1="74.68" x2="211.45" y2="185.17" gradientUnits="userSpaceOnUse"><stop offset="0" stop-color="#e8fbff"/><stop offset="0.36" stop-color="#e4faff"/><stop offset="0.72" stop-color="#d8f8ff"/><stop offset="1" stop-color="#c9f5ff"/></linearGradient><linearGradient id="Безымянный_градиент_192" x1="64.84" y1="127.51" x2="184.03" y2="127.51" gradientUnits="userSpaceOnUse"><stop offset="0" stop-color="#17849e"/><stop offset="1" stop-color="#157087"/></linearGradient><linearGradient id="Безымянный_градиент_229" x1="179.41" y1="75.05" x2="192.64" y2="82" gradientUnits="userSpaceOnUse"><stop offset="0.02" stop-color="#ffd9a1"/><stop offset="1" stop-color="#f7c16f"/></linearGradient><linearGradient id="Безымянный_градиент_5" x1="179.29" y1="106.94" x2="192.66" y2="113.64" gradientUnits="userSpaceOnUse"><stop offset="0" stop-color="#5acee6"/><stop offset="1" stop-color="#b3e8f2"/></linearGradient><linearGradient id="linear-gradient-2" x1="179.39" y1="138.67" x2="192.64" y2="145.58" gradientUnits="userSpaceOnUse"><stop offset="0" stop-color="#beddfd"/><stop offset="1" stop-color="#8bc3fd"/></linearGradient><linearGradient id="linear-gradient-3" x1="179.46" y1="170.43" x2="192.64" y2="177.48" gradientUnits="userSpaceOnUse"><stop offset="0" stop-color="#faafb5"/><stop offset="1" stop-color="#fa8c91"/></linearGradient><linearGradient id="Безымянный_градиент_95" x1="69.39" y1="125.22" x2="184.17" y2="125.22" gradientUnits="userSpaceOnUse"><stop offset="0" stop-color="#34adcc"/><stop offset="1" stop-color="#188aa5"/></linearGradient><linearGradient id="Безымянный_градиент_26" x1="94.63" y1="125.22" x2="158.94" y2="125.22" gradientUnits="userSpaceOnUse"><stop offset="0" stop-color="#63d0e6"/><stop offset="1" stop-color="#baebf5"/></linearGradient><linearGradient id="Безымянный_градиент_192-2" x1="73.6" y1="77.79" x2="88.46" y2="77.79" xlink:href="#Безымянный_градиент_192"/><linearGradient id="Безымянный_градиент_192-3" x1="73.6" y1="102.33" x2="88.46" y2="102.33" xlink:href="#Безымянный_градиент_192"/><linearGradient id="Безымянный_градиент_192-4" x1="73.6" y1="126.88" x2="88.46" y2="126.88" xlink:href="#Безымянный_градиент_192"/><linearGradient id="Безымянный_градиент_192-5" x1="73.6" y1="151.43" x2="88.46" y2="151.43" xlink:href="#Безымянный_градиент_192"/><linearGradient id="Безымянный_градиент_192-6" x1="73.6" y1="175.98" x2="88.46" y2="175.98" xlink:href="#Безымянный_градиент_192"/><linearGradient id="Безымянный_градиент_126" x1="58.46" y1="77.79" x2="83.89" y2="77.79" gradientUnits="userSpaceOnUse"><stop offset="0" stop-color="#83d6eb"/><stop offset="1" stop-color="#5dc1d9"/></linearGradient><linearGradient id="Безымянный_градиент_126-2" x1="58.46" y1="102.33" x2="83.89" y2="102.33" xlink:href="#Безымянный_градиент_126"/><linearGradient id="Безымянный_градиент_126-3" x1="58.46" y1="126.88" x2="83.89" y2="126.88" xlink:href="#Безымянный_градиент_126"/><linearGradient id="Безымянный_градиент_126-4" x1="58.46" y1="151.43" x2="83.89" y2="151.43" xlink:href="#Безымянный_градиент_126"/><linearGradient id="Безымянный_градиент_126-5" x1="58.46" y1="175.98" x2="83.89" y2="175.98" xlink:href="#Безымянный_градиент_126"/></defs><g id="Layer_2" data-name="Layer 2"><g id="Layer_1-2" data-name="Layer 1"><circle class="cls-1" cx="127.5" cy="127.5" r="103.84"/><path class="cls-2" d="M184,60.06V195a6.68,6.68,0,0,1-6.68,6.68H71.53A6.69,6.69,0,0,1,64.84,195V60.06a6.69,6.69,0,0,1,6.69-6.68H177.35A6.68,6.68,0,0,1,184,60.06Z"/><rect class="cls-3" x="177.79" y="64.81" width="14.95" height="26.63" rx="3.47"/><rect class="cls-4" x="177.79" y="96.62" width="14.95" height="26.63" rx="3.47"/><rect class="cls-5" x="177.79" y="128.42" width="14.95" height="26.63" rx="3.47"/><rect class="cls-6" x="177.79" y="160.22" width="14.95" height="26.63" rx="3.47"/><path class="cls-7" d="M184.17,59.83v130.8a6.16,6.16,0,0,1-.14,1.3,6.43,6.43,0,0,1-6.33,5.15H75.86a6.46,6.46,0,0,1-6.47-6.45V59.83a6.45,6.45,0,0,1,6.14-6.45,1.83,1.83,0,0,1,.33,0H177.7A6.47,6.47,0,0,1,184.17,59.83Z"/><path class="cls-8" d="M158.94,125.21a32.13,32.13,0,0,1-54.35,23.26l-.54-.52a32.15,32.15,0,1,1,54.89-22.74Z"/><path class="cls-9" d="M139.57,114.88v0a12.71,12.71,0,1,1-12.73-12.75A12.73,12.73,0,0,1,139.57,114.9Z"/><path class="cls-9" d="M149.1,147.91v.46a32.09,32.09,0,0,1-44.51.1v-.56a16,16,0,0,1,16.67-15.23h11.17A16,16,0,0,1,149.1,147.91Z"/><circle class="cls-10" cx="81.03" cy="77.79" r="7.43"/><circle class="cls-11" cx="81.03" cy="102.33" r="7.43"/><circle class="cls-12" cx="81.03" cy="126.88" r="7.43"/><circle class="cls-13" cx="81.03" cy="151.43" r="7.43"/><circle class="cls-14" cx="81.03" cy="175.98" r="7.43"/><path class="cls-15" d="M80.1,81.58H62.26a3.8,3.8,0,1,1,0-7.59H80.1a3.8,3.8,0,0,1,0,7.59Z"/><path class="cls-16" d="M80.1,106.13H62.26a3.8,3.8,0,1,1,0-7.59H80.1a3.8,3.8,0,0,1,0,7.59Z"/><path class="cls-17" d="M80.1,130.68H62.26a3.8,3.8,0,1,1,0-7.6H80.1a3.8,3.8,0,0,1,0,7.6Z"/><path class="cls-18" d="M184.17,59.83v130.8a6.16,6.16,0,0,1-.14,1.3v3a6.68,6.68,0,0,1-6.68,6.68H71.53A6.69,6.69,0,0,1,64.84,195V175.44c1.55-.23,3.07-.45,4.55-.73,84-14.7,89.48-94.16,88.83-121.33v0H177.7A6.47,6.47,0,0,1,184.17,59.83Z"/><path class="cls-19" d="M80.1,155.23H62.26a3.8,3.8,0,0,1,0-7.6H80.1a3.8,3.8,0,0,1,0,7.6Z"/><path class="cls-20" d="M80.1,179.77H62.26a3.8,3.8,0,1,1,0-7.59H80.1a3.8,3.8,0,0,1,0,7.59Z"/><rect class="cls-21" width="255" height="255"/></g></g></svg>