<svg xmlns="http://www.w3.org/2000/svg" xmlns:xlink="http://www.w3.org/1999/xlink" viewBox="0 0 255 290"><defs><style>.cls-1{fill:none;}.cls-2{isolation:isolate;}.cls-3{fill:url(#linear-gradient);}.cls-4{clip-path:url(#clip-path);}.cls-5{fill:#daf4fe;}.cls-6{fill:#ffa398;}.cls-7{fill:url(#Безымянный_градиент_95);}.cls-8{fill:url(#Безымянный_градиент_4);}.cls-9{fill:url(#Безымянный_градиент_4-2);}.cls-10{fill:url(#Безымянный_градиент_4-3);}.cls-11{mix-blend-mode:multiply;}.cls-12{fill:#e6e7e8;}.cls-13{fill:url(#Безымянный_градиент_4-4);}.cls-14{fill:url(#Безымянный_градиент_4-5);}.cls-15{fill:#e8928b;}.cls-16{fill:#2f3f5c;}.cls-17{fill:#27374f;}.cls-18{fill:#32abc9;}.cls-19{fill:#fff;}.cls-20{fill:#de7356;}.cls-21,.cls-22,.cls-23,.cls-24,.cls-25,.cls-26,.cls-27,.cls-28,.cls-29{opacity:0.9;}.cls-21{fill:url(#linear-gradient-2);}.cls-22{fill:url(#linear-gradient-3);}.cls-23{fill:url(#linear-gradient-4);}.cls-24{fill:url(#linear-gradient-5);}.cls-25{fill:url(#linear-gradient-6);}.cls-26{fill:url(#linear-gradient-7);}.cls-27{fill:url(#linear-gradient-8);}.cls-28{fill:url(#linear-gradient-9);}.cls-29{fill:url(#linear-gradient-10);}.cls-30{fill:url(#Безымянный_градиент_4-6);}</style><linearGradient id="linear-gradient" x1="36.62" y1="163.05" x2="219.99" y2="91.32" gradientUnits="userSpaceOnUse"><stop offset="0" stop-color="#e8fbff"/><stop offset="0.36" stop-color="#e4faff"/><stop offset="0.72" stop-color="#d8f8ff"/><stop offset="1" stop-color="#c9f5ff"/></linearGradient><clipPath id="clip-path"><circle class="cls-1" cx="127.5" cy="127.5" r="104.79"/></clipPath><linearGradient id="Безымянный_градиент_95" x1="57.72" y1="211.73" x2="197.86" y2="211.73" gradientUnits="userSpaceOnUse"><stop offset="0" stop-color="#34adcc"/><stop offset="1" stop-color="#188aa5"/></linearGradient><linearGradient id="Безымянный_градиент_4" x1="84.84" y1="287.77" x2="170.74" y2="287.77" gradientUnits="userSpaceOnUse"><stop offset="0" stop-color="#17849e"/><stop offset="1" stop-color="#157087"/></linearGradient><linearGradient id="Безымянный_градиент_4-2" x1="173.19" y1="203.65" x2="198.36" y2="203.65" xlink:href="#Безымянный_градиент_4"/><linearGradient id="Безымянный_градиент_4-3" x1="57.33" y1="203.65" x2="82.5" y2="203.65" xlink:href="#Безымянный_градиент_4"/><linearGradient id="Безымянный_градиент_4-4" x1="125.53" y1="155.4" x2="129.96" y2="155.4" xlink:href="#Безымянный_градиент_4"/><linearGradient id="Безымянный_градиент_4-5" x1="125.53" y1="162.26" x2="129.96" y2="162.26" xlink:href="#Безымянный_градиент_4"/><linearGradient id="linear-gradient-2" x1="152.35" y1="176.25" x2="152.35" y2="172.06" gradientUnits="userSpaceOnUse"><stop offset="0" stop-color="#fff"/><stop offset="0.36" stop-color="#fbfeff"/><stop offset="0.72" stop-color="#effcff"/><stop offset="1" stop-color="#e0f9ff"/></linearGradient><linearGradient id="linear-gradient-3" x1="148.62" y1="176.25" x2="148.62" y2="170.35" xlink:href="#linear-gradient-2"/><linearGradient id="linear-gradient-4" x1="157.4" y1="176.25" x2="157.4" y2="170.35" xlink:href="#linear-gradient-2"/><linearGradient id="linear-gradient-5" x1="150.29" y1="176.25" x2="150.29" y2="172.06" xlink:href="#linear-gradient-2"/><linearGradient id="linear-gradient-6" x1="154.87" y1="176.25" x2="154.87" y2="172.06" xlink:href="#linear-gradient-2"/><linearGradient id="linear-gradient-7" x1="159.87" y1="176.25" x2="159.87" y2="172.06" xlink:href="#linear-gradient-2"/><linearGradient id="linear-gradient-8" x1="162.39" y1="176.25" x2="162.39" y2="172.06" xlink:href="#linear-gradient-2"/><linearGradient id="linear-gradient-9" x1="164.61" y1="176.25" x2="164.61" y2="170.35" xlink:href="#linear-gradient-2"/><linearGradient id="linear-gradient-10" x1="140.04" y1="176.38" x2="143.74" y2="169.96" gradientUnits="userSpaceOnUse"><stop offset="0" stop-color="#fff"/><stop offset="0.43" stop-color="#f0fcff"/><stop offset="1" stop-color="#e0f9ff"/></linearGradient><linearGradient id="Безымянный_градиент_4-6" x1="105.67" y1="146.8" x2="148.9" y2="146.8" xlink:href="#Безымянный_градиент_4"/></defs><g class="cls-2"><g id="Layer_2" data-name="Layer 2"><g id="Layer_1-2" data-name="Layer 1"><circle class="cls-3" cx="127.5" cy="127.5" r="104.79"/><g class="cls-4"><polygon class="cls-5" points="84.29 201.06 71.93 222.38 54.77 215.22 61.22 191.43 84.29 201.06 84.29 201.06"/><polygon class="cls-5" points="195.85 194.75 202.29 218.54 185.13 225.69 172.77 204.37 195.85 194.75 195.85 194.75"/><path class="cls-5" d="M84.1,206.11l2.85-6s-1.69,60.39-3.15,83.62a2,2,0,0,0,1.46,2c6.09,1.61,21.24,1.92,42.53,1.92,20.23,0,36.25-.36,42.5-1.92a2,2,0,0,0,1.48-2c-1.46-23.24-3.15-83.61-3.15-83.61l2.86,6a1.58,1.58,0,0,0,2,.79l23.36-9.36a1.59,1.59,0,0,0,.9-2l-12.68-35.22A19.12,19.12,0,0,0,174,149l-19.36-7.49-10.73-5.58-15.29-.06-16.94.06-10.73,5.58L81.58,149A19.11,19.11,0,0,0,70.5,160.31L57.81,195.53a1.59,1.59,0,0,0,.91,2l23.35,9.36A1.59,1.59,0,0,0,84.1,206.11Z"/><path class="cls-5" d="M170.29,285.72c-6.25,1.56-22.27,1.92-42.5,1.92-21.29,0-36.44-.31-42.53-1.92a1.66,1.66,0,0,1-.38-.18c0,.21,0,.43,0,.63a1.89,1.89,0,0,0,1.43,1.95C92.21,289.7,107,290,127.79,290c19.75,0,35.4-.35,41.5-1.88a1.9,1.9,0,0,0,1.44-2l0-.62A3,3,0,0,1,170.29,285.72Z"/><path class="cls-5" d="M173.46,206.9l23.36-9.36a1.71,1.71,0,0,0,.5-.32l.93,2.08a1.26,1.26,0,0,1-.67,1.68l-21.75,9a1.26,1.26,0,0,1-1.65-.67l-1-2.36A1.31,1.31,0,0,0,173.46,206.9Z"/><path class="cls-5" d="M82.23,206.9l-23.36-9.36a1.71,1.71,0,0,1-.5-.32l-.93,2.08a1.26,1.26,0,0,0,.67,1.68l21.75,9a1.26,1.26,0,0,0,1.65-.67l1-2.36A1.31,1.31,0,0,1,82.23,206.9Z"/><path class="cls-5" d="M111.67,130.89l0,0,0,.11Z"/><circle class="cls-5" cx="127.74" cy="155.4" r="2.22"/><circle class="cls-5" cx="127.74" cy="162.26" r="2.22"/><polygon class="cls-5" points="142.8 101.14 142.12 113.21 142.04 114.57 141.5 124.2 141.45 125.16 141.3 127.74 140.91 134.71 140.81 136.38 140.77 137.04 140.69 138.54 140.58 140.39 140.16 147.75 113.18 148.37 112.71 139.04 112.6 136.88 112.52 135.16 112.28 130.72 111.88 123.02 111.8 121.38 111.06 107.06 142.8 101.14"/><path class="cls-5" d="M142.12,113.21l-.08,1.36-.55,9.63,0,1-.15,2.58-.39,7a46.9,46.9,0,0,1-28.4.45l-.24-4.44-.39-7.7-.09-1.64Z"/><path class="cls-5" d="M78.65,65.52c3,9.06,12.77,9.55,12.77,9.55s-.74,2.17,4.11,27.58,22.6,28.57,45.2,23.15,21.35-47.09,19.86-61.24c-1.11-10.66-9.82-9.93-14.07-8.93a2.11,2.11,0,0,1-1,0,2.15,2.15,0,0,1-.89-.45,1.9,1.9,0,0,1-.67-1.26C141.2,32.5,112.1,42.63,103.81,45.8s-27.16.73-27.16.73c-.49,12.94,15.07,18.14,12.9,19.22S78.65,65.52,78.65,65.52Z"/><path class="cls-5" d="M100.4,109.31c3-1.28,3.78-6.41,1.65-11.45s-5.41-6.28-8.45-5-4.68,4.6-2.55,9.64C96.05,103.65,97.36,110.59,100.4,109.31Z"/><path class="cls-5" d="M152.14,109.31c-3-1.29-3.78-6.41-1.65-11.45s5.41-6.28,8.45-5,2.13,3.09,0,8.13C153.94,102.13,155.18,110.59,152.14,109.31Z"/><path class="cls-5" d="M153.93,85.36c.27-10-.56-16.34-4.29-21.29a29.83,29.83,0,0,0-18.5-10.62c-10.26-1.66-19.78,5-25.13,8.91-4,2.88-5.65,7.53-6.33,12.37-3.12,20.21-.71,54.63,17.94,58.64,11.11,2.37,22.16,1,29.09-6.93,3.28-3.76,5.55-12.28,6.23-22.7"/><path class="cls-5" d="M78.65,65.52c3,9.06,12.77,9.55,12.77,9.55s4.2,4,7.61,4.53C128.62,84.3,137.9,71,137.9,71s25.22,17.93,22.69-6.39c-1.12-10.66-9.82-9.93-14.08-8.93a2.07,2.07,0,0,1-1,0,2.15,2.15,0,0,1-.89-.45,1.91,1.91,0,0,1-.68-1.26C141.2,32.5,112.1,42.63,103.81,45.8s-27.16.73-27.16.73c-.49,12.94,15.07,18.14,12.9,19.22S78.65,65.52,78.65,65.52Z"/><path class="cls-5" d="M76.78,46.53c6.07,9.78,19.1,10.19,30.91,5.41s18.63.73,26.77,4.43a8.9,8.9,0,0,0,10.3-1.17,1.9,1.9,0,0,1-.67-1.26c-2.75-21.44-31.86-11.31-40.15-8.14S76.78,46.53,76.78,46.53Z"/><path class="cls-5" d="M158.49,102.42a.86.86,0,0,1-.23,0,1,1,0,0,1-.71-1.18A42.23,42.23,0,0,0,158,84.13a40.06,40.06,0,0,0-6.31-15.52A34.52,34.52,0,0,0,140,57.87,30.52,30.52,0,0,0,125.38,54h0a30.49,30.49,0,0,0-14.63,3.81A34.72,34.72,0,0,0,99,68.58,40,40,0,0,0,92.72,84.1a42.05,42.05,0,0,0,.46,17.09,1,1,0,0,1-.71,1.17,1,1,0,0,1-1.16-.72,44.18,44.18,0,0,1-.48-17.89,42,42,0,0,1,6.63-16.29,36.49,36.49,0,0,1,12.37-11.32,32.28,32.28,0,0,1,15.54-4h0a32.37,32.37,0,0,1,15.56,4.06A36.71,36.71,0,0,1,153.3,67.49a42.18,42.18,0,0,1,6.62,16.3,44.37,44.37,0,0,1-.5,17.89A1,1,0,0,1,158.49,102.42Z"/><rect class="cls-5" x="91.26" y="91.73" width="7.64" height="17.55" rx="2.95"/><path class="cls-5" d="M118.24,121.4l16.84-.23S127.78,129.73,118.24,121.4Z"/><path class="cls-5" d="M135.08,121.17a12,12,0,0,1-8.37,3.88c-2.47,0-5.35-.92-8.47-3.65l16.84-.23m2.2-1-2.21,0-16.84.23-2.61,0,2,1.72c3,2.58,6,3.89,9.13,3.89a12.89,12.89,0,0,0,9.13-4.23l1.44-1.68Z"/><path class="cls-5" d="M100.23,123.5c-1.48,0-2.35-.18-2.9-.77-1.25-1.3-3.22-6.86-3.22-16.25a1,1,0,0,1,2,0c0,9.23,2,14.16,2.68,14.91.39.27,2.52.14,4.77,0s5.38-.31,9.34-.31a1,1,0,0,1,0,2c-3.9,0-7,.18-9.22.31C102.23,123.43,101.12,123.5,100.23,123.5Z"/><circle class="cls-5" cx="114.61" cy="121.54" r="2.54"/><rect class="cls-5" x="152.66" y="91.73" width="7.64" height="17.55" rx="2.95"/><path class="cls-5" d="M119.68,91.41c-3.4-.31-6.22-.84-9.45-.62a44.34,44.34,0,0,0-5.79,1.08c2.13-6.68,12.42-6.53,15.24-.46Z"/><path class="cls-5" d="M118,96.65a17.93,17.93,0,0,0-11.44-.17,8,8,0,0,1,11.44.17Z"/><path class="cls-5" d="M112.29,99.15a1.21,1.21,0,0,1-1.21-1.2V96.38a1.21,1.21,0,0,1,2.42,0V98A1.21,1.21,0,0,1,112.29,99.15Z"/><path class="cls-5" d="M132.14,91.41c2.82-6.07,13.11-6.22,15.23.46a44.2,44.2,0,0,0-5.78-1.08c-3.24-.22-6.05.31-9.45.62Z"/><path class="cls-5" d="M144.71,96.65a17.93,17.93,0,0,0-11.44-.17,8,8,0,0,1,11.44.17Z"/><path class="cls-5" d="M139,99.15a1.21,1.21,0,0,1-1.21-1.2V96.38a1.21,1.21,0,0,1,2.42,0V98A1.21,1.21,0,0,1,139,99.15Z"/><path class="cls-5" d="M126.43,114.56a40.34,40.34,0,0,1-4.23-2.34,60.45,60.45,0,0,1,5-15.51,59.81,59.81,0,0,1-3.71,15.37l-.23-.66a39.22,39.22,0,0,1,3.18,3.14Z"/><g id="Слой_2" data-name="Слой 2"><g id="Слой_1-2" data-name="Слой 1-2"><path class="cls-5" d="M152.7,172.12v3.07a.36.36,0,0,1-.3.36.35.35,0,0,1-.39-.3s0,0,0-.05v-3.08a.06.06,0,0,0-.05-.06h-.59a.06.06,0,0,0-.05.06v3.06a1.06,1.06,0,0,0,1,1.07,1.05,1.05,0,0,0,1.09-1v-3.12a.06.06,0,0,0-.05-.06h-.59A.06.06,0,0,0,152.7,172.12Z"/><path class="cls-5" d="M149.8,170.35h-2.36a0,0,0,0,0-.05.05v.54a0,0,0,0,0,.05.05h.83v5.21a.06.06,0,0,0,.06.05h.59a0,0,0,0,0,.05-.05V171h.83a.06.06,0,0,0,.06-.05v-.54A.06.06,0,0,0,149.8,170.35Z"/><path class="cls-5" d="M158.44,172.49v-1.07a1,1,0,0,0-2.09-.06v3.82a1.07,1.07,0,0,0,1,1.07,1,1,0,0,0,1.08-1v-1a0,0,0,0,0-.05-.05h-.59a0,0,0,0,0-.05.05v1a.37.37,0,0,1-.31.36.36.36,0,0,1-.39-.3v-3.84a.36.36,0,0,1,.3-.36.34.34,0,0,1,.39.3s0,0,0,0v1.1a.06.06,0,0,0,.05.06h.59A.06.06,0,0,0,158.44,172.49Z"/><path class="cls-5" d="M150.64,172.06a1,1,0,0,0-1,1.05v3.09a0,0,0,0,0,0,.05h.59a.06.06,0,0,0,.06-.05v-3.09a.35.35,0,0,1,.35-.35h.29a0,0,0,0,0,0,0v-.59a.06.06,0,0,0,0-.06Z"/><path class="cls-5" d="M154.84,172.06a1.08,1.08,0,0,0-1,1.08v2a1.07,1.07,0,0,0,1,1.07,1,1,0,0,0,1.08-1v-.17a0,0,0,0,0,0,0h-.59a.06.06,0,0,0-.06,0v.12a.35.35,0,0,1-.69.06v-.61h1.34a0,0,0,0,0,0,0v-1.48a1,1,0,0,0-1-1.05Zm-.31,1.88v-.83a.35.35,0,1,1,.69,0v.83Z"/><path class="cls-5" d="M159.87,172.06a1,1,0,0,0-1.05,1.05v2.09a1,1,0,1,0,2.09,0v-2.09A1,1,0,0,0,159.87,172.06Zm0,3.49a.35.35,0,0,1-.35-.35v-2.09a.35.35,0,1,1,.69,0v2.09A.35.35,0,0,1,159.87,175.55Z"/><path class="cls-5" d="M162.39,172.06h-1a.06.06,0,0,0,0,.06v4.08a.05.05,0,0,0,0,.05H162a.06.06,0,0,0,.06-.05v-3.44h.35a.35.35,0,0,1,.35.35v3.09a0,0,0,0,0,0,.05h.59a0,0,0,0,0,.05-.05v-3.09A1,1,0,0,0,162.39,172.06Z"/><path class="cls-5" d="M165.12,171.05h.3a.06.06,0,0,0,.05-.06v-.59a0,0,0,0,0-.05-.05h-.3a1,1,0,0,0-1,1v.67h-.27a.06.06,0,0,0-.05.06v.59a0,0,0,0,0,.05,0h.27v3.44a0,0,0,0,0,0,.05h.59a.06.06,0,0,0,.06-.05v-3.44h.48a0,0,0,0,0,.05,0v-.59a.06.06,0,0,0-.05-.06h-.48v-.67A.34.34,0,0,1,165.12,171.05Z"/><path class="cls-5" d="M145.9,173.28l-.8-.63a2.27,2.27,0,0,0,.06-1.78.94.94,0,0,0-.82-.39.93.93,0,0,0-.83.4,2.27,2.27,0,0,0,.06,1.78l-.25.21-.59-.43a2.81,2.81,0,0,0,.11-2.22,1.19,1.19,0,0,0-1.85,0c-.42.64-.06,1.77.11,2.22l-.59.43-.25-.21a2.27,2.27,0,0,0,.06-1.78.93.93,0,0,0-.83-.39.89.89,0,0,0-.81.38,2.22,2.22,0,0,0,0,1.78l-.8.63a.25.25,0,0,0-.09.24,4.17,4.17,0,0,0,8.15,0A.25.25,0,0,0,145.9,173.28Zm-7.55.29.82-.65a.22.22,0,0,0,.07-.28c-.17-.41-.37-1.18-.16-1.5,0,0,.11-.17.42-.17a.45.45,0,0,1,.42.17c.21.32,0,1.09-.17,1.5a.22.22,0,0,0,.07.28l.28.24-.29.22a.22.22,0,0,0-.09.19v2A3.63,3.63,0,0,1,138.35,173.57Zm1.85,2.33v-2.21l1.34-1a.23.23,0,0,0,.07-.29c-.15-.36-.52-1.48-.22-2a.6.6,0,0,1,.53-.22.6.6,0,0,1,.52.22c.3.47-.07,1.59-.22,2a.24.24,0,0,0,.08.29l1.33,1v2.21a3.62,3.62,0,0,1-3.44,0Zm3.92-.3v-2a.26.26,0,0,0-.1-.2l-.29-.21.29-.24a.23.23,0,0,0,.06-.28c-.12-.27-.4-1.14-.16-1.5,0,0,.11-.17.42-.17s.38.13.41.17c.21.32,0,1.09-.16,1.5a.26.26,0,0,0,.07.29l.82.64a3.69,3.69,0,0,1-1.36,2Z"/><rect class="cls-5" x="137.84" y="169.76" width="8.16" height="7.08"/></g></g><polygon class="cls-6" points="84.29 201.06 71.93 222.38 54.77 215.22 61.22 191.43 84.29 201.06 84.29 201.06"/><polygon class="cls-6" points="195.85 194.75 202.29 218.54 185.13 225.69 172.77 204.37 195.85 194.75 195.85 194.75"/><path class="cls-7" d="M84.1,206.11l2.85-6s-1.69,60.39-3.15,83.62a2,2,0,0,0,1.46,2c6.09,1.61,21.24,1.92,42.53,1.92,20.23,0,36.25-.36,42.5-1.92a2,2,0,0,0,1.48-2c-1.46-23.24-3.15-83.61-3.15-83.61l2.86,6a1.58,1.58,0,0,0,2,.79l23.36-9.36a1.59,1.59,0,0,0,.9-2l-12.68-35.22A19.12,19.12,0,0,0,174,149l-19.36-7.49-10.73-5.58-15.29-.06-16.94.06-10.73,5.58L81.58,149A19.11,19.11,0,0,0,70.5,160.31L57.81,195.53a1.59,1.59,0,0,0,.91,2l23.35,9.36A1.59,1.59,0,0,0,84.1,206.11Z"/><path class="cls-8" d="M170.29,285.72c-6.25,1.56-22.27,1.92-42.5,1.92-21.29,0-36.44-.31-42.53-1.92a1.66,1.66,0,0,1-.38-.18c0,.21,0,.43,0,.63a1.89,1.89,0,0,0,1.43,1.95C92.21,289.7,107,290,127.79,290c19.75,0,35.4-.35,41.5-1.88a1.9,1.9,0,0,0,1.44-2l0-.62A3,3,0,0,1,170.29,285.72Z"/><path class="cls-9" d="M173.46,206.9l23.36-9.36a1.71,1.71,0,0,0,.5-.32l.93,2.08a1.26,1.26,0,0,1-.67,1.68l-21.75,9a1.26,1.26,0,0,1-1.65-.67l-1-2.36A1.31,1.31,0,0,0,173.46,206.9Z"/><path class="cls-10" d="M82.23,206.9l-23.36-9.36a1.71,1.71,0,0,1-.5-.32l-.93,2.08a1.26,1.26,0,0,0,.67,1.68l21.75,9a1.26,1.26,0,0,0,1.65-.67l1-2.36A1.31,1.31,0,0,1,82.23,206.9Z"/><g class="cls-11"><path class="cls-12" d="M111.67,130.89l0,0,0,.11Z"/></g><circle class="cls-13" cx="127.74" cy="155.4" r="2.22"/><circle class="cls-14" cx="127.74" cy="162.26" r="2.22"/><polygon class="cls-6" points="142.8 101.14 142.12 113.21 142.04 114.57 141.5 124.2 141.45 125.16 141.3 127.74 140.91 134.71 140.81 136.38 140.77 137.04 140.69 138.54 140.58 140.39 140.16 147.75 113.18 148.37 112.71 139.04 112.6 136.88 112.52 135.16 112.28 130.72 111.88 123.02 111.8 121.38 111.06 107.06 142.8 101.14"/><path class="cls-15" d="M142.12,113.21l-.08,1.36-.55,9.63,0,1-.15,2.58-.39,7a46.9,46.9,0,0,1-28.4.45l-.24-4.44-.39-7.7-.09-1.64Z"/><path class="cls-16" d="M78.65,65.52c3,9.06,12.77,9.55,12.77,9.55s-.74,2.17,4.11,27.58,22.6,28.57,45.2,23.15,21.35-47.09,19.86-61.24c-1.11-10.66-9.82-9.93-14.07-8.93a2.11,2.11,0,0,1-1,0,2.15,2.15,0,0,1-.89-.45,1.9,1.9,0,0,1-.67-1.26C141.2,32.5,112.1,42.63,103.81,45.8s-27.16.73-27.16.73c-.49,12.94,15.07,18.14,12.9,19.22S78.65,65.52,78.65,65.52Z"/><path class="cls-6" d="M100.4,109.31c3-1.28,3.78-6.41,1.65-11.45s-5.41-6.28-8.45-5-4.68,4.6-2.55,9.64C96.05,103.65,97.36,110.59,100.4,109.31Z"/><path class="cls-6" d="M152.14,109.31c-3-1.29-3.78-6.41-1.65-11.45s5.41-6.28,8.45-5,2.13,3.09,0,8.13C153.94,102.13,155.18,110.59,152.14,109.31Z"/><path class="cls-6" d="M153.93,85.36c.27-10-.56-16.34-4.29-21.29a29.83,29.83,0,0,0-18.5-10.62c-10.26-1.66-19.78,5-25.13,8.91-4,2.88-5.65,7.53-6.33,12.37-3.12,20.21-.71,54.63,17.94,58.64,11.11,2.37,22.16,1,29.09-6.93,3.28-3.76,5.55-12.28,6.23-22.7"/><path class="cls-16" d="M78.65,65.52c3,9.06,12.77,9.55,12.77,9.55s4.2,4,7.61,4.53C128.62,84.3,137.9,71,137.9,71s25.22,17.93,22.69-6.39c-1.12-10.66-9.82-9.93-14.08-8.93a2.07,2.07,0,0,1-1,0,2.15,2.15,0,0,1-.89-.45,1.91,1.91,0,0,1-.68-1.26C141.2,32.5,112.1,42.63,103.81,45.8s-27.16.73-27.16.73c-.49,12.94,15.07,18.14,12.9,19.22S78.65,65.52,78.65,65.52Z"/><path class="cls-17" d="M76.78,46.53c6.07,9.78,19.1,10.19,30.91,5.41s18.63.73,26.77,4.43a8.9,8.9,0,0,0,10.3-1.17,1.9,1.9,0,0,1-.67-1.26c-2.75-21.44-31.86-11.31-40.15-8.14S76.78,46.53,76.78,46.53Z"/><path class="cls-18" d="M158.49,102.42a.86.86,0,0,1-.23,0,1,1,0,0,1-.71-1.18A42.23,42.23,0,0,0,158,84.13a40.06,40.06,0,0,0-6.31-15.52A34.52,34.52,0,0,0,140,57.87,30.52,30.52,0,0,0,125.38,54h0a30.49,30.49,0,0,0-14.63,3.81A34.72,34.72,0,0,0,99,68.58,40,40,0,0,0,92.72,84.1a42.05,42.05,0,0,0,.46,17.09,1,1,0,0,1-.71,1.17,1,1,0,0,1-1.16-.72,44.18,44.18,0,0,1-.48-17.89,42,42,0,0,1,6.63-16.29,36.49,36.49,0,0,1,12.37-11.32,32.28,32.28,0,0,1,15.54-4h0a32.37,32.37,0,0,1,15.56,4.06A36.71,36.71,0,0,1,153.3,67.49a42.18,42.18,0,0,1,6.62,16.3,44.37,44.37,0,0,1-.5,17.89A1,1,0,0,1,158.49,102.42Z"/><rect class="cls-18" x="91.26" y="91.73" width="7.64" height="17.55" rx="2.95"/><path class="cls-19" d="M118.24,121.4l16.84-.23S127.78,129.73,118.24,121.4Z"/><path class="cls-18" d="M100.23,123.5c-1.48,0-2.35-.18-2.9-.77-1.25-1.3-3.22-6.86-3.22-16.25a1,1,0,0,1,2,0c0,9.23,2,14.16,2.68,14.91.39.27,2.52.14,4.77,0s5.38-.31,9.34-.31a1,1,0,0,1,0,2c-3.9,0-7,.18-9.22.31C102.23,123.43,101.12,123.5,100.23,123.5Z"/><circle class="cls-18" cx="114.61" cy="121.54" r="2.54"/><rect class="cls-18" x="152.66" y="91.73" width="7.64" height="17.55" rx="2.95"/><path class="cls-16" d="M119.68,91.41c-3.4-.31-6.22-.84-9.45-.62a44.34,44.34,0,0,0-5.79,1.08c2.13-6.68,12.42-6.53,15.24-.46Z"/><path class="cls-17" d="M118,96.65a17.93,17.93,0,0,0-11.44-.17,8,8,0,0,1,11.44.17Z"/><path class="cls-17" d="M112.29,99.15a1.21,1.21,0,0,1-1.21-1.2V96.38a1.21,1.21,0,0,1,2.42,0V98A1.21,1.21,0,0,1,112.29,99.15Z"/><path class="cls-16" d="M132.14,91.41c2.82-6.07,13.11-6.22,15.23.46a44.2,44.2,0,0,0-5.78-1.08c-3.24-.22-6.05.31-9.45.62Z"/><path class="cls-17" d="M144.71,96.65a17.93,17.93,0,0,0-11.44-.17,8,8,0,0,1,11.44.17Z"/><path class="cls-17" d="M139,99.15a1.21,1.21,0,0,1-1.21-1.2V96.38a1.21,1.21,0,0,1,2.42,0V98A1.21,1.21,0,0,1,139,99.15Z"/><path class="cls-20" d="M126.43,114.56a40.34,40.34,0,0,1-4.23-2.34,60.45,60.45,0,0,1,5-15.51,59.81,59.81,0,0,1-3.71,15.37l-.23-.66a39.22,39.22,0,0,1,3.18,3.14Z"/><g id="Слой_2-2" data-name="Слой 2"><g id="Слой_1-2-2" data-name="Слой 1-2"><path class="cls-21" d="M152.7,172.12v3.07a.36.36,0,0,1-.3.36.35.35,0,0,1-.39-.3s0,0,0-.05v-3.08a.06.06,0,0,0-.05-.06h-.59a.06.06,0,0,0-.05.06v3.06a1.06,1.06,0,0,0,1,1.07,1.05,1.05,0,0,0,1.09-1v-3.12a.06.06,0,0,0-.05-.06h-.59A.06.06,0,0,0,152.7,172.12Z"/><path class="cls-22" d="M149.8,170.35h-2.36a0,0,0,0,0-.05.05v.54a0,0,0,0,0,.05.05h.83v5.21a.06.06,0,0,0,.06.05h.59a0,0,0,0,0,.05-.05V171h.83a.06.06,0,0,0,.06-.05v-.54A.06.06,0,0,0,149.8,170.35Z"/><path class="cls-23" d="M158.44,172.49v-1.07a1,1,0,0,0-2.09-.06v3.82a1.07,1.07,0,0,0,1,1.07,1,1,0,0,0,1.08-1v-1a0,0,0,0,0-.05-.05h-.59a0,0,0,0,0-.05.05v1a.37.37,0,0,1-.31.36.36.36,0,0,1-.39-.3v-3.84a.36.36,0,0,1,.3-.36.34.34,0,0,1,.39.3s0,0,0,0v1.1a.06.06,0,0,0,.05.06h.59A.06.06,0,0,0,158.44,172.49Z"/><path class="cls-24" d="M150.64,172.06a1,1,0,0,0-1,1.05v3.09a0,0,0,0,0,0,.05h.59a.06.06,0,0,0,.06-.05v-3.09a.35.35,0,0,1,.35-.35h.29a0,0,0,0,0,0,0v-.59a.06.06,0,0,0,0-.06Z"/><path class="cls-25" d="M154.84,172.06a1.08,1.08,0,0,0-1,1.08v2a1.07,1.07,0,0,0,1,1.07,1,1,0,0,0,1.08-1v-.17a0,0,0,0,0,0,0h-.59a.06.06,0,0,0-.06,0v.12a.35.35,0,0,1-.69.06v-.61h1.34a0,0,0,0,0,0,0v-1.48a1,1,0,0,0-1-1.05Zm-.31,1.88v-.83a.35.35,0,1,1,.69,0v.83Z"/><path class="cls-26" d="M159.87,172.06a1,1,0,0,0-1.05,1.05v2.09a1,1,0,1,0,2.09,0v-2.09A1,1,0,0,0,159.87,172.06Zm0,3.49a.35.35,0,0,1-.35-.35v-2.09a.35.35,0,1,1,.69,0v2.09A.35.35,0,0,1,159.87,175.55Z"/><path class="cls-27" d="M162.39,172.06h-1a.06.06,0,0,0,0,.06v4.08a.05.05,0,0,0,0,.05H162a.06.06,0,0,0,.06-.05v-3.44h.35a.35.35,0,0,1,.35.35v3.09a0,0,0,0,0,0,.05h.59a0,0,0,0,0,.05-.05v-3.09A1,1,0,0,0,162.39,172.06Z"/><path class="cls-28" d="M165.12,171.05h.3a.06.06,0,0,0,.05-.06v-.59a0,0,0,0,0-.05-.05h-.3a1,1,0,0,0-1,1v.67h-.27a.06.06,0,0,0-.05.06v.59a0,0,0,0,0,.05,0h.27v3.44a0,0,0,0,0,0,.05h.59a.06.06,0,0,0,.06-.05v-3.44h.48a0,0,0,0,0,.05,0v-.59a.06.06,0,0,0-.05-.06h-.48v-.67A.34.34,0,0,1,165.12,171.05Z"/><path class="cls-29" d="M145.9,173.28l-.8-.63a2.27,2.27,0,0,0,.06-1.78.94.94,0,0,0-.82-.39.93.93,0,0,0-.83.4,2.27,2.27,0,0,0,.06,1.78l-.25.21-.59-.43a2.81,2.81,0,0,0,.11-2.22,1.19,1.19,0,0,0-1.85,0c-.42.64-.06,1.77.11,2.22l-.59.43-.25-.21a2.27,2.27,0,0,0,.06-1.78.93.93,0,0,0-.83-.39.89.89,0,0,0-.81.38,2.22,2.22,0,0,0,0,1.78l-.8.63a.25.25,0,0,0-.09.24,4.17,4.17,0,0,0,8.15,0A.25.25,0,0,0,145.9,173.28Zm-7.55.29.82-.65a.22.22,0,0,0,.07-.28c-.17-.41-.37-1.18-.16-1.5,0,0,.11-.17.42-.17a.45.45,0,0,1,.42.17c.21.32,0,1.09-.17,1.5a.22.22,0,0,0,.07.28l.28.24-.29.22a.22.22,0,0,0-.09.19v2A3.63,3.63,0,0,1,138.35,173.57Zm1.85,2.33v-2.21l1.34-1a.23.23,0,0,0,.07-.29c-.15-.36-.52-1.48-.22-2a.6.6,0,0,1,.53-.22.6.6,0,0,1,.52.22c.3.47-.07,1.59-.22,2a.24.24,0,0,0,.08.29l1.33,1v2.21a3.62,3.62,0,0,1-3.44,0Zm3.92-.3v-2a.26.26,0,0,0-.1-.2l-.29-.21.29-.24a.23.23,0,0,0,.06-.28c-.12-.27-.4-1.14-.16-1.5,0,0,.11-.17.42-.17s.38.13.41.17c.21.32,0,1.09-.16,1.5a.26.26,0,0,0,.07.29l.82.64a3.69,3.69,0,0,1-1.36,2Z"/></g></g></g><rect class="cls-1" width="255" height="255"/><path class="cls-30" d="M112.44,134.81s4.36,10.57,15.09,10.66c9.48.07,13.46-10.86,13.46-10.86s2.37-.47,3.16.55,5.21,6.92,4.72,10.11-1.61,11.49-3.31,13.83c0,0-13.8-3.68-16-7.74a11.13,11.13,0,0,1-3.91,0s-8.58,5.89-15.77,7.2c0,0-6.09-9.47-3.61-16.65a17,17,0,0,1,4-6.67A5.73,5.73,0,0,1,112.44,134.81Z"/></g></g></g></svg>