<svg xmlns="http://www.w3.org/2000/svg" xmlns:xlink="http://www.w3.org/1999/xlink" viewBox="0 0 255 255"><defs><style>.cls-1{fill:none;}.cls-2{fill:url(#linear-gradient);}.cls-3{fill:url(#Безымянный_градиент_64);}.cls-4{fill:url(#Безымянный_градиент_254);}.cls-5{fill:url(#Безымянный_градиент_4);}.cls-6{fill:url(#Безымянный_градиент_95);}.cls-7{fill:url(#Безымянный_градиент_95-2);}.cls-113,.cls-131,.cls-132,.cls-69,.cls-70,.cls-8{opacity:0.8;}.cls-8{fill:url(#Безымянный_градиент_254-2);}.cls-9{opacity:0.9;fill:url(#Безымянный_градиент_254-3);}.cls-10,.cls-11,.cls-13,.cls-14,.cls-15,.cls-16{opacity:0.6;}.cls-10{fill:url(#linear-gradient-2);}.cls-11{fill:url(#linear-gradient-3);}.cls-12{fill:url(#linear-gradient-4);}.cls-13{fill:url(#linear-gradient-5);}.cls-14{fill:url(#linear-gradient-6);}.cls-15{fill:url(#linear-gradient-7);}.cls-16{fill:url(#linear-gradient-8);}.cls-17,.cls-18,.cls-19,.cls-20,.cls-21,.cls-22,.cls-23,.cls-24,.cls-25,.cls-26,.cls-27,.cls-28,.cls-29,.cls-30,.cls-31,.cls-32,.cls-33,.cls-34,.cls-35,.cls-36,.cls-37,.cls-38,.cls-39,.cls-40,.cls-41{opacity:0.5;}.cls-17{fill:url(#linear-gradient-9);}.cls-18{fill:url(#linear-gradient-10);}.cls-19{fill:url(#linear-gradient-11);}.cls-20{fill:url(#linear-gradient-12);}.cls-21{fill:url(#linear-gradient-13);}.cls-22{fill:url(#linear-gradient-14);}.cls-23{fill:url(#linear-gradient-15);}.cls-24{fill:url(#linear-gradient-16);}.cls-25{fill:url(#linear-gradient-17);}.cls-26{fill:url(#linear-gradient-18);}.cls-27{fill:url(#linear-gradient-19);}.cls-28{fill:url(#linear-gradient-20);}.cls-29{fill:url(#linear-gradient-21);}.cls-30{fill:url(#linear-gradient-22);}.cls-31{fill:url(#linear-gradient-23);}.cls-32{fill:url(#linear-gradient-24);}.cls-33{fill:url(#linear-gradient-25);}.cls-34{fill:url(#linear-gradient-26);}.cls-35{fill:url(#linear-gradient-27);}.cls-36{fill:url(#linear-gradient-28);}.cls-37{fill:url(#linear-gradient-29);}.cls-38{fill:url(#linear-gradient-30);}.cls-39{fill:url(#linear-gradient-31);}.cls-40{fill:url(#linear-gradient-32);}.cls-41{fill:url(#linear-gradient-33);}.cls-42{fill:url(#linear-gradient-34);}.cls-43{fill:#63d0e6;}.cls-44{fill:url(#linear-gradient-35);}.cls-45{fill:url(#linear-gradient-36);}.cls-46{fill:url(#linear-gradient-37);}.cls-47{clip-path:url(#clip-path);}.cls-48{fill:#2f3f5c;}.cls-49{fill:#ffa398;}.cls-50{fill:#e8928b;}.cls-51{fill:url(#Безымянный_градиент_7);}.cls-52,.cls-58,.cls-59,.cls-60,.cls-68{fill:#27374f;}.cls-130,.cls-52{opacity:0.2;}.cls-53{clip-path:url(#clip-path-2);}.cls-54{clip-path:url(#clip-path-3);}.cls-55{fill:url(#Безымянный_градиент_144);}.cls-56{fill:url(#Безымянный_градиент_95-3);}.cls-57{fill:url(#Безымянный_градиент_95-4);}.cls-58{opacity:0.1;}.cls-59{opacity:0.12;}.cls-61{fill:url(#Безымянный_градиент_144-2);}.cls-62{clip-path:url(#clip-path-4);}.cls-63{fill:url(#Безымянный_градиент_144-3);}.cls-64{fill:#cc394c;}.cls-65{fill:url(#Безымянный_градиент_144-4);}.cls-66{clip-path:url(#clip-path-5);}.cls-67{fill:url(#Безымянный_градиент_95-5);}.cls-68{opacity:0.15;}.cls-69{fill:url(#Безымянный_градиент_254-4);}.cls-70{fill:url(#Безымянный_градиент_254-5);}.cls-71{fill:url(#Безымянный_градиент_11);}.cls-72{fill:url(#Безымянный_градиент_64-2);}.cls-73{fill:url(#linear-gradient-38);}.cls-74{fill:url(#Безымянный_градиент_64-3);}.cls-75{fill:url(#Безымянный_градиент_11-2);}.cls-76{fill:url(#Безымянный_градиент_64-4);}.cls-77{fill:url(#linear-gradient-39);}.cls-78{fill:url(#linear-gradient-40);}.cls-79{fill:url(#Безымянный_градиент_140);}.cls-80{fill:url(#Безымянный_градиент_140-2);}.cls-81{fill:url(#Безымянный_градиент_11-3);}.cls-82{fill:url(#linear-gradient-41);}.cls-83{fill:url(#Безымянный_градиент_140-3);}.cls-84{fill:url(#Безымянный_градиент_64-5);}.cls-85{fill:url(#Безымянный_градиент_11-4);}.cls-86{fill:url(#linear-gradient-42);}.cls-87{fill:url(#Безымянный_градиент_64-6);}.cls-88{fill:url(#Безымянный_градиент_140-4);}.cls-89{fill:url(#Безымянный_градиент_64-7);}.cls-90{fill:url(#Безымянный_градиент_11-5);}.cls-91{fill:url(#Безымянный_градиент_64-8);}.cls-92{fill:url(#linear-gradient-43);}.cls-93{fill:url(#linear-gradient-44);}.cls-94{fill:url(#Безымянный_градиент_64-9);}.cls-95{fill:url(#Безымянный_градиент_140-5);}.cls-96{fill:url(#Безымянный_градиент_140-6);}.cls-97{fill:url(#Безымянный_градиент_11-6);}.cls-98{fill:url(#Безымянный_градиент_64-10);}.cls-99{fill:url(#Безымянный_градиент_140-7);}.cls-100{fill:url(#Безымянный_градиент_64-11);}.cls-101{fill:url(#linear-gradient-45);}.cls-102{fill:url(#Безымянный_градиент_64-12);}.cls-103{fill:url(#linear-gradient-46);}.cls-104{fill:url(#Безымянный_градиент_215);}.cls-105{fill:url(#Безымянный_градиент_215-2);}.cls-106{fill:url(#Безымянный_градиент_215-3);}.cls-107{fill:url(#linear-gradient-47);}.cls-108{fill:url(#Безымянный_градиент_254-6);}.cls-109{fill:url(#Безымянный_градиент_26);}.cls-110{fill:url(#Безымянный_градиент_26-2);}.cls-111{fill:#fff;}.cls-112{fill:url(#Безымянный_градиент_254-7);}.cls-113{fill:url(#Безымянный_градиент_4-2);}.cls-114{fill:url(#Безымянный_градиент_4-3);}.cls-115{fill:url(#Безымянный_градиент_4-4);}.cls-116{fill:url(#Безымянный_градиент_4-5);}.cls-117{opacity:0.7;}.cls-118{fill:url(#Безымянный_градиент_4-6);}.cls-119{fill:url(#Безымянный_градиент_4-7);}.cls-120{fill:url(#Безымянный_градиент_4-8);}.cls-121{fill:url(#Безымянный_градиент_4-9);}.cls-122{fill:url(#Безымянный_градиент_4-10);}.cls-123{fill:url(#Безымянный_градиент_4-11);}.cls-124{fill:url(#linear-gradient-48);}.cls-125{fill:url(#Безымянный_градиент_215-4);}.cls-126{fill:url(#Безымянный_градиент_215-5);}.cls-127{fill:url(#Безымянный_градиент_143);}.cls-128{fill:url(#Безымянный_градиент_306);}.cls-129{fill:url(#Безымянный_градиент_165);}.cls-130{fill:url(#Безымянный_градиент_165-2);}.cls-131{fill:url(#Безымянный_градиент_146);}.cls-132{fill:url(#Безымянный_градиент_146-2);}.cls-133{fill:url(#Безымянный_градиент_215-6);}.cls-134{fill:url(#linear-gradient-49);}.cls-135{fill:url(#Безымянный_градиент_215-7);}.cls-136{fill:#fafaf8;}.cls-137{fill:url(#Безымянный_градиент_215-8);}.cls-138{fill:url(#Безымянный_градиент_165-3);}.cls-139{fill:url(#Безымянный_градиент_215-9);}.cls-140{fill:url(#Безымянный_градиент_165-4);}.cls-141{fill:url(#Безымянный_градиент_165-5);}.cls-142{fill:url(#Безымянный_градиент_215-10);}.cls-143{fill:url(#Безымянный_градиент_165-6);}.cls-144{isolation:isolate;opacity:0.78;fill:url(#linear-gradient-50);}.cls-145{fill:url(#linear-gradient-51);}.cls-146{fill:url(#Безымянный_градиент_215-11);}.cls-147{fill:url(#Безымянный_градиент_165-7);}.cls-148{fill:url(#Безымянный_градиент_215-12);}</style><linearGradient id="linear-gradient" x1="75.1" y1="125.49" x2="186.2" y2="201.81" gradientUnits="userSpaceOnUse"><stop offset="0" stop-color="#e8fbff"/><stop offset="0.36" stop-color="#e4faff"/><stop offset="0.72" stop-color="#d8f8ff"/><stop offset="1" stop-color="#c9f5ff"/></linearGradient><linearGradient id="Безымянный_градиент_64" x1="54.34" y1="149.24" x2="189.95" y2="149.24" gradientTransform="translate(5.88)" gradientUnits="userSpaceOnUse"><stop offset="0" stop-color="#63d0e6"/><stop offset="0.17" stop-color="#67d1e7"/><stop offset="0.35" stop-color="#73d5e9"/><stop offset="0.53" stop-color="#87dced"/><stop offset="0.68" stop-color="#9ee4f2"/></linearGradient><linearGradient id="Безымянный_градиент_254" x1="58.7" y1="153.71" x2="197.73" y2="153.71" gradientUnits="userSpaceOnUse"><stop offset="0" stop-color="#31a2bf"/><stop offset="0.36" stop-color="#2091ad"/><stop offset="0.64" stop-color="#188aa5"/></linearGradient><linearGradient id="Безымянный_градиент_4" x1="100.88" y1="209.26" x2="145.52" y2="209.26" gradientUnits="userSpaceOnUse"><stop offset="0" stop-color="#17849e"/><stop offset="1" stop-color="#157087"/></linearGradient><linearGradient id="Безымянный_градиент_95" x1="100.88" y1="209.26" x2="116.73" y2="209.26" gradientUnits="userSpaceOnUse"><stop offset="0" stop-color="#34adcc"/><stop offset="1" stop-color="#188aa5"/></linearGradient><linearGradient id="Безымянный_градиент_95-2" x1="98.56" y1="216.37" x2="155.06" y2="216.37" xlink:href="#Безымянный_градиент_95"/><linearGradient id="Безымянный_градиент_254-2" x1="-830.66" y1="149.16" x2="-750.89" y2="149.16" gradientTransform="translate(895.62)" xlink:href="#Безымянный_градиент_254"/><linearGradient id="Безымянный_градиент_254-3" x1="-748.82" y1="148.5" x2="-703.37" y2="148.5" gradientTransform="translate(895.62)" xlink:href="#Безымянный_градиент_254"/><linearGradient id="linear-gradient-2" x1="65.11" y1="118.12" x2="75.48" y2="118.12" gradientUnits="userSpaceOnUse"><stop offset="0" stop-color="#f2fdff"/><stop offset="0.42" stop-color="#fafeff"/></linearGradient><linearGradient id="linear-gradient-3" x1="77.65" y1="114.71" x2="115.97" y2="114.71" xlink:href="#linear-gradient-2"/><linearGradient id="linear-gradient-4" x1="118.42" y1="118.1" x2="144.48" y2="118.1" xlink:href="#linear-gradient-2"/><linearGradient id="linear-gradient-5" x1="77.65" y1="121.17" x2="116.14" y2="121.17" xlink:href="#linear-gradient-2"/><linearGradient id="linear-gradient-6" x1="64.7" y1="179.51" x2="86.33" y2="179.51" xlink:href="#linear-gradient-2"/><linearGradient id="linear-gradient-7" x1="88.41" y1="179.51" x2="110.03" y2="179.51" xlink:href="#linear-gradient-2"/><linearGradient id="linear-gradient-8" x1="112.11" y1="179.51" x2="144.44" y2="179.51" xlink:href="#linear-gradient-2"/><linearGradient id="linear-gradient-9" x1="153.77" y1="148.07" x2="154.73" y2="148.07" xlink:href="#linear-gradient-2"/><linearGradient id="linear-gradient-10" x1="148.26" y1="117.44" x2="152.19" y2="117.44" xlink:href="#linear-gradient-2"/><linearGradient id="linear-gradient-11" x1="148.26" y1="120.1" x2="152.19" y2="120.1" xlink:href="#linear-gradient-2"/><linearGradient id="linear-gradient-12" x1="148.26" y1="122.76" x2="152.19" y2="122.76" xlink:href="#linear-gradient-2"/><linearGradient id="linear-gradient-13" x1="148.26" y1="125.42" x2="152.19" y2="125.42" xlink:href="#linear-gradient-2"/><linearGradient id="linear-gradient-14" x1="148.26" y1="128.09" x2="152.19" y2="128.09" xlink:href="#linear-gradient-2"/><linearGradient id="linear-gradient-15" x1="148.26" y1="130.75" x2="152.19" y2="130.75" xlink:href="#linear-gradient-2"/><linearGradient id="linear-gradient-16" x1="148.26" y1="133.41" x2="152.19" y2="133.41" xlink:href="#linear-gradient-2"/><linearGradient id="linear-gradient-17" x1="148.26" y1="136.07" x2="152.19" y2="136.07" xlink:href="#linear-gradient-2"/><linearGradient id="linear-gradient-18" x1="148.26" y1="138.73" x2="152.19" y2="138.73" xlink:href="#linear-gradient-2"/><linearGradient id="linear-gradient-19" x1="148.26" y1="141.39" x2="152.19" y2="141.39" xlink:href="#linear-gradient-2"/><linearGradient id="linear-gradient-20" x1="148.26" y1="144.06" x2="152.19" y2="144.06" xlink:href="#linear-gradient-2"/><linearGradient id="linear-gradient-21" x1="148.26" y1="146.72" x2="152.19" y2="146.72" xlink:href="#linear-gradient-2"/><linearGradient id="linear-gradient-22" x1="148.26" y1="149.38" x2="152.19" y2="149.38" xlink:href="#linear-gradient-2"/><linearGradient id="linear-gradient-23" x1="148.26" y1="152.04" x2="152.19" y2="152.04" xlink:href="#linear-gradient-2"/><linearGradient id="linear-gradient-24" x1="148.26" y1="154.7" x2="152.19" y2="154.7" xlink:href="#linear-gradient-2"/><linearGradient id="linear-gradient-25" x1="148.26" y1="157.37" x2="152.19" y2="157.37" xlink:href="#linear-gradient-2"/><linearGradient id="linear-gradient-26" x1="148.26" y1="160.03" x2="152.19" y2="160.03" xlink:href="#linear-gradient-2"/><linearGradient id="linear-gradient-27" x1="148.26" y1="162.69" x2="152.19" y2="162.69" xlink:href="#linear-gradient-2"/><linearGradient id="linear-gradient-28" x1="148.26" y1="165.35" x2="152.19" y2="165.35" xlink:href="#linear-gradient-2"/><linearGradient id="linear-gradient-29" x1="148.26" y1="168.01" x2="152.19" y2="168.01" xlink:href="#linear-gradient-2"/><linearGradient id="linear-gradient-30" x1="148.26" y1="170.67" x2="152.19" y2="170.67" xlink:href="#linear-gradient-2"/><linearGradient id="linear-gradient-31" x1="148.26" y1="173.34" x2="152.19" y2="173.34" xlink:href="#linear-gradient-2"/><linearGradient id="linear-gradient-32" x1="148.26" y1="176" x2="152.19" y2="176" xlink:href="#linear-gradient-2"/><linearGradient id="linear-gradient-33" x1="148.26" y1="178.66" x2="152.19" y2="178.66" xlink:href="#linear-gradient-2"/><linearGradient id="linear-gradient-34" x1="-4939.76" y1="138.5" x2="-4903.09" y2="138.5" gradientTransform="matrix(1, 0, 0, -1, 5007.39, 277.01)" xlink:href="#linear-gradient-2"/><linearGradient id="linear-gradient-35" x1="-789.92" y1="138.5" x2="-753.53" y2="138.5" gradientTransform="translate(895.62)" xlink:href="#linear-gradient-2"/><linearGradient id="linear-gradient-36" x1="-789.92" y1="159.81" x2="-753.53" y2="159.81" gradientTransform="translate(895.62)" gradientUnits="userSpaceOnUse"><stop offset="0" stop-color="#e3fbff"/><stop offset="1" stop-color="#f7feff"/></linearGradient><linearGradient id="linear-gradient-37" x1="-4939.76" y1="159.81" x2="-4903.09" y2="159.81" gradientTransform="matrix(-1, 0, 0, 1, -4835.46, 0)" xlink:href="#linear-gradient-2"/><clipPath id="clip-path"><rect class="cls-1" x="105.48" y="148.97" width="36.81" height="20.9"/></clipPath><linearGradient id="Безымянный_градиент_7" x1="-4807.41" y1="171.27" x2="-4787.04" y2="171.27" gradientTransform="matrix(-1, 0, 0, 1, -4671.89, 0)" gradientUnits="userSpaceOnUse"><stop offset="0" stop-color="#106db4"/><stop offset="1" stop-color="#0f5f9c"/></linearGradient><clipPath id="clip-path-2"><rect class="cls-1" x="106.84" y="129.96" width="33.77" height="18.55" transform="translate(247.45 278.48) rotate(180)"/></clipPath><clipPath id="clip-path-3"><rect class="cls-1" x="106.01" y="129.96" width="34.36" height="19.55"/></clipPath><linearGradient id="Безымянный_градиент_144" x1="82.36" y1="145.29" x2="86.19" y2="145.29" gradientTransform="translate(35.36)" gradientUnits="userSpaceOnUse"><stop offset="0" stop-color="#de3e53"/><stop offset="1" stop-color="#db5163"/></linearGradient><linearGradient id="Безымянный_градиент_95-3" x1="117.72" y1="145.29" x2="121.55" y2="145.29" xlink:href="#Безымянный_градиент_95"/><linearGradient id="Безымянный_градиент_95-4" x1="83.29" y1="147.98" x2="95.92" y2="147.98" gradientTransform="translate(35.36)" xlink:href="#Безымянный_градиент_95"/><linearGradient id="Безымянный_градиент_144-2" x1="-4970.57" y1="132.88" x2="-4967.65" y2="132.88" gradientTransform="matrix(-1, 0, 0, 1, -4842.74, 0)" xlink:href="#Безымянный_градиент_144"/><clipPath id="clip-path-4"><rect class="cls-1" x="67.41" y="150.11" width="35.94" height="19.74" transform="translate(170.76 319.96) rotate(180)"/></clipPath><linearGradient id="Безымянный_градиент_144-3" x1="-4970.76" y1="166.37" x2="-4966.69" y2="166.37" gradientTransform="matrix(-1, 0, 0, 1, -4878.11, 0)" xlink:href="#Безымянный_градиент_144"/><linearGradient id="Безымянный_градиент_144-4" x1="78.22" y1="168.59" x2="91.66" y2="168.59" gradientTransform="matrix(1, 0, 0, 1, 0, 0)" xlink:href="#Безымянный_градиент_144"/><clipPath id="clip-path-5"><rect class="cls-1" x="68.29" y="128.82" width="35.07" height="19.79"/></clipPath><linearGradient id="Безымянный_градиент_95-5" x1="75.42" y1="149.16" x2="94.74" y2="149.16" xlink:href="#Безымянный_градиент_95"/><linearGradient id="Безымянный_градиент_254-4" x1="120.28" y1="117.93" x2="125.52" y2="117.93" xlink:href="#Безымянный_градиент_254"/><linearGradient id="Безымянный_градиент_254-5" x1="126.55" y1="117.93" x2="141.62" y2="117.93" xlink:href="#Безымянный_градиент_254"/><linearGradient id="Безымянный_градиент_11" x1="157.4" y1="117.15" x2="162.75" y2="117.15" gradientUnits="userSpaceOnUse"><stop offset="0" stop-color="#f7a221"/><stop offset="1" stop-color="#f98a34"/></linearGradient><linearGradient id="Безымянный_градиент_64-2" x1="159.31" y1="119.98" x2="181.18" y2="119.98" gradientTransform="matrix(1, 0, 0, 1, 0, 0)" xlink:href="#Безымянный_градиент_64"/><linearGradient id="linear-gradient-38" x1="159.31" y1="122.63" x2="166.13" y2="122.63" gradientUnits="userSpaceOnUse"><stop offset="0" stop-color="#beddfd"/><stop offset="1" stop-color="#8bc3fd"/></linearGradient><linearGradient id="Безымянный_градиент_64-3" x1="167.8" y1="122.63" x2="178.04" y2="122.63" gradientTransform="matrix(1, 0, 0, 1, 0, 0)" xlink:href="#Безымянный_градиент_64"/><linearGradient id="Безымянный_градиент_11-2" x1="157.4" y1="128.09" x2="162.75" y2="128.09" xlink:href="#Безымянный_градиент_11"/><linearGradient id="Безымянный_градиент_64-4" x1="159.31" y1="130.91" x2="187.72" y2="130.91" gradientTransform="matrix(1, 0, 0, 1, 0, 0)" xlink:href="#Безымянный_градиент_64"/><linearGradient id="linear-gradient-39" x1="159.31" y1="133.56" x2="166.13" y2="133.56" xlink:href="#linear-gradient-38"/><linearGradient id="linear-gradient-40" x1="179.59" y1="133.56" x2="186.41" y2="133.56" xlink:href="#linear-gradient-38"/><linearGradient id="Безымянный_градиент_140" x1="167.8" y1="133.56" x2="178.04" y2="133.56" gradientUnits="userSpaceOnUse"><stop offset="0" stop-color="#fab2b6"/><stop offset="1" stop-color="#fae3e5"/></linearGradient><linearGradient id="Безымянный_градиент_140-2" x1="159.25" y1="136.02" x2="175.13" y2="136.02" xlink:href="#Безымянный_градиент_140"/><linearGradient id="Безымянный_градиент_11-3" x1="157.4" y1="139.02" x2="162.75" y2="139.02" xlink:href="#Безымянный_градиент_11"/><linearGradient id="linear-gradient-41" x1="159.31" y1="141.85" x2="185.64" y2="141.85" xlink:href="#linear-gradient-38"/><linearGradient id="Безымянный_градиент_140-3" x1="159.31" y1="144.5" x2="169.94" y2="144.5" xlink:href="#Безымянный_градиент_140"/><linearGradient id="Безымянный_градиент_64-5" x1="172.59" y1="144.5" x2="182.82" y2="144.5" gradientTransform="matrix(1, 0, 0, 1, 0, 0)" xlink:href="#Безымянный_градиент_64"/><linearGradient id="Безымянный_градиент_11-4" x1="157.4" y1="149.95" x2="162.75" y2="149.95" xlink:href="#Безымянный_градиент_11"/><linearGradient id="linear-gradient-42" x1="159.31" y1="152.78" x2="181.18" y2="152.78" xlink:href="#linear-gradient-38"/><linearGradient id="Безымянный_градиент_64-6" x1="159.31" y1="155.43" x2="166.13" y2="155.43" gradientTransform="matrix(1, 0, 0, 1, 0, 0)" xlink:href="#Безымянный_градиент_64"/><linearGradient id="Безымянный_градиент_140-4" x1="159.31" y1="157.72" x2="187.11" y2="157.72" xlink:href="#Безымянный_градиент_140"/><linearGradient id="Безымянный_градиент_64-7" x1="167.8" y1="155.43" x2="178.04" y2="155.43" gradientTransform="matrix(1, 0, 0, 1, 0, 0)" xlink:href="#Безымянный_градиент_64"/><linearGradient id="Безымянный_градиент_11-5" x1="157.4" y1="160.89" x2="162.75" y2="160.89" xlink:href="#Безымянный_градиент_11"/><linearGradient id="Безымянный_градиент_64-8" x1="159.31" y1="163.71" x2="181.18" y2="163.71" gradientTransform="matrix(1, 0, 0, 1, 0, 0)" xlink:href="#Безымянный_градиент_64"/><linearGradient id="linear-gradient-43" x1="159.31" y1="166.37" x2="166.13" y2="166.37" xlink:href="#linear-gradient-38"/><linearGradient id="linear-gradient-44" x1="159.31" y1="169.07" x2="183.36" y2="169.07" xlink:href="#linear-gradient-38"/><linearGradient id="Безымянный_градиент_64-9" x1="167.8" y1="166.37" x2="172.61" y2="166.37" gradientTransform="matrix(1, 0, 0, 1, 0, 0)" xlink:href="#Безымянный_градиент_64"/><linearGradient id="Безымянный_градиент_140-5" x1="174.24" y1="166.37" x2="179.04" y2="166.37" xlink:href="#Безымянный_градиент_140"/><linearGradient id="Безымянный_градиент_140-6" x1="180.67" y1="166.37" x2="185.48" y2="166.37" xlink:href="#Безымянный_градиент_140"/><linearGradient id="Безымянный_градиент_11-6" x1="157.4" y1="171.82" x2="162.75" y2="171.82" xlink:href="#Безымянный_градиент_11"/><linearGradient id="Безымянный_градиент_64-10" x1="159.31" y1="174.65" x2="172.08" y2="174.65" gradientTransform="matrix(1, 0, 0, 1, 0, 0)" xlink:href="#Безымянный_градиент_64"/><linearGradient id="Безымянный_градиент_140-7" x1="174.09" y1="174.65" x2="186.86" y2="174.65" xlink:href="#Безымянный_градиент_140"/><linearGradient id="Безымянный_градиент_64-11" x1="159.31" y1="179.81" x2="187.6" y2="179.81" gradientTransform="matrix(1, 0, 0, 1, 0, 0)" xlink:href="#Безымянный_градиент_64"/><linearGradient id="linear-gradient-45" x1="159.31" y1="177.3" x2="166.13" y2="177.3" xlink:href="#linear-gradient-38"/><linearGradient id="Безымянный_градиент_64-12" x1="167.8" y1="177.3" x2="178.04" y2="177.3" gradientTransform="matrix(1, 0, 0, 1, 0, 0)" xlink:href="#Безымянный_градиент_64"/><linearGradient id="linear-gradient-46" x1="14.85" y1="64.02" x2="53.55" y2="90.61" xlink:href="#linear-gradient"/><linearGradient id="Безымянный_градиент_215" x1="15" y1="77.95" x2="25.98" y2="77.95" gradientUnits="userSpaceOnUse"><stop offset="0.03" stop-color="#35b1d1"/><stop offset="0.99" stop-color="#188eab"/></linearGradient><linearGradient id="Безымянный_градиент_215-2" x1="29.51" y1="76.73" x2="37.2" y2="76.73" xlink:href="#Безымянный_градиент_215"/><linearGradient id="Безымянный_градиент_215-3" x1="40.74" y1="77.95" x2="51.7" y2="77.95" xlink:href="#Безымянный_градиент_215"/><linearGradient id="linear-gradient-47" x1="202.86" y1="64.02" x2="241.56" y2="90.61" xlink:href="#linear-gradient"/><linearGradient id="Безымянный_градиент_254-6" x1="202.51" y1="76.73" x2="240.42" y2="76.73" xlink:href="#Безымянный_градиент_254"/><linearGradient id="Безымянный_градиент_26" x1="203.4" y1="78.58" x2="239.56" y2="78.58" gradientUnits="userSpaceOnUse"><stop offset="0" stop-color="#63d0e6"/><stop offset="1" stop-color="#baebf5"/></linearGradient><linearGradient id="Безымянный_градиент_26-2" x1="231.42" y1="67.23" x2="235.57" y2="67.23" xlink:href="#Безымянный_градиент_26"/><linearGradient id="Безымянный_градиент_254-7" x1="211.94" y1="68.23" x2="221.89" y2="68.23" xlink:href="#Безымянный_градиент_254"/><linearGradient id="Безымянный_градиент_4-2" x1="216.03" y1="82.15" x2="222.22" y2="82.15" xlink:href="#Безымянный_градиент_4"/><linearGradient id="Безымянный_градиент_4-3" x1="222.15" y1="77.82" x2="228.35" y2="77.82" xlink:href="#Безымянный_градиент_4"/><linearGradient id="Безымянный_градиент_4-4" x1="214.59" y1="77.75" x2="220.78" y2="77.75" xlink:href="#Безымянный_градиент_4"/><linearGradient id="Безымянный_градиент_4-5" x1="220.78" y1="82.15" x2="226.97" y2="82.15" xlink:href="#Безымянный_градиент_4"/><linearGradient id="Безымянный_градиент_4-6" x1="218.37" y1="75" x2="224.56" y2="75" xlink:href="#Безымянный_градиент_4"/><linearGradient id="Безымянный_градиент_4-7" x1="222.16" y1="76.41" x2="224.56" y2="76.41" xlink:href="#Безымянный_градиент_4"/><linearGradient id="Безымянный_градиент_4-8" x1="222.56" y1="79.99" x2="226.56" y2="79.99" xlink:href="#Безымянный_градиент_4"/><linearGradient id="Безымянный_градиент_4-9" x1="220.78" y1="82.15" x2="222.22" y2="82.15" xlink:href="#Безымянный_градиент_4"/><linearGradient id="Безымянный_градиент_4-10" x1="216.46" y1="79.95" x2="220.35" y2="79.95" xlink:href="#Безымянный_градиент_4"/><linearGradient id="Безымянный_градиент_4-11" x1="218.37" y1="76.37" x2="220.78" y2="76.37" xlink:href="#Безымянный_градиент_4"/><linearGradient id="linear-gradient-48" x1="75.07" y1="36.59" x2="113.77" y2="63.17" xlink:href="#linear-gradient"/><linearGradient id="Безымянный_градиент_215-4" x1="91.1" y1="-885.12" x2="95.75" y2="-907.59" gradientTransform="matrix(1, 0, 0, -1, 0, -839.55)" xlink:href="#Безымянный_градиент_215"/><linearGradient id="Безымянный_градиент_215-5" x1="86.53" y1="37.39" x2="101.48" y2="44.05" xlink:href="#Безымянный_градиент_215"/><linearGradient id="Безымянный_градиент_143" x1="87.62" y1="36.66" x2="100.43" y2="44.69" gradientUnits="userSpaceOnUse"><stop offset="0" stop-color="#31a4c2"/><stop offset="1" stop-color="#117e99"/></linearGradient><linearGradient id="Безымянный_градиент_306" x1="89.35" y1="57.17" x2="102.44" y2="58.72" gradientUnits="userSpaceOnUse"><stop offset="0" stop-color="#34adcc"/><stop offset="1" stop-color="#117e99"/></linearGradient><linearGradient id="Безымянный_градиент_165" x1="101.07" y1="45.72" x2="86.82" y2="35.63" gradientUnits="userSpaceOnUse"><stop offset="0" stop-color="#6ed2e6"/><stop offset="1" stop-color="#bdeaf2"/></linearGradient><linearGradient id="Безымянный_градиент_165-2" x1="88.51" y1="58.05" x2="96.51" y2="61.28" xlink:href="#Безымянный_градиент_165"/><linearGradient id="Безымянный_градиент_146" x1="87.5" y1="54.06" x2="92.43" y2="54.8" gradientUnits="userSpaceOnUse"><stop offset="0" stop-color="#17849e" stop-opacity="0.6"/><stop offset="1" stop-color="#157087"/></linearGradient><linearGradient id="Безымянный_градиент_146-2" x1="96.48" y1="53.44" x2="99.26" y2="53.44" xlink:href="#Безымянный_градиент_146"/><linearGradient id="Безымянный_градиент_215-6" x1="76.99" y1="66.4" x2="101.67" y2="66.4" xlink:href="#Безымянный_градиент_215"/><linearGradient id="linear-gradient-49" x1="142.93" y1="36.59" x2="181.63" y2="63.17" xlink:href="#linear-gradient"/><linearGradient id="Безымянный_градиент_215-7" x1="162.85" y1="-894.97" x2="162.85" y2="-899.67" gradientTransform="matrix(1, 0, 0, -1, 0, -839)" xlink:href="#Безымянный_градиент_215"/><linearGradient id="Безымянный_градиент_215-8" x1="147.54" y1="-890.79" x2="179.36" y2="-881.64" gradientTransform="matrix(1, 0, 0, -1, 0, -839)" xlink:href="#Безымянный_градиент_215"/><linearGradient id="Безымянный_градиент_165-3" x1="147.32" y1="-886.35" x2="178.18" y2="-886.35" gradientTransform="matrix(1, 0, 0, -1, 0, -839)" xlink:href="#Безымянный_градиент_165"/><linearGradient id="Безымянный_градиент_215-9" x1="156.4" y1="-899.59" x2="169.21" y2="-899.59" gradientTransform="matrix(1, 0, 0, -1, 0, -839)" xlink:href="#Безымянный_градиент_215"/><linearGradient id="Безымянный_градиент_165-4" x1="176.67" y1="55.73" x2="177.34" y2="55.73" xlink:href="#Безымянный_градиент_165"/><linearGradient id="Безымянный_градиент_165-5" x1="175.42" y1="55.73" x2="176.09" y2="55.73" xlink:href="#Безымянный_градиент_165"/><linearGradient id="Безымянный_градиент_215-10" x1="141.03" y1="52.51" x2="159.98" y2="57.96" xlink:href="#Безымянный_градиент_215"/><linearGradient id="Безымянный_градиент_165-6" x1="141.95" y1="52.79" x2="158.96" y2="57.68" xlink:href="#Безымянный_градиент_165"/><linearGradient id="linear-gradient-50" x1="-3538.89" y1="-62.55" x2="-3538.89" y2="-56.86" gradientTransform="matrix(0, 1, 1, 0, 237.6, 3594.23)" gradientUnits="userSpaceOnUse"><stop offset="0" stop-color="#fed28e"/><stop offset="0.87" stop-color="#feeacb"/></linearGradient><linearGradient id="linear-gradient-51" x1="-3544.12" y1="-61.04" x2="-3544.12" y2="-58.37" gradientTransform="matrix(0, 1, 1, 0, 237.6, 3594.23)" xlink:href="#Безымянный_градиент_4"/><linearGradient id="Безымянный_градиент_215-11" x1="177.9" y1="49.68" x2="177.9" y2="61.1" xlink:href="#Безымянный_градиент_215"/><linearGradient id="Безымянный_градиент_165-7" x1="-3543.61" y1="-61.16" x2="-3534.93" y2="-58.48" gradientTransform="matrix(0, 1, 1, 0, 237.6, 3594.23)" xlink:href="#Безымянный_градиент_165"/><linearGradient id="Безымянный_градиент_215-12" x1="-3546.84" y1="-59.79" x2="-3538.4" y2="-59.5" gradientTransform="matrix(0, 1, 1, 0, 237.6, 3594.23)" xlink:href="#Безымянный_градиент_215"/></defs><g id="Layer_2" data-name="Layer 2"><g id="Layer_1-2" data-name="Layer 1"><circle class="cls-2" cx="128.21" cy="161.98" r="71.73"/><g id="Слой_2" data-name="Слой 2"><g id="Слой_1-2" data-name="Слой 1-2"><rect class="cls-3" x="60.22" y="107.78" width="135.6" height="82.93"/><path class="cls-4" d="M195,106.42H61.38a2.69,2.69,0,0,0-2.68,2.71v89.16a2.69,2.69,0,0,0,2.68,2.7H195a2.7,2.7,0,0,0,2.69-2.7V109.13a2.7,2.7,0,0,0-2.69-2.71Zm-.47,79.34a1.43,1.43,0,0,1-1.43,1.44H63.28a1.43,1.43,0,0,1-1.42-1.43h0V110.65a1.44,1.44,0,0,1,1.42-1.44H193.14a1.43,1.43,0,0,1,1.43,1.44h0Z"/><polygon class="cls-5" points="111.72 200.99 100.88 217.53 134.69 217.53 145.52 200.99 111.72 200.99"/><polygon class="cls-6" points="116.73 201 105.89 217.53 100.88 217.53 111.72 201 116.73 201"/><path class="cls-7" d="M99.72,215.2H153.9a1.16,1.16,0,0,1,1.16,1.17h0a1.16,1.16,0,0,1-1.16,1.16H99.72a1.16,1.16,0,0,1-1.16-1.16h0A1.16,1.16,0,0,1,99.72,215.2Z"/></g></g><rect class="cls-8" x="64.97" y="125.95" width="79.77" height="46.4" rx="1.08"/><rect class="cls-9" x="146.8" y="112.73" width="45.45" height="71.54" rx="1.01"/><ellipse class="cls-10" cx="70.29" cy="118.12" rx="5.18" ry="5.21"/><rect class="cls-11" x="77.65" y="112.4" width="38.31" height="4.61" rx="1"/><rect class="cls-12" x="118.42" y="113.93" width="26.06" height="8.34" rx="1"/><rect class="cls-13" x="77.65" y="118.87" width="38.48" height="4.61" rx="1"/><rect class="cls-14" x="64.7" y="174.41" width="21.62" height="10.18" rx="1"/><rect class="cls-15" x="88.41" y="174.41" width="21.62" height="10.18" rx="1"/><rect class="cls-16" x="112.11" y="174.41" width="32.33" height="10.18" rx="1"/><path class="cls-17" d="M154.25,181.11a.49.49,0,0,1-.48-.48V115.51a.49.49,0,0,1,.48-.48.48.48,0,0,1,.48.48v65.12A.48.48,0,0,1,154.25,181.11Z"/><path class="cls-18" d="M151.71,117.92h-3a.48.48,0,0,1-.48-.48.47.47,0,0,1,.48-.48h3a.48.48,0,0,1,.48.48A.49.49,0,0,1,151.71,117.92Z"/><path class="cls-19" d="M151.71,120.58h-3a.47.47,0,0,1-.48-.48.48.48,0,0,1,.48-.48h3a.49.49,0,0,1,.48.48A.48.48,0,0,1,151.71,120.58Z"/><path class="cls-20" d="M151.71,123.24h-3a.47.47,0,0,1-.48-.48.48.48,0,0,1,.48-.48h3a.49.49,0,0,1,.48.48A.48.48,0,0,1,151.71,123.24Z"/><path class="cls-21" d="M151.71,125.9h-3a.47.47,0,0,1-.48-.48.48.48,0,0,1,.48-.48h3a.49.49,0,0,1,.48.48A.48.48,0,0,1,151.71,125.9Z"/><path class="cls-22" d="M151.71,128.57h-3a.48.48,0,0,1-.48-.48.47.47,0,0,1,.48-.48h3a.48.48,0,0,1,.48.48A.49.49,0,0,1,151.71,128.57Z"/><path class="cls-23" d="M151.71,131.23h-3a.48.48,0,0,1-.48-.48.47.47,0,0,1,.48-.48h3a.48.48,0,0,1,.48.48A.49.49,0,0,1,151.71,131.23Z"/><path class="cls-24" d="M151.71,133.89h-3a.48.48,0,0,1-.48-.48.47.47,0,0,1,.48-.48h3a.48.48,0,0,1,.48.48A.49.49,0,0,1,151.71,133.89Z"/><path class="cls-25" d="M151.71,136.55h-3a.47.47,0,0,1-.48-.48.48.48,0,0,1,.48-.48h3a.49.49,0,0,1,.48.48A.48.48,0,0,1,151.71,136.55Z"/><path class="cls-26" d="M151.71,139.21h-3a.47.47,0,0,1-.48-.48.48.48,0,0,1,.48-.48h3a.49.49,0,0,1,.48.48A.48.48,0,0,1,151.71,139.21Z"/><path class="cls-27" d="M151.71,141.87h-3a.48.48,0,1,1,0-1h3a.48.48,0,1,1,0,1Z"/><path class="cls-28" d="M151.71,144.54h-3a.48.48,0,0,1-.48-.48.47.47,0,0,1,.48-.48h3a.48.48,0,0,1,.48.48A.49.49,0,0,1,151.71,144.54Z"/><path class="cls-29" d="M151.71,147.2h-3a.48.48,0,0,1-.48-.48.47.47,0,0,1,.48-.48h3a.48.48,0,0,1,.48.48A.49.49,0,0,1,151.71,147.2Z"/><path class="cls-30" d="M151.71,149.86h-3a.47.47,0,0,1-.48-.48.48.48,0,0,1,.48-.48h3a.49.49,0,0,1,.48.48A.48.48,0,0,1,151.71,149.86Z"/><path class="cls-31" d="M151.71,152.52h-3a.47.47,0,0,1-.48-.48.48.48,0,0,1,.48-.48h3a.49.49,0,0,1,.48.48A.48.48,0,0,1,151.71,152.52Z"/><path class="cls-32" d="M151.71,155.18h-3a.47.47,0,0,1-.48-.48.48.48,0,0,1,.48-.48h3a.49.49,0,0,1,.48.48A.48.48,0,0,1,151.71,155.18Z"/><path class="cls-33" d="M151.71,157.85h-3a.48.48,0,0,1-.48-.48.47.47,0,0,1,.48-.48h3a.48.48,0,0,1,.48.48A.49.49,0,0,1,151.71,157.85Z"/><path class="cls-34" d="M151.71,160.51h-3a.48.48,0,0,1-.48-.48.47.47,0,0,1,.48-.48h3a.48.48,0,0,1,.48.48A.49.49,0,0,1,151.71,160.51Z"/><path class="cls-35" d="M151.71,163.17h-3a.48.48,0,0,1-.48-.48.47.47,0,0,1,.48-.48h3a.48.48,0,0,1,.48.48A.49.49,0,0,1,151.71,163.17Z"/><path class="cls-36" d="M151.71,165.83h-3a.47.47,0,0,1-.48-.48.48.48,0,0,1,.48-.48h3a.49.49,0,0,1,.48.48A.48.48,0,0,1,151.71,165.83Z"/><path class="cls-37" d="M151.71,168.49h-3a.47.47,0,0,1-.48-.48.48.48,0,0,1,.48-.48h3a.49.49,0,0,1,.48.48A.48.48,0,0,1,151.71,168.49Z"/><path class="cls-38" d="M151.71,171.15h-3a.48.48,0,1,1,0-1h3a.48.48,0,1,1,0,1Z"/><path class="cls-39" d="M151.71,173.82h-3a.48.48,0,0,1-.48-.48.47.47,0,0,1,.48-.48h3a.48.48,0,0,1,.48.48A.49.49,0,0,1,151.71,173.82Z"/><path class="cls-40" d="M151.71,176.48h-3a.48.48,0,0,1-.48-.48.47.47,0,0,1,.48-.48h3a.48.48,0,0,1,.48.48A.49.49,0,0,1,151.71,176.48Z"/><path class="cls-41" d="M151.71,179.14h-3a.48.48,0,0,1,0-1h3a.48.48,0,0,1,0,1Z"/><rect class="cls-42" x="67.63" y="128.44" width="36.67" height="20.13" rx="0.48" transform="translate(171.93 277.01) rotate(180)"/><rect class="cls-43" x="69.09" y="129.59" width="9.27" height="0.9" rx="0.33"/><rect class="cls-44" x="105.7" y="128.44" width="36.39" height="20.13" rx="0.48"/><rect class="cls-43" x="106.81" y="129.59" width="9.27" height="0.9" rx="0.33"/><rect class="cls-45" x="105.7" y="149.74" width="36.39" height="20.13" rx="0.48"/><rect class="cls-43" x="106.81" y="151.17" width="9.27" height="0.9" rx="0.33"/><path class="cls-46" d="M67.63,150.4v18.81a.65.65,0,0,0,.64.66h35.39a.66.66,0,0,0,.64-.66V150.4a.66.66,0,0,0-.64-.66H68.27A.65.65,0,0,0,67.63,150.4Z"/><rect class="cls-43" x="69.09" y="150.79" width="9.27" height="0.9" rx="0.33"/><g class="cls-47"><path class="cls-48" d="M120.31,153.34a1.37,1.37,0,0,0-.9,1.5,1.27,1.27,0,0,0,.55.81.77.77,0,0,0-.2.35.78.78,0,0,0,.18.75l.11.05s0,0,0,0a.75.75,0,0,0,.19.74c.27.21.85.08,1.19-.49a.76.76,0,0,0-.35-.75l.06-.08a.84.84,0,0,0,0-.39h.06a1.45,1.45,0,0,0,1-1C122.28,154.24,121.54,153.38,120.31,153.34Z"/><path class="cls-48" d="M121.72,153.24a1.08,1.08,0,0,0,1.06,0,1,1,0,0,0,.26.87,1.17,1.17,0,0,0,.53.28,2.54,2.54,0,0,0,.61,2.18,3.55,3.55,0,0,0,1.69,1,1.5,1.5,0,0,0-.2,2,1.3,1.3,0,0,0,1,.42c.53-.07.9-.76.65-1.71a.72.72,0,0,0,.59-.46,1.31,1.31,0,0,0-.07-.81,2.12,2.12,0,0,0,.44-3.44"/><path class="cls-49" d="M126.17,157.31l.36,5.16-3.16.5c-.28-1.5-.56-3-.83-4.5Z"/><path class="cls-50" d="M123.12,161.43a2.55,2.55,0,0,1,1.12-2.5,2.52,2.52,0,0,1,2-.24c0,.53.07,1.06.11,1.59a3.12,3.12,0,0,1-1.14,1.3,3,3,0,0,1-2,.43A4.24,4.24,0,0,1,123.12,161.43Z"/><path class="cls-49" d="M127.39,156.44c-.19-.25-.44-.14-.66.07a3.94,3.94,0,0,0,0-2.64,3.54,3.54,0,0,0-1.89-1.74,3.8,3.8,0,0,0-3,.15,1.84,1.84,0,0,0-1.05,1.31c-.44,2.09-1.41,7.56.44,7.7,1.35.1,2.83.41,3.84-.36.48-.36.68-1,1-2.27h0C127.42,159,127.82,157,127.39,156.44Z"/><path class="cls-49" d="M137.08,178.5a.67.67,0,0,1,.57-.35c.23,0,.35.17.69.49.18.15.44.37.78.61.85.09,1.28.18,1.28.27s-1,.24-1,.24c2.7,3.45-.15.67-.15.67,2.9,3.57-.34.41-.34.41,2.44,3.68-.24.55-.24.55.42.73.6,1.12.53,1.17s-.46-.34-1.16-1.18a9.41,9.41,0,0,1-.93-2A1.1,1.1,0,0,1,137.08,178.5Z"/><path class="cls-49" d="M131.89,164.92c.63,1.32,3.63,7.61,4.19,8.77l2.46,5.29a.75.75,0,0,1-1.28.76c-1.28-1.8-3.21-4.55-4.49-6.32l-4.54-6.29a2.18,2.18,0,0,1,.48-3,2.13,2.13,0,0,1,3.18.81Z"/><path class="cls-49" d="M130.39,178.31a10.54,10.54,0,0,1,0,1.12l-8.85.61c-.44-2.29-.5-4.64-.76-6.94a34.22,34.22,0,0,1-.72-5.24,10.17,10.17,0,0,1,.28-2,4.2,4.2,0,0,1,1.71-2.4c.16-.12,0-.45.19-.52a16.92,16.92,0,0,0,1.68-.62,3.7,3.7,0,0,1,2.69-.17,9.85,9.85,0,0,0,1,.27c.61.13.94.59,1.49,1a4.35,4.35,0,0,1,1.2,1.36,7.5,7.5,0,0,1,.62,2.83c0,1.93-.6,3.79-.74,5.7A28.77,28.77,0,0,0,130.39,178.31Z"/><path class="cls-50" d="M135.5,172.48l-2.62,1.1-.11-.16-.49-.67,2.43-1.92Z"/><polygon class="cls-50" points="118.81 173.9 117.7 175.44 115.19 173.61 115.89 172.16 118.81 173.9"/><path class="cls-51" d="M115.15,172.7l3.51,2.37,1.8-3,.21,8,.9-.06,8.85-.61,1-.07-.71-3.64,0-4.41,1.37,2,1.12-.67,2.25-1.36s-3.79-6.89-4.27-7.53a6.89,6.89,0,0,0-2.7-1.08l-1-.23-.07.07a3.93,3.93,0,0,1-4.94.64,2.2,2.2,0,0,1-.28-.18,6.6,6.6,0,0,0-.89.36,6.27,6.27,0,0,0-2.46,2.14l-.74,1.42Z"/><polygon class="cls-52" points="120.46 172.1 118.66 175.07 115.15 172.7 118.18 166.89 120.46 172.1"/><path class="cls-52" d="M133.27,172.64l-1.12.67-1.37-2-1-1.61S132.39,171,133.27,172.64Z"/><path class="cls-48" d="M127.65,155.9A2.31,2.31,0,0,0,128,153a1.89,1.89,0,0,0-2-.64,2.14,2.14,0,0,0-1.33-1.14,2.18,2.18,0,0,0-1.79.38,2.73,2.73,0,0,0-.83-.45,2.06,2.06,0,0,0-1.91.63c-.64.72-.89,2,.09,2.52a1.81,1.81,0,0,0,2.37-.84.75.75,0,0,0,.5.61.73.73,0,0,0,.76-.25.84.84,0,0,0,.29.7.62.62,0,0,0,.41.1,2.29,2.29,0,0,0,.7,1.75c.53.47.9.9,1.45.47"/><path class="cls-52" d="M121.38,163.33a4.79,4.79,0,0,0,4.06,1.21,5.39,5.39,0,0,0,3.11-1.87l-1-.23-.07.07a3.93,3.93,0,0,1-4.94.64,2.2,2.2,0,0,1-.28-.18A6.6,6.6,0,0,0,121.38,163.33Z"/></g><g class="cls-53"><g class="cls-54"><path class="cls-48" d="M122.7,140c-2.89-2.1-1.71-.43-.16-1.44.37-.23-2.41,0-3-1.19a5.39,5.39,0,0,1-.51-3.72c.27-2,1.75-1.9,2.81-1.57a6.22,6.22,0,0,1,1.1.48l-.13,3.3"/><path class="cls-48" d="M125,139.51c-1.64-.71-2.38-3.54-2.38-3.54l1-1.11-2.43-2.2a1.29,1.29,0,0,1,.24-.29h0a2.43,2.43,0,0,1,.41-.31,2.39,2.39,0,0,1,.7-.24,3.06,3.06,0,0,1,1,0c1.15.25,1.58,1.41,2.6,1.33a1.5,1.5,0,0,1,1.64,1.17C128.91,138.91,125,139.51,125,139.51Z"/><path class="cls-49" d="M123.55,142.39a2.9,2.9,0,0,1-1.41-.69l.1,0c1.08-.22.6-2.29.6-2.29l2.9-1.76s-.79,3.49-.44,3.93a.84.84,0,0,0,.57.2A3.07,3.07,0,0,1,123.55,142.39Z"/><path class="cls-50" d="M125.74,137.63l-.27,1.35a2.85,2.85,0,0,1-.56.77,3,3,0,0,1-2,.78c0-.14,0-.28,0-.42a10,10,0,0,0-.13-1.2Z"/><path class="cls-49" d="M122.61,145.22l-1.84,2.32-1.06,1.36-.53.67-.17.22c-.46.59-.5,2.49-1,1.87l-1.87,1.61c-.45-.62-1-3.26-.43-2.77l1.94-3.67.11-.23.43-.87,1.24-2.49a1.86,1.86,0,1,1,3.13,2Z"/><path class="cls-49" d="M126.65,137.41c-.46.81-.92.27-.92.27a3.43,3.43,0,0,1-3.84,2.37c-1.72-.39-2.11-2.53-1.78-4.43a5.36,5.36,0,0,1,1.06-2.53,2.32,2.32,0,0,1,1.43-.72,4.2,4.2,0,0,1,1.69.15c2,.44,1.65,3.37,1.65,3.37C127,135.45,127,136.73,126.65,137.41Z"/><path class="cls-49" d="M136.46,155.13s2.38.17.43.44c0,0,2.65,2.24.26.78,0,0,2.23,2.39-.33.28,0,0,1.73,2.31-.4.2,0,0,1.2,2.27-.55-.08s-1.27-2.37-1.27-2.37Z"/><path class="cls-49" d="M136.28,156a.63.63,0,0,1-.89.06,53.64,53.64,0,0,1-6.47-6.66l-.72-.9q-1.12-1.42-2.16-2.94v0a1.51,1.51,0,0,1-.15-.28,1.86,1.86,0,1,1,3.39-1.52c.49,1.09,1,2.16,1.58,3.22.16.3.32.6.49.9.34.61.69,1.2,1,1.79a52.65,52.65,0,0,0,3.91,5.53A.64.64,0,0,1,136.28,156Z"/><path class="cls-49" d="M130.24,153.15l-.06,0c-6,1.89-9.74.19-11-.6a2.61,2.61,0,0,1,.33-.78l.17-.25.19-.25.26-.35.12-.15a2.89,2.89,0,0,0,.5-1,1.65,1.65,0,0,0,.06-.49,4,4,0,0,0,0-.49,5.67,5.67,0,0,0-.16-1,9.65,9.65,0,0,0-.32-1c-.12-.34-.24-.68-.35-1a6.43,6.43,0,0,1-.25-1,.77.77,0,0,1,0-.15,3.94,3.94,0,0,1,0-.84,1.59,1.59,0,0,1,.32-1,2.16,2.16,0,0,1,.45-.46c.09-.07.19-.13.3-.2h0l.09-.05.1-.06h0l0,0,.16-.07a7.94,7.94,0,0,1,5.73.19l.09,0h0l.26.12a7.14,7.14,0,0,1,.71.4h0l.19.13.15.13.27.25a2.62,2.62,0,0,1,.35.48,1.63,1.63,0,0,1,.22.91,5.32,5.32,0,0,1-.34,1.74c-.09.29-.21.58-.31.87a6.78,6.78,0,0,0-.25.88l0,.2a2,2,0,0,0,0,.24,4,4,0,0,0,0,.89,1.46,1.46,0,0,0,.1.45,2.84,2.84,0,0,0,.63.88l.43.44.22.21c.06.07.13.14.19.22l.05.06,0,0h0l.21.46.15.32v.05A2.91,2.91,0,0,1,130.24,153.15Z"/><path class="cls-50" d="M120.11,135.62a5.36,5.36,0,0,1,1.06-2.53,2.32,2.32,0,0,1,1.43-.72c.21.07.37.27.41.68C123.15,134.48,121.07,135.32,120.11,135.62Z"/><path class="cls-48" d="M121.53,132.91v.41s.54-.25,1.08.41l.12.16h0a.78.78,0,0,1,.11.18,0,0,0,0,0,0,0,3.86,3.86,0,0,1,.31.72,3.57,3.57,0,0,1,.1.35c.5,1.86,1.58,1.92,2.45,1.3h0a3,3,0,0,0,.42-.38,2.31,2.31,0,0,0,.2-.24l0-.05c.83-1.18.87-4.15-1.61-4.61S121.22,132.05,121.53,132.91Z"/><path class="cls-48" d="M122.5,132.51a3.89,3.89,0,0,1-3.23,2.88c-.81.14,1.25-3.12,1.25-3.12h2"/><polygon class="cls-50" points="120.77 147.54 119.7 148.9 118.99 148.03 118.84 147.85 117.81 146.6 118.24 145.73 120.77 147.54"/><path class="cls-55" d="M120.85,141.93s-1.34.5-1.57,1.18-1.56,3.09-1.56,3.09l2.63,2.45,1.2-3.24Z"/><path class="cls-50" d="M131.34,147.83l-2.42,1.54-.72-.9,2.65-1.54C131,147.23,131.17,147.53,131.34,147.83Z"/><path class="cls-56" d="M120.85,141.93s-1.34.5-1.57,1.18-1.56,3.09-1.56,3.09l2.63,2.45,1.2-3.24Z"/><path class="cls-57" d="M130.24,152.56c.16.35.22.51.22.51l-.22.08-.06,0c-6,1.89-9.74.19-11-.6l-.05,0a4.11,4.11,0,0,1-.45-.32s.19-.36.44-.89c.51-1.1,1.26-2.89.91-3.47a4.62,4.62,0,0,1-.36-3.14l0-.09a11.53,11.53,0,0,1,1-2.47s.05-.09.07-.12l.07-.11.07,0,.09,0c3.06,1.51,5.16.57,5.89.12l0,0h0a.7.7,0,0,1,.29-.12,3.37,3.37,0,0,1,1.92,1.34c.53,1,2.13,3.66,2.13,3.66l-1.84,1.39-.87.66.09.19c.51,1,.88,1.84,1.16,2.43h0l.24.51.12.26Z"/><path class="cls-58" d="M128.57,149l.09.2A.75.75,0,0,1,128.57,149Z"/><path class="cls-52" d="M129.44,148.38l-.87.65c-.41-1.14-.91-3.41-.91-3.41Z"/><path class="cls-59" d="M130.46,153.07l-.22.08-.06,0c-6,1.89-9.74.19-11-.6l-.05,0a4.11,4.11,0,0,1-.45-.32s.19-.36.44-.89a5.29,5.29,0,0,1,1-.39l.09,0,9.88,1.28h0l.15.32v.05C130.4,152.91,130.46,153.07,130.46,153.07Z"/><path class="cls-48" d="M124.58,132.41a2.36,2.36,0,1,0,2.36-2.36A2.35,2.35,0,0,0,124.58,132.41Z"/><path class="cls-60" d="M122.61,133.72h0l.12.16h0a.78.78,0,0,1,.11.18,0,0,0,0,0,0,0,3.86,3.86,0,0,1,.31.72,3.57,3.57,0,0,1,.1.35c.5,1.86,1.58,1.92,2.45,1.3h0a3,3,0,0,0,.42-.38c-1.06.33-1.47,0-1.95-1.06A2.36,2.36,0,0,0,122.61,133.72Z"/><path class="cls-61" d="M127.83,134.55a3.61,3.61,0,0,0-2.93-3.34A6.73,6.73,0,0,1,127.83,134.55Z"/></g></g><g class="cls-62"><path class="cls-48" d="M84.29,162.78a7.21,7.21,0,0,0,3.55,2c.11,0-.21-.66-.1-.65.87.1,1.22.91,2.74-.11a3.54,3.54,0,0,0,1.37-4.68c-.54-1.32,0-2.7-.31-4.9-.32-2-2.05-1.93-3.3-1.59a7.94,7.94,0,0,0-1.28.48l.14,3.37Z"/><path class="cls-48" d="M81.22,163.43l.17.09c2,1.16,1.58-2,2.28-1s.32,4.31,2.8,2.87.35-5.58.35-5.58l-1.52-2.25L89,153.08a3.39,3.39,0,0,0-.37-.6h0a3.6,3.6,0,0,0-.62-.61,2.76,2.76,0,0,0-1-.49,3.26,3.26,0,0,0-1.56.08,8.05,8.05,0,0,0-3.87,2.41c-.69.78-1,2.22-1.83,4.66A4.42,4.42,0,0,0,81.22,163.43Z"/><path class="cls-60" d="M83.83,157a1.59,1.59,0,0,0-.92,1.94c.46,1.34-3.63,1.68-1.61,3.53s5.93.11,5.93.11l-.68-4.41Z"/><path class="cls-60" d="M90.29,165.92l-.35.06c-.87.09.93-.85,0-1.45-3.38-2.14-4.31-4-2.49-5a14.26,14.26,0,0,0,1.87-1.19c.14.28.11.8-.24,1.87-.49,1.5-.43,1.59,1.56,4.12C91.45,165.35,90.35,165.72,90.29,165.92Z"/><path class="cls-49" d="M86.45,163.28a3.13,3.13,0,0,0,1.5-.73l-.1,0c-1.15-.24-.65-2.45-.65-2.45l-3.08-1.86s.84,3.71.47,4.18a.89.89,0,0,1-.61.21A3.27,3.27,0,0,0,86.45,163.28Z"/><path class="cls-50" d="M84.12,158.22c.09.48.19.95.29,1.43a2.77,2.77,0,0,0,.59.82,3.22,3.22,0,0,0,2.09.83c0-.15,0-.3,0-.45a9.48,9.48,0,0,1,.14-1.27Z"/><path class="cls-49" d="M87.45,166.3l2,2.47,1.14,1.44.56.72.18.22c.49.64.54,2.66,1,2l2,1.71c.47-.65,1.06-3.47.45-2.94L92.68,168l-.12-.25-.46-.92-1.32-2.65a2,2,0,1,0-3.33,2.11Z"/><path class="cls-49" d="M83.15,158c.49.87,1,.29,1,.29a3.64,3.64,0,0,0,4.09,2.52c1.83-.41,2.25-2.7,1.89-4.71a5.74,5.74,0,0,0-1.13-2.7,2.41,2.41,0,0,0-1.52-.76,4.55,4.55,0,0,0-1.8.15c-2.12.48-1.76,3.6-1.76,3.6C82.78,155.9,82.74,157.26,83.15,158Z"/><path class="cls-49" d="M72.71,176.84s-2.53.19-.46.47c0,0-2.82,2.39-.28.83,0,0-2.37,2.54.36.29,0,0-1.85,2.47.43.21,0,0-1.28,2.42.58-.08S74.69,176,74.69,176Z"/><path class="cls-49" d="M72.9,177.73a.68.68,0,0,0,.95.07,58.32,58.32,0,0,0,6.88-7.08l.77-1c.8-1,1.56-2.07,2.3-3.14v0a1.64,1.64,0,0,0,.16-.29,2,2,0,1,0-3.61-1.62q-.78,1.73-1.68,3.42l-.52,1c-.36.65-.74,1.28-1.12,1.91a55.34,55.34,0,0,1-4.16,5.88A.68.68,0,0,0,72.9,177.73Z"/><path class="cls-49" d="M79.33,174.73l.06,0c6.41,2,10.37.2,11.74-.64a2.63,2.63,0,0,0-.35-.82L90.6,173l-.2-.27-.28-.37-.12-.16a2.93,2.93,0,0,1-.54-1.05,1.91,1.91,0,0,1-.07-.52c0-.18,0-.35,0-.53a6.41,6.41,0,0,1,.18-1.05,9.42,9.42,0,0,1,.34-1.07c.12-.35.26-.71.37-1.07a7.47,7.47,0,0,0,.27-1.11s0-.1,0-.16a4.39,4.39,0,0,0,0-.89,1.72,1.72,0,0,0-.34-1,2.45,2.45,0,0,0-.48-.49l-.32-.21,0,0-.1-.05-.11-.06h0l0,0-.17-.07a8.46,8.46,0,0,0-6.1.19l-.09,0h0l-.27.13a8.35,8.35,0,0,0-.77.43h0l-.2.14-.17.14a3.71,3.71,0,0,0-.28.26,2.73,2.73,0,0,0-.38.52,1.74,1.74,0,0,0-.23,1,5.53,5.53,0,0,0,.36,1.86c.1.3.22.61.33.92a8.08,8.08,0,0,1,.26.93,2.07,2.07,0,0,1,0,.22,2.3,2.3,0,0,1,0,.26,4.43,4.43,0,0,1,0,.94,1.67,1.67,0,0,1-.11.48,2.79,2.79,0,0,1-.67.94l-.46.46-.23.23c-.07.08-.14.15-.2.23l0,.06,0,.06h0l-.23.49c0,.13-.11.24-.15.34v0A3.31,3.31,0,0,0,79.33,174.73Z"/><path class="cls-50" d="M90.11,156.08a5.74,5.74,0,0,0-1.13-2.7,2.41,2.41,0,0,0-1.52-.76c-.23.07-.39.29-.43.72C86.88,154.86,89.09,155.76,90.11,156.08Z"/><path class="cls-48" d="M82.64,156.63l0,.05c1.16,1.08,3.26,1.58,4.1-.64a4.32,4.32,0,0,1,.55-1h0a1.15,1.15,0,0,1,.14-.17h0a1.61,1.61,0,0,1,1.6-.54v-.38c.43-.82-.94-2.06-4.31-1.63S81.52,155.52,82.64,156.63Z"/><path class="cls-48" d="M87.61,153.77a4.17,4.17,0,0,0,3.44,3.07c.86.15-1.33-3.32-1.33-3.32H87.61"/><polygon class="cls-50" points="89.4 168.77 90.54 170.21 91.3 169.28 91.46 169.1 92.56 167.76 92.1 166.84 89.4 168.77"/><path class="cls-63" d="M89.32,162.8s1.42.53,1.68,1.25,1.66,3.28,1.66,3.28l-2.8,2.61-1.28-3.44Z"/><path class="cls-50" d="M78.16,169.07l2.57,1.65.77-1-2.82-1.65Z"/><path class="cls-64" d="M89.32,162.8s1.42.53,1.68,1.25,1.66,3.28,1.66,3.28l-2.8,2.61-1.28-3.44Z"/><path class="cls-65" d="M91.66,173.74a4.42,4.42,0,0,1-.47.34l-.06,0c-1.37.84-5.33,2.66-11.74.64l-.06,0-.24-.08.24-.55.06-.11c0-.09.08-.18.12-.28l.26-.55h0c.3-.63.7-1.48,1.24-2.59l.1-.21-.93-.7-2-1.47s1.71-2.84,2.27-3.9,2.91-1.45,4.18-2.72a2.5,2.5,0,0,0,1.17.25,2.7,2.7,0,0,0,1.29-.29,17.37,17.37,0,0,0,2.19,1.27l.15.25a11.78,11.78,0,0,1,1.11,2.62l0,.1a4.93,4.93,0,0,1-.38,3.34c-.37.62.42,2.53,1,3.7C91.46,173.36,91.66,173.74,91.66,173.74Z"/><path class="cls-58" d="M81.11,170.35a2,2,0,0,0-.1.21A1,1,0,0,0,81.11,170.35Z"/><path class="cls-52" d="M80.18,169.65l.93.7c.43-1.21,1-3.63,1-3.63Z"/><path class="cls-60" d="M82.93,156.89h0c1.16,1.08,3,1.37,3.85-.85a4.32,4.32,0,0,1,.55-1C86.73,155.7,84.81,158.15,82.93,156.89Z"/><path class="cls-59" d="M79.09,174.65l.24.08.06,0c6.41,2,10.37.2,11.74-.64l.05,0a4.08,4.08,0,0,0,.48-.34s-.2-.38-.46-.94a6.06,6.06,0,0,0-1.08-.42l-.09,0-10.52,1.36h0c0,.13-.11.24-.15.34v0Z"/></g><g class="cls-66"><path class="cls-48" d="M90.67,132.87a4.09,4.09,0,0,1-2.15.85,4.56,4.56,0,0,1-1.44-.06,2.4,2.4,0,0,1-.11.79,3.26,3.26,0,0,0-.1.42,8.08,8.08,0,0,0-.05,4.18c0,.74-.79-.5-1.39-.61-1-.18-2.2-4-1.85-5.1a2,2,0,0,1,1.7-1.45,2,2,0,0,1,1.1-1.42,4.25,4.25,0,0,1,1.72-.55l.34,0h.65l.11,0,.19,0,.12,0,.17,0,.13,0,.14,0a2.94,2.94,0,0,1,.51.23l.07,0a1.66,1.66,0,0,0,1.39.09.89.89,0,0,1-.15,1.06.89.89,0,0,0,.76-.66A2.18,2.18,0,0,1,90.67,132.87Z"/><path class="cls-49" d="M85.72,135.43c-.28,1.59-.55,3.17-.82,4.76,1,.25,1.82.88,2.79,1.13L89,136.86Z"/><path class="cls-50" d="M88.19,139.55a2.39,2.39,0,0,0-.81-2.43,2.44,2.44,0,0,0-1.88-.42l-.25,1.47A2.85,2.85,0,0,0,88,140.08,2.84,2.84,0,0,0,88.19,139.55Z"/><path class="cls-49" d="M84.66,134.52c.2-.22.42-.09.61.12a3.66,3.66,0,0,1,.22-2.45,3.33,3.33,0,0,1,1.93-1.43,3.57,3.57,0,0,1,2.77.42,1.72,1.72,0,0,1,.86,1.32c.22,2,.61,7.14-1.13,7.09-1.28,0-2.7.11-3.57-.69-.41-.39-.54-1-.74-2.21h0C84.4,136.85,84.2,135,84.66,134.52Z"/><path class="cls-49" d="M84.6,140a9.67,9.67,0,0,0-2.52,1.16,4.21,4.21,0,0,0-1.24,1.27,6.5,6.5,0,0,0-.64,2.66c-.06,1.8.63,3.57.76,5.36a18.07,18.07,0,0,1-.18,4,8,8,0,0,0,.33,4,2.12,2.12,0,0,0,.84,1.27,5.88,5.88,0,0,0,1.65.66,13.06,13.06,0,0,0,1.74.3l.76.09a2.46,2.46,0,0,0,1.54-.34A4.71,4.71,0,0,0,89.15,159a4.38,4.38,0,0,0,.45-1.3,47.73,47.73,0,0,0,1.06-7.49c.12-.82.31-1.64.49-2.46a8.39,8.39,0,0,0,0-4.28,3.49,3.49,0,0,0-1.34-1.91,9.94,9.94,0,0,0-2.36-1.4A4.17,4.17,0,0,0,84.6,140Z"/><path class="cls-49" d="M74.33,151.32l5.1,4.33a.67.67,0,0,0,.94-1l-3.55-4.14.87-.81.51-.48L82.73,145a1.91,1.91,0,1,0-2.82-2.57l-3.91,5-.88,1.13-.83,1.08-.11.14A1.1,1.1,0,0,0,74.33,151.32Z"/><polygon class="cls-50" points="75.13 148.59 77.69 149.75 78.2 149.27 76 147.46 75.13 148.59"/><path class="cls-49" d="M90.54,142.86l4.13,9.29a.68.68,0,0,1-1.15.69l-6.24-8a1.91,1.91,0,1,1,3.26-1.95Z"/><polygon class="cls-50" points="91.39 150.7 92.41 152.16 94.37 150.42 93.8 149.28 91.39 150.7"/><path class="cls-67" d="M94.74,149.54l-3,2.57-1.08-1.7v.14l0,7.54-10.9-.78.47-8.15.06-1-1.83,1.7-.4-.32-2.59-2.09,5-5.76a11.5,11.5,0,0,1,3-1.27l.27-.08.1,0,.2-.06.07,0a6.87,6.87,0,0,0,.71.51,4.15,4.15,0,0,0,1.27.56,2.8,2.8,0,0,0,2.37-.39h0l.19-.15,0,0,.16.09h0l.15.08.07,0a14,14,0,0,1,2.1,1.6l1.31,2.49Z"/><path class="cls-49" d="M79.82,154.25c.58-.46,3.49,0,.55.15,0,0,3.88.88-.14.5,0,0,3.88,1.43-.18.49,0,0,2.71,1.2-.13.45C79.92,155.84,78.33,155.45,79.82,154.25Z"/><path class="cls-48" d="M85.46,132.15s0-1.36.22-1.58c0,0-.82,1-.62,1.75S85.46,132.15,85.46,132.15Z"/><path class="cls-48" d="M85.46,131.9s-1.16-.13-1.36.18a3.37,3.37,0,0,1,1.07.18C85.51,132.42,85.46,131.9,85.46,131.9Z"/><path class="cls-48" d="M87.21,133.59a5.88,5.88,0,0,0,2,.33s-.57.41-2.28-.07.28-.33.28-.33Z"/><path class="cls-48" d="M86.32,135.51c-1.53-.83-1.19-1.17-1.2-.64,0,.75.28,2-.21,2.28-.82.54-1.68-2.75-1.33-3.81a2,2,0,0,1,1.7-1.45,2,2,0,0,1,1.1-1.42,4.25,4.25,0,0,1,1.72-.55l.34,0h.65l.11,0,.19,0,.12,0,.17,0,.13,0,.14,0a2.94,2.94,0,0,1,.51.23l.07,0a1.66,1.66,0,0,0,1.39.09.89.89,0,0,1-.15,1.06.89.89,0,0,0,.76-.66,2.18,2.18,0,0,1-1.86,2,4.09,4.09,0,0,1-2.15.85,4.56,4.56,0,0,1-1.44-.06"/><path class="cls-49" d="M85.27,134.64c-.19-.21-.41-.34-.61-.12-.46.49-.26,2.33,1,2.17h0c.2,1.17.33,1.82.74,2.21A26.61,26.61,0,0,0,85.27,134.64Z"/><path class="cls-48" d="M87.33,133.13s-1.2,2.6-1,3.3A7.86,7.86,0,0,1,85,134.38c-.1-.61,2-1.88,2-1.88Z"/><polygon class="cls-68" points="90.63 150.41 91.7 152.11 94.74 149.54 92.4 145.1 90.63 150.41"/><path class="cls-48" d="M85.43,134.44a6,6,0,0,0,0,1.14s-.86-1-.6-1.35S85.43,134.44,85.43,134.44Z"/><polygon class="cls-52" points="78.41 149.86 80.24 148.16 80.18 149.16 81.4 145.68 78.01 149.54 78.41 149.86"/><path class="cls-68" d="M89,141l-.88,2.23-1.76-1.5-2.23,1.18-.73-2.5.27-.08.1,0,.2-.06a8.92,8.92,0,0,0,.78.49,4.82,4.82,0,0,0,1.13.45,3.37,3.37,0,0,0,2.51-.28h0l.22-.13.16.09h0l.15.08Z"/><path class="cls-68" d="M88.77,140.88l-.73,2-1.64-1.5-1,.55-1.14.64-.63-2.23.1,0,.2-.06.07,0a6.87,6.87,0,0,0,.71.51,4.82,4.82,0,0,0,1.13.45,3.37,3.37,0,0,0,2.51-.28h0l.19-.15,0,0,.16.09Z"/><path class="cls-68" d="M86.67,143.05a.46.46,0,0,1-.53.4.47.47,0,0,1-.41-.53.47.47,0,1,1,.94.13Z"/><path class="cls-68" d="M86.43,144.52a.46.46,0,1,1-.91-.12.46.46,0,1,1,.91.12Z"/></g><path class="cls-69" d="M125.52,119.58v.51a.47.47,0,0,1-.44.46,4.6,4.6,0,0,1-2.33-.52,4.31,4.31,0,0,1-1.12-.82,3.87,3.87,0,0,1-.46-.54,3.62,3.62,0,0,1-.27-.41l-.1-.18a4.57,4.57,0,0,1-.51-2.33.42.42,0,0,1,.22-.37.48.48,0,0,1,.24-.07h.5a.46.46,0,0,1,.45.37l0,.1.18.92a.45.45,0,0,1-.12.41l-.4.39-.1.15a.46.46,0,0,0,0,.41,3.88,3.88,0,0,0,.88,1,4.57,4.57,0,0,0,.57.41.45.45,0,0,0,.56-.07l.39-.39a.47.47,0,0,1,.42-.13l.6.12.41.08a.41.41,0,0,1,.23.13A.43.43,0,0,1,125.52,119.58Z"/><path class="cls-70" d="M141.12,118.43H127.05a.5.5,0,0,1-.5-.5.51.51,0,0,1,.5-.5h14.07a.51.51,0,0,1,.5.5A.5.5,0,0,1,141.12,118.43Z"/><path class="cls-71" d="M162.28,117.63h-4.4a.47.47,0,0,1-.48-.48.48.48,0,0,1,.48-.48h4.4a.48.48,0,0,1,.47.48A.47.47,0,0,1,162.28,117.63Z"/><path class="cls-72" d="M180.7,120.46H159.79a.49.49,0,0,1-.48-.48.48.48,0,0,1,.48-.48H180.7a.47.47,0,0,1,.48.48A.48.48,0,0,1,180.7,120.46Z"/><path class="cls-73" d="M165.65,123.11h-5.86a.49.49,0,0,1-.48-.48.48.48,0,0,1,.48-.48h5.86a.47.47,0,0,1,.47.48A.48.48,0,0,1,165.65,123.11Z"/><path class="cls-74" d="M177.56,123.11h-9.28a.49.49,0,0,1-.48-.48.48.48,0,0,1,.48-.48h9.28a.48.48,0,0,1,.48.48A.49.49,0,0,1,177.56,123.11Z"/><path class="cls-75" d="M162.28,128.57h-4.4a.48.48,0,0,1-.48-.48.47.47,0,0,1,.48-.48h4.4a.47.47,0,0,1,.47.48A.48.48,0,0,1,162.28,128.57Z"/><path class="cls-76" d="M187.24,131.39H159.79a.48.48,0,0,1-.48-.48.49.49,0,0,1,.48-.48h27.45a.49.49,0,0,1,.48.48A.48.48,0,0,1,187.24,131.39Z"/><path class="cls-77" d="M165.65,134h-5.86a.48.48,0,0,1-.48-.48.49.49,0,0,1,.48-.48h5.86a.48.48,0,0,1,.47.48A.47.47,0,0,1,165.65,134Z"/><path class="cls-78" d="M185.93,134h-5.86a.48.48,0,0,1-.48-.48.49.49,0,0,1,.48-.48h5.86a.49.49,0,0,1,.48.48A.48.48,0,0,1,185.93,134Z"/><path class="cls-79" d="M177.56,134h-9.28a.48.48,0,0,1-.48-.48.49.49,0,0,1,.48-.48h9.28a.49.49,0,0,1,.48.48A.48.48,0,0,1,177.56,134Z"/><path class="cls-80" d="M174.66,136.5H159.73a.48.48,0,0,1-.48-.48.49.49,0,0,1,.48-.48h14.93a.48.48,0,0,1,.47.48A.47.47,0,0,1,174.66,136.5Z"/><path class="cls-81" d="M162.28,139.5h-4.4a.48.48,0,0,1-.48-.48.47.47,0,0,1,.48-.48h4.4a.47.47,0,0,1,.47.48A.48.48,0,0,1,162.28,139.5Z"/><path class="cls-82" d="M185.16,142.33H159.79a.49.49,0,0,1-.48-.48.48.48,0,0,1,.48-.48h25.37a.47.47,0,0,1,.48.48A.48.48,0,0,1,185.16,142.33Z"/><path class="cls-83" d="M169.46,145h-9.67a.49.49,0,0,1-.48-.48.48.48,0,0,1,.48-.48h9.67a.47.47,0,0,1,.48.48A.48.48,0,0,1,169.46,145Z"/><path class="cls-84" d="M182.34,145h-9.27a.48.48,0,0,1-.48-.48.47.47,0,0,1,.48-.48h9.27a.47.47,0,0,1,.48.48A.48.48,0,0,1,182.34,145Z"/><path class="cls-85" d="M162.28,150.43h-4.4a.47.47,0,0,1-.48-.48.48.48,0,0,1,.48-.48h4.4a.48.48,0,0,1,.47.48A.47.47,0,0,1,162.28,150.43Z"/><path class="cls-86" d="M180.7,153.26H159.79a.49.49,0,0,1-.48-.48.48.48,0,0,1,.48-.48H180.7a.47.47,0,0,1,.48.48A.48.48,0,0,1,180.7,153.26Z"/><path class="cls-87" d="M165.65,155.91h-5.86a.48.48,0,0,1-.48-.48.49.49,0,0,1,.48-.48h5.86a.48.48,0,0,1,.47.48A.47.47,0,0,1,165.65,155.91Z"/><path class="cls-88" d="M186.63,158.2H159.79a.48.48,0,1,1,0-.95h26.84a.48.48,0,1,1,0,.95Z"/><path class="cls-89" d="M177.56,155.91h-9.28a.48.48,0,0,1-.48-.48.49.49,0,0,1,.48-.48h9.28a.49.49,0,0,1,.48.48A.48.48,0,0,1,177.56,155.91Z"/><path class="cls-90" d="M162.28,161.37h-4.4a.48.48,0,0,1-.48-.48.47.47,0,0,1,.48-.48h4.4a.47.47,0,0,1,.47.48A.48.48,0,0,1,162.28,161.37Z"/><path class="cls-91" d="M180.7,164.19H159.79a.48.48,0,0,1-.48-.48.49.49,0,0,1,.48-.48H180.7a.48.48,0,0,1,.48.48A.47.47,0,0,1,180.7,164.19Z"/><path class="cls-92" d="M165.65,166.84h-5.86a.48.48,0,1,1,0-1h5.86a.48.48,0,0,1,0,1Z"/><path class="cls-93" d="M182.88,169.55H159.79a.49.49,0,0,1-.48-.48.48.48,0,0,1,.48-.48h23.09a.47.47,0,0,1,.48.48A.48.48,0,0,1,182.88,169.55Z"/><path class="cls-94" d="M172.13,166.84h-3.85a.48.48,0,1,1,0-1h3.85a.48.48,0,1,1,0,1Z"/><path class="cls-95" d="M178.56,166.84h-3.84a.48.48,0,1,1,0-1h3.84a.48.48,0,1,1,0,1Z"/><path class="cls-96" d="M185,166.84h-3.85a.48.48,0,1,1,0-1H185a.48.48,0,1,1,0,1Z"/><path class="cls-97" d="M162.28,172.3h-4.4a.47.47,0,0,1-.48-.48.48.48,0,0,1,.48-.48h4.4a.48.48,0,0,1,.47.48A.47.47,0,0,1,162.28,172.3Z"/><path class="cls-98" d="M171.6,175.13H159.79a.49.49,0,0,1-.48-.48.48.48,0,0,1,.48-.48H171.6a.47.47,0,0,1,.48.48A.48.48,0,0,1,171.6,175.13Z"/><path class="cls-99" d="M186.38,175.13H174.57a.49.49,0,0,1-.48-.48.48.48,0,0,1,.48-.48h11.81a.47.47,0,0,1,.48.48A.48.48,0,0,1,186.38,175.13Z"/><path class="cls-100" d="M187.12,180.29H159.79a.49.49,0,0,1-.48-.48.48.48,0,0,1,.48-.48h27.33a.48.48,0,0,1,.48.48A.49.49,0,0,1,187.12,180.29Z"/><path class="cls-101" d="M165.65,177.78h-5.86a.49.49,0,0,1-.48-.48.48.48,0,0,1,.48-.48h5.86a.47.47,0,0,1,.47.48A.48.48,0,0,1,165.65,177.78Z"/><path class="cls-102" d="M177.56,177.78h-9.28a.49.49,0,0,1-.48-.48.48.48,0,0,1,.48-.48h9.28a.48.48,0,0,1,.48.48A.49.49,0,0,1,177.56,177.78Z"/><circle class="cls-103" cx="33.35" cy="76.73" r="24.99"/><path class="cls-104" d="M24.21,82.91l-7.89-3.1a2,2,0,0,1-1-3,2.21,2.21,0,0,1,1-.7L24.21,73a1.3,1.3,0,0,1,.9-.06,1.16,1.16,0,0,1,.61.46,1.45,1.45,0,0,1,.25.73,1.25,1.25,0,0,1-.86,1.31l-9,3.46V77l9,3.46a1.26,1.26,0,0,1,.69.55,1.23,1.23,0,0,1,.17.75,1.45,1.45,0,0,1-.25.72,1.16,1.16,0,0,1-.61.46A1.3,1.3,0,0,1,24.21,82.91Z"/><path class="cls-105" d="M32.38,84.55a1.59,1.59,0,0,1-.58.82,1.37,1.37,0,0,1-.83.24,1.7,1.7,0,0,1-.83-.23,1.3,1.3,0,0,1-.54-.67,1.58,1.58,0,0,1,0-1l4.74-14.79a1.46,1.46,0,0,1,.57-.81,1.35,1.35,0,0,1,.83-.25,1.74,1.74,0,0,1,.83.24,1.22,1.22,0,0,1,.55.65,1.44,1.44,0,0,1,0,1Z"/><path class="cls-106" d="M42.49,82.91a1.25,1.25,0,0,1-.88.06,1.16,1.16,0,0,1-.61-.46,1.29,1.29,0,0,1-.26-.72,1.39,1.39,0,0,1,.18-.75,1.33,1.33,0,0,1,.67-.55l9-3.46v1.86l-9-3.46a1.33,1.33,0,0,1-.67-.55,1.43,1.43,0,0,1-.18-.76,1.3,1.3,0,0,1,.26-.73,1.16,1.16,0,0,1,.61-.46,1.25,1.25,0,0,1,.88.06l7.89,3.1a1.84,1.84,0,0,1,1.32,1.84,1.91,1.91,0,0,1-.32,1.14,2.14,2.14,0,0,1-1,.74Z"/><circle class="cls-107" cx="221.36" cy="76.73" r="24.99"/><path class="cls-108" d="M240.42,66.26v21a1.3,1.3,0,0,1-1.3,1.3H203.86a1.24,1.24,0,0,1-.51-.08,1.33,1.33,0,0,1-.44-.28,1.39,1.39,0,0,1-.3-.43,1.49,1.49,0,0,1-.1-.51v-21a1.22,1.22,0,0,1,.11-.5,1.42,1.42,0,0,1,.29-.43,1.57,1.57,0,0,1,.44-.28,1.44,1.44,0,0,1,.51-.09h35.26a1.3,1.3,0,0,1,1.3,1.3"/><path class="cls-109" d="M204.55,87.65a1,1,0,0,1-.44-.08.91.91,0,0,1-.37-.24.94.94,0,0,1-.25-.37,1,1,0,0,1-.09-.43V70.14a.63.63,0,0,1,.64-.64h34.88a.64.64,0,0,1,.64.64V86.53a1.11,1.11,0,0,1-.33.79,1.14,1.14,0,0,1-.8.33Z"/><path class="cls-110" d="M234.85,66.51a.7.7,0,0,1,.4.12.7.7,0,0,1,.31.74.75.75,0,0,1-.2.37.66.66,0,0,1-.37.19.64.64,0,0,1-.41,0,.68.68,0,0,1-.32-.26.73.73,0,0,1-.13-.4.72.72,0,0,1,.22-.51.71.71,0,0,1,.5-.21Zm-2.71,0a.72.72,0,0,1,.4.12.74.74,0,0,1,.26.32.76.76,0,0,1,0,.42.75.75,0,0,1-.2.37.63.63,0,0,1-.36.19.72.72,0,0,1-.74-.3.72.72,0,0,1-.12-.4.71.71,0,0,1,.21-.51A.74.74,0,0,1,232.14,66.51Z"/><path class="cls-111" d="M237.57,66.51a.72.72,0,0,1,.4.12.76.76,0,0,1,.27.32.86.86,0,0,1,0,.42.75.75,0,0,1-.2.37.66.66,0,0,1-.37.19.64.64,0,0,1-.41,0,.66.66,0,0,1-.33-.26.72.72,0,0,1-.12-.4.72.72,0,0,1,.72-.72Z"/><path class="cls-111" d="M213.1,68.72h-9.65v-1.1h9.2l.45,1.12Z"/><path class="cls-111" d="M222.63,68.72h-9.19l-.45-1.1h9.17l.44,1.12Z"/><path class="cls-112" d="M212.16,68a.17.17,0,0,1,.12,0,.22.22,0,0,1,.09.1.29.29,0,0,1,0,.13.24.24,0,0,1-.06.11.19.19,0,0,1-.12.07.3.3,0,0,1-.13,0,.19.19,0,0,1-.1-.08.27.27,0,0,1,0-.12.21.21,0,0,1,.06-.16A.24.24,0,0,1,212.16,68Zm9.5,0a.2.2,0,0,1,.13,0,.27.27,0,0,1,.08.1.2.2,0,0,1,0,.13.24.24,0,0,1-.06.11.19.19,0,0,1-.12.07.32.32,0,0,1-.13,0,.19.19,0,0,1-.1-.08.27.27,0,0,1,0-.12.21.21,0,0,1,.06-.16A.24.24,0,0,1,221.66,68Z"/><path class="cls-113" d="M222.22,82.15a3.1,3.1,0,1,1-3.09-3.09,3.09,3.09,0,0,1,3.09,3.09"/><path class="cls-114" d="M228.35,77.82a3.1,3.1,0,1,1-3.1-3.1,3.1,3.1,0,0,1,3.1,3.1"/><path class="cls-115" d="M220.78,77.75a3.1,3.1,0,1,1-3.1-3.1,3.1,3.1,0,0,1,3.1,3.1"/><path class="cls-116" d="M227,82.15a3.1,3.1,0,1,1-3.1-3.09,3.1,3.1,0,0,1,3.1,3.09"/><g class="cls-117"><path class="cls-118" d="M224.56,75a3.1,3.1,0,1,1-3.09-3.1,3.09,3.09,0,0,1,3.09,3.1"/></g><path class="cls-119" d="M222.16,77.82V78a3.08,3.08,0,0,0,2.4-3,1.34,1.34,0,0,0,0-.2,3.1,3.1,0,0,0-2.39,3"/><path class="cls-120" d="M222.56,79.35a3.12,3.12,0,0,0,2.69,1.57,3,3,0,0,0,1.31-.3,3.08,3.08,0,0,0-2.68-1.56,3.23,3.23,0,0,0-1.32.29"/><path class="cls-121" d="M220.78,82.15a3.09,3.09,0,0,0,.72,2,3.1,3.1,0,0,0,0-4,3.08,3.08,0,0,0-.72,2"/><path class="cls-122" d="M216.46,80.59a2.93,2.93,0,0,0,1.22.26,3.08,3.08,0,0,0,2.67-1.54,3.1,3.1,0,0,0-3.89,1.28"/><path class="cls-123" d="M218.38,74.74c0,.08,0,.17,0,.26a3.09,3.09,0,0,0,2.4,3c0-.09,0-.17,0-.26a3.08,3.08,0,0,0-2.4-3"/><path class="cls-111" d="M218.67,81.77h-.48a.78.78,0,0,1-.78-.77V76.61a.78.78,0,0,1,.78-.77h6.07a.78.78,0,0,1,.78.77V81a.78.78,0,0,1-.78.77h-2.07l-4.15,2Z"/><circle class="cls-124" cx="93.57" cy="49.3" r="24.99"/><path class="cls-125" d="M100.63,66.09H86.09c-.5,0-.91-.28-.91-.61v-18h16.36v18C101.54,65.81,101.14,66.09,100.63,66.09Z"/><path class="cls-126" d="M100.73,48.46H86a.78.78,0,0,1-.8-.76V33.17a.78.78,0,0,1,.8-.76h14.75a.78.78,0,0,1,.81.76V47.68A.79.79,0,0,1,100.73,48.46Z"/><path class="cls-127" d="M100.44,47.12H86.28a.52.52,0,0,1-.48-.56V34a.53.53,0,0,1,.48-.56h14.16a.53.53,0,0,1,.48.56V46.56A.53.53,0,0,1,100.44,47.12Z"/><path class="cls-128" d="M99.5,64.47H87.22c-.37,0-.67-.18-.67-.42V51.23c0-.23.3-.42.67-.42H99.5c.37,0,.67.19.67.42V64.07C100.15,64.3,99.87,64.47,99.5,64.47Z"/><path class="cls-129" d="M99.74,46.46H87a.45.45,0,0,1-.42-.49V34.55a.46.46,0,0,1,.42-.5H99.74a.46.46,0,0,1,.43.5V46A.46.46,0,0,1,99.74,46.46Z"/><path class="cls-130" d="M98.65,63.7H88.06c-.3,0-.53-.13-.53-.29v-6.8c0-.17.23-.3.53-.3H98.65c.31,0,.54.13.54.3v6.8C99.19,63.57,99,63.7,98.65,63.7Z"/><rect class="cls-131" x="87.72" y="53.8" width="4.36" height="1.25" rx="0.19"/><rect class="cls-132" x="96.48" y="51.84" width="2.79" height="3.2" rx="0.19"/><ellipse class="cls-111" cx="93.29" cy="40.3" rx="2.31" ry="2.28"/><path class="cls-111" d="M97.55,46.46H89.08a3.43,3.43,0,0,1,3.43-3.08h1.61A3.43,3.43,0,0,1,97.55,46.46Z"/><rect class="cls-111" x="87.59" y="34.91" width="5.01" height="0.54" rx="0.24"/><path class="cls-133" d="M84.33,65.44h18.06a.7.7,0,0,1,.7.7v1.09a.14.14,0,0,1-.14.14H83.77a.14.14,0,0,1-.14-.14V66.13A.7.7,0,0,1,84.33,65.44Z"/><circle class="cls-134" cx="161.43" cy="49.3" r="24.99"/><path class="cls-135" d="M164.39,56h-3.08v4.7h3.08Z"/><path class="cls-136" d="M147.15,39.08h31.4l.1,0,.09.06a.22.22,0,0,1,0,.08.18.18,0,0,1,0,.1v16a.24.24,0,0,1-.26.26h-31.4a.18.18,0,0,1-.1,0l-.08,0a.24.24,0,0,1-.06-.09.36.36,0,0,1,0-.1v-16C146.86,39.19,147,39.08,147.15,39.08Z"/><path class="cls-137" d="M178.79,38.46H146.87a.6.6,0,0,0-.6.6V55.73a.6.6,0,0,0,.6.6h31.92a.6.6,0,0,0,.6-.6V39.06A.6.6,0,0,0,178.79,38.46Z"/><path class="cls-138" d="M177.84,55.18H147.67a.38.38,0,0,1-.25-.09.39.39,0,0,1-.1-.25v-15a.35.35,0,0,1,.12-.22.36.36,0,0,1,.23-.08h30.17a.34.34,0,0,1,.34.34v15a.27.27,0,0,1,0,.12.35.35,0,0,1-.08.1l-.1.06A.29.29,0,0,1,177.84,55.18Z"/><path class="cls-139" d="M157.43,60.07h10.73a1.06,1.06,0,0,1,1.05.84.17.17,0,0,1-.17.2H156.58a.18.18,0,0,1-.18-.2,1,1,0,0,1,.29-.53A1,1,0,0,1,157.43,60.07Z"/><circle class="cls-140" cx="177.01" cy="55.73" r="0.33"/><circle class="cls-141" cx="175.76" cy="55.73" r="0.33"/><path class="cls-142" d="M159.05,49.75a1.23,1.23,0,0,0-.86-.39H142.82a1.21,1.21,0,0,0-.85.39,1.22,1.22,0,0,0-.33.88v9.21a1.22,1.22,0,0,0,.33.88,1.21,1.21,0,0,0,.85.39h15.37a1.23,1.23,0,0,0,1.19-1.27V50.63A1.22,1.22,0,0,0,159.05,49.75Z"/><rect class="cls-143" x="142.52" y="50.23" width="15.88" height="10.02" rx="0.67"/><path class="cls-111" d="M180,60.51h-4.24a.71.71,0,0,1-.28-.06.65.65,0,0,1-.23-.15.87.87,0,0,1-.16-.23.69.69,0,0,1,0-.28v-8.9a.62.62,0,0,1,0-.27.78.78,0,0,1,.16-.24.65.65,0,0,1,.23-.15.56.56,0,0,1,.28,0H180a.54.54,0,0,1,.28,0,.51.51,0,0,1,.23.15.63.63,0,0,1,.16.24.63.63,0,0,1,.06.27v8.9a.71.71,0,0,1-.06.28.69.69,0,0,1-.16.23.51.51,0,0,1-.23.15A.67.67,0,0,1,180,60.51Z"/><path class="cls-144" d="M180,60.51h-4.24a.71.71,0,0,1-.28-.06.65.65,0,0,1-.23-.15.87.87,0,0,1-.16-.23.69.69,0,0,1,0-.28v-8.9a.62.62,0,0,1,0-.27.78.78,0,0,1,.16-.24.65.65,0,0,1,.23-.15.56.56,0,0,1,.28,0H180a.54.54,0,0,1,.28,0,.51.51,0,0,1,.23.15.63.63,0,0,1,.16.24.63.63,0,0,1,.06.27v8.9a.71.71,0,0,1-.06.28.69.69,0,0,1-.16.23.51.51,0,0,1-.23.15A.67.67,0,0,1,180,60.51Z"/><path class="cls-145" d="M179,50.46h-2.26c-.12,0-.2-.11-.2-.27v-.42h2.67v.42C179.23,50.35,179.14,50.46,179,50.46Z"/><path class="cls-146" d="M180.91,50a1,1,0,0,0-.73-.3h-4.56a1,1,0,0,0-1.05,1v9.39a1.06,1.06,0,0,0,.31.73,1.07,1.07,0,0,0,.74.3h4.56a1.12,1.12,0,0,0,.73-.31,1.09,1.09,0,0,0,.32-.72V50.69A1.09,1.09,0,0,0,180.91,50Z"/><path class="cls-147" d="M180,60.51h-4.24a.71.71,0,0,1-.28-.06.65.65,0,0,1-.23-.15.87.87,0,0,1-.16-.23.69.69,0,0,1,0-.28v-8.9a.62.62,0,0,1,0-.27.78.78,0,0,1,.16-.24.65.65,0,0,1,.23-.15.56.56,0,0,1,.28,0H180a.54.54,0,0,1,.28,0,.51.51,0,0,1,.23.15.63.63,0,0,1,.16.24.63.63,0,0,1,.06.27v8.9a.71.71,0,0,1-.06.28.69.69,0,0,1-.16.23.51.51,0,0,1-.23.15A.67.67,0,0,1,180,60.51Z"/><path class="cls-148" d="M179,50.46h-2.26c-.12,0-.2-.13-.2-.31v-.49h2.67v.49C179.23,50.33,179.14,50.46,179,50.46Z"/><rect class="cls-1" width="255" height="255"/><rect class="cls-1" width="255" height="255"/></g></g></svg>