<svg xmlns="http://www.w3.org/2000/svg" xmlns:xlink="http://www.w3.org/1999/xlink" viewBox="0 0 255 255"><defs><style>.cls-1{fill:none;}.cls-2{fill:url(#linear-gradient);}.cls-3{fill:url(#Безымянный_градиент_64);}.cls-4{opacity:0.3;fill:url(#Безымянный_градиент_254);}.cls-5,.cls-6{fill:#fff;}.cls-10,.cls-11,.cls-12,.cls-13,.cls-14,.cls-5,.cls-7,.cls-8,.cls-9{fill-rule:evenodd;}.cls-7{fill:url(#Безымянный_градиент_254-2);}.cls-8{fill:url(#Безымянный_градиент_254-3);}.cls-9{fill:url(#Безымянный_градиент_254-4);}.cls-10{fill:url(#Безымянный_градиент_254-5);}.cls-11{fill:url(#Безымянный_градиент_254-6);}.cls-12{fill:url(#Безымянный_градиент_254-7);}.cls-13{opacity:0.8;fill:url(#Безымянный_градиент_64-2);}.cls-14{fill:url(#Безымянный_градиент_254-8);}.cls-15{opacity:0.5;fill:url(#Безымянный_градиент_64-3);}.cls-16{fill:#188aa5;}.cls-17{fill:url(#linear-gradient-2);}.cls-18{fill:url(#Безымянный_градиент_254-9);}.cls-19{fill:url(#Безымянный_градиент_4);}.cls-20{fill:url(#Безымянный_градиент_95);}.cls-21{fill:url(#Безымянный_градиент_95-2);}.cls-22{fill:url(#linear-gradient-3);}.cls-23{fill:#63d0e6;}.cls-24{fill:url(#linear-gradient-4);}.cls-25{fill:url(#linear-gradient-5);}.cls-26{fill:url(#linear-gradient-6);}.cls-27{clip-path:url(#clip-path);}.cls-28{fill:#2f3f5c;}.cls-29{fill:#ffa398;}.cls-30{fill:#e8928b;}.cls-31{fill:url(#Безымянный_градиент_7);}.cls-32,.cls-38,.cls-39,.cls-40,.cls-48{fill:#27374f;}.cls-32{opacity:0.2;}.cls-33{clip-path:url(#clip-path-2);}.cls-34{clip-path:url(#clip-path-3);}.cls-35{fill:url(#Безымянный_градиент_144);}.cls-36{fill:url(#Безымянный_градиент_95-3);}.cls-37{fill:url(#Безымянный_градиент_95-4);}.cls-38{opacity:0.1;}.cls-39{opacity:0.12;}.cls-41{fill:url(#Безымянный_градиент_144-2);}.cls-42{clip-path:url(#clip-path-4);}.cls-43{fill:url(#Безымянный_градиент_144-3);}.cls-44{fill:#cc394c;}.cls-45{fill:url(#Безымянный_градиент_144-4);}.cls-46{clip-path:url(#clip-path-5);}.cls-47{fill:url(#Безымянный_градиент_95-5);}.cls-48{opacity:0.15;}.cls-49{opacity:0.4;fill:url(#Безымянный_градиент_254-10);}.cls-50{fill:url(#linear-gradient-7);}.cls-51{opacity:0.51;fill:url(#Безымянный_градиент_254-11);}.cls-52{fill:url(#linear-gradient-8);}.cls-53{fill:url(#linear-gradient-9);}.cls-54{fill:url(#linear-gradient-10);}.cls-55{fill:url(#Безымянный_градиент_379);}.cls-56{fill:url(#linear-gradient-11);}.cls-57{fill:url(#linear-gradient-12);}.cls-58{fill:url(#linear-gradient-13);}.cls-59{fill:url(#Безымянный_градиент_140);}.cls-60{fill:url(#linear-gradient-14);}.cls-61{fill:url(#linear-gradient-15);}.cls-62{fill:url(#linear-gradient-16);}.cls-63{fill:url(#linear-gradient-17);}.cls-64{fill:url(#Безымянный_градиент_379-2);}.cls-65{fill:url(#linear-gradient-18);}.cls-66{fill:url(#linear-gradient-19);}.cls-67{fill:url(#linear-gradient-20);}.cls-68{fill:url(#Безымянный_градиент_379-3);}.cls-69{fill:url(#linear-gradient-21);}.cls-70{fill:url(#linear-gradient-22);}.cls-71{fill:url(#linear-gradient-23);}.cls-72{fill:url(#linear-gradient-24);}.cls-73{fill:url(#Безымянный_градиент_140-2);}</style><linearGradient id="linear-gradient" x1="50.62" y1="74.68" x2="211.45" y2="185.17" gradientUnits="userSpaceOnUse"><stop offset="0" stop-color="#e8fbff"/><stop offset="0.36" stop-color="#e4faff"/><stop offset="0.72" stop-color="#d8f8ff"/><stop offset="1" stop-color="#c9f5ff"/></linearGradient><linearGradient id="Безымянный_градиент_64" x1="29.11" y1="115.13" x2="213.62" y2="115.13" gradientTransform="translate(5.88)" gradientUnits="userSpaceOnUse"><stop offset="0" stop-color="#63d0e6"/><stop offset="0.17" stop-color="#67d1e7"/><stop offset="0.35" stop-color="#73d5e9"/><stop offset="0.53" stop-color="#87dced"/><stop offset="0.68" stop-color="#9ee4f2"/></linearGradient><linearGradient id="Безымянный_градиент_254" x1="34.77" y1="67.78" x2="218.79" y2="67.78" gradientUnits="userSpaceOnUse"><stop offset="0" stop-color="#31a2bf"/><stop offset="0.36" stop-color="#2091ad"/><stop offset="0.64" stop-color="#188aa5"/></linearGradient><linearGradient id="Безымянный_градиент_254-2" x1="103.02" y1="68.98" x2="106.88" y2="68.98" xlink:href="#Безымянный_градиент_254"/><linearGradient id="Безымянный_градиент_254-3" x1="118.65" y1="69.07" x2="123.95" y2="69.07" xlink:href="#Безымянный_градиент_254"/><linearGradient id="Безымянный_градиент_254-4" x1="208.25" y1="80.9" x2="209.43" y2="80.9" xlink:href="#Безымянный_градиент_254"/><linearGradient id="Безымянный_градиент_254-5" x1="196.36" y1="80.9" x2="201.06" y2="80.9" xlink:href="#Безымянный_градиент_254"/><linearGradient id="Безымянный_градиент_254-6" x1="72.33" y1="80.84" x2="76.63" y2="80.84" xlink:href="#Безымянный_градиент_254"/><linearGradient id="Безымянный_градиент_254-7" x1="61.21" y1="80.84" x2="65.51" y2="80.84" xlink:href="#Безымянный_градиент_254"/><linearGradient id="Безымянный_градиент_64-2" x1="50.09" y1="80.79" x2="54.4" y2="80.79" gradientTransform="matrix(1, 0, 0, 1, 0, 0)" xlink:href="#Безымянный_градиент_64"/><linearGradient id="Безымянный_градиент_254-8" x1="38.98" y1="80.78" x2="43.28" y2="80.78" xlink:href="#Безымянный_градиент_254"/><linearGradient id="Безымянный_градиент_64-3" x1="80.27" y1="80.97" x2="192.52" y2="80.97" gradientTransform="matrix(1, 0, 0, 1, 0, 0)" xlink:href="#Безымянный_градиент_64"/><linearGradient id="linear-gradient-2" x1="200.6" y1="67.86" x2="209.71" y2="67.86" gradientUnits="userSpaceOnUse"><stop offset="0" stop-color="#f2fdff"/><stop offset="0.42" stop-color="#fafeff"/></linearGradient><linearGradient id="Безымянный_градиент_254-9" x1="32.92" y1="121.17" x2="222.08" y2="121.17" xlink:href="#Безымянный_градиент_254"/><linearGradient id="Безымянный_градиент_4" x1="90.31" y1="196.34" x2="151.05" y2="196.34" gradientUnits="userSpaceOnUse"><stop offset="0" stop-color="#17849e"/><stop offset="1" stop-color="#157087"/></linearGradient><linearGradient id="Безымянный_градиент_95" x1="90.31" y1="196.34" x2="111.87" y2="196.34" gradientUnits="userSpaceOnUse"><stop offset="0" stop-color="#34adcc"/><stop offset="1" stop-color="#188aa5"/></linearGradient><linearGradient id="Безымянный_градиент_95-2" x1="87.15" y1="205.95" x2="164.03" y2="205.95" xlink:href="#Безымянный_градиент_95"/><linearGradient id="linear-gradient-3" x1="-1045.47" y1="107.97" x2="-981.67" y2="107.97" gradientTransform="matrix(1, 0, 0, -1, 1085.68, 215.95)" xlink:href="#linear-gradient-2"/><linearGradient id="linear-gradient-4" x1="-789.16" y1="107.97" x2="-725.85" y2="107.97" gradientTransform="translate(895.62)" xlink:href="#linear-gradient-2"/><linearGradient id="linear-gradient-5" x1="-789.16" y1="145.04" x2="-725.85" y2="145.04" gradientTransform="translate(895.62)" gradientUnits="userSpaceOnUse"><stop offset="0" stop-color="#e3fbff"/><stop offset="1" stop-color="#f7feff"/></linearGradient><linearGradient id="linear-gradient-6" x1="-1045.47" y1="145.04" x2="-981.67" y2="145.04" gradientTransform="matrix(-1, 0, 0, 1, -941.46, 0)" xlink:href="#linear-gradient-2"/><clipPath id="clip-path"><rect class="cls-1" x="106.08" y="126.18" width="64.05" height="36.37"/></clipPath><linearGradient id="Безымянный_градиент_7" x1="-936.24" y1="164.99" x2="-900.79" y2="164.99" gradientTransform="matrix(-1, 0, 0, 1, -777.89, 0)" gradientUnits="userSpaceOnUse"><stop offset="0" stop-color="#106db4"/><stop offset="1" stop-color="#0f5f9c"/></linearGradient><clipPath id="clip-path-2"><rect class="cls-1" x="108.44" y="93.11" width="58.76" height="32.28" transform="translate(275.65 218.5) rotate(180)"/></clipPath><clipPath id="clip-path-3"><rect class="cls-1" x="106.99" y="93.11" width="59.78" height="34.03"/></clipPath><linearGradient id="Безымянный_градиент_144" x1="92" y1="119.78" x2="98.67" y2="119.78" gradientTransform="translate(35.36)" gradientUnits="userSpaceOnUse"><stop offset="0" stop-color="#de3e53"/><stop offset="1" stop-color="#db5163"/></linearGradient><linearGradient id="Безымянный_градиент_95-3" x1="127.37" y1="119.78" x2="134.03" y2="119.78" xlink:href="#Безымянный_градиент_95"/><linearGradient id="Безымянный_градиент_95-4" x1="93.63" y1="124.46" x2="115.61" y2="124.46" gradientTransform="translate(35.36)" xlink:href="#Безымянный_градиент_95"/><linearGradient id="Безымянный_градиент_144-2" x1="-1093.71" y1="98.19" x2="-1088.61" y2="98.19" gradientTransform="matrix(-1, 0, 0, 1, -948.74, 0)" xlink:href="#Безымянный_градиент_144"/><clipPath id="clip-path-4"><rect class="cls-1" x="39.83" y="128.16" width="62.53" height="34.36" transform="translate(142.19 290.68) rotate(180)"/></clipPath><linearGradient id="Безымянный_градиент_144-3" x1="-1067.86" y1="156.46" x2="-1060.77" y2="156.46" gradientTransform="matrix(-1, 0, 0, 1, -984.11, 0)" xlink:href="#Безымянный_градиент_144"/><linearGradient id="Безымянный_градиент_144-4" x1="58.64" y1="160.33" x2="82.03" y2="160.33" gradientTransform="matrix(1, 0, 0, 1, 0, 0)" xlink:href="#Безымянный_градиент_144"/><clipPath id="clip-path-5"><rect class="cls-1" x="41.36" y="91.12" width="61.03" height="34.43"/></clipPath><linearGradient id="Безымянный_градиент_95-5" x1="53.76" y1="126.51" x2="87.39" y2="126.51" xlink:href="#Безымянный_градиент_95"/><linearGradient id="Безымянный_градиент_254-10" x1="-723.44" y1="126.62" x2="-680.99" y2="126.62" gradientTransform="translate(895.62)" xlink:href="#Безымянный_градиент_254"/><linearGradient id="linear-gradient-7" x1="173.55" y1="156.76" x2="213.28" y2="156.76" gradientTransform="matrix(1, 0, 0, 1, 0, 0)" xlink:href="#linear-gradient-5"/><linearGradient id="Безымянный_градиент_254-11" x1="175.73" y1="156.68" x2="176.44" y2="156.68" xlink:href="#Безымянный_градиент_254"/><linearGradient id="linear-gradient-8" x1="1193.85" y1="102.57" x2="1219.4" y2="94.16" gradientTransform="matrix(-1, 0, 0, 1, 1395.14, 0)" xlink:href="#linear-gradient-2"/><linearGradient id="linear-gradient-9" x1="177.14" y1="97.23" x2="196.16" y2="97.23" gradientUnits="userSpaceOnUse"><stop offset="0" stop-color="#63d0e6"/><stop offset="1" stop-color="#99e1f0"/></linearGradient><linearGradient id="linear-gradient-10" x1="177.14" y1="98.98" x2="188.67" y2="98.98" xlink:href="#linear-gradient-9"/><linearGradient id="Безымянный_градиент_379" x1="1183.12" y1="98.84" x2="1191.17" y2="98.84" gradientTransform="matrix(-1, 0, 0, 1, 1395.14, 0)" gradientUnits="userSpaceOnUse"><stop offset="0" stop-color="#fed28e"/><stop offset="0.98" stop-color="#fee7c3"/></linearGradient><linearGradient id="linear-gradient-11" x1="1180.6" y1="114.32" x2="1206.15" y2="105.91" gradientTransform="translate(-994.97)" xlink:href="#linear-gradient-2"/><linearGradient id="linear-gradient-12" x1="193.21" y1="108.98" x2="212.23" y2="108.98" gradientTransform="matrix(-1, 0, 0, 1, 400.17, 0)" xlink:href="#linear-gradient-9"/><linearGradient id="linear-gradient-13" x1="193.21" y1="110.82" x2="212.23" y2="110.82" gradientTransform="matrix(-1, 0, 0, 1, 400.17, 0)" xlink:href="#linear-gradient-9"/><linearGradient id="Безымянный_градиент_140" x1="1169.87" y1="110.59" x2="1177.92" y2="110.59" gradientTransform="translate(-994.97)" gradientUnits="userSpaceOnUse"><stop offset="0" stop-color="#fab2b6"/><stop offset="1" stop-color="#fae3e5"/></linearGradient><linearGradient id="linear-gradient-14" x1="1193.85" y1="125.83" x2="1219.4" y2="117.42" gradientTransform="matrix(-1, 0, 0, 1, 1395.14, 0)" xlink:href="#linear-gradient-2"/><linearGradient id="linear-gradient-15" x1="177.14" y1="120.5" x2="196.16" y2="120.5" xlink:href="#linear-gradient-9"/><linearGradient id="linear-gradient-16" x1="177.14" y1="124.01" x2="196.16" y2="124.01" xlink:href="#linear-gradient-9"/><linearGradient id="linear-gradient-17" x1="177.14" y1="122.24" x2="188.67" y2="122.24" xlink:href="#linear-gradient-9"/><linearGradient id="Безымянный_градиент_379-2" x1="1183.12" y1="122.1" x2="1191.17" y2="122.1" xlink:href="#Безымянный_градиент_379"/><linearGradient id="linear-gradient-18" x1="1193.85" y1="149.33" x2="1219.4" y2="140.92" gradientTransform="matrix(-1, 0, 0, 1, 1395.14, 0)" xlink:href="#linear-gradient-2"/><linearGradient id="linear-gradient-19" x1="177.14" y1="144" x2="196.16" y2="144" xlink:href="#linear-gradient-9"/><linearGradient id="linear-gradient-20" x1="177.14" y1="145.8" x2="196.16" y2="145.8" xlink:href="#linear-gradient-9"/><linearGradient id="Безымянный_градиент_379-3" x1="1183.12" y1="145.61" x2="1191.17" y2="145.61" xlink:href="#Безымянный_градиент_379"/><linearGradient id="linear-gradient-21" x1="1180.6" y1="137.58" x2="1206.15" y2="129.17" gradientTransform="translate(-994.97)" xlink:href="#linear-gradient-2"/><linearGradient id="linear-gradient-22" x1="173.45" y1="132.25" x2="192.47" y2="132.25" gradientTransform="translate(14.49)" xlink:href="#linear-gradient-9"/><linearGradient id="linear-gradient-23" x1="173.45" y1="133.99" x2="184.98" y2="133.99" gradientTransform="translate(14.49)" xlink:href="#linear-gradient-9"/><linearGradient id="linear-gradient-24" x1="173.45" y1="135.83" x2="184.98" y2="135.83" gradientTransform="translate(14.49)" xlink:href="#linear-gradient-9"/><linearGradient id="Безымянный_градиент_140-2" x1="174.9" y1="133.86" x2="182.95" y2="133.86" gradientTransform="matrix(1, 0, 0, 1, 0, 0)" xlink:href="#Безымянный_градиент_140"/></defs><g id="Layer_2" data-name="Layer 2"><g id="Layer_1-2" data-name="Layer 1"><circle class="cls-2" cx="127.5" cy="127.5" r="103.84"/><g id="Слой_2" data-name="Слой 2"><g id="Слой_1-2" data-name="Слой 1-2"><rect class="cls-3" x="34.99" y="59.03" width="184.5" height="112.21"/><rect class="cls-4" x="34.77" y="60.95" width="184.02" height="13.65"/><path class="cls-5" d="M58.8,74.6a3.1,3.1,0,0,0,2-2.6v2.6Z"/><path class="cls-6" d="M60.75,66.14a2.59,2.59,0,0,1,2.6-2.6h45.23a2.6,2.6,0,0,1,2.61,2.6V74.6H60.75Z"/><rect class="cls-1" x="59.2" y="65.58" width="4.37" height="4.37"/><path class="cls-6" d="M89.09,68.7a.2.2,0,0,1,0-.13.2.2,0,0,1,.14,0,.22.22,0,0,1,.14,0,.2.2,0,0,1,0,.13.16.16,0,0,1,0,.12.17.17,0,0,1-.14.05.16.16,0,0,1-.14-.05A.16.16,0,0,1,89.09,68.7Z"/><path class="cls-7" d="M106.79,67.14a.28.28,0,0,0-.41,0L105,68.56l-1.43-1.43a.3.3,0,0,0-.41,0,.29.29,0,0,0,0,.42L104.54,69l-1.43,1.43a.28.28,0,0,0,0,.41.3.3,0,0,0,.41,0L105,69.39l1.43,1.43a.29.29,0,1,0,.41-.41L105.36,69l1.43-1.43A.3.3,0,0,0,106.79,67.14Z"/><path class="cls-5" d="M113.14,74.6a3.1,3.1,0,0,1-2-2.6v2.6Z"/><path class="cls-8" d="M123.57,69.45h-1.89v1.89a.38.38,0,0,1-.76,0V69.45H119a.38.38,0,1,1,0-.76h1.89V66.8a.38.38,0,0,1,.76,0v1.89h1.89a.38.38,0,1,1,0,.76Z"/><polyline class="cls-6" points="35.15 74.23 220.67 74.23 220.67 87.34 35.15 87.34"/><path class="cls-9" d="M208.84,79.72a.59.59,0,0,0,.59-.59.6.6,0,0,0-.59-.59.59.59,0,0,0-.59.59A.58.58,0,0,0,208.84,79.72Zm0,.59a.58.58,0,0,0-.59.59.59.59,0,0,0,.59.59.6.6,0,0,0,.59-.59A.59.59,0,0,0,208.84,80.31Zm0,1.76a.59.59,0,0,0-.59.59.58.58,0,0,0,.59.59.59.59,0,0,0,.59-.59A.6.6,0,0,0,208.84,82.07Z"/><path class="cls-10" d="M200.81,80.15,199.49,80,199,78.81a.27.27,0,0,0-.5,0L197.94,80l-1.33.11a.28.28,0,0,0-.16.48l1,.88-.31,1.3a.27.27,0,0,0,.41.29l1.14-.68,1.14.69a.28.28,0,0,0,.41-.3l-.3-1.3,1-.88A.27.27,0,0,0,200.81,80.15Zm-2.1,1.75-1,.63.27-1.18-.91-.79,1.21-.11.46-1.11.47,1.12,1.21.1-.92.79.28,1.18Z"/><path class="cls-11" d="M74.48,78.69a.22.22,0,0,0-.19.06L72.4,80.46a.23.23,0,0,0,0,.33.22.22,0,0,0,.32,0l.15-.13v2a.36.36,0,0,0,.35.36h2.52a.36.36,0,0,0,.36-.36v-2l.15.14a.23.23,0,0,0,.33,0,.23.23,0,0,0,0-.33l-1.88-1.71A.24.24,0,0,0,74.48,78.69Zm-1.16,1.57v.65h0v1.36h0v.24h2.31v-.24h0V80.92h0v-.66l-1.15-1Z"/><path class="cls-12" d="M65.51,80.24V79a.12.12,0,0,0-.2-.09l-.43.43a2.15,2.15,0,1,0,.62,1.79.24.24,0,0,0-.48-.06,1.66,1.66,0,0,1-1.68,1.46,1.69,1.69,0,0,1-1.65-1.65,1.66,1.66,0,0,1,1.67-1.69,1.71,1.71,0,0,1,1.19.49l-.5.5a.11.11,0,0,0,.08.2h1.26A.12.12,0,0,0,65.51,80.24Z"/><path class="cls-13" d="M50.37,81.06h3.09l-1.35,1.35a.28.28,0,0,0,.39.39L54.32,81a.29.29,0,0,0,0-.39L52.5,78.77a.28.28,0,0,0-.39.39l1.35,1.35H50.37a.28.28,0,1,0,0,.55Z"/><path class="cls-14" d="M43,80.51H39.92l1.35-1.35a.28.28,0,0,0-.39-.39l-1.82,1.82a.27.27,0,0,0,0,.39l1.82,1.82a.28.28,0,0,0,.39-.39l-1.35-1.35H43a.28.28,0,1,0,0-.55Z"/><rect class="cls-15" x="80.27" y="77.33" width="112.25" height="7.28" rx="3.64"/><path class="cls-16" d="M69.51,67.55H68.2V71.1h-.88V67.55H66v-.71h3.48Z"/><path class="cls-16" d="M71.52,68.73l-.3,0a.62.62,0,0,0-.63.33V71.1h-.85V67.93h.8l0,.38a.8.8,0,0,1,.71-.44,1.09,1.09,0,0,1,.26,0Z"/><path class="cls-16" d="M73.8,70.78a1.06,1.06,0,0,1-.86.38,1,1,0,0,1-.78-.29,1.28,1.28,0,0,1-.28-.86V67.93h.85v2c0,.33.15.5.45.5a.6.6,0,0,0,.59-.3V67.93h.85V71.1h-.79Z"/><path class="cls-16" d="M76.7,71.16a1.54,1.54,0,0,1-1.14-.43,1.51,1.51,0,0,1-.44-1.14v-.08a1.93,1.93,0,0,1,.19-.85,1.34,1.34,0,0,1,.52-.58,1.44,1.44,0,0,1,.77-.21,1.33,1.33,0,0,1,1,.41A1.68,1.68,0,0,1,78,69.45v.34H76a.78.78,0,0,0,.25.5.73.73,0,0,0,.52.19.92.92,0,0,0,.77-.36l.41.47a1.24,1.24,0,0,1-.51.42A1.72,1.72,0,0,1,76.7,71.16Zm-.1-2.6a.52.52,0,0,0-.41.17.89.89,0,0,0-.2.48h1.18v-.06a.65.65,0,0,0-.15-.44A.57.57,0,0,0,76.6,68.56Z"/><path class="cls-16" d="M81.86,69.68a1.47,1.47,0,0,1-.51,1.08,1.75,1.75,0,0,1-1.21.4,1.62,1.62,0,0,1-1.29-.55,2.3,2.3,0,0,1-.47-1.52v-.26a2.6,2.6,0,0,1,.22-1.08,1.58,1.58,0,0,1,.62-.72,1.72,1.72,0,0,1,.94-.25,1.78,1.78,0,0,1,1.19.39,1.66,1.66,0,0,1,.52,1.11H81a.92.92,0,0,0-.23-.6.86.86,0,0,0-.6-.18.73.73,0,0,0-.66.31,1.79,1.79,0,0,0-.23,1v.32a1.88,1.88,0,0,0,.21,1,.72.72,0,0,0,.66.32.87.87,0,0,0,.61-.18.84.84,0,0,0,.23-.58Z"/><path class="cls-16" d="M82.23,69.49a1.86,1.86,0,0,1,.18-.84,1.25,1.25,0,0,1,.52-.57,1.48,1.48,0,0,1,.79-.21,1.42,1.42,0,0,1,1,.4,1.55,1.55,0,0,1,.45,1.06v.22a1.65,1.65,0,0,1-.41,1.17,1.57,1.57,0,0,1-2.18,0,1.64,1.64,0,0,1-.41-1.19Zm.84.06a1.21,1.21,0,0,0,.17.69.58.58,0,0,0,.49.24.55.55,0,0,0,.48-.24,1.26,1.26,0,0,0,.17-.75,1.14,1.14,0,0,0-.17-.69.56.56,0,0,0-.49-.24.57.57,0,0,0-.48.24A1.34,1.34,0,0,0,83.07,69.55Z"/><path class="cls-16" d="M86.51,67.93l0,.37a1.1,1.1,0,0,1,.91-.43.9.9,0,0,1,.75.3,1.38,1.38,0,0,1,.26.88v2H87.6v-2a.44.44,0,0,0-.51-.51.56.56,0,0,0-.53.31V71.1h-.85V67.93Z"/><path class="cls-16" d="M89.3,71.1V68.55h-.48v-.62h.48v-.27a1.13,1.13,0,0,1,.3-.83,1.22,1.22,0,0,1,.86-.29,1.91,1.91,0,0,1,.43.06v.65l-.26,0c-.32,0-.47.15-.47.45v.25h.62v.62h-.62V71.1Z"/><circle class="cls-17" cx="205.15" cy="67.86" r="4.56"/><path class="cls-18" d="M218.43,57.19H36.57a3.65,3.65,0,0,0-3.65,3.66V181.49a3.65,3.65,0,0,0,3.65,3.66H218.43a3.66,3.66,0,0,0,3.65-3.66V60.85a3.65,3.65,0,0,0-3.65-3.66Zm-.64,107.35a2,2,0,0,1-1.95,2H39.16a1.94,1.94,0,0,1-1.94-2h0V62.91A1.93,1.93,0,0,1,39.15,61H215.84a1.94,1.94,0,0,1,1.95,1.94h0Z"/><polygon class="cls-19" points="105.06 185.15 90.31 207.53 136.31 207.53 151.05 185.15 105.06 185.15"/><polygon class="cls-20" points="111.87 185.15 97.13 207.53 90.31 207.53 105.06 185.15 111.87 185.15"/><path class="cls-21" d="M88.73,204.37h73.72A1.58,1.58,0,0,1,164,206h0a1.57,1.57,0,0,1-1.58,1.57H88.73A1.57,1.57,0,0,1,87.15,206h0A1.58,1.58,0,0,1,88.73,204.37Z"/></g></g><rect class="cls-22" x="40.21" y="90.46" width="63.8" height="35.02" rx="0.84" transform="translate(144.22 215.95) rotate(180)"/><rect class="cls-23" x="42.76" y="92.46" width="16.12" height="1.57" rx="0.57"/><rect class="cls-24" x="106.46" y="90.46" width="63.31" height="35.02" rx="0.83"/><rect class="cls-23" x="108.39" y="92.46" width="16.12" height="1.57" rx="0.57"/><rect class="cls-25" x="106.46" y="127.53" width="63.31" height="35.02" rx="0.83"/><rect class="cls-23" x="108.39" y="130" width="16.12" height="1.57" rx="0.57"/><path class="cls-26" d="M40.21,128.68V161.4a1.12,1.12,0,0,0,1.11,1.15h61.59a1.12,1.12,0,0,0,1.1-1.15V128.68a1.12,1.12,0,0,0-1.1-1.15H41.32A1.12,1.12,0,0,0,40.21,128.68Z"/><rect class="cls-23" x="42.76" y="129.34" width="16.12" height="1.57" rx="0.57"/><g class="cls-27"><path class="cls-28" d="M131.87,133.78a2.42,2.42,0,0,0-1.56,2.62,2.19,2.19,0,0,0,.95,1.41,1.36,1.36,0,0,0-.34.61,1.34,1.34,0,0,0,.32,1.3l.19.1a.14.14,0,0,1,0,.06,1.34,1.34,0,0,0,.32,1.29c.47.35,1.49.13,2.07-.85a1.3,1.3,0,0,0-.6-1.31.83.83,0,0,0,.11-.15,1.45,1.45,0,0,0-.07-.66l.09,0a2.5,2.5,0,0,0,1.83-1.72C135.31,135.36,134,133.86,131.87,133.78Z"/><path class="cls-28" d="M134.32,133.61a1.9,1.9,0,0,0,1.86.06,1.61,1.61,0,0,0,.45,1.51,2.07,2.07,0,0,0,.93.49,4.37,4.37,0,0,0,1.06,3.79,6,6,0,0,0,2.94,1.79,2.59,2.59,0,0,0-.35,3.55,2.21,2.21,0,0,0,1.71.73c.91-.13,1.56-1.32,1.12-3a1.26,1.26,0,0,0,1-.8,2.32,2.32,0,0,0-.13-1.41,3.69,3.69,0,0,0,.77-6"/><path class="cls-29" d="M142.08,140.69c.21,3,.41,6,.62,9l-5.51.87-1.44-7.84Z"/><path class="cls-30" d="M136.76,147.87a4.25,4.25,0,0,1,5.49-4.78c.06.92.12,1.85.19,2.77a5.45,5.45,0,0,1-2,2.27,5.37,5.37,0,0,1-3.5.75A5.53,5.53,0,0,1,136.76,147.87Z"/><path class="cls-29" d="M144.2,139.19c-.33-.44-.76-.25-1.15.11.49-2.07.6-3.41.06-4.6a6.22,6.22,0,0,0-3.29-3,6.58,6.58,0,0,0-5.18.26,3.22,3.22,0,0,0-1.82,2.28c-.77,3.64-2.46,13.14.76,13.39,2.35.18,4.93.71,6.68-.62.83-.63,1.2-1.82,1.78-3.95h0C144.24,143.58,145,140.19,144.2,139.19Z"/><path class="cls-29" d="M161.05,177.56a1.21,1.21,0,0,1,1-.61c.4,0,.6.31,1.21.86a12.82,12.82,0,0,0,1.35,1.06c1.48.16,2.22.31,2.22.47s-1.76.43-1.76.43c4.7,6-.26,1.15-.26,1.15,5.06,6.23-.58.72-.58.72,4.24,6.4-.41,1-.41,1,.72,1.28,1,2,.92,2s-.8-.59-2-2a15.36,15.36,0,0,1-1.61-3.42A2,2,0,0,1,161.05,177.56Z"/><path class="cls-29" d="M152,154l7.29,15.26c.92,2,3.34,7.17,4.29,9.2a1.31,1.31,0,0,1-2.25,1.32c-2.21-3.13-5.58-7.93-7.81-11l-7.88-11a3.77,3.77,0,0,1,.82-5.25A3.7,3.7,0,0,1,152,154Z"/><path class="cls-29" d="M149.42,177.24a15.87,15.87,0,0,1,.05,1.95l-15.4,1.06c-.77-4-.88-8.07-1.32-12.07-.36-3-1.35-6-1.25-9.13a17.4,17.4,0,0,1,.49-3.43,7.22,7.22,0,0,1,3-4.17c.29-.21,0-.78.34-.9a31.21,31.21,0,0,0,2.93-1.08,6.33,6.33,0,0,1,4.67-.29,15.93,15.93,0,0,0,1.66.46c1.06.23,1.64,1,2.58,1.71a7.49,7.49,0,0,1,2.09,2.37,13.07,13.07,0,0,1,1.08,4.92c.1,3.35-1,6.6-1.28,9.92A48.55,48.55,0,0,0,149.42,177.24Z"/><path class="cls-30" d="M158.31,167.09,153.75,169a3.16,3.16,0,0,0-.2-.27l-.84-1.18,4.23-3.34C157.44,165.28,157.91,166.27,158.31,167.09Z"/><polygon class="cls-30" points="129.26 169.56 127.33 172.24 122.98 169.06 124.19 166.54 129.26 169.56"/><path class="cls-31" d="M122.89,167.47l6.11,4.14,3.13-5.17.38,13.91,1.55-.1,15.41-1.06,1.81-.12L150,172.73l.05-7.67,2.39,3.48,2-1.18,3.91-2.35s-6.6-12-7.42-13.11c-.52-.71-3-1.44-4.7-1.87-1-.25-1.73-.4-1.73-.4l-.11.11a6.86,6.86,0,0,1-8.61,1.12c-.3-.18-.48-.31-.48-.31a12.21,12.21,0,0,0-1.55.62,10.72,10.72,0,0,0-4.27,3.73l-1.29,2.47Z"/><polygon class="cls-32" points="132.13 166.44 129 171.61 122.89 167.47 128.18 157.37 132.13 166.44"/><path class="cls-32" d="M154.43,167.37l-2,1.17-2.39-3.47-1.66-2.8S152.9,164.45,154.43,167.37Z"/><path class="cls-28" d="M144.66,138.25a4.06,4.06,0,0,0,.57-5.11,3.29,3.29,0,0,0-3.5-1.1,3.52,3.52,0,0,0-5.43-1.33,4.77,4.77,0,0,0-1.45-.79,3.62,3.62,0,0,0-3.33,1.1c-1.11,1.26-1.54,3.42.17,4.38a3.13,3.13,0,0,0,4.12-1.46,1.28,1.28,0,0,0,.87,1.06,1.25,1.25,0,0,0,1.32-.42,1.45,1.45,0,0,0,.5,1.2,1.12,1.12,0,0,0,.72.19,4,4,0,0,0,1.22,3c.93.81,1.56,1.57,2.52.81"/><path class="cls-32" d="M133.74,151.17c2.32,1.74,4,2.53,7.06,2.12a9.58,9.58,0,0,0,5.42-3.26c-1-.25-1.73-.4-1.73-.4l-.11.11a6.86,6.86,0,0,1-8.61,1.12c-.3-.18-.48-.31-.48-.31A12.21,12.21,0,0,0,133.74,151.17Z"/></g><g class="cls-33"><g class="cls-34"><path class="cls-28" d="M136,110.63c-5-3.65-3-.76-.28-2.5.65-.42-4.18-.06-5.17-2.08-.64-1.31-1.38-2.74-.87-6.48.47-3.44,3-3.29,4.88-2.72a9.85,9.85,0,0,1,1.91.83l-.21,5.74"/><path class="cls-28" d="M140,109.72c-2.85-1.23-4.13-6.16-4.13-6.16l1.75-1.92-4.23-3.84a2.41,2.41,0,0,1,.43-.51h0a3.63,3.63,0,0,1,.71-.53,3.59,3.59,0,0,1,1.21-.41,4.79,4.79,0,0,1,1.79.06c2,.44,2.76,2.45,4.53,2.32a2.59,2.59,0,0,1,2.86,2C146.85,108.68,140,109.72,140,109.72Z"/><path class="cls-29" d="M137.51,114.73a5,5,0,0,1-2.44-1.19l.16,0c1.88-.39,1.05-4,1.05-4l5.05-3.05s-1.37,6.07-.77,6.84a1.51,1.51,0,0,0,1,.33A5.26,5.26,0,0,1,137.51,114.73Z"/><path class="cls-30" d="M141.33,106.46c-.16.78-.32,1.56-.47,2.34a5,5,0,0,1-1,1.34,5.17,5.17,0,0,1-3.42,1.35c0-.24,0-.48,0-.73a15.81,15.81,0,0,0-.22-2.08Z"/><path class="cls-29" d="M135.87,119.67l-3.18,4-1.86,2.36-.93,1.17-.29.37c-.8,1-.87,4.34-1.64,3.27l-3.27,2.79c-.77-1.07-1.74-5.67-.74-4.81l3.37-6.38.2-.42.75-1.5,2.15-4.33a3.24,3.24,0,1,1,5.44,3.45Z"/><path class="cls-29" d="M142.91,106.07c-.81,1.42-1.6.46-1.6.46-1,2.37-3.32,4.89-6.69,4.13-3-.67-3.67-4.41-3.09-7.71a9.33,9.33,0,0,1,1.85-4.4,4,4,0,0,1,2.48-1.25,7.19,7.19,0,0,1,2.94.25c3.47.78,2.88,5.88,2.88,5.88C143.52,102.66,143.58,104.89,142.91,106.07Z"/><path class="cls-29" d="M160,136.9s4.14.31.75.77c0,0,4.61,3.9.46,1.35,0,0,3.88,4.17-.58.49,0,0,3,4-.71.34,0,0,2.09,4-1-.13-3.21-4.32-2.21-4.12-2.21-4.12Z"/><path class="cls-29" d="M159.67,138.36a1.11,1.11,0,0,1-1.56.11,94,94,0,0,1-11.24-11.58c-.43-.52-.85-1-1.26-1.57q-2-2.49-3.76-5.13l0,0a3.72,3.72,0,0,1-.27-.48,3.24,3.24,0,0,1,5.91-2.65c.84,1.89,1.76,3.76,2.74,5.6.28.53.57,1.05.86,1.57q.88,1.58,1.83,3.12a92.3,92.3,0,0,0,6.79,9.62A1.09,1.09,0,0,1,159.67,138.36Z"/><path class="cls-29" d="M149.15,133.45l-.1,0c-10.48,3.31-17,.34-19.19-1a4.43,4.43,0,0,1,.58-1.36l.29-.44.33-.43.46-.62.19-.25a5,5,0,0,0,.89-1.72,3.53,3.53,0,0,0,.1-.85,8.23,8.23,0,0,0,0-.86,10.44,10.44,0,0,0-.28-1.72,17.7,17.7,0,0,0-.56-1.75c-.2-.58-.42-1.17-.61-1.76a9.8,9.8,0,0,1-.43-1.8c0-.09,0-.18,0-.26a7.93,7.93,0,0,1,0-1.46,2.76,2.76,0,0,1,.56-1.69,3.47,3.47,0,0,1,.79-.79,3.62,3.62,0,0,1,.52-.35l0,0,.16-.08.18-.1.06,0s0,0,.08,0l.27-.12a13.78,13.78,0,0,1,10,.32l.14.06h0l.45.22a11.73,11.73,0,0,1,1.24.69l0,0c.13.08.22.15.33.23l.27.22c.18.16.32.3.46.44a4.21,4.21,0,0,1,.61.84,2.74,2.74,0,0,1,.38,1.57,9.25,9.25,0,0,1-.58,3c-.17.5-.36,1-.54,1.51a12.57,12.57,0,0,0-.44,1.53l-.06.35c0,.14,0,.28-.05.42a6.69,6.69,0,0,0,0,.77,5.11,5.11,0,0,0,.05.78,3.07,3.07,0,0,0,.18.77,4.76,4.76,0,0,0,1.09,1.54l.76.76.37.38c.11.12.23.24.34.37a.39.39,0,0,0,.08.1l.07.09h0c.14.3.26.57.38.81s.18.39.25.55v.09A4.35,4.35,0,0,1,149.15,133.45Z"/><path class="cls-30" d="M131.53,103a9.33,9.33,0,0,1,1.85-4.4,4,4,0,0,1,2.48-1.25c.37.12.64.48.71,1.18C136.82,101,133.2,102.43,131.53,103Z"/><path class="cls-28" d="M134,98.24V99s.94-.44,1.88.71a3.4,3.4,0,0,1,.21.28h0a2.2,2.2,0,0,1,.19.3s0,0,0,0a8.18,8.18,0,0,1,.54,1.26c.06.19.12.4.18.62.86,3.23,2.75,3.34,4.25,2.25h0a4.41,4.41,0,0,0,.72-.65c.13-.13.24-.28.36-.42l0-.08c1.46-2.06,1.53-7.24-2.79-8S133.45,96.74,134,98.24Z"/><path class="cls-28" d="M135.69,97.55a6.79,6.79,0,0,1-5.62,5c-1.41.24,2.16-5.44,2.16-5.44l3.46,0"/><polygon class="cls-30" points="132.69 123.7 130.82 126.06 129.58 124.55 129.33 124.24 127.53 122.06 128.28 120.55 132.69 123.7"/><path class="cls-35" d="M132.82,113.94s-2.33.87-2.74,2-2.71,5.37-2.71,5.37l4.57,4.26L134,120Z"/><path class="cls-30" d="M151.07,124.2l-4.2,2.69c-.43-.52-.85-1-1.26-1.57l4.6-2.69C150.49,123.16,150.78,123.68,151.07,124.2Z"/><path class="cls-36" d="M132.82,113.94s-2.33.87-2.74,2-2.71,5.37-2.71,5.37l4.57,4.26L134,120Z"/><path class="cls-37" d="M149.15,132.43c.28.61.4.89.4.89l-.4.13-.1,0c-10.48,3.31-17,.34-19.19-1l-.09-.06a6.15,6.15,0,0,1-.78-.55s.34-.63.76-1.54c.9-1.92,2.19-5,1.59-6.05a8,8,0,0,1-.62-5.46c0-.06,0-.11,0-.16a19.66,19.66,0,0,1,1.82-4.29l.12-.21a1.25,1.25,0,0,1,.12-.19l.12.06.16.08c5.32,2.62,9,1,10.25.2l.07,0h0a1.24,1.24,0,0,1,.51-.2,5.77,5.77,0,0,1,3.32,2.33c.93,1.73,3.72,6.37,3.72,6.37l-3.21,2.41-1.52,1.15c.06.11.12.23.17.34.88,1.81,1.53,3.2,2,4.23h0c.16.34.29.64.41.89l.21.46A1.63,1.63,0,0,1,149.15,132.43Z"/><path class="cls-38" d="M146.24,126.3c.06.11.12.23.17.34A2.15,2.15,0,0,1,146.24,126.3Z"/><path class="cls-32" d="M147.76,125.15l-1.52,1.15c-.7-2-1.57-6-1.57-6Z"/><path class="cls-39" d="M149.55,133.32l-.4.13-.1,0c-10.48,3.31-17,.34-19.19-1l-.09-.06a6.15,6.15,0,0,1-.78-.55s.34-.63.76-1.54a8.71,8.71,0,0,1,1.77-.7l.15,0,17.18,2.22h0c.09.21.18.39.25.55v.09C149.43,133,149.55,133.32,149.55,133.32Z"/><path class="cls-28" d="M139.3,97.37a4.11,4.11,0,1,0,4.11-4.11A4.11,4.11,0,0,0,139.3,97.37Z"/><path class="cls-40" d="M135.88,99.65h0a3.4,3.4,0,0,1,.21.28h0a2.2,2.2,0,0,1,.19.3s0,0,0,0a8.18,8.18,0,0,1,.54,1.26c.06.19.12.4.18.62.86,3.23,2.75,3.34,4.25,2.25h0a4.41,4.41,0,0,0,.72-.65c-1.84.56-2.55-.07-3.39-1.85A4.1,4.1,0,0,0,135.88,99.65Z"/><path class="cls-41" d="M145,101.09s-.27-5-5.09-5.8C139.87,95.29,142.8,96.54,145,101.09Z"/></g></g><g class="cls-42"><path class="cls-28" d="M69.19,150.22a12.75,12.75,0,0,0,6.18,3.52c.2,0-.37-1.16-.16-1.13,1.5.16,2.11,1.57,4.76-.2,4.24-2.83,3-6.6,2.38-8.15-.94-2.3.05-4.7-.54-8.52-.55-3.5-3.57-3.36-5.73-2.77a12.47,12.47,0,0,0-2.24.84l.26,5.87Z"/><path class="cls-28" d="M63.86,151.34l.3.17c3.39,2,2.74-3.51,4-1.78s.56,7.5,4.88,5,.6-9.72.6-9.72L71,141.1l6.4-7.77a5.88,5.88,0,0,0-.65-1h0a5.76,5.76,0,0,0-1.08-1.07,4.77,4.77,0,0,0-1.83-.85,5.4,5.4,0,0,0-2.7.14,14,14,0,0,0-6.75,4.19c-1.19,1.35-1.69,3.87-3.17,8.1C60,146.09,61.69,150.16,63.86,151.34Z"/><path class="cls-40" d="M68.39,140.16s-2.4,1-1.6,3.37-6.31,2.92-2.8,6.14,10.33.19,10.33.19l-1.19-7.67Z"/><path class="cls-40" d="M79.63,155.69l-.6.09c-1.51.16,1.62-1.47,0-2.52-5.88-3.73-7.49-7-4.32-8.77a23.09,23.09,0,0,0,3.25-2.07c.25.49.18,1.39-.42,3.25-.85,2.62-.75,2.76,2.71,7.17C81.66,154.69,79.75,155.33,79.63,155.69Z"/><path class="cls-29" d="M73,151.08a5.22,5.22,0,0,0,2.6-1.27l-.17,0c-2-.41-1.12-4.26-1.12-4.26l-5.37-3.24s1.46,6.46.82,7.28a1.58,1.58,0,0,1-1,.35A5.55,5.55,0,0,0,73,151.08Z"/><path class="cls-30" d="M68.9,142.28c.16.83.33,1.66.5,2.49a5,5,0,0,0,1,1.43,5.61,5.61,0,0,0,3.64,1.44c0-.26,0-.52,0-.78a16.23,16.23,0,0,1,.24-2.22Z"/><path class="cls-29" d="M74.7,156.34l3.4,4.29,2,2.51,1,1.25.31.39c.85,1.11.93,4.62,1.75,3.48l3.47,3c.82-1.13,1.86-6,.79-5.12l-3.58-6.79-.22-.44-.8-1.61-2.28-4.6a3.45,3.45,0,1,0-5.8,3.67Z"/><path class="cls-29" d="M67.22,141.87c.85,1.5,1.7.49,1.7.49,1,2.52,3.53,5.2,7.12,4.39,3.18-.71,3.91-4.69,3.29-8.2a9.84,9.84,0,0,0-2-4.68,4.19,4.19,0,0,0-2.64-1.34,7.66,7.66,0,0,0-3.12.27c-3.69.83-3.06,6.26-3.06,6.26C66.57,138.24,66.5,140.61,67.22,141.87Z"/><path class="cls-29" d="M49.05,174.67s-4.41.33-.8.82c0,0-4.91,4.16-.49,1.45,0,0-4.12,4.43.62.51,0,0-3.2,4.29.75.37,0,0-2.23,4.21,1-.14,3.42-4.6,2.36-4.39,2.36-4.39Z"/><path class="cls-29" d="M49.38,176.23a1.18,1.18,0,0,0,1.66.12A100.36,100.36,0,0,0,63,164c.46-.55.9-1.1,1.34-1.67q2.09-2.64,4-5.45l0,0a4.21,4.21,0,0,0,.29-.51,3.45,3.45,0,0,0-6.29-2.82q-1.35,3-2.92,6c-.3.56-.6,1.12-.92,1.67-.62,1.12-1.27,2.23-1.94,3.32a98.64,98.64,0,0,1-7.23,10.24A1.18,1.18,0,0,0,49.38,176.23Z"/><path class="cls-29" d="M60.57,171l.11,0c11.15,3.52,18,.35,20.42-1.1a4.19,4.19,0,0,0-.62-1.44c-.09-.16-.2-.32-.3-.47l-.36-.47-.48-.65-.21-.27a5.32,5.32,0,0,1-.94-1.83,3.49,3.49,0,0,1-.11-.91c0-.3,0-.6,0-.91a10.58,10.58,0,0,1,.3-1.83c.15-.61.37-1.23.59-1.86s.45-1.24.66-1.87a13.38,13.38,0,0,0,.46-1.92l0-.28a8,8,0,0,0,.06-1.55,2.91,2.91,0,0,0-.6-1.8,3.92,3.92,0,0,0-.84-.84,3.3,3.3,0,0,0-.55-.37l0,0-.17-.09-.19-.1-.06,0-.08,0-.29-.13a14.66,14.66,0,0,0-10.62.35l-.16.06h0l-.48.23a14.2,14.2,0,0,0-1.32.73l0,0-.34.25-.3.24a5.38,5.38,0,0,0-.48.47,4.53,4.53,0,0,0-.66.89,3.11,3.11,0,0,0-.4,1.67,10.1,10.1,0,0,0,.62,3.23c.18.54.39,1.08.57,1.61a12.06,12.06,0,0,1,.47,1.63c0,.12,0,.25.06.38a3.32,3.32,0,0,1,.06.44,5.63,5.63,0,0,1,0,.82,7.72,7.72,0,0,1-.06.83,3,3,0,0,1-.19.82A5.11,5.11,0,0,1,63,166.57l-.81.81-.39.4q-.2.19-.36.39l-.09.11-.07.09h0c-.14.32-.28.6-.4.86l-.27.59v.09A5,5,0,0,0,60.57,171Z"/><path class="cls-30" d="M79.33,138.55a9.84,9.84,0,0,0-2-4.68,4.19,4.19,0,0,0-2.64-1.34c-.39.13-.67.51-.75,1.26C73.7,136.44,77.54,138,79.33,138.55Z"/><path class="cls-28" d="M66.33,139.52l.07.08c2,1.88,5.67,2.75,7.13-1.11a6.85,6.85,0,0,1,1-1.77l0,0a3.47,3.47,0,0,1,.25-.29h0a2.79,2.79,0,0,1,2.78-.92v-.67c.73-1.43-1.65-3.59-7.5-2.84S64.38,137.59,66.33,139.52Z"/><path class="cls-28" d="M75,134.54a7.22,7.22,0,0,0,6,5.34c1.51.26-2.3-5.78-2.3-5.78H75"/><polygon class="cls-30" points="78.1 160.63 80.08 163.15 81.4 161.53 81.67 161.21 83.58 158.88 82.78 157.27 78.1 160.63"/><path class="cls-43" d="M78,150.24s2.47.93,2.91,2.18,2.89,5.72,2.89,5.72l-4.87,4.53-2.23-6Z"/><path class="cls-30" d="M58.52,161.16,63,164c.46-.55.9-1.1,1.34-1.67l-4.9-2.86C59.14,160.05,58.84,160.61,58.52,161.16Z"/><path class="cls-44" d="M78,150.24s2.47.93,2.91,2.18,2.89,5.72,2.89,5.72l-4.87,4.53-2.23-6Z"/><path class="cls-45" d="M82,169.29a6.45,6.45,0,0,1-.83.59l-.1.06c-2.38,1.45-9.26,4.62-20.42,1.1l-.11,0-.42-.14.42-1,.09-.2.23-.49c.13-.27.27-.59.44-.95h0a0,0,0,0,0,0,0c.51-1.1,1.22-2.58,2.15-4.5.06-.12.11-.24.17-.37l-1.61-1.21-3.41-2.57s3-4.94,4-6.78,5.06-2.52,7.27-4.75a4.25,4.25,0,0,0,2,.44,4.76,4.76,0,0,0,2.24-.5A30.44,30.44,0,0,0,78,150.24c0,.07.2.34.24.43a20.13,20.13,0,0,1,1.94,4.56,1.09,1.09,0,0,1,0,.17,8.53,8.53,0,0,1-.66,5.81c-.65,1.08.73,4.4,1.69,6.44C81.67,168.62,82,169.29,82,169.29Z"/><path class="cls-38" d="M63.67,163.39c-.07.13-.12.25-.18.37A1.82,1.82,0,0,0,63.67,163.39Z"/><path class="cls-32" d="M62.05,162.18l1.62,1.21c.74-2.11,1.67-6.32,1.67-6.32Z"/><path class="cls-40" d="M66.83,140h0c2,1.87,5.24,2.38,6.7-1.48a6.85,6.85,0,0,1,1-1.77C73.44,137.89,70.11,142.16,66.83,140Z"/><path class="cls-39" d="M60.15,170.87l.42.14.11,0c11.15,3.52,18,.35,20.42-1.1l.09-.06a7.62,7.62,0,0,0,.84-.59s-.36-.67-.82-1.64a10.41,10.41,0,0,0-1.87-.74l-.16,0-18.29,2.36h0l-.27.59v.09Z"/></g><g class="cls-46"><path class="cls-28" d="M80.3,98.17a7.07,7.07,0,0,1-3.73,1.48,8,8,0,0,1-2.52-.11,3.9,3.9,0,0,1-.19,1.38c-.07.21-.12.45-.18.72-1.09,5.23-.06,6.36-.08,7.28,0,1.29-1.38-.87-2.42-1.06-1.68-.31-3.83-7-3.22-8.88a3.57,3.57,0,0,1,3-2.52A3.54,3.54,0,0,1,72.83,94a7.52,7.52,0,0,1,3-.95c.21,0,.41,0,.61-.05h.74l.39,0,.19,0,.33,0,.21,0,.29.07.22.06.24.08a4.21,4.21,0,0,1,.89.39l.12.06a2.84,2.84,0,0,0,2.42.16,1.56,1.56,0,0,1-.26,1.86,1.56,1.56,0,0,0,1.32-1.16A3.79,3.79,0,0,1,80.3,98.17Z"/><path class="cls-29" d="M71.68,102.63c-.47,2.76-1,5.52-1.42,8.28,1.69.44,3.17,1.52,4.86,2,.69-2.38,1.6-5.4,2.3-7.77Z"/><path class="cls-30" d="M76,109.8a4,4,0,0,0-4.69-5l-.44,2.55a5,5,0,0,0,4.86,3.32A6.51,6.51,0,0,0,76,109.8Z"/><path class="cls-29" d="M69.84,101c.35-.37.74-.15,1.07.21-.27-2-.24-3.21.38-4.26a5.86,5.86,0,0,1,3.36-2.49,6.27,6.27,0,0,1,4.82.74A3,3,0,0,1,81,97.52c.37,3.45,1.06,12.42-2,12.34-2.22,0-4.68.19-6.2-1.21-.72-.66-.94-1.8-1.29-3.83h0C69.39,105.1,69,101.89,69.84,101Z"/><path class="cls-29" d="M69.74,110.61a17.26,17.26,0,0,0-4.39,2,7.05,7.05,0,0,0-2.15,2.21,11.34,11.34,0,0,0-1.12,4.63c-.1,3.13,1.09,6.22,1.33,9.33a32.13,32.13,0,0,1-.32,7,13.9,13.9,0,0,0,.58,7A3.72,3.72,0,0,0,65.12,145,9.65,9.65,0,0,0,68,146.1a24.34,24.34,0,0,0,3,.53l1.33.15a4.2,4.2,0,0,0,2.67-.59,6.45,6.45,0,0,0,3.43-4.74c1.21-4.3,1.31-8.69,1.84-13,.21-1.43.54-2.85.84-4.27a14.62,14.62,0,0,0,0-7.46,6,6,0,0,0-2.33-3.32,17.24,17.24,0,0,0-4.11-2.44,7.23,7.23,0,0,0-4.9-.31Z"/><path class="cls-29" d="M51.87,130.27l8.87,7.53a1.17,1.17,0,0,0,1.65-1.65L56.2,129l1.51-1.42.89-.83,7.89-7.4a3.34,3.34,0,1,0-4.92-4.48l-6.79,8.74-1.53,2-1.45,1.86-.2.26A1.92,1.92,0,0,0,51.87,130.27Z"/><polygon class="cls-30" points="53.25 125.53 57.71 127.53 58.6 126.7 54.78 123.56 53.25 125.53"/><path class="cls-29" d="M80.08,115.55l7.17,16.17a1.17,1.17,0,0,1-2,1.19l-10.86-14a3.33,3.33,0,1,1,5.68-3.39Z"/><polygon class="cls-30" points="81.56 129.2 83.33 131.73 86.74 128.71 85.74 126.72 81.56 129.2"/><path class="cls-47" d="M87.39,127.17l-5.29,4.48-1.87-3v.25l0,13.11-19-1.35.82-14.19.1-1.74-3.19,3-.69-.56-4.51-3.64s7.83-9.06,8.67-10c.6-.67,3.55-1.68,5.2-2.21l.47-.14.18-.06.35-.1.12,0a12,12,0,0,0,1.22.89,7.48,7.48,0,0,0,2.22,1,4.91,4.91,0,0,0,4.12-.67h0a2.77,2.77,0,0,0,.32-.26l.06,0,.28.16h0l.25.15.13.08A25.27,25.27,0,0,1,81,115.11l2.28,4.34Z"/><path class="cls-29" d="M61.43,135.37c1-.8,6.07,0,1,.26,0,0,6.75,1.54-.24.87,0,0,6.74,2.48-.33.85,0,0,4.72,2.09-.22.8C61.59,138.15,58.82,137.45,61.43,135.37Z"/><path class="cls-28" d="M71.24,96.91s-.06-2.37.38-2.75c0,0-1.43,1.78-1.07,3S71.24,96.91,71.24,96.91Z"/><path class="cls-28" d="M71.24,96.48s-2-.22-2.38.32a6.12,6.12,0,0,1,1.86.3C71.32,97.39,71.24,96.48,71.24,96.48Z"/><path class="cls-28" d="M74.27,99.42s2.64.84,3.5.57c0,0-1,.71-4-.12s.49-.58.49-.58Z"/><path class="cls-28" d="M72.73,102.76c-2.65-1.44-2.06-2-2.09-1.11,0,1.3.49,3.42-.35,4-1.44.94-2.94-4.78-2.33-6.64a3.57,3.57,0,0,1,3-2.52A3.54,3.54,0,0,1,72.83,94a7.52,7.52,0,0,1,3-.95c.21,0,.41,0,.61-.05h.74l.39,0,.19,0,.33,0,.21,0,.29.07.22.06.24.08a4.21,4.21,0,0,1,.89.39l.12.06a2.84,2.84,0,0,0,2.42.16,1.56,1.56,0,0,1-.26,1.86,1.56,1.56,0,0,0,1.32-1.16,3.79,3.79,0,0,1-3.23,3.52,7.07,7.07,0,0,1-3.73,1.48,8,8,0,0,1-2.52-.11"/><path class="cls-29" d="M70.91,101.24c-.33-.36-.72-.58-1.07-.21-.8.86-.45,4.07,1.65,3.79h0c.35,2,.57,3.17,1.29,3.83C72.79,108.65,71.49,101.8,70.91,101.24Z"/><path class="cls-28" d="M74.49,98.61s-2.1,4.53-1.74,5.75c0,0-2.15-2.49-2.34-3.56s3.52-3.27,3.52-3.27Z"/><polygon class="cls-48" points="80.23 128.69 82.1 131.66 87.39 127.17 83.32 119.45 80.23 128.69"/><path class="cls-28" d="M71.18,100.89a10.64,10.64,0,0,0,0,2s-1.49-1.7-1-2.35S71.18,100.89,71.18,100.89Z"/><polygon class="cls-32" points="58.96 127.73 62.15 124.77 62.05 126.51 64.16 120.46 58.27 127.17 58.96 127.73"/><path class="cls-48" d="M77.38,112.33l-1.53,3.89-3.07-2.61-3.88,2-1.27-4.35.47-.14.18-.06.35-.1a10.92,10.92,0,0,0,1.34.85,9.05,9.05,0,0,0,2,.79,5.91,5.91,0,0,0,4.36-.48h0l.38-.23.28.16h0l.25.15Z"/><path class="cls-48" d="M77,112.1l-1.27,3.49L72.86,113l-1.68,1-2,1.12-1.09-3.88.18-.06.35-.1.12,0a12,12,0,0,0,1.22.89,9.05,9.05,0,0,0,2,.79,5.91,5.91,0,0,0,4.36-.48h0a2.77,2.77,0,0,0,.32-.26l.06,0,.28.16Z"/><path class="cls-48" d="M73.34,115.87a.82.82,0,1,1-.7-.92A.81.81,0,0,1,73.34,115.87Z"/><path class="cls-48" d="M72.93,118.44a.81.81,0,0,1-.91.69.79.79,0,0,1-.69-.9.81.81,0,0,1,.91-.69A.8.8,0,0,1,72.93,118.44Z"/></g><rect class="cls-49" x="172.19" y="90.73" width="42.45" height="71.79" rx="0.98"/><rect class="cls-50" x="173.55" y="152.13" width="39.73" height="9.27" rx="0.92"/><path class="cls-51" d="M176.08,159a.35.35,0,0,1-.35-.35v-3.84a.36.36,0,0,1,.71,0v3.84A.35.35,0,0,1,176.08,159Z"/><path class="cls-52" d="M175.83,95h28.43l-2.3,1.9v4.94a.93.93,0,0,1-.92.93H175.83a.93.93,0,0,1-.93-.93V95.88A.93.93,0,0,1,175.83,95Z"/><path class="cls-53" d="M177.54,97.63h18.23a.4.4,0,0,0,0-.79H177.54a.4.4,0,1,0,0,.79Z"/><path class="cls-54" d="M177.54,99.37h10.74a.39.39,0,1,0,0-.78H177.54a.39.39,0,1,0,0,.78Z"/><path class="cls-55" d="M204,98.84a4,4,0,1,0,4-4A4,4,0,0,0,204,98.84Z"/><circle class="cls-6" cx="207.99" cy="98.22" r="1.57"/><path class="cls-6" d="M205.09,101.62a4,4,0,0,0,5.81,0,3.56,3.56,0,0,0-5.43-.45A2.74,2.74,0,0,0,205.09,101.62Z"/><path class="cls-56" d="M211.1,106.71H182.66l2.3,1.9v5a.92.92,0,0,0,.92.92H211.1a.92.92,0,0,0,.92-.92v-5.93A.92.92,0,0,0,211.1,106.71Z"/><path class="cls-57" d="M206.57,109.38H188.33a.4.4,0,0,1,0-.79h18.24a.4.4,0,0,1,0,.79Z"/><path class="cls-58" d="M206.57,111.22H188.33a.4.4,0,0,1,0-.79h18.24a.4.4,0,0,1,0,.79Z"/><path class="cls-59" d="M183,110.59a4,4,0,0,1-6.93,2.78,4,4,0,1,1,6.93-2.78Z"/><circle class="cls-6" cx="178.93" cy="109.97" r="1.57"/><path class="cls-6" d="M181.83,113.37a4,4,0,0,1-5.81,0,3.56,3.56,0,0,1,5.43-.45A3.23,3.23,0,0,1,181.83,113.37Z"/><path class="cls-60" d="M175.83,118.22h28.43l-2.3,1.91v4.94a.92.92,0,0,1-.92.92H175.83a.93.93,0,0,1-.93-.92v-5.93A.93.93,0,0,1,175.83,118.22Z"/><path class="cls-61" d="M177.54,120.89h18.23a.4.4,0,0,0,0-.79H177.54a.4.4,0,1,0,0,.79Z"/><path class="cls-62" d="M177.54,124.41h18.23a.4.4,0,0,0,0-.79H177.54a.4.4,0,1,0,0,.79Z"/><path class="cls-63" d="M177.54,122.64h10.74a.39.39,0,0,0,.39-.4.38.38,0,0,0-.39-.39H177.54a.39.39,0,0,0-.4.39A.4.4,0,0,0,177.54,122.64Z"/><path class="cls-64" d="M204,122.1a4,4,0,0,0,6.93,2.79A4,4,0,1,0,204,122.1Z"/><circle class="cls-6" cx="207.99" cy="121.48" r="1.57"/><path class="cls-6" d="M205.09,124.88a4,4,0,0,0,5.81,0,3.55,3.55,0,0,0-5.43-.46A3.23,3.23,0,0,0,205.09,124.88Z"/><path class="cls-65" d="M175.83,141.72h28.43l-2.3,1.91v4.94a.92.92,0,0,1-.92.92H175.83a.93.93,0,0,1-.93-.92v-5.93A.93.93,0,0,1,175.83,141.72Z"/><path class="cls-66" d="M177.54,144.39h18.23a.38.38,0,0,0,.39-.39.39.39,0,0,0-.39-.4H177.54a.4.4,0,0,0-.4.4A.39.39,0,0,0,177.54,144.39Z"/><path class="cls-67" d="M177.54,146.19h18.23a.4.4,0,0,0,0-.79H177.54a.4.4,0,1,0,0,.79Z"/><path class="cls-68" d="M204,145.6a4,4,0,0,0,6.93,2.79A4,4,0,1,0,204,145.6Z"/><circle class="cls-6" cx="207.99" cy="144.99" r="1.57"/><path class="cls-6" d="M205.09,148.38a4,4,0,0,0,5.81,0,3.55,3.55,0,0,0-5.43-.46A3.23,3.23,0,0,0,205.09,148.38Z"/><path class="cls-69" d="M211.1,130H182.66l2.3,1.91v4.94a.92.92,0,0,0,.92.92H211.1a.92.92,0,0,0,.92-.92v-5.93A.92.92,0,0,0,211.1,130Z"/><path class="cls-70" d="M188.33,132.64h18.24a.4.4,0,0,0,0-.79H188.33a.4.4,0,0,0,0,.79Z"/><path class="cls-71" d="M188.33,134.39h10.75a.4.4,0,0,0,0-.79H188.33a.4.4,0,0,0,0,.79Z"/><path class="cls-72" d="M188.33,136.22h10.75a.39.39,0,0,0,0-.78H188.33a.39.39,0,0,0,0,.78Z"/><path class="cls-73" d="M183,133.85a4,4,0,0,1-4,4,4,4,0,1,1,4-4Z"/><circle class="cls-6" cx="178.93" cy="133.23" r="1.57"/><path class="cls-6" d="M181.83,136.63a4,4,0,0,1-5.81,0,3.55,3.55,0,0,1,5.43-.46A3.23,3.23,0,0,1,181.83,136.63Z"/><rect class="cls-1" width="255" height="255"/></g></g></svg>