<?xml version="1.0" encoding="UTF-8"?><svg id="Layer_2" xmlns="http://www.w3.org/2000/svg" viewBox="0 0 240 240"><g id="Layer_1-2"><g><g style="opacity:0;"><path d="M239,1V239H1V1H239m1-1H0V240H240V0h0Z" style="fill:red;"/></g><path d="M207.38,106.91c-6.34,0-12.19,2.09-16.9,5.62l-44.05-52.71c3.07-4.79,4.85-10.48,4.85-16.6,0-17.04-13.81-30.85-30.85-30.85s-30.85,13.81-30.85,30.85c0,7.42,2.62,14.23,6.99,19.55l-51.18,47.19c-3.84-1.95-8.17-3.06-12.77-3.06-15.59,0-28.22,12.63-28.22,28.22s12.63,28.22,28.22,28.22c8.07,0,15.34-3.39,20.48-8.82l44.73,27.95c-3.53,4.71-5.63,10.57-5.63,16.91,0,15.59,12.63,28.22,28.22,28.22s28.22-12.63,28.22-28.22c0-6.89-2.47-13.2-6.57-18.1l43.34-28.45c5.17,6.41,13.09,10.51,21.96,10.51,15.59,0,28.22-12.63,28.22-28.22s-12.63-28.22-28.22-28.22Zm-151.66,12.01l51.74-47.71c1.96,.91,4.03,1.62,6.19,2.11v98.69c-1.56,.39-3.07,.9-4.52,1.53l-49.33-30.82c.67-2.41,1.04-4.96,1.04-7.58,0-6.04-1.9-11.63-5.13-16.21Zm74.44,53.97c-.95-.35-1.93-.64-2.93-.89V73.32c3.43-.77,6.64-2.11,9.53-3.91l45.02,53.88c-1.67,3.6-2.61,7.62-2.61,11.85,0,1.8,.18,3.55,.5,5.26l-49.51,32.5Z" style="fill:#ffffff;"/></g></g></svg>