<svg width="224" height="242" viewBox="0 0 224 242" fill="none" xmlns="http://www.w3.org/2000/svg">
<g clip-path="url(#clip0_19_58)">
<path d="M37.8571 117.411C43.1217 115.231 45.6217 109.195 43.4411 103.93C41.2604 98.6658 35.2248 96.1658 29.9602 98.3465C24.6956 100.527 22.1955 106.563 24.3762 111.827C26.5569 117.092 32.5925 119.592 37.8571 117.411Z" fill="url(#paint0_linear_19_58)"/>
<path d="M33.6174 167.58H129.705C136.111 167.58 141.298 172.777 141.298 179.174V200.391C141.298 206.797 136.102 211.984 129.705 211.984H47.2463L29.359 218.381L31.9197 211.844C26.2355 210.999 22.0239 206.131 22.0239 200.391V179.174C22.0239 172.767 27.2204 167.58 33.6174 167.58Z" fill="url(#paint1_linear_19_58)"/>
<path fill-rule="evenodd" clip-rule="evenodd" d="M34.2119 178.911C34.2119 178.193 34.7939 177.611 35.5119 177.611H128.035C128.753 177.611 129.335 178.193 129.335 178.911C129.335 179.629 128.753 180.211 128.035 180.211H35.5119C34.7939 180.211 34.2119 179.629 34.2119 178.911Z" fill="white"/>
<path fill-rule="evenodd" clip-rule="evenodd" d="M33.7617 189.426C33.7617 188.708 34.3437 188.126 35.0617 188.126H117.492C118.21 188.126 118.792 188.708 118.792 189.426C118.792 190.144 118.21 190.726 117.492 190.726H35.0617C34.3437 190.726 33.7617 190.144 33.7617 189.426Z" fill="white"/>
<path fill-rule="evenodd" clip-rule="evenodd" d="M68.833 199.941C68.833 199.223 69.415 198.641 70.133 198.641H128.035C128.753 198.641 129.335 199.223 129.335 199.941C129.335 200.659 128.753 201.241 128.035 201.241H70.133C69.415 201.241 68.833 200.659 68.833 199.941Z" fill="white"/>
<path fill-rule="evenodd" clip-rule="evenodd" d="M33.7993 199.941C33.7993 199.223 34.3813 198.641 35.0993 198.641H62.1789C62.8969 198.641 63.4789 199.223 63.4789 199.941C63.4789 200.659 62.8969 201.241 62.1789 201.241H35.0993C34.3813 201.241 33.7993 200.659 33.7993 199.941Z" fill="white"/>
<path d="M177.439 119.302C177.439 134.572 166.333 147.254 151.757 149.692L143.953 146.907H132.894C122.764 141.851 115.804 131.392 115.804 119.302C115.804 119.058 115.804 118.814 115.813 118.57C115.841 117.473 115.916 116.385 116.057 115.325C116.554 111.488 117.755 107.877 119.528 104.613C120.137 103.487 120.813 102.409 121.554 101.367C127.153 93.5634 136.289 88.4795 146.626 88.4795C163.641 88.4795 177.439 102.287 177.439 119.302Z" fill="url(#paint2_linear_19_58)"/>
<path d="M161.146 102.99C161.146 103.881 160.423 104.613 159.532 104.613H119.527C120.137 103.487 120.812 102.408 121.553 101.367H159.532C160.423 101.367 161.146 102.089 161.146 102.99Z" fill="white"/>
<path d="M161.746 116.947C161.746 117.838 161.024 118.57 160.123 118.57H115.813C115.841 117.472 115.916 116.384 116.057 115.324H160.123C161.024 115.324 161.746 116.046 161.746 116.947Z" fill="white"/>
<path d="M160.077 132.518H124.114C123.223 132.518 122.492 131.796 122.492 130.895C122.492 129.995 123.214 129.272 124.114 129.272H160.077C160.968 129.272 161.699 129.995 161.699 130.895C161.699 131.796 160.977 132.518 160.077 132.518Z" fill="white"/>
<path d="M109.725 117.247C109.688 117.932 109.669 118.617 109.669 119.302C109.669 119.433 109.669 119.555 109.669 119.686C109.688 122.463 110.025 125.164 110.635 127.762C110.823 128.588 111.048 129.404 111.292 130.201C112.502 134.131 114.35 137.78 116.713 141.025H63.7453C57.3389 141.025 52.1519 135.838 52.1519 129.432V108.215C52.1519 101.808 57.3389 96.6211 63.7453 96.6211H117.436C115.072 99.6508 113.177 103.056 111.855 106.733C111.554 107.53 111.292 108.346 111.067 109.171C110.326 111.76 109.866 114.462 109.716 117.247H109.725Z" fill="url(#paint3_linear_19_58)"/>
<path d="M111.864 106.732C111.564 107.53 111.301 108.346 111.076 109.171H65.4245C64.7491 109.171 64.2051 108.627 64.2051 107.952C64.2051 107.276 64.7491 106.732 65.4245 106.732H111.864Z" fill="white"/>
<path d="M109.669 119.301C109.669 119.433 109.669 119.555 109.669 119.686H75.9577C75.2823 119.686 74.7383 119.142 74.7383 118.466C74.7383 117.791 75.2823 117.247 75.9577 117.247H109.716C109.678 117.932 109.659 118.617 109.659 119.301H109.669Z" fill="white"/>
<path d="M111.301 130.2H65.4245C64.7491 130.2 64.2051 129.647 64.2051 128.981C64.2051 128.315 64.7491 127.762 65.4245 127.762H110.645C110.832 128.587 111.057 129.403 111.301 130.2Z" fill="white"/>
<path opacity="0.5" d="M135.023 23.6182H38.9358C32.5293 23.6182 27.3423 28.8146 27.3423 35.2117V56.4289C27.3423 62.8353 32.5387 68.0223 38.9358 68.0223H121.394L139.281 74.4194L136.721 67.8817C142.405 67.0375 146.616 62.1693 146.616 56.4289V35.2117C146.616 28.8052 141.42 23.6182 135.023 23.6182Z" fill="url(#paint4_linear_19_58)"/>
<path fill-rule="evenodd" clip-rule="evenodd" d="M39.3052 34.9494C39.3052 34.2314 39.8872 33.6494 40.6052 33.6494H133.128C133.846 33.6494 134.428 34.2314 134.428 34.9494C134.428 35.6674 133.846 36.2494 133.128 36.2494H40.6052C39.8872 36.2494 39.3052 35.6674 39.3052 34.9494Z" fill="white"/>
<path fill-rule="evenodd" clip-rule="evenodd" d="M49.8481 45.4641C49.8481 44.7461 50.4302 44.1641 51.1481 44.1641H133.578C134.296 44.1641 134.878 44.7461 134.878 45.4641C134.878 46.182 134.296 46.7641 133.578 46.7641H51.1481C50.4302 46.7641 49.8481 46.182 49.8481 45.4641Z" fill="white"/>
<path fill-rule="evenodd" clip-rule="evenodd" d="M39.3057 55.9699C39.3057 55.252 39.8877 54.6699 40.6057 54.6699H98.5074C99.2254 54.6699 99.8074 55.252 99.8074 55.9699C99.8074 56.6879 99.2254 57.2699 98.5074 57.2699H40.6057C39.8877 57.2699 39.3057 56.6879 39.3057 55.9699Z" fill="white"/>
<path fill-rule="evenodd" clip-rule="evenodd" d="M105.162 55.9699C105.162 55.252 105.744 54.6699 106.462 54.6699H133.541C134.259 54.6699 134.841 55.252 134.841 55.9699C134.841 56.6879 134.259 57.2699 133.541 57.2699H106.462C105.744 57.2699 105.162 56.6879 105.162 55.9699Z" fill="white"/>
<path d="M211.686 161.684L176.908 134.882L169.087 145.031L203.865 171.832L211.686 161.684Z" fill="url(#paint5_linear_19_58)"/>
<path d="M172.261 149.336L166.427 145.275L175.938 132.94L181.772 137.002C182.926 137.893 183.132 139.544 182.251 140.688L175.957 148.858C175.066 150.012 173.415 150.218 172.27 149.336H172.261Z" fill="url(#paint6_linear_19_58)"/>
<path d="M171.445 148.708L165.901 144.872L175.413 132.537L180.956 136.373C182.091 137.246 182.297 138.878 181.425 140.013L175.084 148.248C174.212 149.383 172.58 149.59 171.445 148.717V148.708Z" fill="url(#paint7_linear_19_58)"/>
<path d="M165.31 87.4202C159.833 84.1935 153.445 82.3457 146.616 82.3457C146.157 82.3457 145.707 82.3551 145.247 82.3738C142.855 82.4583 140.519 82.7678 138.268 83.2931C134.404 84.1935 130.774 85.6756 127.481 87.6828C125.793 88.6959 124.227 89.8402 122.735 91.0971C122.557 91.2378 122.398 91.3879 122.219 91.5473C114.509 98.3196 109.65 108.243 109.65 119.302C109.65 130.361 114.894 141.054 123.101 147.836C128.616 152.376 135.464 155.349 142.977 156.081C144.168 156.203 145.388 156.259 146.607 156.259C149.646 156.259 152.61 155.902 155.443 155.199C156.156 155.021 156.85 154.824 157.553 154.608C161.268 153.473 164.738 151.747 167.852 149.543C170.648 147.573 173.152 145.238 175.3 142.583C180.459 136.233 183.554 128.129 183.554 119.302C183.554 105.711 176.219 93.8266 165.292 87.4202H165.31ZM146.616 150.115C129.601 150.115 115.794 136.327 115.794 119.293C115.794 102.259 129.592 88.4707 146.616 88.4707C163.641 88.4707 177.439 102.268 177.439 119.293C177.439 136.317 163.641 150.115 146.616 150.115Z" fill="url(#paint8_linear_19_58)"/>
<path d="M146.626 86.6602C128.588 86.6602 113.984 101.283 113.984 119.302C113.984 137.321 128.598 151.963 146.626 151.963C164.654 151.963 179.268 137.339 179.268 119.302C179.268 101.265 164.654 86.6602 146.626 86.6602ZM146.626 150.124C129.611 150.124 115.804 136.336 115.804 119.302C115.804 102.268 129.601 88.4798 146.626 88.4798C163.65 88.4798 177.448 102.278 177.448 119.302C177.448 136.326 163.65 150.124 146.626 150.124Z" fill="url(#paint9_linear_19_58)"/>
<path opacity="0.36" d="M158.416 147.775C174.143 141.261 181.611 123.231 175.097 107.504C168.582 91.777 150.552 84.3088 134.826 90.823C119.099 97.3373 111.63 115.367 118.145 131.094C124.659 146.821 142.689 154.289 158.416 147.775Z" fill="url(#paint10_linear_19_58)"/>
<path d="M203.965 176.772L184.464 161.183C183.198 160.207 182.954 158.378 183.939 157.112L192.502 145.997C193.478 144.73 195.307 144.486 196.573 145.471L216.074 161.061C220.417 164.4 221.223 170.628 217.875 174.971C214.536 179.314 208.307 180.12 203.965 176.772Z" fill="url(#paint11_linear_19_58)"/>
<path d="M218.034 174.371L217.34 175.281C215.98 177.044 214.123 178.179 212.115 178.658C209.47 179.295 206.563 178.77 204.236 176.979L185.327 161.84C184.126 160.92 183.91 159.204 184.83 158.003L193.459 146.813L193.6 146.625C194.519 145.425 196.245 145.209 197.436 146.128L216.346 161.267C220.435 164.419 221.195 170.281 218.044 174.371H218.034Z" fill="url(#paint12_linear_19_58)"/>
<path opacity="0.04" d="M218.034 174.371L217.34 175.281C215.98 177.044 214.123 178.179 212.116 178.658C217.021 168.556 197.399 150.284 193.45 146.813L193.59 146.625C194.51 145.425 196.236 145.209 197.427 146.128L216.337 161.267C220.426 164.419 221.186 170.281 218.034 174.371Z" fill="#513003"/>
<path opacity="0.39" d="M127.285 99.8388C132.903 94.6049 140.501 95.8524 143.109 98.657C145.716 101.462 138.916 103.685 133.297 108.919C127.679 114.152 125.381 120.418 122.764 117.614C120.156 114.809 121.666 105.073 127.285 99.8388Z" fill="white"/>
<path opacity="0.54" d="M161.146 187.554C165.918 185.578 168.184 180.108 166.208 175.336C164.231 170.564 158.761 168.298 153.989 170.275C149.217 172.251 146.951 177.722 148.928 182.493C150.904 187.265 156.375 189.531 161.146 187.554Z" fill="url(#paint13_linear_19_58)"/>
<path fill-rule="evenodd" clip-rule="evenodd" d="M152.425 178.492C152.621 178.297 152.937 178.297 153.132 178.492L156.415 181.775C156.611 181.97 156.611 182.287 156.415 182.482C156.22 182.677 155.903 182.677 155.708 182.482L152.425 179.199C152.23 179.004 152.23 178.687 152.425 178.492Z" fill="#32ABC9"/>
<path fill-rule="evenodd" clip-rule="evenodd" d="M162.831 175.349C163.026 175.544 163.026 175.861 162.831 176.056L156.415 182.482C156.22 182.677 155.904 182.677 155.708 182.482C155.513 182.287 155.513 181.97 155.708 181.775L162.124 175.35C162.319 175.154 162.635 175.154 162.831 175.349Z" fill="#32ABC9"/>
<path d="M38.0726 105.861H29.7527C29.4244 105.861 29.1523 106.133 29.1523 106.462V112.446C29.1523 112.774 29.4244 113.046 29.7527 113.046H38.0726C38.4009 113.046 38.6729 112.774 38.6729 112.446V106.462C38.6729 106.133 38.4009 105.861 38.0726 105.861ZM34.8459 110.945C34.9116 111.086 34.8084 111.245 34.6583 111.245H33.1669C33.0168 111.245 32.9137 111.086 32.9793 110.945L33.4389 109.951C33.0168 109.763 32.7167 109.341 32.7167 108.854C32.7167 108.188 33.2513 107.653 33.9173 107.653C34.5833 107.653 35.1179 108.188 35.1179 108.854C35.1179 109.341 34.8178 109.773 34.3957 109.951L34.8553 110.945H34.8459Z" fill="url(#paint14_linear_19_58)"/>
<path fill-rule="evenodd" clip-rule="evenodd" d="M32.3137 103.115C31.8394 103.115 31.4536 103.501 31.4536 103.975V106.195H36.3817V103.975C36.3817 103.501 35.9958 103.115 35.5216 103.115H32.3137ZM30.4536 103.975C30.4536 102.949 31.2872 102.115 32.3137 102.115H35.5216C36.5481 102.115 37.3817 102.949 37.3817 103.975V107.195H30.4536V103.975Z" fill="#DE4054"/>
</g>
<defs>
<linearGradient id="paint0_linear_19_58" x1="23.605" y1="107.876" x2="44.2313" y2="107.876" gradientUnits="userSpaceOnUse">
<stop stop-color="#FAD2D4"/>
<stop offset="1" stop-color="#FAE6E7"/>
</linearGradient>
<linearGradient id="paint1_linear_19_58" x1="141.298" y1="192.981" x2="22.0239" y2="192.981" gradientUnits="userSpaceOnUse">
<stop stop-color="#188AA5"/>
<stop offset="1" stop-color="#34ADCC"/>
</linearGradient>
<linearGradient id="paint2_linear_19_58" x1="115.804" y1="119.086" x2="177.439" y2="119.086" gradientUnits="userSpaceOnUse">
<stop stop-color="#DE3E53"/>
<stop offset="1" stop-color="#DB5163"/>
</linearGradient>
<linearGradient id="paint3_linear_19_58" x1="52.1612" y1="118.823" x2="117.445" y2="118.823" gradientUnits="userSpaceOnUse">
<stop stop-color="#DE3E53"/>
<stop offset="1" stop-color="#DB5163"/>
</linearGradient>
<linearGradient id="paint4_linear_19_58" x1="27.3423" y1="49.0188" x2="146.616" y2="49.0188" gradientUnits="userSpaceOnUse">
<stop stop-color="#63D0E6"/>
<stop offset="1" stop-color="#BAEBF5"/>
</linearGradient>
<linearGradient id="paint5_linear_19_58" x1="137.028" y1="136.831" x2="152.202" y2="151.819" gradientUnits="userSpaceOnUse">
<stop offset="0.02" stop-color="#F9C578"/>
<stop offset="1" stop-color="#F2AD46"/>
</linearGradient>
<linearGradient id="paint6_linear_19_58" x1="-404.568" y1="310.781" x2="-396.242" y2="312.907" gradientUnits="userSpaceOnUse">
<stop stop-color="#F7A221"/>
<stop offset="1" stop-color="#F98A34"/>
</linearGradient>
<linearGradient id="paint7_linear_19_58" x1="-445.319" y1="329.7" x2="-432.236" y2="332.866" gradientUnits="userSpaceOnUse">
<stop offset="0.33" stop-color="#F7A221"/>
<stop offset="1" stop-color="#F98A34"/>
</linearGradient>
<linearGradient id="paint8_linear_19_58" x1="113.065" y1="108.628" x2="183.517" y2="131.036" gradientUnits="userSpaceOnUse">
<stop stop-color="#F7A221"/>
<stop offset="1" stop-color="#F98A34"/>
</linearGradient>
<linearGradient id="paint9_linear_19_58" x1="113.975" y1="119.311" x2="179.268" y2="119.311" gradientUnits="userSpaceOnUse">
<stop stop-color="#EB9410"/>
<stop offset="1" stop-color="#ED7D28"/>
</linearGradient>
<linearGradient id="paint10_linear_19_58" x1="170.265" y1="104.01" x2="118.497" y2="137.487" gradientUnits="userSpaceOnUse">
<stop offset="0.23" stop-color="#C1EEFA"/>
<stop offset="0.45" stop-color="#C4EEFA"/>
<stop offset="0.63" stop-color="#CEF1FB"/>
<stop offset="0.79" stop-color="#DFF6FC"/>
<stop offset="0.95" stop-color="#F7FCFE"/>
<stop offset="0.99" stop-color="white"/>
</linearGradient>
<linearGradient id="paint11_linear_19_58" x1="224.14" y1="170.271" x2="190.453" y2="148.053" gradientUnits="userSpaceOnUse">
<stop stop-color="#F7A221"/>
<stop offset="1" stop-color="#F98A34"/>
</linearGradient>
<linearGradient id="paint12_linear_19_58" x1="184.257" y1="162.234" x2="219.976" y2="162.234" gradientUnits="userSpaceOnUse">
<stop stop-color="#F7A221"/>
<stop offset="1" stop-color="#F98A34"/>
</linearGradient>
<linearGradient id="paint13_linear_19_58" x1="148.215" y1="178.913" x2="166.918" y2="178.913" gradientUnits="userSpaceOnUse">
<stop stop-color="#63D0E6"/>
<stop offset="1" stop-color="#BAEBF5"/>
</linearGradient>
<linearGradient id="paint14_linear_19_58" x1="29.1523" y1="109.454" x2="38.6729" y2="109.454" gradientUnits="userSpaceOnUse">
<stop stop-color="#DE3E53"/>
<stop offset="1" stop-color="#DB5163"/>
</linearGradient>
<clipPath id="clip0_19_58">
<rect width="224" height="242" fill="white"/>
</clipPath>
</defs>
</svg>
