<svg xmlns="http://www.w3.org/2000/svg" xmlns:xlink="http://www.w3.org/1999/xlink" viewBox="0 0 255 255"><defs><style>.cls-1{fill:none;}.cls-2{opacity:0.82;}.cls-3{fill:url(#Безымянный_градиент_70);}.cls-4{fill:url(#Безымянный_градиент_99);}.cls-5{fill:url(#Безымянный_градиент_95);}.cls-6{fill:url(#Безымянный_градиент_99-2);}.cls-7{fill:url(#Безымянный_градиент_95-2);}.cls-8{fill:url(#Безымянный_градиент_99-3);}.cls-9{fill:url(#Безымянный_градиент_95-3);}.cls-10{opacity:0.3;fill:url(#Безымянный_градиент_26);}.cls-11{opacity:0.4;fill:url(#Безымянный_градиент_26-2);}.cls-12{fill:url(#Безымянный_градиент_68);}.cls-13{fill:url(#Безымянный_градиент_68-2);}.cls-14{fill:url(#Безымянный_градиент_11);}.cls-15{fill:#fff;}.cls-16{opacity:0.8;}.cls-17{fill:url(#Безымянный_градиент_173);}.cls-18{fill:url(#Безымянный_градиент_126);}.cls-19{fill:url(#Безымянный_градиент_175);}.cls-20{fill:url(#Безымянный_градиент_173-2);}.cls-21{fill:url(#Безымянный_градиент_126-2);}.cls-22{fill:url(#Безымянный_градиент_150);}.cls-23{fill:url(#Безымянный_градиент_11-2);}.cls-24{opacity:0.53;fill:url(#Безымянный_градиент_103);}.cls-25{fill:url(#Безымянный_градиент_95-4);}.cls-26{fill:url(#Безымянный_градиент_4);}.cls-27{fill:url(#Безымянный_градиент_95-5);}.cls-28{fill:url(#Безымянный_градиент_95-6);}.cls-29{fill:#e2e2e2;}.cls-30{fill:url(#Безымянный_градиент_82);}.cls-31{clip-path:url(#clip-path);}.cls-32{clip-path:url(#clip-path-2);}.cls-33{fill:#2f3f5c;}.cls-34{fill:#ffa398;}.cls-35{fill:#e8928b;}.cls-36{fill:url(#Безымянный_градиент_144);}.cls-37{fill:url(#Безымянный_градиент_236);}.cls-38{fill:url(#Безымянный_градиент_236-2);}.cls-39,.cls-40,.cls-41,.cls-42,.cls-48,.cls-67,.cls-75{fill:#27374f;}.cls-39{opacity:0.1;}.cls-40{opacity:0.2;}.cls-41{opacity:0.12;}.cls-43{fill:url(#Безымянный_градиент_144-2);}.cls-44{fill:url(#Безымянный_градиент_82-2);}.cls-45{clip-path:url(#clip-path-3);}.cls-46{fill:url(#Безымянный_градиент_9);}.cls-47{fill:url(#Безымянный_градиент_3);}.cls-48{opacity:0.08;}.cls-49{fill:url(#Безымянный_градиент_3-2);}.cls-50{fill:url(#Безымянный_градиент_3-3);}.cls-51{fill:url(#Безымянный_градиент_433);}.cls-52{fill:url(#Безымянный_градиент_226);}.cls-53{fill:url(#Безымянный_градиент_105);}.cls-54{fill:#222f42;}.cls-55{fill:url(#Безымянный_градиент_226-2);}.cls-56{fill:url(#Безымянный_градиент_20);}.cls-57{fill:url(#Безымянный_градиент_82-3);}.cls-58{clip-path:url(#clip-path-4);}.cls-59{fill:url(#Безымянный_градиент_236-3);}.cls-60{fill:url(#Безымянный_градиент_82-4);}.cls-61{clip-path:url(#clip-path-5);}.cls-62{fill:url(#Безымянный_градиент_144-3);}.cls-63{fill:url(#Безымянный_градиент_144-5);}.cls-64{fill:url(#Безымянный_градиент_82-5);}.cls-65{clip-path:url(#clip-path-6);}.cls-66{fill:url(#Безымянный_градиент_28);}.cls-67{opacity:0.13;}.cls-68{fill:url(#Безымянный_градиент_144-6);}.cls-69{fill:#4f0f29;}.cls-69,.cls-75{opacity:0.15;}.cls-70{fill:url(#Безымянный_градиент_87);}.cls-71{fill:url(#Безымянный_градиент_87-2);}.cls-72{fill:url(#Безымянный_градиент_82-6);}.cls-73{fill:url(#Безымянный_градиент_82-7);}.cls-74{fill:url(#Безымянный_градиент_236-4);}.cls-76{fill:url(#Безымянный_градиент_24);}.cls-77{fill:url(#Безымянный_градиент_24-2);}.cls-78{fill:url(#Безымянный_градиент_24-3);}.cls-79{fill:url(#Безымянный_градиент_24-4);}.cls-80{fill:url(#Безымянный_градиент_11-3);}</style><linearGradient id="Безымянный_градиент_70" x1="89.55" y1="29.82" x2="32.74" y2="57.81" gradientUnits="userSpaceOnUse"><stop offset="0.42" stop-color="#fff"/><stop offset="0.63" stop-color="#fbfeff"/><stop offset="0.84" stop-color="#effcff"/><stop offset="1" stop-color="#e0f9ff"/></linearGradient><linearGradient id="Безымянный_градиент_99" x1="22.24" y1="48.13" x2="90.09" y2="48.13" gradientUnits="userSpaceOnUse"><stop offset="0" stop-color="#83d6eb"/><stop offset="1" stop-color="#4ba8bf"/></linearGradient><linearGradient id="Безымянный_градиент_95" x1="29.88" y1="74.37" x2="35.9" y2="70.55" gradientUnits="userSpaceOnUse"><stop offset="0" stop-color="#34adcc"/><stop offset="1" stop-color="#188aa5"/></linearGradient><linearGradient id="Безымянный_градиент_99-2" x1="25.64" y1="70.94" x2="32.49" y2="70.94" xlink:href="#Безымянный_градиент_99"/><linearGradient id="Безымянный_градиент_95-2" x1="-1951.99" y1="74.37" x2="-1945.97" y2="70.55" gradientTransform="matrix(-1, 0, 0, 1, -1870.03, 0)" xlink:href="#Безымянный_градиент_95"/><linearGradient id="Безымянный_градиент_99-3" x1="-1956.22" y1="70.94" x2="-1949.38" y2="70.94" gradientTransform="matrix(-1, 0, 0, 1, -1870.03, 0)" xlink:href="#Безымянный_градиент_99"/><linearGradient id="Безымянный_градиент_95-3" x1="21.8" y1="74.09" x2="90.05" y2="74.09" xlink:href="#Безымянный_градиент_95"/><linearGradient id="Безымянный_градиент_26" x1="-1989.21" y1="533.16" x2="-2009.9" y2="543.36" gradientTransform="matrix(-0.89, 0.45, 0.45, 0.89, -1974.3, 471.79)" gradientUnits="userSpaceOnUse"><stop offset="0" stop-color="#63d0e6"/><stop offset="1" stop-color="#baebf5"/></linearGradient><linearGradient id="Безымянный_градиент_26-2" x1="-1993.69" y1="535.38" x2="-2006.76" y2="541.82" xlink:href="#Безымянный_градиент_26"/><linearGradient id="Безымянный_градиент_68" x1="211.97" y1="41.06" x2="197.26" y2="34.71" gradientUnits="userSpaceOnUse"><stop offset="0" stop-color="#79def2"/><stop offset="1" stop-color="#e6fbff"/></linearGradient><linearGradient id="Безымянный_градиент_68-2" x1="221.88" y1="69.72" x2="156.89" y2="41.67" xlink:href="#Безымянный_градиент_68"/><linearGradient id="Безымянный_градиент_11" x1="196.23" y1="35.1" x2="233.67" y2="35.1" gradientUnits="userSpaceOnUse"><stop offset="0" stop-color="#f7a221"/><stop offset="1" stop-color="#f98a34"/></linearGradient><linearGradient id="Безымянный_градиент_173" x1="-3216.83" y1="779.95" x2="-3225.58" y2="771.8" gradientTransform="matrix(-0.37, 0.23, 0.4, 0.65, -1448.19, 351.21)" gradientUnits="userSpaceOnUse"><stop offset="0" stop-color="#b4e3f0"/><stop offset="0.89" stop-color="#e084c7"/></linearGradient><linearGradient id="Безымянный_градиент_126" x1="-3232.49" y1="770.66" x2="-3215.48" y2="775.92" gradientTransform="matrix(-0.37, 0.23, 0.4, 0.65, -1448.19, 351.21)" gradientUnits="userSpaceOnUse"><stop offset="0" stop-color="#83d6eb"/><stop offset="1" stop-color="#5dc1d9"/></linearGradient><linearGradient id="Безымянный_градиент_175" x1="-1867.14" y1="682.96" x2="-1866.97" y2="689.22" gradientTransform="matrix(-0.85, 0.53, 0.53, 0.85, -1891.24, 493.46)" gradientUnits="userSpaceOnUse"><stop offset="0" stop-color="#b4e3f0"/><stop offset="1" stop-color="#84d0e0"/></linearGradient><linearGradient id="Безымянный_градиент_173-2" x1="555.53" y1="-584.04" x2="555.71" y2="-584.04" gradientTransform="matrix(0.37, 0.23, -0.4, 0.65, -258.49, 351.21)" xlink:href="#Безымянный_градиент_173"/><linearGradient id="Безымянный_градиент_126-2" x1="554.37" y1="-604.86" x2="556.7" y2="-563.22" gradientTransform="matrix(0.37, 0.23, -0.4, 0.65, -258.49, 351.21)" xlink:href="#Безымянный_градиент_126"/><linearGradient id="Безымянный_градиент_150" x1="-207.13" y1="-349.81" x2="-207.54" y2="-341.99" gradientTransform="translate(184.56 493.46) rotate(31.85)" xlink:href="#Безымянный_градиент_175"/><linearGradient id="Безымянный_градиент_11-2" x1="69.86" y1="35.1" x2="108.84" y2="35.1" xlink:href="#Безымянный_градиент_11"/><linearGradient id="Безымянный_градиент_103" x1="65.65" y1="222.19" x2="197.28" y2="222.19" gradientUnits="userSpaceOnUse"><stop offset="0.01" stop-color="#ebf5ff"/><stop offset="1" stop-color="#cfebff"/></linearGradient><linearGradient id="Безымянный_градиент_95-4" x1="74.35" y1="171.32" x2="190.03" y2="171.32" xlink:href="#Безымянный_градиент_95"/><linearGradient id="Безымянный_градиент_4" x1="119.42" y1="222.74" x2="134.57" y2="213.12" gradientUnits="userSpaceOnUse"><stop offset="0" stop-color="#17849e"/><stop offset="1" stop-color="#157087"/></linearGradient><linearGradient id="Безымянный_градиент_95-5" x1="109.45" y1="217.28" x2="122.63" y2="217.28" xlink:href="#Безымянный_градиент_95"/><linearGradient id="Безымянный_градиент_95-6" x1="107.51" y1="223.16" x2="154.53" y2="223.16" xlink:href="#Безымянный_градиент_95"/><linearGradient id="Безымянный_градиент_82" x1="118.3" y1="166.39" x2="71.92" y2="121.15" gradientUnits="userSpaceOnUse"><stop offset="0.3" stop-color="#e6faff"/><stop offset="0.48" stop-color="#e2f9fe"/><stop offset="0.66" stop-color="#d6f5fc"/><stop offset="0.84" stop-color="#c2eff9"/><stop offset="1" stop-color="#a9e7f5"/></linearGradient><clipPath id="clip-path"><rect class="cls-1" x="50.55" y="118.03" width="100.14" height="55.02"/></clipPath><clipPath id="clip-path-2"><rect class="cls-1" x="51.29" y="118.03" width="101.89" height="57.99" transform="translate(204.46 294.06) rotate(180)"/></clipPath><linearGradient id="Безымянный_градиент_144" x1="-2772.55" y1="163.49" x2="-2761.19" y2="163.49" gradientTransform="matrix(-1, 0, 0, 1, -2654.11, 0)" gradientUnits="userSpaceOnUse"><stop offset="0" stop-color="#de3e53"/><stop offset="1" stop-color="#db5163"/></linearGradient><linearGradient id="Безымянный_градиент_236" x1="-2772.55" y1="163.49" x2="-2761.19" y2="163.49" gradientTransform="matrix(-1, 0, 0, 1, -2654.11, 0)" gradientUnits="userSpaceOnUse"><stop offset="0" stop-color="#085896"/><stop offset="1" stop-color="#08426b"/></linearGradient><linearGradient id="Безымянный_градиент_236-2" x1="-2769.78" y1="171.47" x2="-2732.33" y2="171.47" xlink:href="#Безымянный_градиент_236"/><linearGradient id="Безымянный_градиент_144-2" x1="88.46" y1="126.69" x2="97.14" y2="126.69" gradientTransform="matrix(1, 0, 0, 1, 0, 0)" xlink:href="#Безымянный_градиент_144"/><linearGradient id="Безымянный_градиент_82-2" x1="180.53" y1="131.43" x2="149.26" y2="143.81" gradientTransform="translate(327.85 276.01) rotate(-180)" xlink:href="#Безымянный_градиент_82"/><clipPath id="clip-path-3"><rect class="cls-1" x="133.62" y="114.95" width="52.88" height="34.17" rx="2.99" transform="translate(320.13 264.06) rotate(180)"/></clipPath><linearGradient id="Безымянный_градиент_9" x1="-2730.22" y1="140.78" x2="-2725.11" y2="140.78" gradientTransform="matrix(-1, 0, 0, 1, -2569.71, 0)" gradientUnits="userSpaceOnUse"><stop offset="0" stop-color="#f09915"/><stop offset="1" stop-color="#f2822c"/></linearGradient><linearGradient id="Безымянный_градиент_3" x1="-564.41" y1="164.6" x2="-540.49" y2="164.6" gradientTransform="translate(713.76)" xlink:href="#Безымянный_градиент_236"/><linearGradient id="Безымянный_градиент_3-2" x1="-2740.06" y1="180.51" x2="-2730.63" y2="180.51" gradientTransform="matrix(-1, 0, 0, 1, -2569.71, 0)" xlink:href="#Безымянный_градиент_236"/><linearGradient id="Безымянный_градиент_3-3" x1="-2727.87" y1="179.53" x2="-2718.97" y2="179.53" gradientTransform="matrix(-1, 0, 0, 1, -2569.71, 0)" xlink:href="#Безымянный_градиент_236"/><linearGradient id="Безымянный_градиент_433" x1="-2730.24" y1="140.71" x2="-2725.07" y2="140.71" gradientTransform="matrix(-1, 0, 0, 1, -2569.71, 0)" gradientUnits="userSpaceOnUse"><stop offset="0" stop-color="#e07b0a"/><stop offset="1" stop-color="#e36d10"/></linearGradient><linearGradient id="Безымянный_градиент_226" x1="-565.28" y1="188.09" x2="-561.49" y2="188.09" gradientTransform="translate(713.76)" gradientUnits="userSpaceOnUse"><stop offset="0" stop-color="#106db4"/><stop offset="1" stop-color="#0f5f9c"/></linearGradient><linearGradient id="Безымянный_градиент_105" x1="-2743.22" y1="143.71" x2="-2726.35" y2="143.71" gradientTransform="matrix(-1, 0, 0, 1, -2569.71, 0)" xlink:href="#Безымянный_градиент_11"/><linearGradient id="Безымянный_градиент_226-2" x1="-550.83" y1="189.19" x2="-547.08" y2="189.19" xlink:href="#Безымянный_градиент_226"/><linearGradient id="Безымянный_градиент_20" x1="-2737.69" y1="130.92" x2="-2735.56" y2="130.92" gradientTransform="matrix(-1, 0, 0, 1, -2569.71, 0)" gradientUnits="userSpaceOnUse"><stop offset="0" stop-color="#f09915"/><stop offset="0.29" stop-color="#f2822c"/></linearGradient><linearGradient id="Безымянный_градиент_82-3" x1="102.89" y1="193.49" x2="141.3" y2="193.49" gradientTransform="translate(244.2 386.98) rotate(-180)" xlink:href="#Безымянный_градиент_82"/><clipPath id="clip-path-4"><rect class="cls-1" x="91.79" y="170.43" width="52.88" height="34.17" rx="2.99" transform="translate(236.47 375.03) rotate(180)"/></clipPath><linearGradient id="Безымянный_градиент_236-3" x1="107.81" y1="204.88" x2="134.2" y2="204.88" gradientTransform="matrix(1, 0, 0, 1, 0, 0)" xlink:href="#Безымянный_градиент_236"/><linearGradient id="Безымянный_градиент_82-4" x1="61.06" y1="193.49" x2="99.48" y2="193.49" gradientTransform="translate(160.54 386.98) rotate(-180)" xlink:href="#Безымянный_градиент_82"/><clipPath id="clip-path-5"><rect class="cls-1" x="49.97" y="170.43" width="52.88" height="34.17" rx="2.99" transform="translate(152.82 375.03) rotate(180)"/></clipPath><linearGradient id="Безымянный_градиент_144-3" x1="-2743.42" y1="199.07" x2="-2737.98" y2="199.07" xlink:href="#Безымянный_градиент_144"/><linearGradient id="Безымянный_градиент_144-5" x1="70.03" y1="202.04" x2="87.99" y2="202.04" gradientTransform="matrix(1, 0, 0, 1, 0, 0)" xlink:href="#Безымянный_градиент_144"/><linearGradient id="Безымянный_градиент_82-5" x1="-2714.64" y1="176.13" x2="-2751.25" y2="155.29" gradientTransform="matrix(1, 0, 0, -1, 2897.56, 330.64)" xlink:href="#Безымянный_градиент_82"/><clipPath id="clip-path-6"><rect class="cls-1" x="133.62" y="142.26" width="52.88" height="34.17" rx="2.99" transform="translate(320.13 318.69) rotate(180)"/></clipPath><linearGradient id="Безымянный_градиент_28" x1="155.95" y1="204.02" x2="175.39" y2="204.02" xlink:href="#Безымянный_градиент_95"/><linearGradient id="Безымянный_градиент_144-6" x1="151.56" y1="178.75" x2="178.68" y2="178.75" gradientTransform="matrix(1, 0, 0, 1, 0, 0)" xlink:href="#Безымянный_градиент_144"/><linearGradient id="Безымянный_градиент_87" x1="155.39" y1="219.81" x2="161.3" y2="219.81" gradientUnits="userSpaceOnUse"><stop offset="0" stop-color="#54b3cc"/><stop offset="1" stop-color="#3da6bf"/></linearGradient><linearGradient id="Безымянный_градиент_87-2" x1="169.6" y1="219.34" x2="176.08" y2="219.34" xlink:href="#Безымянный_градиент_87"/><linearGradient id="Безымянный_градиент_82-6" x1="178.01" y1="201.51" x2="146.18" y2="183.38" xlink:href="#Безымянный_градиент_82"/><linearGradient id="Безымянный_градиент_82-7" x1="182.08" y1="205.31" x2="165.32" y2="195.77" xlink:href="#Безымянный_градиент_82"/><linearGradient id="Безымянный_градиент_236-4" x1="152.66" y1="200.18" x2="177.05" y2="200.18" gradientTransform="matrix(1, 0, 0, 1, 0, 0)" xlink:href="#Безымянный_градиент_236"/><linearGradient id="Безымянный_градиент_24" x1="158.98" y1="197.27" x2="160.48" y2="197.27" gradientUnits="userSpaceOnUse"><stop offset="0" stop-color="#106db4"/><stop offset="1" stop-color="#0e5283"/></linearGradient><linearGradient id="Безымянный_градиент_24-2" x1="163.76" y1="197.42" x2="166.21" y2="197.42" xlink:href="#Безымянный_градиент_24"/><linearGradient id="Безымянный_градиент_24-3" x1="162.48" y1="199.48" x2="163.13" y2="199.48" xlink:href="#Безымянный_градиент_24"/><linearGradient id="Безымянный_градиент_24-4" x1="-2399.8" y1="201.56" x2="-2398.89" y2="201.56" gradientTransform="matrix(-1, 0, 0, 1, -2236.36, 0)" xlink:href="#Безымянный_градиент_24"/><linearGradient id="Безымянный_градиент_11-3" x1="158.28" y1="202.52" x2="203.36" y2="202.52" xlink:href="#Безымянный_градиент_11"/></defs><g id="Layer_2" data-name="Layer 2"><g id="Layer_1-2" data-name="Layer 1"><g class="cls-2"><rect class="cls-3" x="22.99" y="29.44" width="66.17" height="33.76"/><path class="cls-4" d="M88.78,28.88H72.4a8.41,8.41,0,0,0-1,1.14H87.85a.64.64,0,0,1,.69.59v13h1.55V30A1.23,1.23,0,0,0,88.78,28.88Zm-.24,17.81V61.18a.64.64,0,0,1-.69.59H24.48a.65.65,0,0,1-.7-.59V30.61a.65.65,0,0,1,.7-.59H67.79a12.57,12.57,0,0,1,.62-1.14H23.55A1.23,1.23,0,0,0,22.24,30v36.3a1.22,1.22,0,0,0,1.31,1.1H88.78a1.22,1.22,0,0,0,1.31-1.1V46.69Z"/><polygon class="cls-5" points="40.54 74.05 40.25 74.49 25.64 74.49 30.32 67.39 39.34 67.39 34.95 74.05 40.54 74.05"/><polygon class="cls-6" points="32.49 67.38 27.81 74.49 25.64 74.49 30.32 67.38 32.49 67.38"/><polygon class="cls-7" points="71.29 74.05 71.59 74.49 86.19 74.49 81.51 67.39 72.5 67.39 76.88 74.05 71.29 74.05"/><polygon class="cls-8" points="79.34 67.38 84.03 74.49 86.19 74.49 81.51 67.38 79.34 67.38"/><rect class="cls-9" x="21.8" y="73.65" width="68.25" height="0.89" rx="0.42"/></g><path class="cls-10" d="M52,60.19l4.61-4.12a2,2,0,0,1,1.8-.45l6,1.46a2,2,0,0,0,2.29-2.74l-2.5-5.66a2,2,0,0,1,.13-1.84l3.25-5.27a2,2,0,0,0-1.9-3l-6.15.62a2,2,0,0,1-1.72-.69l-4-4.72a2,2,0,0,0-3.46.87l-1.3,6a2,2,0,0,1-1.19,1.42l-5.72,2.35A2,2,0,0,0,41.89,48l5.35,3.11a2,2,0,0,1,1,1.57l.47,6.17A2,2,0,0,0,52,60.19Z"/><path class="cls-11" d="M52.88,55.29l2.92-2.6a1.23,1.23,0,0,1,1.13-.29l3.8.92a1.25,1.25,0,0,0,1.45-1.72L60.6,48a1.25,1.25,0,0,1,.08-1.17l2-3.32a1.26,1.26,0,0,0-1.2-1.91L57.64,42a1.25,1.25,0,0,1-1.08-.44L54,38.6a1.26,1.26,0,0,0-2.19.54L51,43a1.27,1.27,0,0,1-.75.9l-3.62,1.49a1.26,1.26,0,0,0-.15,2.25l3.37,2a1.29,1.29,0,0,1,.63,1l.29,3.9A1.25,1.25,0,0,0,52.88,55.29Z"/><path class="cls-12" d="M211.41,43.59h-6.69A8.47,8.47,0,0,1,198.85,29,21.07,21.07,0,0,1,211.41,43.59Z"/><path class="cls-13" d="M228.51,57.17a12.38,12.38,0,0,1-12,12.38h-63.4a10.12,10.12,0,1,1,0-20.23,8.44,8.44,0,0,1,.87,0,15.67,15.67,0,0,1,18.36-10.84,21.08,21.08,0,0,1,18.56-11.09,20.48,20.48,0,0,1,4.73.54,11.38,11.38,0,0,0-2.48,7.13,11.56,11.56,0,0,0,11.55,11.55h17.95A12.36,12.36,0,0,1,228.51,57.17Z"/><path class="cls-14" d="M233.67,35.11a8.49,8.49,0,0,1-8.49,8.48H204.72a8.49,8.49,0,0,1,0-17h20.46A8.5,8.5,0,0,1,233.67,35.11Z"/><path class="cls-15" d="M205.5,32a2,2,0,0,0-1.69.84,3.86,3.86,0,0,0-.58,2.3c0,2,.8,3.06,2.33,3a7.4,7.4,0,0,0,2.34-.51v1.64a6.49,6.49,0,0,1-2.51.49,3.85,3.85,0,0,1-3.08-1.19,5.18,5.18,0,0,1-1.09-3.47,5.69,5.69,0,0,1,.5-2.51A3.77,3.77,0,0,1,203.21,31a4.52,4.52,0,0,1,2.28-.59,6.17,6.17,0,0,1,2.69.62l-.61,1.59c-.35-.16-.69-.3-1-.42A2.89,2.89,0,0,0,205.5,32Z"/><path class="cls-15" d="M217.56,34.92a4.5,4.5,0,0,1-1.25,3.49,5.29,5.29,0,0,1-3.72,1.24l-2.59,0-.09-9.17,2.88,0a4.88,4.88,0,0,1,3.5,1.15A4.39,4.39,0,0,1,217.56,34.92Zm-2,.07c0-2-.89-2.94-2.63-2.93h-1l.06,6h.83C214.63,38,215.56,37,215.54,35Z"/><path class="cls-15" d="M227.77,39.5l-2.47,0-4.05-6.91h-.06c.09,1.22.14,2.09.14,2.62l0,4.31-1.74,0-.09-9.17,2.45,0,4.05,6.84h0c-.08-1.2-.12-2-.12-2.53l0-4.34,1.75,0Z"/><g class="cls-16"><path class="cls-17" d="M56.63,90.91c.16.56,14.08,22.67,15.16,24.38"/><path class="cls-18" d="M71.79,116.79a1.47,1.47,0,0,1-1.27-.7c-15.11-24-15.26-24.53-15.33-24.79a1.5,1.5,0,0,1,2.83-1c.65,1.25,9.54,15.44,15,24.17a1.5,1.5,0,0,1-1.27,2.29Z"/></g><path class="cls-19" d="M55.58,87.46l5.14,2.76A1,1,0,0,1,60.78,92l-5,3.08a1.05,1.05,0,0,1-1.61-.86L54,88.43A1.06,1.06,0,0,1,55.58,87.46Z"/><g class="cls-16"><path class="cls-20" d="M190.4,90.91c-.16.56-14.08,22.67-15.16,24.38"/><path class="cls-21" d="M175.24,116.79A1.5,1.5,0,0,1,174,114.5c5.5-8.73,14.39-22.92,15-24.17a1.5,1.5,0,0,1,2.83,1c-.07.26-.22.82-15.33,24.79A1.47,1.47,0,0,1,175.24,116.79Z"/></g><path class="cls-22" d="M191.45,87.46l-5.14,2.76a1,1,0,0,0-.06,1.82l4.95,3.08a1.05,1.05,0,0,0,1.61-.86l.19-5.83A1.06,1.06,0,0,0,191.45,87.46Z"/><path class="cls-23" d="M108.84,34.77v.68a8.12,8.12,0,0,1-8.12,8.11H78a8.12,8.12,0,0,1-8.12-8.11v-.68A8.16,8.16,0,0,1,71.39,30a8.41,8.41,0,0,1,1-1.14A8.1,8.1,0,0,1,78,26.65h22.74A8.13,8.13,0,0,1,108.84,34.77Z"/><path class="cls-15" d="M76.27,39.9l-.09-9.18,1.95,0,.08,9.18Z"/><path class="cls-15" d="M86.93,33.48A2.82,2.82,0,0,1,86,35.76a4,4,0,0,1-2.62.81h-.84l0,3.27H80.65l-.09-9.17,2.93,0a3.93,3.93,0,0,1,2.55.7A2.62,2.62,0,0,1,86.93,33.48ZM82.55,35h.64a2.1,2.1,0,0,0,1.34-.36,1.25,1.25,0,0,0,.43-1,1.27,1.27,0,0,0-.38-1,1.74,1.74,0,0,0-1.17-.31h-.89Z"/><path class="cls-15" d="M92.39,39.74l-2,0-.07-7.55-2.49,0,0-1.62,6.93-.06v1.62l-2.49,0Z"/><path class="cls-15" d="M101.56,30.48l2,0-3,9.21-2.12,0-3.2-9.15h2L98.92,36c.09.32.2.69.3,1.12s.18.73.2.89a17.92,17.92,0,0,1,.46-2Z"/><ellipse class="cls-24" cx="131.47" cy="222.19" rx="65.82" ry="7.72"/><path class="cls-15" d="M189.24,195.05v7.46H161.72a8.39,8.39,0,0,1,.67-2.45l.09-.19a6.35,6.35,0,0,1,.44-.81s0,0-.06,0h.08l.09-.14c.15-.23.31-.45.47-.66l.26-.3a8.41,8.41,0,0,1,2.45-1.93h0a3.35,3.35,0,0,1,.38-.18.2.2,0,0,1,.08,0,8.39,8.39,0,0,1,3.4-.72Z"/><path class="cls-15" d="M189.24,133.88v57.93H170.08a11.59,11.59,0,0,0-5.9,1.61,11.88,11.88,0,0,0-2.22,1.7,12.37,12.37,0,0,0-1.48,1.74h0l0,.07c-.19.28-.37.57-.53.86s-.17.32-.25.48l-.18.37-.16.37-.06.17a11.17,11.17,0,0,0-.77,3.32H76.41V133.88Z"/><path class="cls-25" d="M162.86,199s0,0,.06,0l0,0Zm-4.55,0a2.6,2.6,0,0,1,.94.17l.06-.17Zm4.55,0s0,0,.06,0l0,0Zm-4.55,0a2.6,2.6,0,0,1,.94.17l.06-.17Zm29.09-4v2.79a1.18,1.18,0,0,1-1.19,1.18H162.86s0,0,.06,0a6.35,6.35,0,0,0-.44.81l-.09.19a8.39,8.39,0,0,0-.67,2.45c0,.31-.05.62-.05.94a8.65,8.65,0,0,0,.08,1.15,8.42,8.42,0,0,0,3.66,5.84h22.38A2.24,2.24,0,0,0,190,208.2V195.05Zm.39-62.86H76.58a2.23,2.23,0,0,0-2.23,2.24V208.2a2.23,2.23,0,0,0,2.23,2.24h84.2a11.53,11.53,0,0,1-2.28-5.84,10.93,10.93,0,0,1-.06-1.15c0-.32,0-.63,0-.94a11.17,11.17,0,0,1,.77-3.32l.06-.17H78.16A1.18,1.18,0,0,1,77,197.84V135.69a1.18,1.18,0,0,1,1.18-1.19H186.21a1.19,1.19,0,0,1,1.19,1.19v56.12H190V134.43A2.24,2.24,0,0,0,187.79,132.19ZM158.31,199a2.6,2.6,0,0,1,.94.17l.06-.17Zm4.55,0s0,0,.06,0l0,0Zm-4.55,0a2.6,2.6,0,0,1,.94.17l.06-.17Zm4.55,0s0,0,.06,0l0,0Zm-4.55,0a2.6,2.6,0,0,1,.94.17l.06-.17Zm4.55,0s0,0,.06,0l0,0Z"/><polygon class="cls-26" points="118.46 210.44 109.44 224.12 137.57 224.12 146.59 210.44 118.46 210.44"/><polygon class="cls-27" points="122.63 210.44 113.61 224.12 109.44 224.12 118.46 210.44 122.63 210.44"/><rect class="cls-28" x="107.51" y="222.19" width="47.01" height="1.93" rx="0.57"/><path class="cls-29" d="M112,182.1a13.53,13.53,0,0,0,1.42-.09A11.28,11.28,0,0,1,112,182.1Z"/><rect class="cls-30" x="61.06" y="126.73" width="80.24" height="45.92" rx="4.27"/><g class="cls-31"><g class="cls-32"><path class="cls-33" d="M103.68,147.89c8.55-6.21,5.06-1.28.47-4.26-1.1-.7,7.13-.09,8.81-3.55,1.09-2.22,2.35-4.66,1.49-11-.8-5.86-5.18-5.62-8.32-4.64a17.41,17.41,0,0,0-3.26,1.41l.37,9.8"/><path class="cls-33" d="M96.94,146.34c4.87-2.1,7-10.48,7-10.48l-3-3.29,7.22-6.54a4.27,4.27,0,0,0-.74-.86h0a5.93,5.93,0,0,0-1.21-.89,6.21,6.21,0,0,0-2.07-.72,8.19,8.19,0,0,0-3,.12c-3.44.74-4.7,4.17-7.73,4a4.41,4.41,0,0,0-4.87,3.46C85.24,144.57,96.94,146.34,96.94,146.34Z"/><path class="cls-34" d="M101.15,154.88a8.49,8.49,0,0,0,4.17-2l-.28,0c-3.2-.67-1.79-6.82-1.79-6.82l-8.6-5.2S97,151.14,96,152.44a2.49,2.49,0,0,1-1.68.57A8.93,8.93,0,0,0,101.15,154.88Z"/><path class="cls-35" d="M94.65,140.78c.27,1.33.53,2.66.8,4a8.18,8.18,0,0,0,1.67,2.28,8.85,8.85,0,0,0,5.82,2.3c0-.4,0-.82,0-1.24a30.2,30.2,0,0,1,.38-3.55Z"/><path class="cls-34" d="M104,163.29l5.43,6.89,3.17,4,1.57,2,.5.63c1.37,1.77,1.49,7.4,2.8,5.57l5.57,4.76c1.31-1.82,3-9.68,1.26-8.2l-5.74-10.88-.35-.7-1.27-2.58-3.67-7.37a5.52,5.52,0,1,0-9.27,5.87Z"/><path class="cls-34" d="M92,140.13c1.37,2.41,2.72.79,2.72.79,1.63,4,5.66,8.32,11.4,7,5.1-1.15,6.26-7.52,5.27-13.14a15.84,15.84,0,0,0-3.16-7.5,6.8,6.8,0,0,0-4.23-2.14,12.44,12.44,0,0,0-5,.44c-5.91,1.33-4.9,10-4.9,10C90.92,134.32,90.81,138.11,92,140.13Z"/><path class="cls-34" d="M62.86,192.66s-7.06.53-1.28,1.31c0,0-7.85,6.66-.78,2.32,0,0-6.61,7.09,1,.82,0,0-5.13,6.87,1.2.59,0,0-3.56,6.74,1.62-.22,5.48-7.37,3.77-7,3.77-7Z"/><path class="cls-34" d="M63.39,195.15a1.88,1.88,0,0,0,2.66.19A161.18,161.18,0,0,0,85.21,175.6c.73-.88,1.44-1.77,2.15-2.67q3.33-4.25,6.39-8.73l0-.06a6,6,0,0,0,.46-.82,5.51,5.51,0,0,0-10.06-4.52q-2.18,4.84-4.68,9.54c-.48.9-1,1.8-1.47,2.69q-1.5,2.68-3.12,5.31a155,155,0,0,1-11.57,16.39A1.88,1.88,0,0,0,63.39,195.15Z"/><path class="cls-34" d="M81.32,186.79l.17.06c17.86,5.62,28.89.56,32.7-1.77a6.9,6.9,0,0,0-1-2.31c-.15-.25-.33-.5-.49-.75l-.56-.74-.79-1.05-.33-.43a8.88,8.88,0,0,1-1.5-2.93,5.59,5.59,0,0,1-.18-1.45q0-.73,0-1.47a18.83,18.83,0,0,1,.48-2.93,30.08,30.08,0,0,1,1-3c.35-1,.71-2,1-3a19,19,0,0,0,.74-3.07l.06-.44a13.76,13.76,0,0,0,.09-2.48,4.78,4.78,0,0,0-1-2.9,6.78,6.78,0,0,0-1.34-1.34c-.27-.2-.56-.4-.89-.6l-.08,0-.26-.14-.32-.17-.09,0-.13,0a3.49,3.49,0,0,0-.47-.2,23.49,23.49,0,0,0-17,.55l-.24.1h0l-.76.37a21.06,21.06,0,0,0-2.12,1.18l-.06,0-.55.39-.47.38c-.3.27-.55.51-.78.75a7.31,7.31,0,0,0-1,1.43,4.87,4.87,0,0,0-.64,2.68,16.2,16.2,0,0,0,1,5.18c.3.85.63,1.71.92,2.58a17.45,17.45,0,0,1,.75,2.6c0,.2.08.4.1.6s.07.47.1.71a11.65,11.65,0,0,1,0,1.32,8.37,8.37,0,0,1-.09,1.32,4.84,4.84,0,0,1-.3,1.32,8.45,8.45,0,0,1-1.86,2.63L83.88,181l-.63.64c-.2.21-.4.42-.58.63l-.14.18-.11.14h0L81.77,184l-.44.94V185A7.32,7.32,0,0,0,81.32,186.79Z"/><path class="cls-35" d="M111.35,134.81a15.84,15.84,0,0,0-3.16-7.5,6.8,6.8,0,0,0-4.23-2.14c-.63.21-1.08.82-1.2,2C102.34,131.43,108.49,133.92,111.35,134.81Z"/><path class="cls-33" d="M107.14,126.78V128s-1.61-.75-3.2,1.2a4.47,4.47,0,0,0-.36.47,0,0,0,0,1,0,0,4.92,4.92,0,0,0-.31.51.21.21,0,0,1,0,.06,13.08,13.08,0,0,0-.91,2.14c-.11.33-.22.68-.32,1.06-1.46,5.5-4.68,5.69-7.24,3.84h0a8.59,8.59,0,0,1-1.23-1.12,7.23,7.23,0,0,1-.61-.72l-.09-.13c-2.48-3.5-2.61-12.33,4.76-13.67S108.07,124.22,107.14,126.78Z"/><path class="cls-33" d="M104.26,125.6a11.57,11.57,0,0,0,9.57,8.54c2.41.41-3.68-9.26-3.68-9.26l-5.89,0"/><polygon class="cls-35" points="109.38 170.18 112.55 174.2 114.67 171.62 115.1 171.1 118.16 167.37 116.89 164.79 109.38 170.18"/><path class="cls-36" d="M109.15,153.54s4,1.48,4.67,3.49,4.62,9.15,4.62,9.15l-7.8,7.26-3.56-9.58Z"/><path class="cls-35" d="M78,171l7.17,4.57c.73-.88,1.44-1.77,2.15-2.67l-7.85-4.59C79,169.24,78.54,170.14,78,171Z"/><path class="cls-37" d="M109.15,153.54s4,1.48,4.67,3.49,4.62,9.15,4.62,9.15l-7.8,7.26-3.56-9.58Z"/><path class="cls-38" d="M81.32,185c-.48,1.06-.68,1.53-.68,1.53l.68.22.17.06c17.86,5.62,28.89.56,32.7-1.77l.15-.1a11.33,11.33,0,0,0,1.34-.94s-.58-1.07-1.31-2.63c-1.52-3.26-3.73-8.59-2.69-10.31,1.42-2.35,1.79-6.44,1-9.3,0-.09,0-.19-.07-.27a33.82,33.82,0,0,0-3.1-7.32l-.21-.36-.19-.32a1.5,1.5,0,0,1-.22.11l-.26.13c-9.08,4.48-15.31,1.68-17.48.35l-.11-.07h0a2.31,2.31,0,0,0-.87-.34s-4.08,1-5.67,4-6.33,10.85-6.33,10.85l5.46,4.11,2.59,1.95-.29.58c-1.49,3.08-2.61,5.45-3.44,7.21h0a0,0,0,0,0,0,0c-.27.57-.5,1.08-.7,1.52-.14.28-.26.54-.37.77Z"/><path class="cls-39" d="M86.27,174.6l-.29.58A2.25,2.25,0,0,0,86.27,174.6Z"/><path class="cls-40" d="M83.68,172.65l2.59,1.95c1.19-3.39,2.68-10.13,2.68-10.13Z"/><path class="cls-41" d="M80.64,186.57l.68.22.17.06c17.86,5.62,28.89.56,32.7-1.77l.15-.1a11.33,11.33,0,0,0,1.34-.94s-.58-1.07-1.31-2.63a15.59,15.59,0,0,0-3-1.18l-.25-.07L81.83,184h-.06l-.44.94V185C80.84,186.1,80.64,186.57,80.64,186.57Z"/><path class="cls-33" d="M98.1,125.3a7,7,0,1,1-7-7A7,7,0,0,1,98.1,125.3Z"/><path class="cls-42" d="M103.94,129.18v0a4.47,4.47,0,0,0-.36.47,0,0,0,0,1,0,0,4.92,4.92,0,0,0-.31.51.21.21,0,0,1,0,.06,13.08,13.08,0,0,0-.91,2.14c-.11.33-.22.68-.32,1.06-1.46,5.5-4.68,5.69-7.24,3.84h0a8.59,8.59,0,0,1-1.23-1.12c3.14,1,4.34-.11,5.78-3.14A7,7,0,0,1,103.94,129.18Z"/><path class="cls-43" d="M88.46,131.64s.45-8.55,8.68-9.89C97.14,121.75,92.14,123.89,88.46,131.64Z"/></g></g><rect class="cls-44" x="144.72" y="126.9" width="38.41" height="22.22" rx="2.05" transform="translate(327.85 276.01) rotate(180)"/><g class="cls-45"><path class="cls-33" d="M162.93,139.1a9,9,0,0,1-4.4,2.81,3,3,0,0,1-.43.07,4.72,4.72,0,0,1-3.43-.91c-4.19-3-1.72-8.81.53-10.23a3.5,3.5,0,0,0,1.08-1c.67-1,0-2.11.45-5.16.39-2.8,2.54-2.69,4.09-2.22a8.65,8.65,0,0,1,1.59.68l-.18,4.69Z"/><path class="cls-33" d="M175.4,139l-.23.14c-2.59,1.68-1.49,3.35-2.42,4.8s-.43,6.26-3.72,4.17-5.54-14.87-5.54-14.87l2-3.27-4.88-6.49a4.65,4.65,0,0,1,.5-.86h0a5.07,5.07,0,0,1,.82-.89,3.56,3.56,0,0,1,1.4-.71,3.81,3.81,0,0,1,2.06.12c2.32.73,3.18,4.14,5.22,3.93s3.08,1.75,3.3,3.43.41,2,2.93,4.75C178.8,135.36,177.05,138,175.4,139Z"/><path class="cls-42" d="M167.3,129.64a2.8,2.8,0,0,1,1.16,3.19c-.58,2.21,4.55,2.77,2,5.82s-7.45.18-7.45.18l.86-7.26Z"/><path class="cls-34" d="M163.19,136.91a3.86,3.86,0,0,1-1.88-.92l.13,0c1.44-.3.8-3.07.8-3.07l3.87-2.34s-1.05,4.66-.59,5.25a1.21,1.21,0,0,0,.76.25A4,4,0,0,1,163.19,136.91Z"/><path class="cls-35" d="M166.11,130.56l-.36,1.79a3.64,3.64,0,0,1-.75,1,4,4,0,0,1-2.62,1c0-.18,0-.37,0-.56a12.47,12.47,0,0,0-.17-1.6Z"/><path class="cls-34" d="M150.58,138.2s-.08-3.19-.56-.6c0,0-2.82-3.69-1-.41,0,0-3-3.13-.39.43,0,0-3-2.46-.29.53,0,0-2.95-1.75.07.73,3.19,2.63,3.07,1.85,3.07,1.85Z"/><path class="cls-34" d="M161.93,140.69l-2.45,3.1-1.42,1.81-.71.9-.23.28a1.57,1.57,0,0,1-2.48,0l-5-6.71a.85.85,0,0,1,1.25-1.14l4.44,4,.16-.32.57-1.15,1.65-3.32a2.49,2.49,0,1,1,4.18,2.64Z"/><path class="cls-34" d="M161,164.6,158.5,171c-.75,2-1.86,5.12-3,8.2a.58.58,0,0,1,0,.14l-.27.74c-.05.16-.11.31-.17.47l-.26.72c-.11.29-.21.59-.32.88l-.38,1.05-1.72,4.74-.1.27a.73.73,0,0,1-.7.47,9.69,9.69,0,0,1-1.41-.17c-.48-.1-1-.2-1.44-.33-.09,0-.19-.06-.2-.16a.17.17,0,0,1,.14-.2,3.92,3.92,0,0,0,.66-.15,7.21,7.21,0,0,0,1.2-.45c.13-2,.29-4,.48-6a1.36,1.36,0,0,0,0-.2l.07-.68c0-.23,0-.47.07-.71a1.49,1.49,0,0,1,0-.21v-.18c0-.22.05-.43.07-.65.16-1.55.33-3.1.51-4.64.28-2.86.78-6.16,1.3-9.3Z"/><path class="cls-35" d="M165.1,154.22c-.45,1.17-1,2.66-1.68,4.3a50.33,50.33,0,0,1,.45-6,4.64,4.64,0,0,1,.92-2.17A4.39,4.39,0,0,1,165.1,154.22Z"/><path class="cls-34" d="M167.32,130.26c-.61,1.09-1.22.36-1.22.36-.73,1.82-2.55,3.75-5.13,3.16-2.3-.51-2.82-3.38-2.38-5.91a7.16,7.16,0,0,1,1.43-3.38,3,3,0,0,1,1.9-1,5.66,5.66,0,0,1,2.26.2c2.66.59,2.2,4.5,2.2,4.5C167.79,127.65,167.84,129.35,167.32,130.26Z"/><path class="cls-34" d="M180.42,153.91s3.18.24.58.59c0,0,3.54,3,.35,1,0,0,3,3.2-.45.38,0,0,2.31,3.09-.53.26,0,0,1.6,3-.73-.1-2.47-3.31-1.7-3.16-1.7-3.16Z"/><path class="cls-34" d="M180.19,155a.85.85,0,0,1-1.2.09,72.59,72.59,0,0,1-8.63-8.89q-.5-.58-1-1.2c-1-1.27-2-2.59-2.88-3.93l0,0a2.22,2.22,0,0,1-.21-.37,2.48,2.48,0,1,1,4.53-2c.65,1.45,1.36,2.88,2.11,4.29l.66,1.21c.45.81.92,1.61,1.4,2.4a70.62,70.62,0,0,0,5.21,7.37A.85.85,0,0,1,180.19,155Z"/><path class="cls-34" d="M172.1,151.37l0,.16a3.94,3.94,0,0,1-.5,1.18l-.19.3-.21.31-.42.61-.42.62-.21.31-.26.32a5.63,5.63,0,0,1-.7.65L169,156l-.24.17a5.46,5.46,0,0,1-.56.36l-1.65.94a5.37,5.37,0,0,1-5.75-.26,5.48,5.48,0,0,1-1.24-1.2c-.15-.21-.28-.42-.41-.63l-.38-.64a9.6,9.6,0,0,1-1.35-2.59,4.34,4.34,0,0,1-.1-1.34,1.45,1.45,0,0,1,0-.28,3.36,3.36,0,0,1,.45-1.07l.22-.34.26-.33.5-.67a3.75,3.75,0,0,0,.67-1.32,2.43,2.43,0,0,0,.09-.65c0-.22,0-.44,0-.66a7.58,7.58,0,0,0-.22-1.32c-.11-.44-.26-.89-.42-1.34s-.33-.9-.48-1.35a9.87,9.87,0,0,1-.33-1.38,6.57,6.57,0,0,1-.07-1.32,2.17,2.17,0,0,1,.44-1.3,3.12,3.12,0,0,1,.6-.61,4.2,4.2,0,0,1,.44-.29l.12-.06.14-.07,0,0,.27-.12a10.59,10.59,0,0,1,7.76.3h0l.34.16c.33.16.64.34,1,.53l0,0,.25.17.21.18a2.81,2.81,0,0,1,.35.33,2.86,2.86,0,0,1,.47.65,2.09,2.09,0,0,1,.29,1.2,7,7,0,0,1-.44,2.33c-.13.39-.28.77-.41,1.16a8.6,8.6,0,0,0-.34,1.17c0,.1,0,.19,0,.28s0,.21,0,.32a5.72,5.72,0,0,0,0,.59,3.81,3.81,0,0,0,0,.59,2.18,2.18,0,0,0,.14.6,3.6,3.6,0,0,0,.83,1.18l.58.58.29.29c.08.1.18.19.26.29l.11.14h0q.28.65.48,1A3.36,3.36,0,0,1,172.1,151.37Z"/><path class="cls-34" d="M165.1,154.22c-.45,1.17-1,2.66-1.68,4.3a50.33,50.33,0,0,1,.45-6,4.64,4.64,0,0,1,.92-2.17A4.39,4.39,0,0,1,165.1,154.22Z"/><path class="cls-35" d="M158.59,127.87a7.16,7.16,0,0,1,1.43-3.38,3,3,0,0,1,1.9-1c.28.09.49.37.54.91C162.65,126.35,159.88,127.47,158.59,127.87Z"/><path class="cls-34" d="M171.57,164.6l-.51,2.2c-.36,1.47-.73,2.94-1.1,4.41s-.77,2.94-1.17,4.4l-.6,2.2-.4,1.38-.23.8c-.1.34-.19.67-.29,1-.27.93-.56,1.85-.85,2.78l-.18.59-.69,2.17c-.18.58-.38,1.16-.58,1.75.14.11.27.22.42.32l.57.41c.2.13.4.26.6.37a.23.23,0,0,1,.12.23.23.23,0,0,1-.25.2h-.08l-.74-.08-.74-.1-.72-.12-.72-.13a.65.65,0,0,1-.5-.64v-.32l.12-6.1,0-1.55,0-1.38v-.19l.08-4.3c0-1.5,0-3,.07-4.5q.06-2.89.09-5.79Z"/><path class="cls-35" d="M167.27,181c-.27.93-.56,1.85-.85,2.78l-3.36-1.46,0-1.55Z"/><path class="cls-33" d="M167,128.1l0,.06c-1.06,1.53-3,2.24-3.78-.9a6.5,6.5,0,0,0-.51-1.44v0a2.6,2.6,0,0,0-.13-.24h0c-.71-1.14-1.47-.75-1.47-.75v-.54c-.39-1.16.87-2.92,4-2.31S168,126.53,167,128.1Z"/><path class="cls-33" d="M161.79,123.72a5.23,5.23,0,0,1-4.31,3.85c-1.09.18,1.66-4.17,1.66-4.17h2.65"/><polygon class="cls-35" points="159.48 143.79 158.06 145.6 157.1 144.44 156.91 144.2 155.53 142.53 156.1 141.37 159.48 143.79"/><path class="cls-35" d="M155.76,180.76l-.08.52c-.29,0-.6,0-.92,0-.11.29-.21.59-.32.88L151,181l.07-.68a4.83,4.83,0,0,1-.59-.32l.09-.78.59.18,3.87,1.17Z"/><path class="cls-42" d="M158.53,141.91a3,3,0,0,1-.43.07,4.72,4.72,0,0,1-3.43-.91c-4.19-3-1.72-8.81.53-10.23a3.5,3.5,0,0,0,1.08-1,3.72,3.72,0,0,1-.29,2.6c-1.07,3-4.47,4.87.66,7.78C158.14,141.12,158.61,141.62,158.53,141.91Z"/><path class="cls-35" d="M173.59,144.17l-3.23,2.06q-.5-.58-1-1.2l3.53-2.07Z"/><polyline class="cls-46" points="155.4 141.99 157.51 143.95 158.31 144.7 158.31 144.7 158.31 144.7 158.91 145.26 160.51 140.95 159.58 136.3 159.58 136.3 159.58 136.3"/><path class="cls-47" d="M173.27,157.78v0c0,3.74-2.58,18.56-3.14,21.76,0,.12,0,.22,0,.3l-.06.31a12,12,0,0,1-5.65,1.11,8.68,8.68,0,0,1-3.14-.78l.11-1.22,1.72-19.08-5.14,18.95-.35,1.3a15.44,15.44,0,0,1-1.8.06,17,17,0,0,1-3.46-.37,9.72,9.72,0,0,1-3-1.16.17.17,0,0,1,0-.07c0-.15.1-.5.21-1,.81-3.8,3.63-16.67,5.94-23.75.34-1,.68-2,1-2.72a12.34,12.34,0,0,1,.57-1.19,4.35,4.35,0,0,1,2.6-2c4.29-1.38,11.4,1.19,11.4,1.19s.14.21.35.61a15.9,15.9,0,0,1,1.52,4.39A17.42,17.42,0,0,1,173.27,157.78Z"/><path class="cls-48" d="M163.06,160.22l-5.14,18.95-.35,1.3a15.44,15.44,0,0,1-1.8.06,17,17,0,0,1-3.46-.37l-2.94-1.23c0-.15.1-.5.21-1,.81-3.8,3.63-16.67,5.94-23.75Z"/><path class="cls-49" d="M170.35,179.52l-.07.31L170,181a10.35,10.35,0,0,1-6.59.55,16.55,16.55,0,0,1-2.52-.71l.11-1.64.31.11a16.1,16.1,0,0,0,8.79.28Z"/><path class="cls-50" d="M158.17,179.12l-.47,1.93a11,11,0,0,1-2.07.23c-.29,0-.6,0-.93,0a9.7,9.7,0,0,1-3.77-1,4.83,4.83,0,0,1-.59-.32,7.11,7.11,0,0,1-1.07-.78l.06-1.42a10.38,10.38,0,0,0,1.78.77,14.61,14.61,0,0,0,4.3.79A12.64,12.64,0,0,0,158.17,179.12Z"/><path class="cls-51" d="M160,136.16c-.13.05-2.19.72-2.5,1.6s-2.11,4.18-2.11,4.18l2.13,2,.81.76h0l.6.57,1.62-4.38"/><path class="cls-41" d="M173,154.48c-4.53,1.33-13.34-1.83-16.44-3a12.34,12.34,0,0,1,.57-1.19,4.35,4.35,0,0,1,2.6-2l11.76,1.8A16.32,16.32,0,0,1,173,154.48Z"/><path class="cls-52" d="M152.28,188.09l0,.11a.73.73,0,0,1-.7.47,9.69,9.69,0,0,1-1.41-.17c-.48-.1-1-.2-1.44-.33-.09,0-.19-.06-.2-.16a.17.17,0,0,1,.14-.2,3.92,3.92,0,0,0,.66-.15l.49-.16C149.55,187.86,149.67,188.34,152.28,188.09Z"/><path class="cls-53" d="M156.65,150a7,7,0,0,0,.6.41c1.64,1,6.64,3.41,14.79.84l.38-.12s-.11-.26-.37-.83q-.2-.41-.48-1.05h0c-.37-.79-.87-1.86-1.55-3.25l-.12-.26,1.16-.88,2.46-1.85s-2.14-3.56-2.85-4.89c-.55-1-3.29-2.28-4.56-2.83l-.64-.27h-.05a2.2,2.2,0,0,1-1.53.5,1.93,1.93,0,0,1-1.58-.59l-.67.33c-.81.4-2,1-2,1l-.09.14A15.79,15.79,0,0,0,158,140a10.67,10.67,0,0,0,.34,4.68A45.79,45.79,0,0,1,156.65,150Z"/><path class="cls-39" d="M161.63,135.3a3.75,3.75,0,0,0,2.3.85,3.27,3.27,0,0,0,2.17-.82l-.64-.27h-.05a2.2,2.2,0,0,1-1.53.5,1.93,1.93,0,0,1-1.58-.59Z"/><path class="cls-54" d="M152.28,188.09l0,.11a.73.73,0,0,1-.7.47,9.69,9.69,0,0,1-1.41-.17c-.48-.1-1-.2-1.44-.33-.09,0-.19-.06-.2-.16a.17.17,0,0,1,.14-.2,3.92,3.92,0,0,0,.66-.15l.49-.16C149.55,187.86,149.67,188.34,152.28,188.09Z"/><path class="cls-55" d="M166.68,189.61a.23.23,0,0,1-.25.2h-.08l-.74-.08-.74-.1-.72-.12-.72-.13a.65.65,0,0,1-.5-.64v-.16c1.95.89,2.61.59,2.84.31l.19.13c.2.13.4.26.6.37A.23.23,0,0,1,166.68,189.61Z"/><path class="cls-54" d="M166.68,189.61a.23.23,0,0,1-.25.2h-.08l-.74-.08-.74-.1-.72-.12-.72-.13a.65.65,0,0,1-.5-.64v-.16c1.95.89,2.61.59,2.84.31l.19.13c.2.13.4.26.6.37A.23.23,0,0,1,166.68,189.61Z"/><path class="cls-39" d="M169.88,145.78c.05.09.09.18.13.26A1.26,1.26,0,0,1,169.88,145.78Z"/><path class="cls-39" d="M171.05,144.9l-1.17.88c-.53-1.53-1.2-4.56-1.2-4.56Z"/><path class="cls-42" d="M167,128.1l0,.06c-1.06,1.53-3,2.24-3.78-.9a6.5,6.5,0,0,0-.51-1.44C163.23,126.77,165.26,129.88,167,128.1Z"/><path class="cls-56" d="M167.27,130.36a.59.59,0,0,1-.36,1.07.59.59,0,0,1-.58-.55v-.09a.65.65,0,0,1,.22-.41.26.26,0,0,0,0-.33.24.24,0,0,0-.33,0,1.05,1.05,0,0,0-.39.7v.13a1.06,1.06,0,1,0,2.12,0,1,1,0,0,0-.51-.9Z"/></g><rect class="cls-57" x="102.89" y="182.38" width="38.41" height="22.22" rx="2.05" transform="translate(244.2 386.98) rotate(180)"/><g class="cls-58"><path class="cls-33" d="M127.52,181.87a1.78,1.78,0,0,1,1.16,1.93,1.64,1.64,0,0,1-.71,1,1,1,0,0,1,.26.45,1,1,0,0,1-.24,1,.71.71,0,0,1-.15.08.08.08,0,0,1,0,0,1,1,0,0,1-.24,1c-.35.26-1.11.09-1.54-.63a1,1,0,0,1,.45-1,.31.31,0,0,1-.08-.11.9.9,0,0,1,0-.49h-.07a1.82,1.82,0,0,1-1.36-1.27C125,183,125.92,181.92,127.52,181.87Z"/><path class="cls-33" d="M125.69,181.74a1.45,1.45,0,0,1-1.38,0,1.2,1.2,0,0,1-.34,1.11,1.56,1.56,0,0,1-.69.36,3.16,3.16,0,0,1-.79,2.79,4.44,4.44,0,0,1-2.19,1.32,1.89,1.89,0,0,1,.26,2.62,1.64,1.64,0,0,1-1.27.54c-.68-.09-1.16-1-.83-2.19a1,1,0,0,1-.77-.59,1.69,1.69,0,0,1,.09-1,2.71,2.71,0,0,1-.57-4.42"/><path class="cls-34" d="M119.91,187l-.45,6.63,4.09.64,1.08-5.78Z"/><path class="cls-35" d="M123.88,192.26a3.15,3.15,0,0,0-4.09-3.53c0,.68-.09,1.36-.14,2a3.93,3.93,0,0,0,4.09,2.23A5.48,5.48,0,0,0,123.88,192.26Z"/><path class="cls-34" d="M118.34,185.85c.24-.32.57-.18.85.08a5.1,5.1,0,0,1,0-3.38,4.62,4.62,0,0,1,2.45-2.23,5,5,0,0,1,3.85.19,2.36,2.36,0,0,1,1.36,1.68c.58,2.69,1.84,9.7-.56,9.88-1.75.13-3.68.53-5-.45-.62-.47-.89-1.35-1.33-2.92h0C118.31,189.09,117.78,186.59,118.34,185.85Z"/><path class="cls-34" d="M105.79,214.15a.9.9,0,0,0-.74-.45c-.3,0-.45.23-.9.63a11,11,0,0,1-1,.79c-1.1.11-1.65.23-1.65.35s1.31.31,1.31.31c-3.51,4.42.19.85.19.85-3.77,4.59.44.53.44.53-3.16,4.72.3.71.3.71q-.81,1.41-.69,1.5c.1.07.6-.44,1.51-1.52a11.08,11.08,0,0,0,1.21-2.52A1.43,1.43,0,0,0,105.79,214.15Z"/><path class="cls-34" d="M112.5,196.74,107.08,208c-.68,1.45-2.49,5.29-3.19,6.79a1,1,0,0,0,1.67,1c1.64-2.32,4.16-5.85,5.81-8.12l5.88-8.07a2.78,2.78,0,1,0-4.75-2.83Z"/><path class="cls-34" d="M114.45,213.92a13.85,13.85,0,0,0,0,1.44l11.47.77c.57-2.94.65-5.95,1-8.9.27-2.24,1-4.45.93-6.73a12.15,12.15,0,0,0-.36-2.53,5.31,5.31,0,0,0-2.21-3.07c-.21-.16,0-.58-.25-.67-.77-.28-1.43-.44-2.18-.79a4.79,4.79,0,0,0-3.48-.22,10.34,10.34,0,0,1-1.23.34c-.79.17-1.22.75-1.93,1.27a5.47,5.47,0,0,0-1.55,1.74,9.45,9.45,0,0,0-.8,3.63c-.08,2.47.77,4.86,1,7.31A35.31,35.31,0,0,1,114.45,213.92Z"/><path class="cls-35" d="M107.83,206.43l3.4,1.41a1.43,1.43,0,0,0,.14-.2l.63-.86-3.15-2.47C108.48,205.09,108.13,205.82,107.83,206.43Z"/><polygon class="cls-35" points="129.46 208.25 130.9 210.23 134.14 207.89 133.24 206.02 129.46 208.25"/><path class="cls-59" d="M134.2,206.71l-4.54,3L127.32,206,127,216.21l-1.15-.08-11.48-.77-1.34-.1.92-4.67,0-5.65-1.78,2.56-1.45-.87-2.91-1.73s4.91-8.85,5.53-9.67c.38-.53,2.22-1.06,3.49-1.38.74-.19,1.29-.3,1.29-.3l.09.08a5.12,5.12,0,0,0,6.4.83,3.35,3.35,0,0,0,.36-.23,8.1,8.1,0,0,1,1.15.46,7.94,7.94,0,0,1,3.19,2.75l1,1.82Z"/><polygon class="cls-40" points="127.32 205.95 129.66 209.76 134.2 206.71 130.27 199.26 127.32 205.95"/><path class="cls-40" d="M110.72,206.63l1.45.87,1.78-2.56,1.24-2.06S111.86,204.49,110.72,206.63Z"/><path class="cls-33" d="M118,185.16a3,3,0,0,1-.43-3.77,2.45,2.45,0,0,1,2.6-.81,2.83,2.83,0,0,1,1.73-1.47,2.79,2.79,0,0,1,2.32.49,3.53,3.53,0,0,1,1.08-.58,2.72,2.72,0,0,1,2.48.81c.83.93,1.14,2.52-.13,3.23a2.33,2.33,0,0,1-3.06-1.08,1,1,0,0,1-.66.78.92.92,0,0,1-1-.31,1,1,0,0,1-.37.89.8.8,0,0,1-.53.14,2.92,2.92,0,0,1-.91,2.24c-.69.6-1.17,1.16-1.88.6"/><path class="cls-40" d="M126.12,194.69a6.22,6.22,0,0,1-5.25,1.56,7.16,7.16,0,0,1-4-2.4c.74-.19,1.29-.3,1.29-.3l.09.08a5.12,5.12,0,0,0,6.4.83,3.35,3.35,0,0,0,.36-.23A8.1,8.1,0,0,1,126.12,194.69Z"/></g><rect class="cls-60" x="61.06" y="182.38" width="38.41" height="22.22" rx="2.05" transform="translate(160.54 386.98) rotate(180)"/><g class="cls-61"><path class="cls-33" d="M78.14,194.28a9.78,9.78,0,0,0,4.74,2.7c.15,0-.28-.89-.13-.87,1.16.13,1.63,1.21,3.66-.15a4.74,4.74,0,0,0,1.83-6.26c-.72-1.76,0-3.6-.42-6.53-.42-2.7-2.74-2.58-4.4-2.13a9.91,9.91,0,0,0-1.72.64l.2,4.51Z"/><path class="cls-33" d="M74,195.14l.23.13c2.61,1.54,2.11-2.69,3-1.36s.43,5.75,3.75,3.83.46-7.46.46-7.46l-2-3,4.9-6a3.94,3.94,0,0,0-.49-.8h0a5,5,0,0,0-.83-.82,3.68,3.68,0,0,0-1.41-.65,4.15,4.15,0,0,0-2.07.11,10.74,10.74,0,0,0-5.18,3.21c-.91,1-1.3,3-2.43,6.22C71.09,191.11,72.38,194.23,74,195.14Z"/><path class="cls-42" d="M77.52,186.56a2.13,2.13,0,0,0-1.23,2.59c.62,1.79-4.84,2.24-2.15,4.71s7.93.15,7.93.15l-.91-5.89Z"/><path class="cls-42" d="M86.15,198.47a3.54,3.54,0,0,1-.47.07c-1.15.13,1.25-1.12,0-1.93-4.52-2.86-5.75-5.37-3.32-6.73a17.19,17.19,0,0,0,2.49-1.59c.19.38.15,1.07-.32,2.5-.65,2-.57,2.12,2.08,5.5C87.71,197.71,86.24,198.2,86.15,198.47Z"/><path class="cls-34" d="M81,194.94a4,4,0,0,0,2-1l-.13,0c-1.54-.32-.86-3.26-.86-3.26l-4.12-2.5s1.12,5,.63,5.59a1.26,1.26,0,0,1-.81.28A4.34,4.34,0,0,0,81,194.94Z"/><path class="cls-35" d="M77.91,188.18l.39,1.92a3.54,3.54,0,0,0,.8,1.09,4.31,4.31,0,0,0,2.78,1.11c0-.2,0-.4,0-.6a12.32,12.32,0,0,1,.18-1.7Z"/><path class="cls-34" d="M82.37,199l2.6,3.3,1.52,1.93.75,1,.24.3c.66.85.72,3.54,1.34,2.67l2.67,2.28c.63-.87,1.43-4.64.61-3.93l-2.75-5.22-.17-.33-.61-1.24-1.76-3.53A2.64,2.64,0,1,0,82.37,199Z"/><path class="cls-34" d="M76.62,187.87c.66,1.15,1.31.38,1.31.38.78,1.93,2.71,4,5.46,3.37,2.44-.55,3-3.6,2.53-6.3a7.66,7.66,0,0,0-1.52-3.59,3.24,3.24,0,0,0-2-1,6,6,0,0,0-2.4.21c-2.83.64-2.35,4.8-2.35,4.8C76.12,185.09,76.07,186.9,76.62,187.87Z"/><path class="cls-34" d="M62.67,213.05s-3.38.25-.61.63c0,0-3.77,3.19-.37,1.11,0,0-3.17,3.4.47.39,0,0-2.46,3.29.58.28,0,0-1.71,3.23.77-.1,2.63-3.53,1.81-3.37,1.81-3.37Z"/><path class="cls-34" d="M62.93,214.24a.9.9,0,0,0,1.27.1,78.41,78.41,0,0,0,9.19-9.47c.35-.42.69-.85,1-1.28,1.07-1.35,2.09-2.75,3.07-4.18l0,0a3.78,3.78,0,0,0,.22-.4,2.64,2.64,0,1,0-4.82-2.16c-.7,1.55-1.44,3.07-2.25,4.57-.23.43-.46.86-.7,1.29q-.72,1.29-1.5,2.55a74.19,74.19,0,0,1-5.54,7.85A.89.89,0,0,0,62.93,214.24Z"/><path class="cls-34" d="M71.52,210.24l.08,0c8.56,2.7,13.85.27,15.67-.85a3.08,3.08,0,0,0-.47-1.1c-.07-.12-.15-.24-.23-.36l-.27-.36-.38-.5-.16-.21a4.25,4.25,0,0,1-.72-1.4,2.74,2.74,0,0,1-.08-.7c0-.23,0-.46,0-.7a8.69,8.69,0,0,1,.23-1.4c.12-.47.29-1,.46-1.43s.34-1,.5-1.44a8.71,8.71,0,0,0,.35-1.47l0-.21a6.81,6.81,0,0,0,0-1.19,2.38,2.38,0,0,0-.46-1.39,3,3,0,0,0-.65-.64,2.81,2.81,0,0,0-.42-.29l0,0-.13-.07-.15-.08,0,0-.07,0-.22-.1a11.26,11.26,0,0,0-8.15.27l-.12,0h0l-.37.17a11.29,11.29,0,0,0-1,.57h0l-.27.19-.22.18-.38.36a3.91,3.91,0,0,0-.5.68,2.45,2.45,0,0,0-.31,1.29,7.68,7.68,0,0,0,.48,2.48c.14.41.3.82.44,1.24a9.65,9.65,0,0,1,.36,1.24c0,.1,0,.2,0,.29s0,.23,0,.35a4.36,4.36,0,0,1,0,.63c0,.21,0,.42,0,.63a2.38,2.38,0,0,1-.14.63,4.12,4.12,0,0,1-.89,1.26l-.62.62-.31.31-.27.3-.07.08,0,.07h0l-.3.66-.21.45v.07A3.93,3.93,0,0,0,71.52,210.24Z"/><path class="cls-35" d="M85.92,185.32a7.66,7.66,0,0,0-1.52-3.59,3.24,3.24,0,0,0-2-1c-.3.1-.51.39-.57,1C81.6,183.7,84.55,184.89,85.92,185.32Z"/><path class="cls-33" d="M75.94,186.07l0,.06c1.55,1.44,4.36,2.11,5.48-.86a5.08,5.08,0,0,1,.73-1.35s0,0,0,0l.2-.22h0a2.14,2.14,0,0,1,2.14-.71v-.52c.56-1.09-1.27-2.75-5.76-2.18S74.45,184.58,75.94,186.07Z"/><path class="cls-33" d="M82.58,182.25a5.52,5.52,0,0,0,4.58,4.09c1.16.2-1.76-4.44-1.76-4.44l-2.82,0"/><polygon class="cls-35" points="84.97 202.27 86.49 204.2 87.51 202.96 87.71 202.71 89.18 200.93 88.57 199.69 84.97 202.27"/><path class="cls-62" d="M84.86,194.3s1.9.71,2.24,1.67,2.21,4.39,2.21,4.39l-3.73,3.48-1.71-4.6Z"/><path class="cls-35" d="M70,202.68l3.44,2.19c.35-.42.69-.85,1-1.28l-3.76-2.2C70.42,201.82,70.19,202.25,70,202.68Z"/><path class="cls-62" d="M84.86,194.3s1.9.71,2.24,1.67,2.21,4.39,2.21,4.39l-3.73,3.48-1.71-4.6Z"/><path class="cls-40" d="M84.86,194.3s1.9.71,2.24,1.67,2.21,4.39,2.21,4.39l-3.73,3.48-1.71-4.6Z"/><path class="cls-63" d="M88,208.92a5.49,5.49,0,0,1-.64.45l-.07,0c-1.83,1.12-7.12,3.55-15.68.85l-.08,0-.33-.11.33-.73c0-.05,0-.1.07-.16l.17-.37.34-.72v0h0c.39-.85.93-2,1.65-3.46,0-.09.09-.18.13-.28l-1.24-.93-2.62-2s2.28-3.8,3-5.21,3.89-1.94,5.58-3.64a3.29,3.29,0,0,0,1.57.34,3.6,3.6,0,0,0,1.71-.39,25.26,25.26,0,0,0,2.93,1.71l.19.32a15.52,15.52,0,0,1,1.49,3.51s0,.08,0,.13a6.59,6.59,0,0,1-.51,4.46c-.49.82.56,3.37,1.29,4.94C87.71,208.4,88,208.92,88,208.92Z"/><path class="cls-39" d="M73.89,204.39l-.13.28A1,1,0,0,0,73.89,204.39Z"/><path class="cls-40" d="M72.65,203.46l1.24.93c.58-1.62,1.29-4.86,1.29-4.86Z"/><path class="cls-42" d="M76.32,186.41h0c1.55,1.44,4,1.83,5.15-1.14a5.08,5.08,0,0,1,.73-1.35C81.39,184.82,78.84,188.09,76.32,186.41Z"/><path class="cls-41" d="M71.2,210.13l.32.11.08,0c8.56,2.7,13.85.27,15.67-.85l.08,0a7.61,7.61,0,0,0,.64-.45s-.28-.52-.63-1.26a7.45,7.45,0,0,0-1.44-.57l-.12,0-14,1.81h0l-.21.45v.07C71.29,209.9,71.2,210.13,71.2,210.13Z"/></g><rect class="cls-64" x="144.72" y="154.21" width="38.41" height="22.22" rx="2.05" transform="translate(327.85 330.64) rotate(180)"/><g class="cls-65"><path class="cls-34" d="M165.8,160.9c.15,2.2.31,4.4.46,6.6l-4.08.64q-.54-2.88-1.07-5.76Z"/><path class="cls-35" d="M161.85,166.17a3.14,3.14,0,0,1,4.07-3.51l.14,2a3.9,3.9,0,0,1-1.47,1.67,4,4,0,0,1-2.6.55A5.18,5.18,0,0,1,161.85,166.17Z"/><path class="cls-34" d="M165.12,191.22c-1,3.91-2.88,11.74-3.87,15.64l0-.26c-.15,1.35-.3,2.69-.46,4-.31,2.64-1.13,9.49-1.45,12.21-.17,1-1.23.85-2,.82l-3.66,0a.3.3,0,0,1-.34-.29.29.29,0,0,1,.22-.28c.39-.1.77-.22,1.15-.35.76-.26,1.52-.54,2.26-.86.37-.19.7-.57,1.08-.67l-1.21,1.39c.08-4.68.14-11.62.25-16.23,0-.1,0-.2,0-.3l1.25-8c.38-2.22.94-5.73,1.34-7.93v-.07a2.75,2.75,0,1,1,5.39,1.12Z"/><path class="cls-34" d="M167.37,159.79c-.24-.32-.56-.18-.85.08a5,5,0,0,0,0-3.38,4.53,4.53,0,0,0-2.44-2.21,4.91,4.91,0,0,0-3.84.19,2.36,2.36,0,0,0-1.35,1.67c-.57,2.68-1.83,9.67.56,9.85,1.75.13,3.66.52,5-.46.62-.46.89-1.34,1.32-2.9h0C167.41,163,167.93,160.53,167.37,159.79Z"/><path class="cls-34" d="M179.88,188a.89.89,0,0,1,.74-.44c.29,0,.45.22.9.62a9.32,9.32,0,0,0,1,.78c1.1.12,1.65.23,1.65.35s-1.31.31-1.31.31c3.49,4.41-.19.85-.19.85,3.75,4.58-.43.53-.43.53,3.14,4.7-.31.71-.31.71.54.93.77,1.43.69,1.49s-.6-.43-1.51-1.51a11.37,11.37,0,0,1-1.2-2.51A1.4,1.4,0,0,1,179.88,188Z"/><path class="cls-34" d="M180.11,189.59c-1.17-1.65-2.79-3.93-4.23-5.91-.22-.31-.42-.6-.64-.89l-.53-.76a1.37,1.37,0,0,1-.15-.21,2.43,2.43,0,0,1-.24-.32l-.49-.66-5.37-7.38a2.76,2.76,0,1,1,4.73-2.82c.55,1.14,2.5,5.21,3.94,8.17l.35.73.18.38a1.07,1.07,0,0,1,.09.19s0,0,0,0q.13.26.24.48c.22.47.41.84.53,1.09l.07.14.27.59,2.91,6.17A1,1,0,0,1,180.11,189.59Z"/><path class="cls-34" d="M171.73,190.35l3,32.11L173.39,221a4.17,4.17,0,0,0,1.7,1.12c.58.26,1.18.49,1.78.69a10.32,10.32,0,0,0,1.21.33.25.25,0,0,1,.2.3.27.27,0,0,1-.31.21l-5.15.14a.86.86,0,0,1-.87-.71l0-.29L166.27,191a2.75,2.75,0,1,1,5.46-.69Z"/><path class="cls-33" d="M159.91,218.3c-.21,1.81-.41,3.49-.54,4.54s-1.23.85-2,.82l-3.66,0a.3.3,0,0,1-.34-.29.29.29,0,0,1,.22-.28c.39-.1.77-.22,1.15-.35.72-.24,1.44-.51,2.15-.81,0-1.12,0-2.34,0-3.61Z"/><path class="cls-33" d="M178.28,223.46a.27.27,0,0,1-.31.21l-5.15.14a.86.86,0,0,1-.87-.71l0-.29-.74-4.2h3.21l.31,3.35.41.18c.58.26,1.18.49,1.78.69a9.81,9.81,0,0,0,1.21.33A.25.25,0,0,1,178.28,223.46Z"/><path class="cls-34" d="M166.71,167.11c6.36,2,5.87,4.54,6.29,7,0,3.69-1.59,7.27-1,11,.31,2.45.77,4.95-.23,7.33-.28.58-.33,1.19-1.2,1.72a12.77,12.77,0,0,1-4.93,1.27,4.87,4.87,0,0,1-3.35-.37,5.27,5.27,0,0,1-2.89-3.74c-1-3.34-1.13-6.79-1.61-10.2-.29-2.24-1.23-4.44-1.17-6.65.39-2.25-.3-4.34,5.94-7a5.75,5.75,0,0,1,4.11-.28Z"/><path class="cls-33" d="M166,160.55c.46-.86,1-.93,1-.93s.59-3.86.09-5.22-4.82-2.94-4.82-2.94l.71,1.35a8.25,8.25,0,0,0-3-1.15,1.94,1.94,0,0,0,1.2,1.18c-1.36.13-3.2-1.46-3.2-1.46a3,3,0,0,0,.85,2.84l-1.53,0a4.13,4.13,0,0,0,3.91,1.71l-1.1.47a6.53,6.53,0,0,0,4-.11c0,1.62,1,1.37,1.1,2.91C165.26,159.22,165.16,162.09,166,160.55Z"/><path class="cls-34" d="M160.41,177.24l-5.6,7.33c-1.87,2.45-3.81,4.85-5.7,7.27a1.14,1.14,0,0,1-1.93-1.18c2.3-4.81,5.48-11.8,7.7-16.73a3.24,3.24,0,1,1,5.53,3.31Z"/><polygon class="cls-66" points="175.39 219.02 170.33 219.83 166.65 196.24 165.09 196.32 162.07 207.16 160.77 219.83 155.95 219.83 156.52 207.19 158.71 193.37 159.25 189.91 159.39 189.05 172.03 188.21 172.31 190.75 175.39 219.02"/><path class="cls-67" d="M172.31,190.75c-4.25.73-10.49-.33-13.06-.84l.14-.86,12.64-.84Z"/><path class="cls-35" d="M178.53,181.71l-3.29,1.08-.53-.76-.27.12-.8-.87h0l-.15-.2h0l.38-.24,3.17-2,.13-.08.52-.32.09.12c.09.18.19.35.28.51s.22.41.31.57l-.67.23h0l.12.19s0,0,0,0c.11.17.21.33.28.46l0,0C178.22,181.09,178.41,181.46,178.53,181.71Z"/><polygon class="cls-35" points="156.29 182.11 154.86 184.08 151.63 181.75 152.52 179.89 156.29 182.11"/><path class="cls-68" d="M178.68,180.33l-.64.27,0,0-1.88.81-1.41.6-.27.12-.16.07-.08-.11-.61-.82-.15-.2-1.69-2.27-.05,5.62.92,4.67L158.7,190l-.28-10.22-2.33,3.8-4.53-3,3.92-7.43,1-1.81a8.06,8.06,0,0,1,4.33-3.2,5.2,5.2,0,0,0,6.82-.68s4.16.85,4.77,1.67c.45.61,3.72,6.5,5.38,9.48.09.18.19.35.28.51s.22.41.31.57Z"/><polygon class="cls-69" points="158.42 179.82 156.09 183.62 151.56 180.58 155.49 173.15 158.42 179.82"/><path class="cls-69" d="M176.12,181.43l-1.84.79-2.53-3.4-1.23-2.06S174.65,178.75,176.12,181.43Z"/><polygon class="cls-67" points="165.09 196.32 162.07 207.16 160.77 219.83 155.95 219.83 156.52 207.19 158.71 193.37 165.09 196.32"/><polygon class="cls-70" points="155.63 218.76 161.3 219.2 160.99 220.85 155.39 220.5 155.39 218.76 155.63 218.76"/><polygon class="cls-71" points="169.6 219.23 175.9 217.93 176.08 219.56 170.02 220.75 169.6 219.23"/><ellipse class="cls-39" cx="165.37" cy="223.75" rx="14.4" ry="1.88"/></g><path class="cls-72" d="M183.13,184.44v7.37h-13a11.59,11.59,0,0,0-5.9,1.61,11.88,11.88,0,0,0-2.22,1.7,12.37,12.37,0,0,0-1.48,1.74h0l0,.07c-.19.28-.37.57-.53.86s-.17.32-.25.48l-.18.37-.16.37-.06.17a11.17,11.17,0,0,0-.77,3.32c0,.31,0,.62,0,.94a10.93,10.93,0,0,0,.06,1.15H146.77a2.05,2.05,0,0,1-2.05-2.06v-18.1a2.05,2.05,0,0,1,2.05-2.06h34.31A2.05,2.05,0,0,1,183.13,184.44Z"/><path class="cls-73" d="M183.13,195.05v7.49a2.05,2.05,0,0,1-2,2.06H161.75a8.65,8.65,0,0,1-.08-1.15c0-.32,0-.63.05-.94a8.39,8.39,0,0,1,.67-2.45l.09-.19a6.35,6.35,0,0,1,.44-.81s0,0-.06,0h.08l.09-.14c.15-.23.31-.45.47-.66l.26-.3a8.41,8.41,0,0,1,2.45-1.93h0a3.35,3.35,0,0,1,.38-.18.2.2,0,0,1,.08,0,8.39,8.39,0,0,1,3.4-.72Z"/><path class="cls-33" d="M156.26,185a5.8,5.8,0,0,0,3.08,1.22,6.64,6.64,0,0,0,2.06-.09,3.2,3.2,0,0,0,.17,1.13,4.43,4.43,0,0,1,.14.6,11.68,11.68,0,0,1,.07,6c0,1.07,1.13-.71,2-.87,1.39-.26,3.16-5.79,2.65-7.32a2.93,2.93,0,0,0-2.43-2.07,2.91,2.91,0,0,0-1.58-2,6.1,6.1,0,0,0-2.46-.79l-.5,0h-.1c-.12,0-.25,0-.37,0h-.14l-.32,0h-.16l-.27.05-.17,0-.24,0-.19.05-.19.07a3.31,3.31,0,0,0-.74.32l-.1.05a2.33,2.33,0,0,1-2,.13,1.28,1.28,0,0,0,.22,1.53,1.27,1.27,0,0,1-1.09-.95A3.14,3.14,0,0,0,156.26,185Z"/><path class="cls-34" d="M164.18,193.42a11.88,11.88,0,0,0-2.22,1.7,12.37,12.37,0,0,0-1.48,1.74h0l-.31-1.06-.38-1.28c-.39-1.32-.8-2.69-1.15-3.86l3.33-1.44.45-.19,1-.41c0,.09,0,.17,0,.26a1.16,1.16,0,0,1,0,.18h0c.08.46.15.91.23,1.37l.36,2.1c0,.08,0,.17.05.25S164.15,193.21,164.18,193.42Z"/><path class="cls-35" d="M159.81,194.52A3.42,3.42,0,0,1,161,191a3.47,3.47,0,0,1,2.69-.6l.36,2.1a4.11,4.11,0,0,1-1.35,1.89,4.18,4.18,0,0,1-2.64.85A5.11,5.11,0,0,1,159.81,194.52Z"/><path class="cls-34" d="M158.48,202.51a11.17,11.17,0,0,1,.77-3.32,2.6,2.6,0,0,0-.94-.17,2.81,2.81,0,0,0-2.26,1.12,2.11,2.11,0,0,0-.26.4l-.43.82-.61,1.15-.59,1.13-.51,1h4.85a10.93,10.93,0,0,1-.06-1.15C158.44,203.13,158.45,202.82,158.48,202.51Z"/><path class="cls-34" d="M164.87,187.31c-.28-.31-.6-.13-.87.17a5.25,5.25,0,0,0-.32-3.51,4.74,4.74,0,0,0-2.77-2.05,5.18,5.18,0,0,0-4,.6,2.48,2.48,0,0,0-1.23,1.89c-.31,2.84-.88,10.24,1.63,10.17,1.82-.05,3.86.16,5.11-1,.59-.54.77-1.48,1.06-3.15h0C165.25,190.66,165.53,188,164.87,187.31Z"/><path class="cls-34" d="M162,195.12a12.37,12.37,0,0,0-1.48,1.74h0l0,.07c-.19.28-.37.57-.53.86s-.17.32-.25.48l-.18.37-.16.37-.06.17a11.17,11.17,0,0,0-.77,3.32c0,.31,0,.62,0,.94a10.93,10.93,0,0,0,.06,1.15h-3.22a12.17,12.17,0,0,1-.06-2.09l.06-.63h0a4.5,4.5,0,0,1,.08-.51,9.66,9.66,0,0,1,.26-1.16,4.17,4.17,0,0,1,.48-1.18,6.18,6.18,0,0,1,1.44-1.56,11,11,0,0,1,1.14-.83l.3-.19h0l.25-.15,0,0c.28-.17.57-.32.87-.47l.76-.35A5,5,0,0,1,162,195.12Z"/><path class="cls-34" d="M162.94,199l.09-.14c.15-.23.31-.45.47-.66l.26-.3a8.41,8.41,0,0,1,2.45-1.93h0a3.35,3.35,0,0,1,.38-.18l.08,0a10.49,10.49,0,0,1,1.89,1,7.11,7.11,0,0,1,.91.74,5,5,0,0,1,.87,1.08,3.54,3.54,0,0,1,.16.34,9.66,9.66,0,0,1,.76,3.48h0a12.24,12.24,0,0,1-.14,2.09h-9.38a8.65,8.65,0,0,1-.08-1.15c0-.32,0-.63.05-.94a8.39,8.39,0,0,1,.67-2.45l.09-.19a6.35,6.35,0,0,1,.44-.81"/><path class="cls-34" d="M176.3,204.6H170l0,0-2.36-2.21a2.76,2.76,0,0,1-.12-3.89,2.76,2.76,0,0,1,4.18.2Z"/><path class="cls-34" d="M159.9,197.8c-.09.16-.17.32-.25.48l-.18.37-.16.37-.06.17a11.17,11.17,0,0,0-.77,3.32c0,.31,0,.62,0,.94a10.93,10.93,0,0,0,.06,1.15h-4.43l.23-.52.7-1.57.28-.63h0l.77-1.73.39-.88.12-.24a2.73,2.73,0,0,1,2.52-1.38,2,2,0,0,1,.35,0A2.52,2.52,0,0,1,159.9,197.8Z"/><path class="cls-74" d="M159.55,196.48h0a2.21,2.21,0,0,1-.25-.2h0l-.05,0-.22.13s0,0,0,0l-.21.12-.1.06a21,21,0,0,0-3,2.29l-.06.12-1.81,3.46h0v0l-1.1,2.09h5.84a10.93,10.93,0,0,1-.06-1.15c0-.32,0-.63,0-.94a11.17,11.17,0,0,1,.77-3.32l.06-.17.16-.37.18-.37c.08-.16.16-.32.25-.48s.34-.58.53-.86A3.69,3.69,0,0,1,159.55,196.48Zm3.37,2.58a6.35,6.35,0,0,0-.44.81l-.09.19a8.39,8.39,0,0,0-.67,2.45c0,.31-.05.62-.05.94a8.65,8.65,0,0,0,.08,1.15h15.3l-1.81-2.09-3-3.49L171,197.59c-.49-.55-2.93-1.38-4.28-1.81h0a.2.2,0,0,0-.08,0,3.35,3.35,0,0,0-.38.18h0a8.41,8.41,0,0,0-2.45,1.93l-.26.3c-.16.21-.32.43-.47.66l-.09.14"/><path class="cls-33" d="M163.72,183.91s.05-1.95-.31-2.27c0,0,1.18,1.47.89,2.51S163.72,183.91,163.72,183.91Z"/><path class="cls-33" d="M163.73,183.55s1.66-.18,2,.27a4.79,4.79,0,0,0-1.53.25C163.66,184.3,163.73,183.55,163.73,183.55Z"/><path class="cls-33" d="M161.23,186a8.43,8.43,0,0,1-2.88.47s.82.58,3.26-.1-.4-.48-.4-.48Z"/><path class="cls-33" d="M162.49,188.73c2.19-1.19,1.7-1.68,1.72-.92,0,1.07-.39,2.82.3,3.27,1.18.78,2.42-3.94,1.91-5.47a2.93,2.93,0,0,0-2.43-2.07,2.91,2.91,0,0,0-1.58-2,6.1,6.1,0,0,0-2.46-.79l-.5,0h-.1c-.12,0-.25,0-.37,0h-.14l-.32,0h-.16l-.27.05-.17,0-.24,0-.19.05-.19.07a3.31,3.31,0,0,0-.74.32l-.1.05a2.33,2.33,0,0,1-2,.13,1.28,1.28,0,0,0,.22,1.53,1.27,1.27,0,0,1-1.09-.95,3.14,3.14,0,0,0,2.66,2.9,5.8,5.8,0,0,0,3.08,1.22,6.64,6.64,0,0,0,2.06-.09Z"/><path class="cls-34" d="M164,187.48c.27-.3.59-.48.87-.17.66.7.38,3.35-1.35,3.12h0c-.29,1.67-.47,2.61-1.06,3.15C162.45,193.58,163.52,187.94,164,187.48Z"/><path class="cls-33" d="M161.05,185.31s1.72,3.73,1.43,4.73a11.32,11.32,0,0,0,1.93-2.92c.15-.89-2.9-2.7-2.9-2.7Z"/><line class="cls-1" x1="152.66" y1="204.6" x2="152.65" y2="204.6"/><polygon class="cls-75" points="154.48 204.6 152.66 204.6 153.77 202.49 154.16 203.64 154.3 204.08 154.48 204.6"/><path class="cls-33" d="M163.77,187.19a8.55,8.55,0,0,1,0,1.64s1.23-1.39.86-1.93S163.77,187.19,163.77,187.19Z"/><polygon class="cls-40" points="170.68 204.6 170 204.6 169.99 204.56 169.55 203.31 170.68 204.6"/><path class="cls-75" d="M160.48,196.86h0l0,.07c-.19.28-.37.57-.53.86s-.17.32-.25.48l-.18.37-.39-1-.4-1v0l.1-.06.21-.12s0,0,0,0l.22-.13h0a2.64,2.64,0,0,0,.3.18h0a4.18,4.18,0,0,0,.92.38Z"/><path class="cls-75" d="M166.7,195.78l0,.06-.93,3.18-.1.33L165,199l-1.52-.8.26-.3a8.41,8.41,0,0,1,2.45-1.93h0a3.35,3.35,0,0,1,.38-.18.2.2,0,0,1,.08,0Z"/><path class="cls-76" d="M160.48,196.86h0l0,.07c-.19.28-.37.57-.53.86s-.17.32-.25.48l-.22-.61-.44-1.23h0s0,0,0,0l.22-.13.05,0h0a2.21,2.21,0,0,0,.25.2h0a4.18,4.18,0,0,0,.92.38Z"/><path class="cls-77" d="M166.21,196l-.8,2.86-1.63-.92h0A8.41,8.41,0,0,1,166.21,196Z"/><path class="cls-75" d="M162.94,199l.09-.14a.46.46,0,0,1,.17.14.81.81,0,0,1,.14.33.69.69,0,0,1-.59.77.56.56,0,0,1-.36-.06l.09-.19a6.35,6.35,0,0,1,.44-.81"/><path class="cls-78" d="M163.13,199.44a.47.47,0,0,1-.47.47.39.39,0,0,1-.18,0,6.35,6.35,0,0,1,.44-.81A.43.43,0,0,1,163.13,199.44Z"/><path class="cls-75" d="M162.33,201.65a.67.67,0,1,0,.57-.75A.68.68,0,0,0,162.33,201.65Z"/><path class="cls-79" d="M162.54,201.56a.46.46,0,0,0,.45.46.47.47,0,0,0,.46-.46.46.46,0,0,0-.46-.45A.45.45,0,0,0,162.54,201.56Z"/><rect class="cls-80" x="158.28" y="192.5" width="45.08" height="20.04" rx="10.02"/><path class="cls-15" d="M193.34,214.16h-25a11.64,11.64,0,1,1,0-23.27h25a11.64,11.64,0,1,1,0,23.27Zm-25-20a8.4,8.4,0,1,0,0,16.8h25a8.4,8.4,0,0,0,0-16.8Z"/><path class="cls-15" d="M168.17,203.77l0,3.52-1.94,0-.09-9.18,2.67,0a4.68,4.68,0,0,1,2.78.65,2.74,2.74,0,0,1,.48,3.51,3,3,0,0,1-1.25,1q2.1,3.07,2.73,4l-2.15,0-2.23-3.5Zm0-1.58h.63a2.33,2.33,0,0,0,1.36-.32,1.1,1.1,0,0,0,.43-1,1,1,0,0,0-.46-.92,2.68,2.68,0,0,0-1.39-.26h-.59Z"/><path class="cls-15" d="M178.41,207.19l-1.95,0-.07-7.55-2.49,0,0-1.62,6.93-.06,0,1.62-2.5,0Z"/><path class="cls-15" d="M187.83,204.56a2.38,2.38,0,0,1-.88,2,3.9,3.9,0,0,1-2.48.74,5.81,5.81,0,0,1-2.6-.53l0-1.8a10.83,10.83,0,0,0,1.58.57,4.71,4.71,0,0,0,1.18.15,1.63,1.63,0,0,0,1-.25.85.85,0,0,0,.33-.73.81.81,0,0,0-.15-.48,1.8,1.8,0,0,0-.45-.4,12,12,0,0,0-1.2-.61,5.62,5.62,0,0,1-1.26-.75,2.74,2.74,0,0,1-.68-.84,2.34,2.34,0,0,1-.26-1.12,2.38,2.38,0,0,1,.8-1.93,3.4,3.4,0,0,1,2.28-.71,5.07,5.07,0,0,1,1.36.15,9.69,9.69,0,0,1,1.37.47l-.62,1.51a8.47,8.47,0,0,0-1.22-.4,3.4,3.4,0,0,0-.94-.11,1.27,1.27,0,0,0-.85.26.83.83,0,0,0-.28.67.79.79,0,0,0,.12.45,1.34,1.34,0,0,0,.38.37,11.42,11.42,0,0,0,1.24.63,5,5,0,0,1,1.78,1.22A2.44,2.44,0,0,1,187.83,204.56Z"/><path class="cls-15" d="M195.92,200.72A2.81,2.81,0,0,1,195,203a4,4,0,0,1-2.63.81h-.83l0,3.26-2,0-.08-9.17,2.93,0a3.9,3.9,0,0,1,2.54.69A2.61,2.61,0,0,1,195.92,200.72Zm-4.38,1.49h.64a2.14,2.14,0,0,0,1.34-.37,1.46,1.46,0,0,0,0-2,1.74,1.74,0,0,0-1.17-.32h-.88Z"/><rect class="cls-1" width="255" height="255"/></g></g></svg>