<svg xmlns="http://www.w3.org/2000/svg" viewBox="0 0 240 240"><g id="Слой_2" data-name="Слой 2"><g id="Слой_4" data-name="Слой 4"><g style="opacity:0.54"><circle cx="80.43" cy="38.66" r="18.66"/><path d="M111.48,85.2V96.67a156.62,156.62,0,0,1-32,3.29,156.62,156.62,0,0,1-32-3.29V85.2c.59-13,11.29-23.09,23.94-22.53H87.54C100.19,62.11,110.9,72.19,111.48,85.2Z"/><path d="M169.6,139.56,195,164.93,145.58,214.3a3,3,0,0,1-1.54.81L119,220a4,4,0,0,1-4.48-3.34,4.35,4.35,0,0,1,0-1.14l4.85-25a3,3,0,0,1,.81-1.55Z"/><path d="M216.36,143.53l-8.72,8.71-25.36-25.37,8.71-8.71a12.66,12.66,0,0,1,17.89.12l7.36,7.36A12.66,12.66,0,0,1,216.36,143.53Z"/><rect x="20" y="120" width="119" height="20" rx="9.75"/><rect x="20" y="160" width="89" height="20" rx="9.75"/><rect x="21" y="200" width="69" height="20" rx="10"/><rect width="240" height="240" style="fill:none"/></g></g></g></svg>