<?xml version="1.0" encoding="utf-8"?>
<!-- Generator: Adobe Illustrator 25.0.1, SVG Export Plug-In . SVG Version: 6.00 Build 0)  -->
<svg version="1.1" id="Слой_1" xmlns="http://www.w3.org/2000/svg" xmlns:xlink="http://www.w3.org/1999/xlink" x="0px" y="0px"
	 viewBox="0 0 240 240" style="enable-background:new 0 0 240 240;" xml:space="preserve">
<style type="text/css">
	.st0{opacity:0.54;}
	.st1{fill:none;}
</style>
<g id="Слой_2_1_">
	<g id="Слой_1-2">
		<path class="st0" d="M200,30H40c-11,0-20,9-20,20l0.1,70c0,11,9,20,20,20h45.3v-15.2c0.6-13.8,12.2-24.5,26-24.1h17.5
			c13.8-0.4,25.4,10.3,26,24.1V140h45c11,0,20-9,20-20V50C219.9,39,211,30.1,200,30z M120.2,91.3c-11.7,0-21.2-9.5-21.2-21.2
			s9.5-21.2,21.2-21.2s21.2,9.5,21.2,21.2l0,0C141.4,81.8,131.9,91.3,120.2,91.3z"/>
		<path class="st0" d="M29.9,160.1h35c5.5,0,10,4.5,10,10v29.8c0,5.5-4.5,10-10,10h-35c-5.5,0-10-4.5-10-10v-29.8
			C19.9,164.6,24.4,160.1,29.9,160.1z"/>
		<path class="st0" d="M175,160.1h35c5.5,0,10,4.5,10,10v29.8c0,5.5-4.5,10-10,10h-35c-5.5,0-10-4.5-10-10v-29.8
			C165,164.6,169.5,160.1,175,160.1z"/>
		<path class="st0" d="M102.5,160.1h35c5.5,0,10,4.5,10,10v29.8c0,5.5-4.5,10-10,10h-35c-5.5,0-10-4.5-10-10v-29.8
			C92.5,164.6,97,160.1,102.5,160.1z"/>
		<rect class="st1" width="240" height="240"/>
	</g>
</g>
</svg>
