<?xml version="1.0" encoding="utf-8"?>
<!-- Generator: Adobe Illustrator 25.0.1, SVG Export Plug-In . SVG Version: 6.00 Build 0)  -->
<svg version="1.1" id="Слой_1" xmlns="http://www.w3.org/2000/svg" xmlns:xlink="http://www.w3.org/1999/xlink" x="0px" y="0px"
	 viewBox="0 0 240 240" style="enable-background:new 0 0 240 240;" xml:space="preserve">
<style type="text/css">
	.st0{opacity:0.54;fill:#020202;}
	.st1{fill:none;}
</style>
<g id="Слой_2_1_">
	<g id="Слой_1-2">
		<g id="Слой_2-2">
			<g id="Слой_5">
				<path class="st0" d="M191.1,158c-1.8-1.8-4.2-3.1-6.7-3.6l-29-5.8c-4.3-0.9-8.8,0.5-11.9,3.6l-11.2,11.2
					c-4.3,4.3-10.9,5.1-16.1,2c-17.2-10.2-31.5-24.5-41.7-41.7c-3.1-5.2-2.3-11.8,2-16.1l11.2-11.3c3.1-3.1,4.4-7.6,3.6-11.9
					l-5.8-29C84.4,49.4,79,45,72.7,45H58.3c-7,0-12.8,5.5-13.1,12.5c-1.1,23.2,4,46.3,14.7,66.9c3,5.8,6.5,11.5,10.4,16.8
					c4,5.5,8.4,10.6,13.2,15.4c26.1,26.2,62.1,40.1,99,38.3c7-0.3,12.5-6.1,12.5-13.1v-14.5C195,163.8,193.6,160.5,191.1,158z"/>
				<path class="st0" d="M118.1,87.5h52.9L155,71.4c-2.4-2.4-2.4-6.3,0-8.8c0,0,0,0,0,0l0,0c2.4-2.4,6.3-2.4,8.8,0c0,0,0,0,0,0l0,0
					l31,31l0,0l-0.7,0.7l-5.5,5.5l-24.4,24.4c-2.5,2.4-6.4,2.2-8.8-0.2c-2.3-2.4-2.3-6.1,0-8.5L171,99.9h-52.9
					c-4.5,0-7.3-2.8-7.3-6.2S113.6,87.5,118.1,87.5z"/>
				<rect class="st1" width="240" height="240"/>
			</g>
		</g>
	</g>
</g>
</svg>
