<svg xmlns="http://www.w3.org/2000/svg" viewBox="0 0 240 240"><g id="Слой_2" data-name="Слой 2"><g id="Слой_1-2" data-name="Слой 1"><g style="opacity:0.54"><path d="M140,50H40A20.06,20.06,0,0,0,20,70V170a20.06,20.06,0,0,0,20,20H140a20.06,20.06,0,0,0,20-20V70A20.06,20.06,0,0,0,140,50ZM90,165a45,45,0,1,1,45-45A45,45,0,0,1,90,165Z"/><path d="M210,61c-2,0-4,1-6,2L174,87a9.09,9.09,0,0,0-4,8v50a9.09,9.09,0,0,0,4,8l30,24c2,2,4,2,6,2a10,10,0,0,0,10-10V71A10,10,0,0,0,210,61Z"/><circle cx="90" cy="120" r="30"/></g><rect width="240" height="240" style="fill:none"/></g></g></svg>