<svg xmlns="http://www.w3.org/2000/svg" viewBox="0 0 240 240"><g id="Слой_2" data-name="Слой 2"><g id="Слой_1-2" data-name="Слой 1"><path d="M78.56,30V57.65a13.33,13.33,0,0,0-8.85,12.57V92.9H20A63,63,0,0,1,78.56,30Z" style="opacity:0.54"/><path d="M138.88,176.32A63.07,63.07,0,0,1,20,147v-45h90.63a67.1,67.1,0,0,0,28.25,74.41Z" style="opacity:0.54"/><path d="M138.94,63.64A67.22,67.22,0,0,0,113.88,92.9H96.4V70.21a13.33,13.33,0,0,0-8.84-12.56V30A63.14,63.14,0,0,1,138.94,63.64Z" style="opacity:0.54"/><path d="M156.35,89.85h0a5,5,0,0,0,7.07,0h0l7.07-7.08,7.08,7.08a5,5,0,0,0,7.07,0h0a5,5,0,0,0,0-7.08L170.49,68.63,156.35,82.77A5,5,0,0,0,156.35,89.85Zm-13.7,13.69h0a5,5,0,0,1,0,7.08l-7.52,7.51,7.07,7.07a5,5,0,0,1,0,7.08h0a5,5,0,0,1-7.07,0h0L121,118.13l14.6-14.59a5,5,0,0,1,7.07,0Z" style="opacity:0.54"/><path d="M184.64,146.42h0a5,5,0,0,0-7.07,0h0l-7.07,7.07-7.08-7.07a5,5,0,0,0-7.07,0h0a5,5,0,0,0,0,7.07l14.15,14.14,14.15-14.14A5,5,0,0,0,184.64,146.42Zm14.14-14.14h0a5,5,0,0,1,0-7.07l7.08-7.08-7.08-7.07a5,5,0,0,1,0-7.07h0a5,5,0,0,1,7.08,0h0L220,118.13l-14.14,14.15a5,5,0,0,1-7.08,0Z" style="opacity:0.54"/><circle cx="170.43" cy="118.18" r="11.01" style="opacity:0.54"/><rect width="240" height="240" style="fill:none"/></g></g></svg>