<?xml version="1.0" encoding="utf-8"?>
<!-- Generator: Adobe Illustrator 25.0.1, SVG Export Plug-In . SVG Version: 6.00 Build 0)  -->
<svg version="1.1" id="Слой_1" xmlns="http://www.w3.org/2000/svg" xmlns:xlink="http://www.w3.org/1999/xlink" x="0px" y="0px"
	 viewBox="0 0 240 240" style="enable-background:new 0 0 240 240;" xml:space="preserve">
<style type="text/css">
	.st0{opacity:0.54;}
	.st1{fill:none;}
</style>
<g id="Слой_2_1_">
	<g id="Слой_1-2">
		<path class="st0" d="M207.4,35H33.2c-7.2,0-13,5.8-13,13v114.1c0,7.2,5.8,13,13,12.9h77.1v24h-35c-2.8,0-5,2.2-5,5s2.2,5,5,5h90
			c2.8,0,5-2.2,5-5s-2.2-5-5-5h-35V175h77c7.2,0,13-5.8,13-12.9V48C220.4,40.8,214.5,35,207.4,35C207.4,35,207.4,35,207.4,35z
			 M166.6,104.1l-32.4,31.4c-1,1-2.6,1-3.5,0c-0.5-0.5-0.7-1.1-0.7-1.7v-19.5c0,0-39.6-0.3-55.1,30.1c-0.2,0.5-0.8,0.7-1.3,0.4
			c-0.3-0.2-0.5-0.5-0.5-0.8c-0.1-13.6,3.7-57.7,57.1-57.7V68.8c0-1.2,1-2.2,2.3-2.2c0.6,0,1.1,0.2,1.5,0.6l32.6,32.6
			C167.8,101,167.8,102.9,166.6,104.1L166.6,104.1z"/>
		<rect class="st1" width="240" height="240"/>
	</g>
</g>
</svg>
