<svg xmlns="http://www.w3.org/2000/svg" viewBox="0 0 240 240"><g id="Слой_2" data-name="Слой 2"><g id="Слой_4" data-name="Слой 4"><g style="opacity:0.54"><rect width="240" height="240" style="fill:none"/><path d="M106.14,137.69,149.71,113a3.45,3.45,0,0,0,0-6L106.14,82.31a3.45,3.45,0,0,0-5.14,3v49.38A3.45,3.45,0,0,0,106.14,137.69Z"/><path d="M209,40H127V28a7,7,0,0,0-14,0V40H31A11,11,0,0,0,20,51V161.85A18.16,18.16,0,0,0,38.15,180h53L74,208.38a7,7,0,1,0,12,7.24L107.55,180H113v30a7,7,0,0,0,14,0V180h5.45L154,215.62a7,7,0,1,0,12-7.24L148.81,180h53A18.16,18.16,0,0,0,220,161.85V51A11,11,0,0,0,209,40Zm-3,121.85a4.15,4.15,0,0,1-4.15,4.15H38.15A4.15,4.15,0,0,1,34,161.85V54H206Z"/></g></g></g></svg>