<svg xmlns="http://www.w3.org/2000/svg" viewBox="0 0 240 240"><g id="Слой_2" data-name="Слой 2"><g id="Слой_4" data-name="Слой 4"><path d="M110.26,20H32.85A12.85,12.85,0,0,0,20,32.85V177.14A12.86,12.86,0,0,0,32.86,190H109V173.61a22.34,22.34,0,0,1,22.31-22.31H160V80ZM150,90H104a4,4,0,0,1-4-4V30h5.56L110,35.36,147,80l3,3.6Z" style="opacity:0.54"/><path d="M175.7,215.08V200.3H131.31A4.32,4.32,0,0,1,127,196V173.61a4.32,4.32,0,0,1,4.31-4.31H175.7V154.52a5,5,0,0,1,8.27-3.71l34.56,30.73a4.35,4.35,0,0,1,0,6.52L184,218.79A5,5,0,0,1,175.7,215.08Z" style="opacity:0.54"/><rect width="240" height="240" style="fill:none"/></g></g></svg>